M48
METRIC,LZ,000.000
;FILE_FORMAT=3:3
;TYPE=PLATED
;Layer: PTH_Through
;EasyEDA v6.5.54, 2026-03-22 16:28:19
;736e05e4acd94e0b9f36c1e704408de8,17207d9f925147dcae5d87ed66dba453,10
;Gerber Generator version 0.2
;Holesize 1 = 0.305 mm
T01C0.305
;Holesize 2 = 0.798 mm
T02C0.798
;Holesize 3 = 0.800 mm
T03C0.800
;Holesize 4 = 0.901 mm
T04C0.901
;Holesize 5 = 0.915 mm
T05C0.915
;Holesize 6 = 1.200 mm
T06C1.200
%
G05
G90
T01
X045627Y-057150
X063336Y-026886
T02
X033249Y-069342
X031267Y-069342
T03
X089056Y-065639G85X085856Y-065639
X085856Y-070439G85X089056Y-070439
T04
X051943Y-040640
X067183Y-043180
X067183Y-048261
X067183Y-053341
X067183Y-058421
X067183Y-063501
X067183Y-068581
X067183Y-073661
X051943Y-076200
X051943Y-071119
X051943Y-066039
X051943Y-060959
X051943Y-055879
X051943Y-050799
X051943Y-045720
X051943Y-043180
X051943Y-048260
X051943Y-053340
X051943Y-058420
X051943Y-063500
X051943Y-068580
X051943Y-073660
X067183Y-076200
X067183Y-071120
X067183Y-066040
X067183Y-060960
X067183Y-055880
X067183Y-050800
X067183Y-045720
X067183Y-040640
T05
X117409Y-033608
X117409Y-036148
X117409Y-038688
X117409Y-041228
X117409Y-043768
X043622Y-033481
X043622Y-036021
X043622Y-038561
X043622Y-041101
X043622Y-043641
X006477Y-005207
X114935Y-004826
X115062Y-075438
X006350Y-075311
T06
X061976Y-028067
X061976Y-025527
X059436Y-028067
X059436Y-025527
X056896Y-028067
X056896Y-025527
X054356Y-028067
X054359Y-025527
M30
