G04 Layer: BottomSilkscreenLayer*
G04 EasyEDA v6.5.54, 2026-03-22 16:28:19*
G04 736e05e4acd94e0b9f36c1e704408de8,17207d9f925147dcae5d87ed66dba453,10*
G04 Gerber Generator version 0.2*
G04 Scale: 100 percent, Rotated: No, Reflected: No *
G04 Dimensions in millimeters *
G04 leading zeros omitted , absolute positions ,4 integer and 5 decimal *
%FSLAX45Y45*%
%MOMM*%

%ADD10C,0.1524*%
%ADD11C,0.2032*%
%ADD12C,0.2540*%
%ADD13C,0.0187*%

%LPD*%
D10*
X8588756Y-5653278D02*
G01*
X8599170Y-5642863D01*
X8614663Y-5637784D01*
X8635491Y-5637784D01*
X8650986Y-5642863D01*
X8661400Y-5653278D01*
X8661400Y-5663692D01*
X8656320Y-5674105D01*
X8650986Y-5679439D01*
X8640572Y-5684520D01*
X8609329Y-5694934D01*
X8599170Y-5700013D01*
X8593836Y-5705347D01*
X8588756Y-5715762D01*
X8588756Y-5731255D01*
X8599170Y-5741670D01*
X8614663Y-5746750D01*
X8635491Y-5746750D01*
X8650986Y-5741670D01*
X8661400Y-5731255D01*
X8554465Y-5637784D02*
G01*
X8528304Y-5746750D01*
X8502395Y-5637784D02*
G01*
X8528304Y-5746750D01*
X8502395Y-5637784D02*
G01*
X8476488Y-5746750D01*
X8450579Y-5637784D02*
G01*
X8476488Y-5746750D01*
X8416290Y-5658612D02*
G01*
X8405875Y-5653278D01*
X8390127Y-5637784D01*
X8390127Y-5746750D01*
D11*
X8136127Y-7110221D02*
G01*
X8154670Y-7119365D01*
X8172958Y-7137908D01*
X8182356Y-7156450D01*
X8191500Y-7184136D01*
X8191500Y-7230110D01*
X8182356Y-7258050D01*
X8172958Y-7276337D01*
X8154670Y-7294879D01*
X8136127Y-7304023D01*
X8099043Y-7304023D01*
X8080756Y-7294879D01*
X8062213Y-7276337D01*
X8053070Y-7258050D01*
X8043672Y-7230110D01*
X8043672Y-7184136D01*
X8053070Y-7156450D01*
X8062213Y-7137908D01*
X8080756Y-7119365D01*
X8099043Y-7110221D01*
X8136127Y-7110221D01*
X8115300Y-5802121D02*
G01*
X8115300Y-5995923D01*
D10*
X3233420Y-6544563D02*
G01*
X3233420Y-6622542D01*
X3228340Y-6638036D01*
X3217925Y-6648450D01*
X3202177Y-6653529D01*
X3191763Y-6653529D01*
X3176270Y-6648450D01*
X3165856Y-6638036D01*
X3160775Y-6622542D01*
X3160775Y-6544563D01*
X3121152Y-6570471D02*
G01*
X3121152Y-6565392D01*
X3116072Y-6554978D01*
X3110738Y-6549644D01*
X3100324Y-6544563D01*
X3079750Y-6544563D01*
X3069336Y-6549644D01*
X3064002Y-6554978D01*
X3058922Y-6565392D01*
X3058922Y-6575805D01*
X3064002Y-6586220D01*
X3074415Y-6601713D01*
X3126486Y-6653529D01*
X3053588Y-6653529D01*
X3147059Y-7083297D02*
G01*
X3142488Y-7081012D01*
X3135629Y-7074154D01*
X3135629Y-7122668D01*
D12*
X9245600Y-5803900D02*
G01*
X8245602Y-5803900D01*
X8245602Y-7303896D01*
X9245600Y-7303896D01*
X9245600Y-5803900D01*
X3520440Y-6700520D02*
G01*
X2936240Y-6700520D01*
X2936240Y-6700520D02*
G01*
X2936240Y-7150100D01*
X2936240Y-7150100D02*
G01*
X3520440Y-7150100D01*
X3520440Y-7150100D02*
G01*
X3520440Y-6700520D01*
M02*
