G04 Layer: BottomLayer*
G04 EasyEDA v6.5.54, 2026-03-22 16:28:19*
G04 736e05e4acd94e0b9f36c1e704408de8,17207d9f925147dcae5d87ed66dba453,10*
G04 Gerber Generator version 0.2*
G04 Scale: 100 percent, Rotated: No, Reflected: No *
G04 Dimensions in millimeters *
G04 leading zeros omitted , absolute positions ,4 integer and 5 decimal *
%FSLAX45Y45*%
%MOMM*%

%AMMACRO1*21,1,$1,$2,0,0,$3*%
%AMMACRO2*4,1,6,2.2,1.625,2,1.825,-2,1.825,-2.2,1.625,-2.2,-1.825,2.2,-1.825,2.2,1.625,0*%
%AMMACRO3*4,1,6,-2.2,-1.625,-2,-1.825,2,-1.825,2.2,-1.625,2.2,1.825,-2.2,1.825,-2.2,-1.625,0*%
%ADD10C,0.2540*%
%ADD11C,1.3000*%
%ADD12C,1.5240*%
%ADD13C,1.8000*%
%ADD14MACRO1,1.8X1.8X0.0000*%
%ADD15R,1.6000X1.6000*%
%ADD16R,0.0168X1.6000*%
%ADD17C,1.6000*%
%ADD18MACRO2*%
%ADD19MACRO3*%
%ADD20MACRO1,2.159X1.1989X90.0000*%
%ADD21C,0.6096*%

%LPD*%
G36*
X5078222Y-6757873D02*
G01*
X5074310Y-6757111D01*
X5071059Y-6754875D01*
X5068824Y-6751574D01*
X5068062Y-6747713D01*
X5068062Y-6114846D01*
X5068824Y-6110935D01*
X5071059Y-6107633D01*
X5072532Y-6106160D01*
X5076190Y-6103823D01*
X5080508Y-6103213D01*
X5084673Y-6104483D01*
X5087924Y-6107379D01*
X5089702Y-6111341D01*
X5092090Y-6123330D01*
X5096510Y-6136487D01*
X5102656Y-6148882D01*
X5110327Y-6160414D01*
X5119471Y-6170828D01*
X5129885Y-6179972D01*
X5141417Y-6187643D01*
X5153812Y-6193790D01*
X5166918Y-6198209D01*
X5180533Y-6200952D01*
X5194350Y-6201816D01*
X5208168Y-6200952D01*
X5221732Y-6198209D01*
X5234889Y-6193790D01*
X5247284Y-6187643D01*
X5258816Y-6179972D01*
X5269230Y-6170828D01*
X5278374Y-6160414D01*
X5286044Y-6148882D01*
X5292191Y-6136487D01*
X5296611Y-6123330D01*
X5299303Y-6109766D01*
X5300218Y-6095949D01*
X5299303Y-6082131D01*
X5296611Y-6068568D01*
X5292191Y-6055410D01*
X5286044Y-6043015D01*
X5278374Y-6031484D01*
X5269230Y-6021070D01*
X5258816Y-6011926D01*
X5255209Y-6009538D01*
X5252161Y-6006338D01*
X5250738Y-6002070D01*
X5251297Y-5997651D01*
X5253685Y-5993892D01*
X5332069Y-5915507D01*
X5337200Y-5909310D01*
X5340756Y-5902604D01*
X5342940Y-5895390D01*
X5343753Y-5887364D01*
X5343753Y-5025085D01*
X5342940Y-5017058D01*
X5340756Y-5009845D01*
X5337200Y-5003190D01*
X5332069Y-4996942D01*
X5261152Y-4926076D01*
X5259730Y-4924856D01*
X5257038Y-4921453D01*
X5256022Y-4917186D01*
X5256885Y-4912918D01*
X5259476Y-4909362D01*
X5269179Y-4900879D01*
X5278323Y-4890465D01*
X5285994Y-4878933D01*
X5289245Y-4872329D01*
X5240629Y-4872329D01*
X5240629Y-4904232D01*
X5239867Y-4908143D01*
X5237683Y-4911394D01*
X5234381Y-4913630D01*
X5230469Y-4914392D01*
X5184800Y-4914392D01*
X5180888Y-4913630D01*
X5177586Y-4911394D01*
X5150916Y-4884724D01*
X5148732Y-4881422D01*
X5147970Y-4877562D01*
X5147970Y-4872329D01*
X5142738Y-4872329D01*
X5138877Y-4871567D01*
X5135575Y-4869383D01*
X5127802Y-4861610D01*
X5125567Y-4858308D01*
X5124805Y-4854397D01*
X5124805Y-4789830D01*
X5125567Y-4785918D01*
X5127802Y-4782616D01*
X5131054Y-4780432D01*
X5134965Y-4779670D01*
X5147970Y-4779670D01*
X5147970Y-4731054D01*
X5140604Y-4734814D01*
X5136540Y-4736388D01*
X5132222Y-4736134D01*
X5128361Y-4734052D01*
X5125720Y-4730597D01*
X5124805Y-4726330D01*
X5124805Y-4671568D01*
X5125720Y-4667300D01*
X5128361Y-4663846D01*
X5132222Y-4661814D01*
X5136540Y-4661560D01*
X5141417Y-4663643D01*
X5153812Y-4669790D01*
X5166918Y-4674209D01*
X5180533Y-4676952D01*
X5194350Y-4677816D01*
X5208168Y-4676952D01*
X5221732Y-4674209D01*
X5234889Y-4669790D01*
X5247284Y-4663643D01*
X5258816Y-4655972D01*
X5269230Y-4646828D01*
X5278374Y-4636414D01*
X5286044Y-4624882D01*
X5292191Y-4612487D01*
X5296611Y-4599381D01*
X5299303Y-4585766D01*
X5300218Y-4571949D01*
X5299303Y-4558131D01*
X5296611Y-4544568D01*
X5292191Y-4531410D01*
X5286044Y-4519015D01*
X5278374Y-4507484D01*
X5269230Y-4497070D01*
X5258816Y-4487926D01*
X5247284Y-4480255D01*
X5234889Y-4474108D01*
X5221732Y-4469688D01*
X5208168Y-4466996D01*
X5194350Y-4466082D01*
X5180533Y-4466996D01*
X5166918Y-4469688D01*
X5153812Y-4474108D01*
X5141417Y-4480255D01*
X5136540Y-4482388D01*
X5132222Y-4482134D01*
X5128361Y-4480052D01*
X5125720Y-4476597D01*
X5124805Y-4472330D01*
X5124805Y-4417669D01*
X5125720Y-4413402D01*
X5128361Y-4409948D01*
X5132222Y-4407865D01*
X5136540Y-4407611D01*
X5141366Y-4409694D01*
X5153761Y-4415840D01*
X5166868Y-4420260D01*
X5180482Y-4423003D01*
X5194300Y-4423867D01*
X5208117Y-4423003D01*
X5221681Y-4420260D01*
X5234838Y-4415840D01*
X5247233Y-4409694D01*
X5258765Y-4402023D01*
X5269179Y-4392879D01*
X5278323Y-4382465D01*
X5285994Y-4370933D01*
X5292140Y-4358538D01*
X5296560Y-4345381D01*
X5299252Y-4331817D01*
X5300167Y-4318000D01*
X5299252Y-4304182D01*
X5296560Y-4290618D01*
X5292140Y-4277461D01*
X5285994Y-4265066D01*
X5278323Y-4253534D01*
X5269179Y-4243120D01*
X5258765Y-4233976D01*
X5247233Y-4226306D01*
X5234838Y-4220159D01*
X5221681Y-4215739D01*
X5208117Y-4212996D01*
X5194300Y-4212132D01*
X5180482Y-4212996D01*
X5166868Y-4215739D01*
X5153761Y-4220159D01*
X5141366Y-4226306D01*
X5136540Y-4228388D01*
X5132222Y-4228134D01*
X5128361Y-4226052D01*
X5125720Y-4222597D01*
X5124805Y-4218330D01*
X5124805Y-4180078D01*
X5125567Y-4176166D01*
X5127802Y-4172864D01*
X5131054Y-4170679D01*
X5134965Y-4169918D01*
X5273751Y-4169918D01*
X5280050Y-4169206D01*
X5285536Y-4167276D01*
X5290413Y-4164228D01*
X5294528Y-4160113D01*
X5297576Y-4155236D01*
X5299506Y-4149750D01*
X5300218Y-4143451D01*
X5300218Y-3984548D01*
X5299506Y-3978249D01*
X5297576Y-3972763D01*
X5294528Y-3967886D01*
X5290413Y-3963771D01*
X5285536Y-3960723D01*
X5280050Y-3958793D01*
X5273751Y-3958082D01*
X5134965Y-3958082D01*
X5131054Y-3957320D01*
X5127802Y-3955135D01*
X5125567Y-3951833D01*
X5124805Y-3947922D01*
X5124805Y-2691688D01*
X5125567Y-2687828D01*
X5127802Y-2684526D01*
X5302605Y-2509672D01*
X5305907Y-2507488D01*
X5309819Y-2506726D01*
X5313680Y-2507488D01*
X5316982Y-2509672D01*
X5319166Y-2512974D01*
X5319979Y-2516886D01*
X5319979Y-2642108D01*
X5320690Y-2648458D01*
X5322570Y-2653893D01*
X5325668Y-2658821D01*
X5329732Y-2662885D01*
X5334660Y-2665984D01*
X5340096Y-2667914D01*
X5346446Y-2668625D01*
X5513933Y-2668625D01*
X5518048Y-2669489D01*
X5521452Y-2671927D01*
X5523585Y-2675585D01*
X5523992Y-2680208D01*
X5523992Y-2707995D01*
X5523026Y-2712313D01*
X5520283Y-2715818D01*
X5516372Y-2717850D01*
X5511952Y-2718003D01*
X5507837Y-2716225D01*
X5497728Y-2708859D01*
X5486958Y-2702966D01*
X5486958Y-2755341D01*
X5513832Y-2755341D01*
X5517743Y-2756103D01*
X5520994Y-2758338D01*
X5523230Y-2761640D01*
X5523992Y-2765501D01*
X5523992Y-2847898D01*
X5523230Y-2851759D01*
X5520994Y-2855061D01*
X5517743Y-2857296D01*
X5513832Y-2858058D01*
X5486958Y-2858058D01*
X5486958Y-2910433D01*
X5497728Y-2904540D01*
X5507837Y-2897174D01*
X5511952Y-2895396D01*
X5516372Y-2895549D01*
X5520283Y-2897581D01*
X5523026Y-2901086D01*
X5523992Y-2905404D01*
X5523992Y-6385864D01*
X5523230Y-6389776D01*
X5520994Y-6393078D01*
X5316677Y-6597396D01*
X5313527Y-6599529D01*
X5309717Y-6600342D01*
X5305958Y-6599732D01*
X5302656Y-6597700D01*
X5300370Y-6594602D01*
X5299303Y-6590131D01*
X5296611Y-6576568D01*
X5292191Y-6563410D01*
X5286044Y-6551015D01*
X5278374Y-6539484D01*
X5269230Y-6529070D01*
X5258816Y-6519926D01*
X5247284Y-6512255D01*
X5234889Y-6506108D01*
X5221732Y-6501688D01*
X5208168Y-6498945D01*
X5194350Y-6498082D01*
X5180533Y-6498945D01*
X5166918Y-6501688D01*
X5153812Y-6506108D01*
X5141417Y-6512255D01*
X5129885Y-6519926D01*
X5119471Y-6529070D01*
X5110327Y-6539484D01*
X5102656Y-6551015D01*
X5096510Y-6563410D01*
X5092090Y-6576568D01*
X5089347Y-6590131D01*
X5088483Y-6603949D01*
X5089347Y-6617766D01*
X5092090Y-6631330D01*
X5096510Y-6644487D01*
X5102656Y-6656882D01*
X5110327Y-6668414D01*
X5119471Y-6678828D01*
X5129885Y-6687972D01*
X5133035Y-6690055D01*
X5136134Y-6693306D01*
X5137505Y-6697522D01*
X5136997Y-6701942D01*
X5134610Y-6705701D01*
X5085384Y-6754875D01*
X5082133Y-6757111D01*
G37*

%LPC*%
G36*
X5194300Y-6455867D02*
G01*
X5208117Y-6454952D01*
X5221681Y-6452260D01*
X5234838Y-6447840D01*
X5247233Y-6441694D01*
X5258765Y-6434023D01*
X5269179Y-6424879D01*
X5278323Y-6414465D01*
X5285994Y-6402933D01*
X5292140Y-6390538D01*
X5296560Y-6377381D01*
X5299252Y-6363817D01*
X5300167Y-6350000D01*
X5299252Y-6336182D01*
X5296560Y-6322568D01*
X5292140Y-6309461D01*
X5285994Y-6297066D01*
X5278323Y-6285534D01*
X5269179Y-6275120D01*
X5258765Y-6265976D01*
X5247233Y-6258306D01*
X5234838Y-6252159D01*
X5221681Y-6247739D01*
X5208117Y-6244996D01*
X5194300Y-6244132D01*
X5180482Y-6244996D01*
X5166868Y-6247739D01*
X5153761Y-6252159D01*
X5141366Y-6258306D01*
X5129834Y-6265976D01*
X5119420Y-6275120D01*
X5110276Y-6285534D01*
X5102606Y-6297066D01*
X5096459Y-6309461D01*
X5092039Y-6322568D01*
X5089296Y-6336182D01*
X5088432Y-6350000D01*
X5089296Y-6363817D01*
X5092039Y-6377381D01*
X5096459Y-6390538D01*
X5102606Y-6402933D01*
X5110276Y-6414465D01*
X5119420Y-6424879D01*
X5129834Y-6434023D01*
X5141366Y-6441694D01*
X5153761Y-6447840D01*
X5166868Y-6452260D01*
X5180482Y-6454952D01*
G37*
G36*
X5240629Y-4779670D02*
G01*
X5289245Y-4779670D01*
X5285994Y-4773066D01*
X5278323Y-4761534D01*
X5269179Y-4751120D01*
X5258765Y-4741976D01*
X5247233Y-4734306D01*
X5240629Y-4731054D01*
G37*
G36*
X5384241Y-2910433D02*
G01*
X5384241Y-2858058D01*
X5331968Y-2858058D01*
X5334050Y-2862529D01*
X5341874Y-2874822D01*
X5351119Y-2886049D01*
X5361736Y-2896006D01*
X5373522Y-2904540D01*
G37*
G36*
X5331968Y-2755341D02*
G01*
X5384241Y-2755341D01*
X5384241Y-2702966D01*
X5373522Y-2708859D01*
X5361736Y-2717393D01*
X5351119Y-2727350D01*
X5341874Y-2738577D01*
X5334050Y-2750870D01*
G37*

%LPD*%
G36*
X36068Y-7974075D02*
G01*
X32156Y-7973314D01*
X28905Y-7971078D01*
X26670Y-7967827D01*
X25908Y-7963916D01*
X25908Y-36068D01*
X26670Y-32156D01*
X28905Y-28905D01*
X32156Y-26670D01*
X36068Y-25908D01*
X5096916Y-25908D01*
X5100726Y-26670D01*
X5103977Y-28752D01*
X5106212Y-31953D01*
X5107076Y-35712D01*
X5130800Y-717397D01*
X5130800Y-2164334D01*
X5131714Y-2165350D01*
X5958179Y-2153869D01*
X5962142Y-2154580D01*
X5965444Y-2156764D01*
X5967730Y-2160117D01*
X5968492Y-2164029D01*
X5968492Y-2382875D01*
X5967730Y-2386736D01*
X5965494Y-2390038D01*
X5962243Y-2392222D01*
X5958332Y-2393035D01*
X5326583Y-2393035D01*
X5318556Y-2393797D01*
X5311343Y-2395982D01*
X5304637Y-2399538D01*
X5298440Y-2404668D01*
X5059273Y-2643835D01*
X5054142Y-2650083D01*
X5050586Y-2656738D01*
X5048402Y-2663952D01*
X5047589Y-2671978D01*
X5047589Y-4874107D01*
X5048402Y-4882134D01*
X5050586Y-4889347D01*
X5054142Y-4896053D01*
X5059273Y-4902250D01*
X5134965Y-4977942D01*
X5137302Y-4981702D01*
X5137861Y-4986121D01*
X5136489Y-4990388D01*
X5133390Y-4993589D01*
X5129885Y-4995926D01*
X5119471Y-5005070D01*
X5110327Y-5015484D01*
X5102656Y-5027015D01*
X5096510Y-5039410D01*
X5092090Y-5052568D01*
X5089347Y-5066131D01*
X5088483Y-5079949D01*
X5089347Y-5093766D01*
X5092090Y-5107330D01*
X5096510Y-5120487D01*
X5102656Y-5132882D01*
X5110327Y-5144414D01*
X5119471Y-5154828D01*
X5129885Y-5163972D01*
X5141417Y-5171643D01*
X5153812Y-5177790D01*
X5166918Y-5182209D01*
X5180533Y-5184952D01*
X5194350Y-5185816D01*
X5208168Y-5184952D01*
X5221732Y-5182209D01*
X5234889Y-5177790D01*
X5247284Y-5171643D01*
X5250688Y-5169357D01*
X5254752Y-5167782D01*
X5259120Y-5168036D01*
X5262930Y-5170068D01*
X5265572Y-5173573D01*
X5266537Y-5177790D01*
X5266537Y-5236159D01*
X5265572Y-5240426D01*
X5262930Y-5243880D01*
X5259120Y-5245963D01*
X5254752Y-5246217D01*
X5250688Y-5244592D01*
X5247233Y-5242306D01*
X5234838Y-5236159D01*
X5221681Y-5231739D01*
X5208117Y-5228996D01*
X5194300Y-5228132D01*
X5180482Y-5228996D01*
X5166868Y-5231739D01*
X5153761Y-5236159D01*
X5141366Y-5242306D01*
X5129834Y-5249976D01*
X5119420Y-5259120D01*
X5110276Y-5269534D01*
X5102606Y-5281066D01*
X5096459Y-5293461D01*
X5092039Y-5306618D01*
X5089296Y-5320182D01*
X5088432Y-5334000D01*
X5089296Y-5347817D01*
X5092039Y-5361381D01*
X5096459Y-5374538D01*
X5102606Y-5386933D01*
X5110276Y-5398465D01*
X5119420Y-5408879D01*
X5129834Y-5418023D01*
X5141366Y-5425694D01*
X5153761Y-5431840D01*
X5166868Y-5436260D01*
X5180482Y-5439003D01*
X5194300Y-5439867D01*
X5208117Y-5439003D01*
X5221681Y-5436260D01*
X5234838Y-5431840D01*
X5247233Y-5425694D01*
X5250688Y-5423408D01*
X5254752Y-5421782D01*
X5259120Y-5422036D01*
X5262930Y-5424119D01*
X5265572Y-5427573D01*
X5266537Y-5431840D01*
X5266537Y-5490108D01*
X5265572Y-5494324D01*
X5262930Y-5497830D01*
X5259120Y-5499862D01*
X5254752Y-5500116D01*
X5250688Y-5498541D01*
X5247284Y-5496255D01*
X5234889Y-5490108D01*
X5221732Y-5485688D01*
X5208168Y-5482945D01*
X5194350Y-5482082D01*
X5180533Y-5482945D01*
X5166918Y-5485688D01*
X5153812Y-5490108D01*
X5141417Y-5496255D01*
X5129885Y-5503926D01*
X5119471Y-5513070D01*
X5110327Y-5523484D01*
X5102656Y-5535015D01*
X5096510Y-5547410D01*
X5092090Y-5560517D01*
X5089347Y-5574131D01*
X5088483Y-5587949D01*
X5089347Y-5601766D01*
X5092090Y-5615330D01*
X5096510Y-5628487D01*
X5102656Y-5640882D01*
X5110327Y-5652414D01*
X5119471Y-5662828D01*
X5129885Y-5671972D01*
X5141417Y-5679643D01*
X5153812Y-5685790D01*
X5166918Y-5690209D01*
X5180533Y-5692902D01*
X5194350Y-5693816D01*
X5208168Y-5692902D01*
X5221732Y-5690209D01*
X5234889Y-5685790D01*
X5247284Y-5679643D01*
X5250688Y-5677357D01*
X5254752Y-5675782D01*
X5259120Y-5676036D01*
X5262930Y-5678068D01*
X5265572Y-5681573D01*
X5266537Y-5685790D01*
X5266537Y-5744159D01*
X5265572Y-5748426D01*
X5262930Y-5751880D01*
X5259120Y-5753963D01*
X5254752Y-5754217D01*
X5250688Y-5752592D01*
X5247233Y-5750306D01*
X5234838Y-5744159D01*
X5221681Y-5739739D01*
X5208117Y-5736996D01*
X5194300Y-5736132D01*
X5180482Y-5736996D01*
X5166868Y-5739739D01*
X5157724Y-5742838D01*
X5154015Y-5743346D01*
X5150358Y-5742482D01*
X5147310Y-5740400D01*
X4610658Y-5203748D01*
X4608474Y-5200446D01*
X4607712Y-5196586D01*
X4607712Y-3555492D01*
X4606899Y-3547465D01*
X4604715Y-3540251D01*
X4601159Y-3533546D01*
X4596028Y-3527348D01*
X4460798Y-3392119D01*
X4458665Y-3388969D01*
X4457852Y-3385312D01*
X4458411Y-3381603D01*
X4460646Y-3375050D01*
X4463389Y-3361690D01*
X4464304Y-3348126D01*
X4463389Y-3334512D01*
X4460646Y-3321151D01*
X4456176Y-3308248D01*
X4450029Y-3296056D01*
X4442307Y-3284829D01*
X4433163Y-3274720D01*
X4422749Y-3265932D01*
X4411268Y-3258565D01*
X4398873Y-3252825D01*
X4385868Y-3248812D01*
X4372406Y-3246526D01*
X4358792Y-3246069D01*
X4345228Y-3247440D01*
X4331970Y-3250590D01*
X4319219Y-3255517D01*
X4307281Y-3262071D01*
X4296308Y-3270148D01*
X4286504Y-3279648D01*
X4278020Y-3290315D01*
X4271060Y-3302050D01*
X4265777Y-3314598D01*
X4262170Y-3327755D01*
X4260342Y-3341268D01*
X4260342Y-3354933D01*
X4262170Y-3368446D01*
X4265777Y-3381603D01*
X4271060Y-3394151D01*
X4278020Y-3405886D01*
X4286504Y-3416554D01*
X4296308Y-3426053D01*
X4307281Y-3434130D01*
X4319219Y-3440684D01*
X4331970Y-3445611D01*
X4345228Y-3448761D01*
X4358792Y-3450132D01*
X4372406Y-3449675D01*
X4385868Y-3447389D01*
X4396079Y-3444240D01*
X4399686Y-3443782D01*
X4403242Y-3444697D01*
X4406239Y-3446779D01*
X4527499Y-3567988D01*
X4529683Y-3571290D01*
X4530496Y-3575202D01*
X4530496Y-5216296D01*
X4531258Y-5224322D01*
X4533442Y-5231536D01*
X4536998Y-5238191D01*
X4542129Y-5244439D01*
X5092700Y-5795010D01*
X5094782Y-5798058D01*
X5095646Y-5801715D01*
X5095138Y-5805424D01*
X5092039Y-5814568D01*
X5089296Y-5828182D01*
X5088432Y-5842000D01*
X5089296Y-5855817D01*
X5092039Y-5869381D01*
X5096459Y-5882538D01*
X5102606Y-5894933D01*
X5110276Y-5906465D01*
X5119420Y-5916879D01*
X5129123Y-5925362D01*
X5131714Y-5928918D01*
X5132578Y-5933186D01*
X5131562Y-5937453D01*
X5128869Y-5940856D01*
X5127447Y-5942076D01*
X5002530Y-6066993D01*
X4997399Y-6073190D01*
X4993843Y-6079896D01*
X4991658Y-6087110D01*
X4990846Y-6095136D01*
X4990846Y-7454646D01*
X4991658Y-7462672D01*
X4993843Y-7469886D01*
X4997399Y-7476591D01*
X5002530Y-7482789D01*
X5092700Y-7573009D01*
X5094782Y-7576108D01*
X5095646Y-7579715D01*
X5095138Y-7583424D01*
X5092039Y-7592618D01*
X5089296Y-7606182D01*
X5088432Y-7620000D01*
X5089296Y-7633817D01*
X5092039Y-7647381D01*
X5096459Y-7660538D01*
X5102606Y-7672933D01*
X5110276Y-7684465D01*
X5119420Y-7694879D01*
X5129834Y-7704023D01*
X5141366Y-7711694D01*
X5153761Y-7717840D01*
X5166918Y-7722260D01*
X5180482Y-7725003D01*
X5194300Y-7725867D01*
X5208117Y-7725003D01*
X5221681Y-7722260D01*
X5234838Y-7717840D01*
X5247233Y-7711694D01*
X5258765Y-7704023D01*
X5269179Y-7694879D01*
X5278323Y-7684465D01*
X5285994Y-7672933D01*
X5292140Y-7660538D01*
X5296560Y-7647381D01*
X5299303Y-7633817D01*
X5300167Y-7620000D01*
X5299303Y-7606182D01*
X5296560Y-7592618D01*
X5292140Y-7579461D01*
X5285994Y-7567066D01*
X5278323Y-7555534D01*
X5269179Y-7545120D01*
X5258765Y-7535976D01*
X5247233Y-7528306D01*
X5234838Y-7522159D01*
X5221681Y-7517739D01*
X5208117Y-7514996D01*
X5194300Y-7514132D01*
X5180482Y-7514996D01*
X5166918Y-7517739D01*
X5157724Y-7520838D01*
X5154015Y-7521346D01*
X5150408Y-7520482D01*
X5147310Y-7518400D01*
X5071059Y-7442149D01*
X5068824Y-7438847D01*
X5068062Y-7434935D01*
X5068062Y-7064908D01*
X5068824Y-7060996D01*
X5071059Y-7057694D01*
X5074310Y-7055510D01*
X5078222Y-7054748D01*
X5082133Y-7055510D01*
X5085384Y-7057694D01*
X5092700Y-7065009D01*
X5094833Y-7068108D01*
X5095697Y-7071766D01*
X5095138Y-7075474D01*
X5092090Y-7084568D01*
X5089347Y-7098131D01*
X5088483Y-7111949D01*
X5089347Y-7125766D01*
X5092090Y-7139330D01*
X5096510Y-7152487D01*
X5102656Y-7164882D01*
X5110327Y-7176414D01*
X5119471Y-7186828D01*
X5129885Y-7195972D01*
X5141417Y-7203643D01*
X5153812Y-7209790D01*
X5166918Y-7214209D01*
X5180533Y-7216952D01*
X5194350Y-7217816D01*
X5208168Y-7216952D01*
X5221732Y-7214209D01*
X5234889Y-7209790D01*
X5247284Y-7203643D01*
X5258816Y-7195972D01*
X5269230Y-7186828D01*
X5278374Y-7176414D01*
X5286044Y-7164882D01*
X5292191Y-7152487D01*
X5296611Y-7139330D01*
X5299303Y-7125766D01*
X5300218Y-7111949D01*
X5299303Y-7098131D01*
X5296611Y-7084568D01*
X5292191Y-7071410D01*
X5286044Y-7059015D01*
X5278374Y-7047484D01*
X5269230Y-7037070D01*
X5258816Y-7027925D01*
X5247284Y-7020255D01*
X5234889Y-7014108D01*
X5221732Y-7009688D01*
X5208168Y-7006945D01*
X5194350Y-7006081D01*
X5180533Y-7006945D01*
X5166918Y-7009688D01*
X5157724Y-7012787D01*
X5154015Y-7013346D01*
X5150358Y-7012482D01*
X5147259Y-7010349D01*
X5117846Y-6980936D01*
X5115610Y-6977634D01*
X5114848Y-6973722D01*
X5114848Y-6951014D01*
X5115763Y-6946747D01*
X5118404Y-6943293D01*
X5122265Y-6941210D01*
X5126583Y-6940956D01*
X5130647Y-6942531D01*
X5141366Y-6949694D01*
X5153761Y-6955840D01*
X5166868Y-6960260D01*
X5180482Y-6962952D01*
X5194300Y-6963867D01*
X5208117Y-6962952D01*
X5221681Y-6960260D01*
X5234838Y-6955840D01*
X5247233Y-6949694D01*
X5258765Y-6942023D01*
X5269179Y-6932879D01*
X5278323Y-6922465D01*
X5285994Y-6910933D01*
X5292140Y-6898538D01*
X5296560Y-6885381D01*
X5299252Y-6871817D01*
X5300167Y-6858000D01*
X5299252Y-6844182D01*
X5296560Y-6830568D01*
X5293461Y-6821424D01*
X5292953Y-6817715D01*
X5293766Y-6814108D01*
X5295900Y-6811009D01*
X5716524Y-6390335D01*
X5721654Y-6384137D01*
X5725210Y-6377432D01*
X5727395Y-6370218D01*
X5728208Y-6362192D01*
X5728208Y-2922727D01*
X5729020Y-2918764D01*
X5731256Y-2915462D01*
X5734608Y-2913278D01*
X5738977Y-2911551D01*
X5751728Y-2904540D01*
X5761837Y-2897174D01*
X5765952Y-2895396D01*
X5770372Y-2895549D01*
X5774283Y-2897581D01*
X5777026Y-2901086D01*
X5777992Y-2905404D01*
X5777992Y-6723481D01*
X5777230Y-6727393D01*
X5774994Y-6730695D01*
X5241290Y-7264400D01*
X5238242Y-7266482D01*
X5234584Y-7267346D01*
X5230876Y-7266838D01*
X5221681Y-7263739D01*
X5208117Y-7260996D01*
X5194300Y-7260132D01*
X5180482Y-7260996D01*
X5166868Y-7263739D01*
X5153761Y-7268159D01*
X5141366Y-7274306D01*
X5129834Y-7281976D01*
X5119420Y-7291120D01*
X5110276Y-7301534D01*
X5102606Y-7313066D01*
X5096459Y-7325461D01*
X5092039Y-7338568D01*
X5089296Y-7352182D01*
X5088432Y-7366000D01*
X5089296Y-7379817D01*
X5092039Y-7393381D01*
X5096459Y-7406538D01*
X5102606Y-7418933D01*
X5110276Y-7430465D01*
X5119420Y-7440879D01*
X5129834Y-7450023D01*
X5141366Y-7457694D01*
X5153761Y-7463840D01*
X5166868Y-7468260D01*
X5180482Y-7470952D01*
X5194300Y-7471867D01*
X5208117Y-7470952D01*
X5221681Y-7468260D01*
X5234838Y-7463840D01*
X5247233Y-7457694D01*
X5258765Y-7450023D01*
X5269179Y-7440879D01*
X5278323Y-7430465D01*
X5285994Y-7418933D01*
X5292140Y-7406538D01*
X5296560Y-7393381D01*
X5299252Y-7379817D01*
X5300167Y-7366000D01*
X5299252Y-7352182D01*
X5296560Y-7338568D01*
X5293461Y-7329424D01*
X5292953Y-7325715D01*
X5293766Y-7322108D01*
X5295900Y-7319009D01*
X5843524Y-6771335D01*
X5848654Y-6765137D01*
X5852210Y-6758431D01*
X5854395Y-6751218D01*
X5855208Y-6743192D01*
X5855208Y-2905353D01*
X5856173Y-2901035D01*
X5858916Y-2897530D01*
X5862828Y-2895549D01*
X5867247Y-2895396D01*
X5871362Y-2897174D01*
X5881522Y-2904540D01*
X5894273Y-2911551D01*
X5898591Y-2913278D01*
X5901944Y-2915462D01*
X5904179Y-2918764D01*
X5904992Y-2922727D01*
X5904992Y-6844792D01*
X5905804Y-6852818D01*
X5907989Y-6860031D01*
X5911545Y-6866737D01*
X5916676Y-6872935D01*
X6616700Y-7573009D01*
X6618782Y-7576058D01*
X6619646Y-7579715D01*
X6619138Y-7583424D01*
X6616039Y-7592618D01*
X6613296Y-7606182D01*
X6612432Y-7620000D01*
X6613296Y-7633817D01*
X6616039Y-7647431D01*
X6620459Y-7660538D01*
X6626606Y-7672933D01*
X6634276Y-7684465D01*
X6643420Y-7694879D01*
X6653834Y-7704023D01*
X6665366Y-7711694D01*
X6677761Y-7717840D01*
X6690868Y-7722260D01*
X6704482Y-7725003D01*
X6718300Y-7725867D01*
X6732117Y-7725003D01*
X6745681Y-7722260D01*
X6758838Y-7717840D01*
X6771233Y-7711694D01*
X6782765Y-7704023D01*
X6793179Y-7694879D01*
X6802323Y-7684465D01*
X6809994Y-7672933D01*
X6816140Y-7660538D01*
X6820560Y-7647431D01*
X6823252Y-7633817D01*
X6824167Y-7620000D01*
X6823252Y-7606182D01*
X6820560Y-7592618D01*
X6816140Y-7579461D01*
X6809994Y-7567066D01*
X6802323Y-7555534D01*
X6793179Y-7545120D01*
X6782765Y-7535976D01*
X6771233Y-7528306D01*
X6758838Y-7522159D01*
X6745681Y-7517739D01*
X6732117Y-7515047D01*
X6718300Y-7514132D01*
X6704482Y-7515047D01*
X6690868Y-7517739D01*
X6681724Y-7520838D01*
X6678015Y-7521346D01*
X6674408Y-7520533D01*
X6671309Y-7518400D01*
X5985205Y-6832295D01*
X5982970Y-6828993D01*
X5982208Y-6825081D01*
X5982208Y-2922727D01*
X5983020Y-2918764D01*
X5985256Y-2915462D01*
X5988608Y-2913278D01*
X5992977Y-2911551D01*
X6005728Y-2904540D01*
X6017463Y-2896006D01*
X6028080Y-2886049D01*
X6037376Y-2874822D01*
X6045149Y-2862529D01*
X6051346Y-2849372D01*
X6055868Y-2835503D01*
X6058611Y-2821228D01*
X6059525Y-2806700D01*
X6058611Y-2792171D01*
X6055868Y-2777896D01*
X6051346Y-2764028D01*
X6045149Y-2750870D01*
X6037376Y-2738577D01*
X6028080Y-2727350D01*
X6017463Y-2717393D01*
X6005728Y-2708859D01*
X5992977Y-2701848D01*
X5979414Y-2696464D01*
X5965342Y-2692857D01*
X5950864Y-2691028D01*
X5936335Y-2691028D01*
X5921908Y-2692857D01*
X5907786Y-2696464D01*
X5894273Y-2701848D01*
X5881522Y-2708859D01*
X5871362Y-2716225D01*
X5867247Y-2718003D01*
X5862828Y-2717850D01*
X5858916Y-2715869D01*
X5856173Y-2712364D01*
X5855208Y-2708046D01*
X5855208Y-2699918D01*
X5855970Y-2696057D01*
X5858205Y-2692755D01*
X5888888Y-2662021D01*
X5892139Y-2659837D01*
X5896000Y-2659024D01*
X5899810Y-2659735D01*
X5907786Y-2662936D01*
X5921908Y-2666542D01*
X5936335Y-2668371D01*
X5950864Y-2668371D01*
X5965342Y-2666542D01*
X5979414Y-2662936D01*
X5992977Y-2657551D01*
X6005728Y-2650540D01*
X6016040Y-2643022D01*
X6020104Y-2641295D01*
X6024524Y-2641447D01*
X6028486Y-2643428D01*
X6031179Y-2646934D01*
X6032195Y-2651252D01*
X6032195Y-2679395D01*
X6032957Y-2687421D01*
X6035141Y-2694635D01*
X6038697Y-2701340D01*
X6043828Y-2707538D01*
X6088176Y-2751886D01*
X6090412Y-2755341D01*
X6091123Y-2759405D01*
X6089853Y-2764028D01*
X6085382Y-2777896D01*
X6082639Y-2792171D01*
X6081725Y-2806700D01*
X6082639Y-2821228D01*
X6085382Y-2835503D01*
X6089853Y-2849372D01*
X6096050Y-2862529D01*
X6103874Y-2874822D01*
X6113119Y-2886049D01*
X6123736Y-2896006D01*
X6135522Y-2904540D01*
X6148273Y-2911551D01*
X6161786Y-2916936D01*
X6175908Y-2920542D01*
X6190335Y-2922371D01*
X6204864Y-2922371D01*
X6219342Y-2920542D01*
X6233414Y-2916936D01*
X6246977Y-2911551D01*
X6259728Y-2904540D01*
X6271463Y-2896006D01*
X6277864Y-2890012D01*
X6281166Y-2887929D01*
X6285026Y-2887268D01*
X6288836Y-2888081D01*
X6292088Y-2890316D01*
X6294221Y-2893568D01*
X6294983Y-2897428D01*
X6294983Y-6980783D01*
X6295796Y-6988809D01*
X6297980Y-6996023D01*
X6301536Y-7002729D01*
X6306667Y-7008926D01*
X6616750Y-7319060D01*
X6618833Y-7322108D01*
X6619697Y-7325766D01*
X6619189Y-7329474D01*
X6616090Y-7338669D01*
X6613347Y-7352233D01*
X6612483Y-7366050D01*
X6613347Y-7379868D01*
X6616090Y-7393482D01*
X6620509Y-7406589D01*
X6626656Y-7418984D01*
X6634327Y-7430516D01*
X6643471Y-7440930D01*
X6653885Y-7450074D01*
X6665417Y-7457744D01*
X6677812Y-7463891D01*
X6690918Y-7468311D01*
X6704533Y-7471054D01*
X6718350Y-7471918D01*
X6732168Y-7471054D01*
X6745731Y-7468311D01*
X6758889Y-7463891D01*
X6771284Y-7457744D01*
X6782816Y-7450074D01*
X6793230Y-7440930D01*
X6802374Y-7430516D01*
X6810044Y-7418984D01*
X6816191Y-7406589D01*
X6820611Y-7393482D01*
X6823303Y-7379868D01*
X6824218Y-7366050D01*
X6823303Y-7352233D01*
X6820611Y-7338669D01*
X6816191Y-7325512D01*
X6810044Y-7313117D01*
X6802374Y-7301585D01*
X6793230Y-7291171D01*
X6782816Y-7282027D01*
X6771284Y-7274356D01*
X6758889Y-7268209D01*
X6745731Y-7263790D01*
X6732168Y-7261098D01*
X6718350Y-7260183D01*
X6704533Y-7261098D01*
X6690918Y-7263790D01*
X6681774Y-7266889D01*
X6678066Y-7267397D01*
X6674459Y-7266584D01*
X6671360Y-7264450D01*
X6375196Y-6968286D01*
X6372961Y-6964984D01*
X6372199Y-6961073D01*
X6372199Y-2733649D01*
X6372961Y-2729738D01*
X6375196Y-2726436D01*
X6376771Y-2724861D01*
X6382410Y-2716834D01*
X6386525Y-2707894D01*
X6389065Y-2698445D01*
X6389928Y-2688640D01*
X6389065Y-2678836D01*
X6386525Y-2669387D01*
X6382410Y-2660446D01*
X6376771Y-2652420D01*
X6369812Y-2645460D01*
X6361785Y-2639822D01*
X6352844Y-2635707D01*
X6343396Y-2633167D01*
X6333591Y-2632303D01*
X6323787Y-2633167D01*
X6314338Y-2635707D01*
X6305397Y-2639822D01*
X6296406Y-2646273D01*
X6290411Y-2652420D01*
X6284772Y-2660446D01*
X6280658Y-2669387D01*
X6278118Y-2678836D01*
X6277254Y-2688640D01*
X6278118Y-2698445D01*
X6278575Y-2700274D01*
X6278829Y-2704388D01*
X6277406Y-2708249D01*
X6274511Y-2711246D01*
X6270701Y-2712872D01*
X6266586Y-2712821D01*
X6262827Y-2711094D01*
X6259728Y-2708859D01*
X6246977Y-2701848D01*
X6233414Y-2696464D01*
X6219342Y-2692857D01*
X6204864Y-2691028D01*
X6190335Y-2691028D01*
X6175908Y-2692857D01*
X6161786Y-2696464D01*
X6153810Y-2699664D01*
X6149949Y-2700375D01*
X6146139Y-2699562D01*
X6142888Y-2697378D01*
X6112357Y-2666898D01*
X6110173Y-2663596D01*
X6109411Y-2659684D01*
X6109411Y-2651506D01*
X6110376Y-2647188D01*
X6113068Y-2643682D01*
X6117031Y-2641650D01*
X6121450Y-2641549D01*
X6125514Y-2643276D01*
X6135522Y-2650540D01*
X6148273Y-2657551D01*
X6161786Y-2662936D01*
X6175908Y-2666542D01*
X6190335Y-2668371D01*
X6204864Y-2668371D01*
X6219342Y-2666542D01*
X6233414Y-2662936D01*
X6246977Y-2657551D01*
X6259728Y-2650540D01*
X6271463Y-2642006D01*
X6282029Y-2632100D01*
X6291376Y-2620822D01*
X6299149Y-2608529D01*
X6305346Y-2595372D01*
X6309868Y-2581503D01*
X6312611Y-2567228D01*
X6313525Y-2552700D01*
X6312611Y-2538171D01*
X6309868Y-2523896D01*
X6305346Y-2510028D01*
X6299149Y-2496870D01*
X6291376Y-2484577D01*
X6282080Y-2473350D01*
X6271463Y-2463393D01*
X6259728Y-2454859D01*
X6246977Y-2447848D01*
X6233414Y-2442464D01*
X6219342Y-2438857D01*
X6204864Y-2437028D01*
X6190335Y-2437028D01*
X6175908Y-2438857D01*
X6161786Y-2442464D01*
X6148273Y-2447848D01*
X6135522Y-2454859D01*
X6123736Y-2463393D01*
X6114999Y-2471623D01*
X6111494Y-2473756D01*
X6107379Y-2474366D01*
X6103416Y-2473248D01*
X6100216Y-2470658D01*
X6097727Y-2467660D01*
X6048705Y-2418588D01*
X6046470Y-2415286D01*
X6045708Y-2411425D01*
X6045708Y-2162657D01*
X6046470Y-2158796D01*
X6048654Y-2155545D01*
X6051854Y-2153310D01*
X6055715Y-2152497D01*
X6907784Y-2139950D01*
X6908749Y-2138934D01*
X6846366Y-36372D01*
X6847078Y-32410D01*
X6849262Y-29006D01*
X6852564Y-26720D01*
X6856526Y-25908D01*
X11963908Y-25908D01*
X11967819Y-26670D01*
X11971070Y-28905D01*
X11973306Y-32156D01*
X11974068Y-36068D01*
X11974068Y-7963916D01*
X11973306Y-7967827D01*
X11971070Y-7971078D01*
X11967819Y-7973314D01*
X11963908Y-7974075D01*
G37*

%LPC*%
G36*
X11502796Y-7645806D02*
G01*
X11516410Y-7645349D01*
X11529872Y-7643114D01*
X11542877Y-7639050D01*
X11555272Y-7633309D01*
X11566753Y-7625994D01*
X11577167Y-7617206D01*
X11586311Y-7607046D01*
X11594033Y-7595819D01*
X11600180Y-7583678D01*
X11604650Y-7570774D01*
X11607393Y-7557414D01*
X11608308Y-7543800D01*
X11607393Y-7530185D01*
X11604650Y-7516825D01*
X11600180Y-7503922D01*
X11594033Y-7491780D01*
X11586311Y-7480553D01*
X11577167Y-7470394D01*
X11566753Y-7461605D01*
X11555272Y-7454290D01*
X11542877Y-7448550D01*
X11529872Y-7444486D01*
X11516410Y-7442250D01*
X11502796Y-7441793D01*
X11489232Y-7443114D01*
X11475974Y-7446314D01*
X11463223Y-7451191D01*
X11451285Y-7457744D01*
X11440312Y-7465822D01*
X11430508Y-7475321D01*
X11422024Y-7486040D01*
X11415064Y-7497775D01*
X11409781Y-7510322D01*
X11406174Y-7523480D01*
X11404346Y-7536992D01*
X11404346Y-7550607D01*
X11406174Y-7564120D01*
X11409781Y-7577277D01*
X11415064Y-7589824D01*
X11422024Y-7601559D01*
X11430508Y-7612278D01*
X11440312Y-7621778D01*
X11451285Y-7629855D01*
X11463223Y-7636408D01*
X11475974Y-7641285D01*
X11489232Y-7644485D01*
G37*
G36*
X631596Y-7633106D02*
G01*
X645210Y-7632649D01*
X658672Y-7630414D01*
X671677Y-7626350D01*
X684072Y-7620609D01*
X695553Y-7613294D01*
X705967Y-7604506D01*
X715111Y-7594346D01*
X722833Y-7583119D01*
X728980Y-7570978D01*
X733450Y-7558074D01*
X736193Y-7544714D01*
X737108Y-7531100D01*
X736193Y-7517485D01*
X733450Y-7504125D01*
X728980Y-7491222D01*
X722833Y-7479080D01*
X715111Y-7467853D01*
X705967Y-7457694D01*
X695553Y-7448905D01*
X684072Y-7441590D01*
X671677Y-7435850D01*
X658672Y-7431786D01*
X645210Y-7429550D01*
X631596Y-7429093D01*
X618032Y-7430414D01*
X604774Y-7433614D01*
X592023Y-7438491D01*
X580085Y-7445044D01*
X569112Y-7453122D01*
X559308Y-7462621D01*
X550824Y-7473340D01*
X543864Y-7485075D01*
X538581Y-7497622D01*
X534974Y-7510780D01*
X533146Y-7524292D01*
X533146Y-7537907D01*
X534974Y-7551420D01*
X538581Y-7564577D01*
X543864Y-7577124D01*
X550824Y-7588859D01*
X559308Y-7599578D01*
X569112Y-7609078D01*
X580085Y-7617155D01*
X592023Y-7623708D01*
X604774Y-7628585D01*
X618032Y-7631785D01*
G37*
G36*
X8546084Y-7369809D02*
G01*
X8945118Y-7369809D01*
X8950655Y-7369251D01*
X8955481Y-7367778D01*
X8959951Y-7365390D01*
X8964269Y-7361885D01*
X8983573Y-7342581D01*
X8987078Y-7338263D01*
X8989517Y-7333792D01*
X8990990Y-7328916D01*
X8991498Y-7323378D01*
X8991498Y-6979462D01*
X8990787Y-6973163D01*
X8988907Y-6967677D01*
X8985808Y-6962800D01*
X8981694Y-6958685D01*
X8976817Y-6955586D01*
X8971330Y-6953707D01*
X8965031Y-6952996D01*
X8526170Y-6952996D01*
X8519871Y-6953707D01*
X8514384Y-6955586D01*
X8509508Y-6958685D01*
X8505393Y-6962800D01*
X8502294Y-6967677D01*
X8500414Y-6973163D01*
X8499703Y-6979462D01*
X8499703Y-7323378D01*
X8500262Y-7328916D01*
X8501735Y-7333792D01*
X8504123Y-7338263D01*
X8507628Y-7342581D01*
X8526932Y-7361885D01*
X8531250Y-7365390D01*
X8535720Y-7367778D01*
X8540546Y-7369251D01*
G37*
G36*
X6718300Y-7217867D02*
G01*
X6732117Y-7217003D01*
X6745681Y-7214260D01*
X6758838Y-7209840D01*
X6771233Y-7203694D01*
X6782765Y-7196023D01*
X6793179Y-7186879D01*
X6802323Y-7176465D01*
X6809994Y-7164933D01*
X6816140Y-7152538D01*
X6820560Y-7139431D01*
X6823252Y-7125817D01*
X6824167Y-7112000D01*
X6823252Y-7098182D01*
X6820560Y-7084618D01*
X6816140Y-7071461D01*
X6809994Y-7059066D01*
X6802323Y-7047534D01*
X6793179Y-7037120D01*
X6782765Y-7027976D01*
X6771233Y-7020306D01*
X6758838Y-7014159D01*
X6745681Y-7009739D01*
X6732117Y-7007047D01*
X6718300Y-7006132D01*
X6704482Y-7007047D01*
X6690868Y-7009739D01*
X6677761Y-7014159D01*
X6665366Y-7020306D01*
X6653834Y-7027976D01*
X6643420Y-7037120D01*
X6634276Y-7047534D01*
X6626606Y-7059066D01*
X6620459Y-7071461D01*
X6616039Y-7084618D01*
X6613296Y-7098182D01*
X6612432Y-7112000D01*
X6613296Y-7125817D01*
X6616039Y-7139431D01*
X6620459Y-7152538D01*
X6626606Y-7164933D01*
X6634276Y-7176465D01*
X6643420Y-7186879D01*
X6653834Y-7196023D01*
X6665366Y-7203694D01*
X6677761Y-7209840D01*
X6690868Y-7214260D01*
X6704482Y-7217003D01*
G37*
G36*
X3265474Y-7068058D02*
G01*
X3288537Y-7068058D01*
X3288537Y-6994550D01*
X3239008Y-6994550D01*
X3239008Y-7041591D01*
X3239719Y-7047890D01*
X3241649Y-7053376D01*
X3244697Y-7058253D01*
X3248812Y-7062368D01*
X3253689Y-7065416D01*
X3259175Y-7067346D01*
G37*
G36*
X3361182Y-7068058D02*
G01*
X3384245Y-7068058D01*
X3390544Y-7067346D01*
X3396030Y-7065416D01*
X3400907Y-7062368D01*
X3405022Y-7058253D01*
X3408070Y-7053376D01*
X3410000Y-7047890D01*
X3410712Y-7041591D01*
X3410712Y-6994550D01*
X3361182Y-6994550D01*
G37*
G36*
X3067354Y-7068058D02*
G01*
X3186125Y-7068058D01*
X3192424Y-7067346D01*
X3197910Y-7065416D01*
X3202787Y-7062368D01*
X3206902Y-7058253D01*
X3209950Y-7053376D01*
X3211880Y-7047890D01*
X3212592Y-7041591D01*
X3212592Y-6826808D01*
X3211880Y-6820509D01*
X3209950Y-6815023D01*
X3206902Y-6810146D01*
X3202787Y-6806031D01*
X3197910Y-6802983D01*
X3192424Y-6801053D01*
X3186125Y-6800342D01*
X3067354Y-6800342D01*
X3061055Y-6801053D01*
X3055569Y-6802983D01*
X3050692Y-6806031D01*
X3046577Y-6810146D01*
X3043529Y-6815023D01*
X3041599Y-6820509D01*
X3040888Y-6826808D01*
X3040888Y-7041591D01*
X3041599Y-7047890D01*
X3043529Y-7053376D01*
X3046577Y-7058253D01*
X3050692Y-7062368D01*
X3055569Y-7065416D01*
X3061055Y-7067346D01*
G37*
G36*
X6718350Y-6963918D02*
G01*
X6732168Y-6963054D01*
X6745731Y-6960311D01*
X6758889Y-6955891D01*
X6771284Y-6949744D01*
X6782816Y-6942074D01*
X6793230Y-6932930D01*
X6802374Y-6922516D01*
X6810044Y-6910984D01*
X6816191Y-6898589D01*
X6820611Y-6885482D01*
X6823303Y-6871868D01*
X6824218Y-6858050D01*
X6823303Y-6844233D01*
X6820611Y-6830669D01*
X6816191Y-6817512D01*
X6810044Y-6805117D01*
X6802374Y-6793585D01*
X6793230Y-6783171D01*
X6782816Y-6774027D01*
X6771284Y-6766356D01*
X6758889Y-6760209D01*
X6745731Y-6755790D01*
X6732168Y-6753098D01*
X6718350Y-6752183D01*
X6704533Y-6753098D01*
X6690918Y-6755790D01*
X6677812Y-6760209D01*
X6665417Y-6766356D01*
X6653885Y-6774027D01*
X6643471Y-6783171D01*
X6634327Y-6793585D01*
X6626656Y-6805117D01*
X6620509Y-6817512D01*
X6616090Y-6830669D01*
X6613347Y-6844233D01*
X6612483Y-6858050D01*
X6613347Y-6871868D01*
X6616090Y-6885482D01*
X6620509Y-6898589D01*
X6626656Y-6910984D01*
X6634327Y-6922516D01*
X6643471Y-6932930D01*
X6653885Y-6942074D01*
X6665417Y-6949744D01*
X6677812Y-6955891D01*
X6690918Y-6960311D01*
X6704533Y-6963054D01*
G37*
G36*
X3239008Y-6873900D02*
G01*
X3288537Y-6873900D01*
X3288537Y-6800342D01*
X3265474Y-6800342D01*
X3259175Y-6801053D01*
X3253689Y-6802983D01*
X3248812Y-6806031D01*
X3244697Y-6810146D01*
X3241649Y-6815023D01*
X3239719Y-6820509D01*
X3239008Y-6826808D01*
G37*
G36*
X3361182Y-6873900D02*
G01*
X3410712Y-6873900D01*
X3410712Y-6826808D01*
X3410000Y-6820509D01*
X3408070Y-6815023D01*
X3405022Y-6810146D01*
X3400907Y-6806031D01*
X3396030Y-6802983D01*
X3390544Y-6801053D01*
X3384245Y-6800342D01*
X3361182Y-6800342D01*
G37*
G36*
X6718300Y-6709867D02*
G01*
X6732117Y-6709003D01*
X6745681Y-6706260D01*
X6758838Y-6701840D01*
X6771233Y-6695694D01*
X6782765Y-6688023D01*
X6793179Y-6678879D01*
X6802323Y-6668465D01*
X6809994Y-6656933D01*
X6816140Y-6644538D01*
X6820560Y-6631431D01*
X6823252Y-6617817D01*
X6824167Y-6604000D01*
X6823252Y-6590182D01*
X6820560Y-6576618D01*
X6816140Y-6563461D01*
X6809994Y-6551066D01*
X6802323Y-6539534D01*
X6793179Y-6529120D01*
X6782765Y-6519976D01*
X6771233Y-6512306D01*
X6758838Y-6506159D01*
X6745681Y-6501739D01*
X6732117Y-6499047D01*
X6718300Y-6498132D01*
X6704482Y-6499047D01*
X6690868Y-6501739D01*
X6677761Y-6506159D01*
X6665366Y-6512306D01*
X6653834Y-6519976D01*
X6643420Y-6529120D01*
X6634276Y-6539534D01*
X6626606Y-6551066D01*
X6620459Y-6563461D01*
X6616039Y-6576618D01*
X6613296Y-6590182D01*
X6612432Y-6604000D01*
X6613296Y-6617817D01*
X6616039Y-6631431D01*
X6620459Y-6644538D01*
X6626606Y-6656933D01*
X6634276Y-6668465D01*
X6643420Y-6678879D01*
X6653834Y-6688023D01*
X6665366Y-6695694D01*
X6677761Y-6701840D01*
X6690868Y-6706260D01*
X6704482Y-6709003D01*
G37*
G36*
X8526170Y-6654800D02*
G01*
X8965031Y-6654800D01*
X8971330Y-6654088D01*
X8976817Y-6652209D01*
X8981694Y-6649110D01*
X8985808Y-6644995D01*
X8988907Y-6640118D01*
X8990787Y-6634632D01*
X8991498Y-6628333D01*
X8991498Y-6284417D01*
X8990990Y-6278880D01*
X8989517Y-6274003D01*
X8987078Y-6269532D01*
X8983573Y-6265214D01*
X8964269Y-6245961D01*
X8959951Y-6242405D01*
X8955481Y-6240018D01*
X8950655Y-6238544D01*
X8945118Y-6237986D01*
X8794394Y-6237986D01*
X8790482Y-6237224D01*
X8787180Y-6235039D01*
X8784996Y-6231737D01*
X8784234Y-6227826D01*
X8784234Y-6172758D01*
X8783421Y-6164732D01*
X8781237Y-6157518D01*
X8777681Y-6150864D01*
X8772550Y-6144615D01*
X6809740Y-4181805D01*
X6807657Y-4178808D01*
X6806793Y-4175302D01*
X6807200Y-4171696D01*
X6808825Y-4168495D01*
X6811518Y-4166006D01*
X6814413Y-4164228D01*
X6818528Y-4160113D01*
X6821576Y-4155236D01*
X6823506Y-4149750D01*
X6824218Y-4143451D01*
X6824218Y-3984548D01*
X6823506Y-3978249D01*
X6821576Y-3972763D01*
X6818528Y-3967886D01*
X6814413Y-3963771D01*
X6809536Y-3960723D01*
X6804050Y-3958793D01*
X6797751Y-3958082D01*
X6638848Y-3958082D01*
X6632549Y-3958793D01*
X6627063Y-3960723D01*
X6622186Y-3963771D01*
X6618071Y-3967886D01*
X6615023Y-3972763D01*
X6613093Y-3978249D01*
X6612381Y-3984548D01*
X6612381Y-4143451D01*
X6613093Y-4149750D01*
X6615023Y-4155236D01*
X6618071Y-4160113D01*
X6622186Y-4164228D01*
X6627063Y-4167276D01*
X6632549Y-4169206D01*
X6638848Y-4169918D01*
X6670344Y-4169918D01*
X6674002Y-4170578D01*
X6677152Y-4172559D01*
X6679387Y-4175506D01*
X6682689Y-4186732D01*
X6686245Y-4193387D01*
X6691020Y-4199229D01*
X6696862Y-4204055D01*
X6703568Y-4207611D01*
X6710781Y-4209796D01*
X6718808Y-4210608D01*
X6725107Y-4210608D01*
X6728968Y-4211370D01*
X6732270Y-4213555D01*
X6761683Y-4242968D01*
X6763867Y-4246270D01*
X6764629Y-4250131D01*
X6764629Y-4271670D01*
X6786168Y-4271670D01*
X6790029Y-4272432D01*
X6793331Y-4274616D01*
X8704021Y-6185306D01*
X8706205Y-6188608D01*
X8707018Y-6192469D01*
X8707018Y-6227826D01*
X8706205Y-6231737D01*
X8704021Y-6235039D01*
X8700719Y-6237224D01*
X8696858Y-6237986D01*
X8546084Y-6237986D01*
X8540546Y-6238544D01*
X8535720Y-6240018D01*
X8531250Y-6242405D01*
X8526932Y-6245961D01*
X8507628Y-6265214D01*
X8504123Y-6269532D01*
X8501735Y-6274003D01*
X8500262Y-6278880D01*
X8499703Y-6284417D01*
X8499703Y-6628333D01*
X8500414Y-6634632D01*
X8502294Y-6640118D01*
X8505393Y-6644995D01*
X8509508Y-6649110D01*
X8514384Y-6652209D01*
X8519871Y-6654088D01*
G37*
G36*
X6718350Y-6455918D02*
G01*
X6732168Y-6455054D01*
X6745731Y-6452311D01*
X6758889Y-6447891D01*
X6771284Y-6441744D01*
X6782816Y-6434074D01*
X6793230Y-6424930D01*
X6802374Y-6414516D01*
X6810044Y-6402984D01*
X6816191Y-6390589D01*
X6820611Y-6377482D01*
X6823303Y-6363868D01*
X6824218Y-6350050D01*
X6823303Y-6336233D01*
X6820611Y-6322669D01*
X6816191Y-6309512D01*
X6810044Y-6297117D01*
X6802374Y-6285585D01*
X6793230Y-6275171D01*
X6782816Y-6266027D01*
X6771284Y-6258356D01*
X6758889Y-6252210D01*
X6745731Y-6247790D01*
X6732168Y-6245098D01*
X6718350Y-6244183D01*
X6704533Y-6245098D01*
X6690918Y-6247790D01*
X6677812Y-6252210D01*
X6665417Y-6258356D01*
X6653885Y-6266027D01*
X6643471Y-6275171D01*
X6634327Y-6285585D01*
X6626656Y-6297117D01*
X6620509Y-6309512D01*
X6616090Y-6322669D01*
X6613347Y-6336233D01*
X6612483Y-6350050D01*
X6613347Y-6363868D01*
X6616090Y-6377482D01*
X6620509Y-6390589D01*
X6626656Y-6402984D01*
X6634327Y-6414516D01*
X6643471Y-6424930D01*
X6653885Y-6434074D01*
X6665417Y-6441744D01*
X6677812Y-6447891D01*
X6690918Y-6452311D01*
X6704533Y-6455054D01*
G37*
G36*
X6718300Y-6201867D02*
G01*
X6732117Y-6201003D01*
X6745681Y-6198260D01*
X6758838Y-6193840D01*
X6771233Y-6187694D01*
X6782765Y-6180023D01*
X6793179Y-6170879D01*
X6802323Y-6160465D01*
X6809994Y-6148933D01*
X6816140Y-6136538D01*
X6820560Y-6123432D01*
X6823252Y-6109817D01*
X6824167Y-6096000D01*
X6823252Y-6082182D01*
X6820560Y-6068618D01*
X6816140Y-6055461D01*
X6809994Y-6043066D01*
X6802323Y-6031534D01*
X6793179Y-6021120D01*
X6782765Y-6011976D01*
X6771233Y-6004306D01*
X6758838Y-5998159D01*
X6745681Y-5993739D01*
X6732117Y-5991047D01*
X6718300Y-5990132D01*
X6704482Y-5991047D01*
X6690868Y-5993739D01*
X6677761Y-5998159D01*
X6665366Y-6004306D01*
X6653834Y-6011976D01*
X6643420Y-6021120D01*
X6634276Y-6031534D01*
X6626606Y-6043066D01*
X6620459Y-6055461D01*
X6616039Y-6068618D01*
X6613296Y-6082182D01*
X6612432Y-6096000D01*
X6613296Y-6109817D01*
X6616039Y-6123432D01*
X6620459Y-6136538D01*
X6626606Y-6148933D01*
X6634276Y-6160465D01*
X6643420Y-6170879D01*
X6653834Y-6180023D01*
X6665366Y-6187694D01*
X6677761Y-6193840D01*
X6690868Y-6198260D01*
X6704482Y-6201003D01*
G37*
G36*
X6718350Y-5947918D02*
G01*
X6732168Y-5947054D01*
X6745731Y-5944311D01*
X6758889Y-5939891D01*
X6771284Y-5933744D01*
X6782816Y-5926074D01*
X6793230Y-5916930D01*
X6802374Y-5906516D01*
X6810044Y-5894984D01*
X6816191Y-5882589D01*
X6820611Y-5869482D01*
X6823303Y-5855868D01*
X6824218Y-5842050D01*
X6823303Y-5828233D01*
X6820611Y-5814669D01*
X6816191Y-5801512D01*
X6810044Y-5789117D01*
X6802374Y-5777585D01*
X6793230Y-5767171D01*
X6782816Y-5758027D01*
X6771284Y-5750356D01*
X6758889Y-5744210D01*
X6745731Y-5739790D01*
X6732168Y-5737098D01*
X6718350Y-5736183D01*
X6704533Y-5737098D01*
X6690918Y-5739790D01*
X6677812Y-5744210D01*
X6665417Y-5750356D01*
X6653885Y-5758027D01*
X6643471Y-5767171D01*
X6634327Y-5777585D01*
X6626656Y-5789117D01*
X6620509Y-5801512D01*
X6616090Y-5814669D01*
X6613347Y-5828233D01*
X6612483Y-5842050D01*
X6613347Y-5855868D01*
X6616090Y-5869482D01*
X6620509Y-5882589D01*
X6626656Y-5894984D01*
X6634327Y-5906516D01*
X6643471Y-5916930D01*
X6653885Y-5926074D01*
X6665417Y-5933744D01*
X6677812Y-5939891D01*
X6690918Y-5944311D01*
X6704533Y-5947054D01*
G37*
G36*
X4562703Y-5771337D02*
G01*
X4572508Y-5770473D01*
X4581956Y-5767933D01*
X4590897Y-5763818D01*
X4598924Y-5758180D01*
X4605883Y-5751220D01*
X4611522Y-5743194D01*
X4615637Y-5734253D01*
X4618177Y-5724804D01*
X4619040Y-5715000D01*
X4618177Y-5705195D01*
X4615637Y-5695746D01*
X4611522Y-5686806D01*
X4605883Y-5678779D01*
X4598924Y-5671820D01*
X4590897Y-5666181D01*
X4581956Y-5662066D01*
X4572508Y-5659526D01*
X4564481Y-5658815D01*
X4561078Y-5657900D01*
X4558182Y-5655868D01*
X4512716Y-5610402D01*
X4510481Y-5607100D01*
X4509719Y-5603189D01*
X4509719Y-3965498D01*
X4508906Y-3957472D01*
X4506722Y-3950258D01*
X4503166Y-3943604D01*
X4498035Y-3937355D01*
X4460798Y-3900119D01*
X4458665Y-3896969D01*
X4457852Y-3893312D01*
X4458411Y-3889603D01*
X4460646Y-3883050D01*
X4463389Y-3869690D01*
X4464304Y-3856126D01*
X4463389Y-3842512D01*
X4460646Y-3829151D01*
X4456176Y-3816248D01*
X4450029Y-3804056D01*
X4442307Y-3792829D01*
X4433163Y-3782720D01*
X4422749Y-3773932D01*
X4411268Y-3766565D01*
X4398873Y-3760825D01*
X4385868Y-3756812D01*
X4372406Y-3754526D01*
X4358792Y-3754069D01*
X4345228Y-3755440D01*
X4331970Y-3758590D01*
X4319219Y-3763518D01*
X4307281Y-3770071D01*
X4296308Y-3778148D01*
X4286504Y-3787648D01*
X4278020Y-3798315D01*
X4271060Y-3810050D01*
X4265777Y-3822598D01*
X4262170Y-3835755D01*
X4260342Y-3849268D01*
X4260342Y-3862933D01*
X4262170Y-3876446D01*
X4265777Y-3889603D01*
X4271060Y-3902151D01*
X4278020Y-3913886D01*
X4286504Y-3924554D01*
X4296308Y-3934053D01*
X4307281Y-3942130D01*
X4319219Y-3948684D01*
X4331970Y-3953611D01*
X4345228Y-3956761D01*
X4358792Y-3958132D01*
X4372406Y-3957675D01*
X4385868Y-3955389D01*
X4396079Y-3952240D01*
X4399686Y-3951782D01*
X4403242Y-3952697D01*
X4406239Y-3954779D01*
X4429506Y-3978046D01*
X4431741Y-3981348D01*
X4432503Y-3985209D01*
X4432503Y-4015587D01*
X4431588Y-4019804D01*
X4428998Y-4023258D01*
X4425238Y-4025341D01*
X4420920Y-4025646D01*
X4416856Y-4024172D01*
X4411268Y-4020565D01*
X4398873Y-4014825D01*
X4385868Y-4010812D01*
X4372406Y-4008526D01*
X4358792Y-4008069D01*
X4345228Y-4009440D01*
X4331970Y-4012590D01*
X4319219Y-4017518D01*
X4307281Y-4024071D01*
X4296308Y-4032148D01*
X4286504Y-4041648D01*
X4278020Y-4052315D01*
X4271060Y-4064050D01*
X4265777Y-4076598D01*
X4262170Y-4089755D01*
X4260342Y-4103268D01*
X4260342Y-4116933D01*
X4262170Y-4130446D01*
X4265777Y-4143603D01*
X4271060Y-4156151D01*
X4278020Y-4167886D01*
X4286504Y-4178554D01*
X4296308Y-4188053D01*
X4307281Y-4196130D01*
X4319219Y-4202684D01*
X4331970Y-4207611D01*
X4345228Y-4210761D01*
X4358792Y-4212132D01*
X4372406Y-4211675D01*
X4385868Y-4209389D01*
X4398873Y-4205376D01*
X4411268Y-4199636D01*
X4416856Y-4196029D01*
X4420920Y-4194556D01*
X4425238Y-4194860D01*
X4428998Y-4196943D01*
X4431588Y-4200398D01*
X4432503Y-4204614D01*
X4432503Y-4269587D01*
X4431588Y-4273804D01*
X4428998Y-4277258D01*
X4425238Y-4279341D01*
X4420920Y-4279646D01*
X4416856Y-4278172D01*
X4411268Y-4274566D01*
X4406646Y-4272432D01*
X4406646Y-4319676D01*
X4422343Y-4319676D01*
X4426254Y-4320438D01*
X4429506Y-4322622D01*
X4431741Y-4325924D01*
X4432503Y-4329836D01*
X4432503Y-4398416D01*
X4431741Y-4402277D01*
X4429506Y-4405579D01*
X4426254Y-4407763D01*
X4422343Y-4408576D01*
X4406646Y-4408576D01*
X4406646Y-4455769D01*
X4411268Y-4453636D01*
X4416856Y-4450029D01*
X4420920Y-4448556D01*
X4425238Y-4448860D01*
X4428998Y-4450943D01*
X4431588Y-4454398D01*
X4432503Y-4458614D01*
X4432503Y-5622899D01*
X4433316Y-5630926D01*
X4435500Y-5638139D01*
X4439056Y-5644845D01*
X4444187Y-5651042D01*
X4503572Y-5710478D01*
X4505604Y-5713374D01*
X4506518Y-5716778D01*
X4507230Y-5724804D01*
X4509770Y-5734253D01*
X4513884Y-5743194D01*
X4519523Y-5751220D01*
X4526483Y-5758180D01*
X4534509Y-5763818D01*
X4543450Y-5767933D01*
X4552899Y-5770473D01*
G37*
G36*
X6718300Y-5693867D02*
G01*
X6732117Y-5693003D01*
X6745681Y-5690260D01*
X6758838Y-5685840D01*
X6771233Y-5679694D01*
X6782765Y-5672023D01*
X6793179Y-5662879D01*
X6802323Y-5652465D01*
X6809994Y-5640933D01*
X6816140Y-5628538D01*
X6820560Y-5615432D01*
X6823252Y-5601817D01*
X6824167Y-5588000D01*
X6823252Y-5574182D01*
X6820560Y-5560618D01*
X6816140Y-5547461D01*
X6809994Y-5535066D01*
X6802323Y-5523534D01*
X6793179Y-5513120D01*
X6782765Y-5503976D01*
X6771233Y-5496306D01*
X6758838Y-5490159D01*
X6745681Y-5485739D01*
X6732117Y-5483047D01*
X6718300Y-5482132D01*
X6704482Y-5483047D01*
X6690868Y-5485739D01*
X6677761Y-5490159D01*
X6665366Y-5496306D01*
X6653834Y-5503976D01*
X6643420Y-5513120D01*
X6634276Y-5523534D01*
X6626606Y-5535066D01*
X6620459Y-5547461D01*
X6616039Y-5560618D01*
X6613296Y-5574182D01*
X6612432Y-5588000D01*
X6613296Y-5601817D01*
X6616039Y-5615432D01*
X6620459Y-5628538D01*
X6626606Y-5640933D01*
X6634276Y-5652465D01*
X6643420Y-5662879D01*
X6653834Y-5672023D01*
X6665366Y-5679694D01*
X6677761Y-5685840D01*
X6690868Y-5690260D01*
X6704482Y-5693003D01*
G37*
G36*
X6718350Y-5439918D02*
G01*
X6732168Y-5439054D01*
X6745731Y-5436311D01*
X6758889Y-5431891D01*
X6771284Y-5425744D01*
X6782816Y-5418074D01*
X6793230Y-5408930D01*
X6802374Y-5398516D01*
X6810044Y-5386984D01*
X6816191Y-5374589D01*
X6820611Y-5361482D01*
X6823303Y-5347868D01*
X6824218Y-5334050D01*
X6823303Y-5320233D01*
X6820611Y-5306669D01*
X6816191Y-5293512D01*
X6810044Y-5281117D01*
X6802374Y-5269585D01*
X6793230Y-5259171D01*
X6782816Y-5250027D01*
X6771284Y-5242356D01*
X6758889Y-5236210D01*
X6745731Y-5231790D01*
X6732168Y-5229098D01*
X6718350Y-5228183D01*
X6704533Y-5229098D01*
X6690918Y-5231790D01*
X6677812Y-5236210D01*
X6665417Y-5242356D01*
X6653885Y-5250027D01*
X6643471Y-5259171D01*
X6634327Y-5269585D01*
X6626656Y-5281117D01*
X6620509Y-5293512D01*
X6616090Y-5306669D01*
X6613347Y-5320233D01*
X6612483Y-5334050D01*
X6613347Y-5347868D01*
X6616090Y-5361482D01*
X6620509Y-5374589D01*
X6626656Y-5386984D01*
X6634327Y-5398516D01*
X6643471Y-5408930D01*
X6653885Y-5418074D01*
X6665417Y-5425744D01*
X6677812Y-5431891D01*
X6690918Y-5436311D01*
X6704533Y-5439054D01*
G37*
G36*
X6718300Y-5185867D02*
G01*
X6732117Y-5185003D01*
X6745681Y-5182260D01*
X6758838Y-5177840D01*
X6771233Y-5171694D01*
X6782765Y-5164023D01*
X6793179Y-5154879D01*
X6802323Y-5144465D01*
X6809994Y-5132933D01*
X6816140Y-5120538D01*
X6820560Y-5107432D01*
X6823252Y-5093817D01*
X6824167Y-5080000D01*
X6823252Y-5066182D01*
X6820560Y-5052618D01*
X6816140Y-5039461D01*
X6809994Y-5027066D01*
X6802323Y-5015534D01*
X6793179Y-5005120D01*
X6782765Y-4995976D01*
X6771233Y-4988306D01*
X6758838Y-4982159D01*
X6745681Y-4977739D01*
X6732117Y-4975047D01*
X6718300Y-4974132D01*
X6704482Y-4975047D01*
X6690868Y-4977739D01*
X6677761Y-4982159D01*
X6665366Y-4988306D01*
X6653834Y-4995976D01*
X6643420Y-5005120D01*
X6634276Y-5015534D01*
X6626606Y-5027066D01*
X6620459Y-5039461D01*
X6616039Y-5052618D01*
X6613296Y-5066182D01*
X6612432Y-5080000D01*
X6613296Y-5093817D01*
X6616039Y-5107432D01*
X6620459Y-5120538D01*
X6626606Y-5132933D01*
X6634276Y-5144465D01*
X6643420Y-5154879D01*
X6653834Y-5164023D01*
X6665366Y-5171694D01*
X6677761Y-5177840D01*
X6690868Y-5182260D01*
X6704482Y-5185003D01*
G37*
G36*
X6718350Y-4931918D02*
G01*
X6732168Y-4931054D01*
X6745731Y-4928311D01*
X6758889Y-4923891D01*
X6771284Y-4917744D01*
X6782816Y-4910074D01*
X6793230Y-4900930D01*
X6802374Y-4890516D01*
X6810044Y-4878984D01*
X6816191Y-4866589D01*
X6820611Y-4853482D01*
X6823303Y-4839868D01*
X6824218Y-4826050D01*
X6823303Y-4812233D01*
X6820611Y-4798669D01*
X6816191Y-4785512D01*
X6810044Y-4773117D01*
X6802374Y-4761585D01*
X6793230Y-4751171D01*
X6782816Y-4742027D01*
X6771284Y-4734356D01*
X6758889Y-4728210D01*
X6745731Y-4723790D01*
X6732168Y-4721098D01*
X6718350Y-4720183D01*
X6704533Y-4721098D01*
X6690918Y-4723790D01*
X6677812Y-4728210D01*
X6665417Y-4734356D01*
X6653885Y-4742027D01*
X6643471Y-4751171D01*
X6634327Y-4761585D01*
X6626656Y-4773117D01*
X6620509Y-4785512D01*
X6616090Y-4798669D01*
X6613347Y-4812233D01*
X6612483Y-4826050D01*
X6613347Y-4839868D01*
X6616090Y-4853482D01*
X6620509Y-4866589D01*
X6626656Y-4878984D01*
X6634327Y-4890516D01*
X6643471Y-4900930D01*
X6653885Y-4910074D01*
X6665417Y-4917744D01*
X6677812Y-4923891D01*
X6690918Y-4928311D01*
X6704533Y-4931054D01*
G37*
G36*
X6718300Y-4677918D02*
G01*
X6732117Y-4677003D01*
X6745681Y-4674311D01*
X6758838Y-4669840D01*
X6771233Y-4663694D01*
X6782765Y-4656023D01*
X6793179Y-4646879D01*
X6802323Y-4636465D01*
X6809994Y-4624933D01*
X6816140Y-4612538D01*
X6820560Y-4599432D01*
X6823252Y-4585817D01*
X6824167Y-4572000D01*
X6823252Y-4558182D01*
X6820560Y-4544618D01*
X6816140Y-4531461D01*
X6809994Y-4519066D01*
X6802323Y-4507534D01*
X6793179Y-4497120D01*
X6782765Y-4488027D01*
X6771233Y-4480306D01*
X6758838Y-4474159D01*
X6745681Y-4469739D01*
X6732117Y-4467047D01*
X6718300Y-4466132D01*
X6704482Y-4467047D01*
X6690868Y-4469739D01*
X6677761Y-4474159D01*
X6665366Y-4480306D01*
X6653834Y-4488027D01*
X6643420Y-4497120D01*
X6634276Y-4507534D01*
X6626606Y-4519066D01*
X6620459Y-4531461D01*
X6616039Y-4544618D01*
X6613296Y-4558182D01*
X6612432Y-4572000D01*
X6613296Y-4585817D01*
X6616039Y-4599432D01*
X6620459Y-4612538D01*
X6626606Y-4624933D01*
X6634276Y-4636465D01*
X6643420Y-4646879D01*
X6653834Y-4656023D01*
X6665366Y-4663694D01*
X6677761Y-4669840D01*
X6690868Y-4674311D01*
X6704482Y-4677003D01*
G37*
G36*
X11696446Y-4468571D02*
G01*
X11696446Y-4421276D01*
X11649100Y-4421276D01*
X11649760Y-4422851D01*
X11656720Y-4434586D01*
X11665204Y-4445254D01*
X11675008Y-4454753D01*
X11685981Y-4462830D01*
G37*
G36*
X11785346Y-4468469D02*
G01*
X11789968Y-4466336D01*
X11801449Y-4458970D01*
X11811863Y-4450181D01*
X11821007Y-4440072D01*
X11828729Y-4428845D01*
X11832539Y-4421276D01*
X11785346Y-4421276D01*
G37*
G36*
X4317746Y-4455871D02*
G01*
X4317746Y-4408576D01*
X4270400Y-4408576D01*
X4271060Y-4410151D01*
X4278020Y-4421886D01*
X4286504Y-4432554D01*
X4296308Y-4442053D01*
X4307281Y-4450130D01*
G37*
G36*
X6671970Y-4412945D02*
G01*
X6671970Y-4364329D01*
X6623354Y-4364329D01*
X6626606Y-4370933D01*
X6634276Y-4382465D01*
X6643420Y-4392879D01*
X6653834Y-4402023D01*
X6665366Y-4409694D01*
G37*
G36*
X6764629Y-4412945D02*
G01*
X6771233Y-4409694D01*
X6782765Y-4402023D01*
X6793179Y-4392879D01*
X6802323Y-4382465D01*
X6809994Y-4370933D01*
X6813245Y-4364329D01*
X6764629Y-4364329D01*
G37*
G36*
X11785346Y-4332376D02*
G01*
X11832539Y-4332376D01*
X11828729Y-4324756D01*
X11821007Y-4313529D01*
X11811863Y-4303420D01*
X11801449Y-4294632D01*
X11789968Y-4287266D01*
X11785346Y-4285132D01*
G37*
G36*
X11649100Y-4332376D02*
G01*
X11696446Y-4332376D01*
X11696446Y-4285030D01*
X11685981Y-4290771D01*
X11675008Y-4298848D01*
X11665204Y-4308348D01*
X11656720Y-4319016D01*
X11649760Y-4330750D01*
G37*
G36*
X4270400Y-4319676D02*
G01*
X4317746Y-4319676D01*
X4317746Y-4272330D01*
X4307281Y-4278071D01*
X4296308Y-4286148D01*
X4286504Y-4295648D01*
X4278020Y-4306316D01*
X4271060Y-4318050D01*
G37*
G36*
X6623354Y-4271670D02*
G01*
X6671970Y-4271670D01*
X6671970Y-4223054D01*
X6665366Y-4226306D01*
X6653834Y-4233976D01*
X6643420Y-4243120D01*
X6634276Y-4253534D01*
X6626606Y-4265066D01*
G37*
G36*
X11737492Y-4224832D02*
G01*
X11751106Y-4224375D01*
X11764568Y-4222089D01*
X11777573Y-4218076D01*
X11789968Y-4212336D01*
X11801449Y-4204970D01*
X11811863Y-4196181D01*
X11821007Y-4186072D01*
X11828729Y-4174845D01*
X11834876Y-4162653D01*
X11839346Y-4149750D01*
X11842089Y-4136390D01*
X11843004Y-4122826D01*
X11842089Y-4109212D01*
X11839346Y-4095851D01*
X11834876Y-4082948D01*
X11828729Y-4070756D01*
X11821007Y-4059529D01*
X11811863Y-4049420D01*
X11801449Y-4040632D01*
X11789968Y-4033265D01*
X11777573Y-4027525D01*
X11764568Y-4023512D01*
X11751106Y-4021226D01*
X11737492Y-4020769D01*
X11723928Y-4022140D01*
X11710670Y-4025290D01*
X11697919Y-4030218D01*
X11685981Y-4036771D01*
X11675008Y-4044848D01*
X11665204Y-4054348D01*
X11656720Y-4065015D01*
X11649760Y-4076750D01*
X11644477Y-4089298D01*
X11640870Y-4102455D01*
X11639042Y-4115968D01*
X11639042Y-4129633D01*
X11640870Y-4143146D01*
X11644477Y-4156303D01*
X11649760Y-4168851D01*
X11656720Y-4180586D01*
X11665204Y-4191254D01*
X11675008Y-4200753D01*
X11685981Y-4208830D01*
X11697919Y-4215384D01*
X11710670Y-4220311D01*
X11723928Y-4223461D01*
G37*
G36*
X11737492Y-3970832D02*
G01*
X11751106Y-3970375D01*
X11764568Y-3968089D01*
X11777573Y-3964076D01*
X11789968Y-3958336D01*
X11801449Y-3950970D01*
X11811863Y-3942181D01*
X11821007Y-3932072D01*
X11828729Y-3920845D01*
X11834876Y-3908653D01*
X11839346Y-3895750D01*
X11842089Y-3882390D01*
X11843004Y-3868826D01*
X11842089Y-3855212D01*
X11839346Y-3841851D01*
X11834876Y-3828948D01*
X11828729Y-3816756D01*
X11821007Y-3805529D01*
X11811863Y-3795420D01*
X11801449Y-3786632D01*
X11789968Y-3779265D01*
X11777573Y-3773525D01*
X11764568Y-3769512D01*
X11751106Y-3767226D01*
X11737492Y-3766769D01*
X11723928Y-3768140D01*
X11710670Y-3771290D01*
X11697919Y-3776218D01*
X11685981Y-3782771D01*
X11675008Y-3790848D01*
X11665204Y-3800348D01*
X11656720Y-3811015D01*
X11649760Y-3822750D01*
X11644477Y-3835298D01*
X11640870Y-3848455D01*
X11639042Y-3861968D01*
X11639042Y-3875633D01*
X11640870Y-3889146D01*
X11644477Y-3902303D01*
X11649760Y-3914851D01*
X11656720Y-3926586D01*
X11665204Y-3937254D01*
X11675008Y-3946753D01*
X11685981Y-3954830D01*
X11697919Y-3961384D01*
X11710670Y-3966311D01*
X11723928Y-3969461D01*
G37*
G36*
X11737492Y-3716832D02*
G01*
X11751106Y-3716375D01*
X11764568Y-3714089D01*
X11777573Y-3710076D01*
X11789968Y-3704336D01*
X11801449Y-3696970D01*
X11811863Y-3688181D01*
X11821007Y-3678072D01*
X11828729Y-3666845D01*
X11834876Y-3654653D01*
X11839346Y-3641750D01*
X11842089Y-3628390D01*
X11843004Y-3614826D01*
X11842089Y-3601212D01*
X11839346Y-3587851D01*
X11834876Y-3574948D01*
X11828729Y-3562756D01*
X11821007Y-3551529D01*
X11811863Y-3541420D01*
X11801449Y-3532632D01*
X11789968Y-3525265D01*
X11777573Y-3519525D01*
X11764568Y-3515512D01*
X11751106Y-3513226D01*
X11737492Y-3512769D01*
X11723928Y-3514140D01*
X11710670Y-3517290D01*
X11697919Y-3522218D01*
X11685981Y-3528771D01*
X11675008Y-3536848D01*
X11665204Y-3546348D01*
X11656720Y-3557015D01*
X11649760Y-3568750D01*
X11644477Y-3581298D01*
X11640870Y-3594455D01*
X11639042Y-3607968D01*
X11639042Y-3621633D01*
X11640870Y-3635146D01*
X11644477Y-3648303D01*
X11649760Y-3660851D01*
X11656720Y-3672586D01*
X11665204Y-3683254D01*
X11675008Y-3692753D01*
X11685981Y-3700830D01*
X11697919Y-3707384D01*
X11710670Y-3712311D01*
X11723928Y-3715461D01*
G37*
G36*
X4358792Y-3704132D02*
G01*
X4372406Y-3703675D01*
X4385868Y-3701389D01*
X4398873Y-3697376D01*
X4411268Y-3691636D01*
X4422749Y-3684270D01*
X4433163Y-3675481D01*
X4442307Y-3665372D01*
X4450029Y-3654145D01*
X4456176Y-3641953D01*
X4460646Y-3629050D01*
X4463389Y-3615690D01*
X4464304Y-3602126D01*
X4463389Y-3588512D01*
X4460646Y-3575151D01*
X4456176Y-3562248D01*
X4450029Y-3550056D01*
X4442307Y-3538829D01*
X4433163Y-3528720D01*
X4422749Y-3519932D01*
X4411268Y-3512565D01*
X4398873Y-3506825D01*
X4385868Y-3502812D01*
X4372406Y-3500526D01*
X4358792Y-3500069D01*
X4345228Y-3501440D01*
X4331970Y-3504590D01*
X4319219Y-3509518D01*
X4307281Y-3516071D01*
X4296308Y-3524148D01*
X4286504Y-3533648D01*
X4278020Y-3544315D01*
X4271060Y-3556050D01*
X4265777Y-3568598D01*
X4262170Y-3581755D01*
X4260342Y-3595268D01*
X4260342Y-3608933D01*
X4262170Y-3622446D01*
X4265777Y-3635603D01*
X4271060Y-3648151D01*
X4278020Y-3659886D01*
X4286504Y-3670554D01*
X4296308Y-3680053D01*
X4307281Y-3688130D01*
X4319219Y-3694684D01*
X4331970Y-3699611D01*
X4345228Y-3702761D01*
G37*
G36*
X11737492Y-3462832D02*
G01*
X11751106Y-3462375D01*
X11764568Y-3460089D01*
X11777573Y-3456076D01*
X11789968Y-3450336D01*
X11801449Y-3442970D01*
X11811863Y-3434181D01*
X11821007Y-3424072D01*
X11828729Y-3412845D01*
X11834876Y-3400653D01*
X11839346Y-3387750D01*
X11842089Y-3374390D01*
X11843004Y-3360826D01*
X11842089Y-3347212D01*
X11839346Y-3333851D01*
X11834876Y-3320948D01*
X11828729Y-3308756D01*
X11821007Y-3297529D01*
X11811863Y-3287420D01*
X11801449Y-3278632D01*
X11789968Y-3271265D01*
X11777573Y-3265525D01*
X11764568Y-3261512D01*
X11751106Y-3259226D01*
X11737492Y-3258769D01*
X11723928Y-3260140D01*
X11710670Y-3263290D01*
X11697919Y-3268217D01*
X11685981Y-3274771D01*
X11675008Y-3282848D01*
X11665204Y-3292348D01*
X11656720Y-3303015D01*
X11649760Y-3314750D01*
X11644477Y-3327298D01*
X11640870Y-3340455D01*
X11639042Y-3353968D01*
X11639042Y-3367633D01*
X11640870Y-3381146D01*
X11644477Y-3394303D01*
X11649760Y-3406851D01*
X11656720Y-3418586D01*
X11665204Y-3429254D01*
X11675008Y-3438753D01*
X11685981Y-3446830D01*
X11697919Y-3453384D01*
X11710670Y-3458311D01*
X11723928Y-3461461D01*
G37*
G36*
X644296Y-622706D02*
G01*
X657910Y-622249D01*
X671372Y-620014D01*
X684377Y-615950D01*
X696772Y-610209D01*
X708253Y-602894D01*
X718667Y-594106D01*
X727811Y-583946D01*
X735533Y-572719D01*
X741680Y-560578D01*
X746150Y-547674D01*
X748893Y-534314D01*
X749808Y-520700D01*
X748893Y-507085D01*
X746150Y-493725D01*
X741680Y-480822D01*
X735533Y-468680D01*
X727811Y-457454D01*
X718667Y-447293D01*
X708253Y-438505D01*
X696772Y-431190D01*
X684377Y-425450D01*
X671372Y-421385D01*
X657910Y-419150D01*
X644296Y-418693D01*
X630732Y-420014D01*
X617474Y-423214D01*
X604723Y-428091D01*
X592785Y-434644D01*
X581812Y-442722D01*
X572008Y-452221D01*
X563524Y-462940D01*
X556564Y-474675D01*
X551281Y-487222D01*
X547674Y-500380D01*
X545846Y-513892D01*
X545846Y-527507D01*
X547674Y-541020D01*
X551281Y-554177D01*
X556564Y-566724D01*
X563524Y-578459D01*
X572008Y-589178D01*
X581812Y-598678D01*
X592785Y-606755D01*
X604723Y-613308D01*
X617474Y-618185D01*
X630732Y-621385D01*
G37*
G36*
X11490096Y-584606D02*
G01*
X11503710Y-584149D01*
X11517172Y-581914D01*
X11530177Y-577850D01*
X11542572Y-572109D01*
X11554053Y-564794D01*
X11564467Y-556006D01*
X11573611Y-545846D01*
X11581333Y-534619D01*
X11587480Y-522478D01*
X11591950Y-509574D01*
X11594693Y-496214D01*
X11595608Y-482600D01*
X11594693Y-468985D01*
X11591950Y-455625D01*
X11587480Y-442722D01*
X11581333Y-430580D01*
X11573611Y-419354D01*
X11564467Y-409194D01*
X11554053Y-400405D01*
X11542572Y-393090D01*
X11530177Y-387350D01*
X11517172Y-383286D01*
X11503710Y-381050D01*
X11490096Y-380593D01*
X11476532Y-381914D01*
X11463274Y-385114D01*
X11450523Y-389991D01*
X11438585Y-396544D01*
X11427612Y-404622D01*
X11417808Y-414121D01*
X11409324Y-424840D01*
X11402364Y-436575D01*
X11397081Y-449122D01*
X11393474Y-462280D01*
X11391646Y-475792D01*
X11391646Y-489407D01*
X11393474Y-502920D01*
X11397081Y-516077D01*
X11402364Y-528624D01*
X11409324Y-540359D01*
X11417808Y-551078D01*
X11427612Y-560578D01*
X11438585Y-568655D01*
X11450523Y-575208D01*
X11463274Y-580085D01*
X11476532Y-583285D01*
G37*

%LPD*%
D10*
X3324859Y-6934200D02*
G01*
X3324859Y-6798284D01*
X4362195Y-4364101D02*
G01*
X4362195Y-5760948D01*
X3324859Y-6798284D01*
X5435600Y-2806725D02*
G01*
X5435600Y-4584700D01*
X5194300Y-4826000D01*
X6718300Y-4064000D02*
G01*
X6718300Y-4171975D01*
D11*
X6007100Y-2431618D02*
G01*
X6007100Y-1289050D01*
X6197600Y-2806725D02*
G01*
X6070777Y-2679903D01*
X6070777Y-2495295D01*
X6007100Y-2431618D01*
X5943600Y-2806725D02*
G01*
X5943600Y-6845300D01*
X6718300Y-7620000D01*
X5194300Y-6858000D02*
G01*
X5689600Y-6362700D01*
X5689600Y-2806725D01*
X5194300Y-7366000D02*
G01*
X5816600Y-6743700D01*
X5816600Y-2679725D01*
X5943600Y-2552725D01*
X6007100Y-2431618D02*
G01*
X5326075Y-2431618D01*
X5086197Y-2671495D01*
X5086197Y-4874615D01*
X5164581Y-4953000D01*
X5233517Y-4953000D01*
X5305120Y-5024602D01*
X5305120Y-5887872D01*
X5223992Y-5969000D01*
X5155082Y-5969000D01*
X5029454Y-6094628D01*
X5029454Y-7455154D01*
X5194300Y-7620000D01*
X6718300Y-4171975D02*
G01*
X6745300Y-4171975D01*
X8745600Y-6172276D01*
X8745600Y-6563893D01*
X5194300Y-7112000D02*
G01*
X5076240Y-6993940D01*
X5076240Y-6818655D01*
X5163896Y-6731000D01*
X5237683Y-6731000D01*
X5562600Y-6406083D01*
X5562600Y-2679725D01*
X5689600Y-2552725D01*
X5194300Y-5842000D02*
G01*
X4569079Y-5216779D01*
X4569079Y-3554984D01*
X4362195Y-3348101D01*
X4362195Y-3856101D02*
G01*
X4471111Y-3965016D01*
X4471111Y-5623407D01*
X4562703Y-5715000D01*
X6718300Y-7366000D02*
G01*
X6333591Y-6981291D01*
X6333591Y-2688640D01*
D10*
X11740895Y-4376801D02*
G01*
X11319256Y-3955161D01*
X6617588Y-3955161D01*
X6610197Y-3962552D01*
X6610197Y-4209897D01*
X6718300Y-4318000D01*
D12*
G01*
X11740895Y-3360801D03*
G01*
X11740895Y-3614801D03*
G01*
X11740895Y-3868801D03*
G01*
X11740895Y-4122801D03*
G01*
X11740895Y-4376801D03*
G01*
X4362195Y-3348101D03*
G01*
X4362195Y-3602101D03*
G01*
X4362195Y-3856101D03*
G01*
X4362195Y-4110101D03*
G01*
X4362195Y-4364101D03*
D13*
G01*
X6197600Y-2806725D03*
G01*
X6197600Y-2552725D03*
G01*
X5943600Y-2806725D03*
G01*
X5943600Y-2552725D03*
G01*
X5689600Y-2806725D03*
G01*
X5689600Y-2552725D03*
G01*
X5435600Y-2806725D03*
D14*
G01*
X5435866Y-2552700D03*
D15*
G01*
X5194300Y-4064000D03*
D17*
G01*
X6718300Y-4318000D03*
G01*
X6718300Y-4826000D03*
G01*
X6718300Y-5334000D03*
G01*
X6718300Y-5842000D03*
G01*
X6718300Y-6350000D03*
G01*
X6718300Y-6858000D03*
G01*
X6718300Y-7366000D03*
G01*
X5194300Y-7620000D03*
G01*
X5194300Y-7112000D03*
G01*
X5194300Y-6604000D03*
G01*
X5194300Y-6096000D03*
G01*
X5194300Y-5588000D03*
G01*
X5194300Y-5080000D03*
G01*
X5194300Y-4572000D03*
G01*
X5194300Y-4318000D03*
G01*
X5194300Y-4826000D03*
G01*
X5194300Y-5334000D03*
G01*
X5194300Y-5842000D03*
G01*
X5194300Y-6350000D03*
G01*
X5194300Y-6858000D03*
G01*
X5194300Y-7366000D03*
G01*
X6718300Y-7620000D03*
G01*
X6718300Y-7112000D03*
G01*
X6718300Y-6604000D03*
G01*
X6718300Y-6096000D03*
G01*
X6718300Y-5588000D03*
G01*
X6718300Y-5080000D03*
G01*
X6718300Y-4572000D03*
D15*
G01*
X6718300Y-4064000D03*
D18*
G01*
X8745603Y-6446404D03*
D19*
G01*
X8745603Y-7161394D03*
D20*
G01*
X3324860Y-6934200D03*
G01*
X3126739Y-6934200D03*
D12*
G01*
X647700Y-520700D03*
G01*
X11493500Y-482600D03*
G01*
X11506200Y-7543800D03*
G01*
X635000Y-7531100D03*
D21*
G01*
X4562703Y-5715000D03*
G01*
X6333591Y-2688640D03*
M02*
