G04 Layer: TopSilkscreenLayer*
G04 EasyEDA v6.5.54, 2026-03-22 16:28:19*
G04 736e05e4acd94e0b9f36c1e704408de8,17207d9f925147dcae5d87ed66dba453,10*
G04 Gerber Generator version 0.2*
G04 Scale: 100 percent, Rotated: No, Reflected: No *
G04 Dimensions in millimeters *
G04 leading zeros omitted , absolute positions ,4 integer and 5 decimal *
%FSLAX45Y45*%
%MOMM*%

%ADD10C,0.1524*%
%ADD11C,0.1000*%
%ADD12C,0.2032*%
%ADD13C,0.1500*%
%ADD14C,0.2540*%
%ADD15C,0.1520*%
%ADD16C,0.0132*%

%LPD*%
D10*
X9970770Y-2399284D02*
G01*
X9970770Y-2482342D01*
X9965436Y-2498089D01*
X9960356Y-2503170D01*
X9949941Y-2508250D01*
X9939527Y-2508250D01*
X9929113Y-2503170D01*
X9923779Y-2498089D01*
X9918700Y-2482342D01*
X9918700Y-2471928D01*
X10077704Y-2414778D02*
G01*
X10067290Y-2404363D01*
X10051795Y-2399284D01*
X10030968Y-2399284D01*
X10015220Y-2404363D01*
X10005059Y-2414778D01*
X10005059Y-2425192D01*
X10010140Y-2435605D01*
X10015220Y-2440939D01*
X10025634Y-2446020D01*
X10056875Y-2456434D01*
X10067290Y-2461513D01*
X10072370Y-2466847D01*
X10077704Y-2477262D01*
X10077704Y-2492755D01*
X10067290Y-2503170D01*
X10051795Y-2508250D01*
X10030968Y-2508250D01*
X10015220Y-2503170D01*
X10005059Y-2492755D01*
X10143236Y-2399284D02*
G01*
X10127488Y-2404363D01*
X10117074Y-2420112D01*
X10111993Y-2446020D01*
X10111993Y-2461513D01*
X10117074Y-2487676D01*
X10127488Y-2503170D01*
X10143236Y-2508250D01*
X10153650Y-2508250D01*
X10169143Y-2503170D01*
X10179558Y-2487676D01*
X10184638Y-2461513D01*
X10184638Y-2446020D01*
X10179558Y-2420112D01*
X10169143Y-2404363D01*
X10153650Y-2399284D01*
X10143236Y-2399284D01*
X10218927Y-2420112D02*
G01*
X10229341Y-2414778D01*
X10245090Y-2399284D01*
X10245090Y-2508250D01*
D11*
X10649125Y-4363405D02*
G01*
X10644553Y-4354261D01*
X10635409Y-4345371D01*
X10626265Y-4340799D01*
X10608231Y-4340799D01*
X10599087Y-4345371D01*
X10589943Y-4354261D01*
X10585371Y-4363405D01*
X10580799Y-4377121D01*
X10580799Y-4399727D01*
X10585371Y-4413443D01*
X10589943Y-4422587D01*
X10599087Y-4431731D01*
X10608231Y-4436049D01*
X10626265Y-4436049D01*
X10635409Y-4431731D01*
X10644553Y-4422587D01*
X10649125Y-4413443D01*
X10649125Y-4399727D01*
X10626265Y-4399727D02*
G01*
X10649125Y-4399727D01*
X10679097Y-4340799D02*
G01*
X10679097Y-4436049D01*
X10679097Y-4340799D02*
G01*
X10742597Y-4436049D01*
X10742597Y-4340799D02*
G01*
X10742597Y-4436049D01*
X10772823Y-4340799D02*
G01*
X10772823Y-4436049D01*
X10772823Y-4340799D02*
G01*
X10804573Y-4340799D01*
X10818289Y-4345371D01*
X10827179Y-4354261D01*
X10831751Y-4363405D01*
X10836323Y-4377121D01*
X10836323Y-4399727D01*
X10831751Y-4413443D01*
X10827179Y-4422587D01*
X10818289Y-4431731D01*
X10804573Y-4436049D01*
X10772823Y-4436049D01*
D12*
X9340895Y-3760797D02*
G01*
X9340895Y-3954599D01*
X9470181Y-3760797D02*
G01*
X9340895Y-3890083D01*
X9387123Y-3843855D02*
G01*
X9470181Y-3954599D01*
X9531141Y-3760797D02*
G01*
X9605055Y-3852999D01*
X9605055Y-3954599D01*
X9678969Y-3760797D02*
G01*
X9605055Y-3852999D01*
X9795301Y-3760797D02*
G01*
X9767615Y-3769941D01*
X9749073Y-3797627D01*
X9739929Y-3843855D01*
X9739929Y-3871541D01*
X9749073Y-3917769D01*
X9767615Y-3945455D01*
X9795301Y-3954599D01*
X9813843Y-3954599D01*
X9841529Y-3945455D01*
X9860071Y-3917769D01*
X9869215Y-3871541D01*
X9869215Y-3843855D01*
X9860071Y-3797627D01*
X9841529Y-3769941D01*
X9813843Y-3760797D01*
X9795301Y-3760797D01*
X9939319Y-3806771D02*
G01*
X9939319Y-3797627D01*
X9948717Y-3779085D01*
X9957861Y-3769941D01*
X9976403Y-3760797D01*
X10013233Y-3760797D01*
X10031775Y-3769941D01*
X10040919Y-3779085D01*
X10050317Y-3797627D01*
X10050317Y-3816169D01*
X10040919Y-3834711D01*
X10022631Y-3862397D01*
X9930175Y-3954599D01*
X10059461Y-3954599D01*
X10138963Y-3760797D02*
G01*
X10240563Y-3760797D01*
X10185191Y-3834711D01*
X10212877Y-3834711D01*
X10231165Y-3843855D01*
X10240563Y-3852999D01*
X10249707Y-3880685D01*
X10249707Y-3899227D01*
X10240563Y-3926913D01*
X10222021Y-3945455D01*
X10194335Y-3954599D01*
X10166649Y-3954599D01*
X10138963Y-3945455D01*
X10129565Y-3936311D01*
X10120421Y-3917769D01*
D11*
X10635488Y-4076192D02*
G01*
X10590022Y-4076192D01*
X10585450Y-4117086D01*
X10590022Y-4112513D01*
X10603738Y-4108195D01*
X10617200Y-4108195D01*
X10630915Y-4112513D01*
X10640059Y-4121657D01*
X10644631Y-4135373D01*
X10644631Y-4144518D01*
X10640059Y-4157979D01*
X10630915Y-4167123D01*
X10617200Y-4171695D01*
X10603738Y-4171695D01*
X10590022Y-4167123D01*
X10585450Y-4162552D01*
X10580877Y-4153407D01*
X10674604Y-4076192D02*
G01*
X10710925Y-4171695D01*
X10747247Y-4076192D02*
G01*
X10710925Y-4171695D01*
X10580877Y-3836162D02*
G01*
X10617200Y-3931665D01*
X10653522Y-3836162D02*
G01*
X10617200Y-3931665D01*
X10683747Y-3836162D02*
G01*
X10683747Y-3931665D01*
X10683747Y-3836162D02*
G01*
X10724641Y-3836162D01*
X10738104Y-3840734D01*
X10742675Y-3845305D01*
X10747247Y-3854450D01*
X10747247Y-3863594D01*
X10742675Y-3872737D01*
X10738104Y-3877055D01*
X10724641Y-3881628D01*
X10683747Y-3881628D01*
X10715497Y-3881628D02*
G01*
X10747247Y-3931665D01*
X10777220Y-3836162D02*
G01*
X10840974Y-3931665D01*
X10840974Y-3836162D02*
G01*
X10777220Y-3931665D01*
X10580877Y-3586226D02*
G01*
X10617200Y-3681729D01*
X10653522Y-3586226D02*
G01*
X10617200Y-3681729D01*
X10683747Y-3586226D02*
G01*
X10683747Y-3681729D01*
X10683747Y-3586226D02*
G01*
X10724641Y-3586226D01*
X10738104Y-3590797D01*
X10742675Y-3595370D01*
X10747247Y-3604513D01*
X10747247Y-3613404D01*
X10742675Y-3622547D01*
X10738104Y-3627120D01*
X10724641Y-3631692D01*
X10683747Y-3631692D01*
X10715497Y-3631692D02*
G01*
X10747247Y-3681729D01*
X10777220Y-3586226D02*
G01*
X10813541Y-3631692D01*
X10813541Y-3681729D01*
X10850118Y-3586226D02*
G01*
X10813541Y-3631692D01*
X10644631Y-3350005D02*
G01*
X10635488Y-3340862D01*
X10621772Y-3336289D01*
X10603738Y-3336289D01*
X10590022Y-3340862D01*
X10580877Y-3350005D01*
X10580877Y-3358895D01*
X10585450Y-3368039D01*
X10590022Y-3372612D01*
X10599165Y-3377184D01*
X10626343Y-3386328D01*
X10635488Y-3390900D01*
X10640059Y-3395471D01*
X10644631Y-3404362D01*
X10644631Y-3418078D01*
X10635488Y-3427221D01*
X10621772Y-3431794D01*
X10603738Y-3431794D01*
X10590022Y-3427221D01*
X10580877Y-3418078D01*
X10674604Y-3336289D02*
G01*
X10697209Y-3431794D01*
X10720070Y-3336289D02*
G01*
X10697209Y-3431794D01*
X10720070Y-3336289D02*
G01*
X10742675Y-3431794D01*
X10765536Y-3336289D02*
G01*
X10742675Y-3431794D01*
D10*
X2592070Y-2386584D02*
G01*
X2592070Y-2469642D01*
X2586736Y-2485389D01*
X2581656Y-2490470D01*
X2571241Y-2495550D01*
X2560827Y-2495550D01*
X2550413Y-2490470D01*
X2545079Y-2485389D01*
X2540000Y-2469642D01*
X2540000Y-2459228D01*
X2699004Y-2402078D02*
G01*
X2688590Y-2391663D01*
X2673095Y-2386584D01*
X2652268Y-2386584D01*
X2636520Y-2391663D01*
X2626359Y-2402078D01*
X2626359Y-2412492D01*
X2631440Y-2422905D01*
X2636520Y-2428239D01*
X2646934Y-2433320D01*
X2678175Y-2443734D01*
X2688590Y-2448813D01*
X2693670Y-2454147D01*
X2699004Y-2464562D01*
X2699004Y-2480055D01*
X2688590Y-2490470D01*
X2673095Y-2495550D01*
X2652268Y-2495550D01*
X2636520Y-2490470D01*
X2626359Y-2480055D01*
X2764536Y-2386584D02*
G01*
X2748788Y-2391663D01*
X2738374Y-2407412D01*
X2733293Y-2433320D01*
X2733293Y-2448813D01*
X2738374Y-2474976D01*
X2748788Y-2490470D01*
X2764536Y-2495550D01*
X2774950Y-2495550D01*
X2790443Y-2490470D01*
X2800858Y-2474976D01*
X2805938Y-2448813D01*
X2805938Y-2433320D01*
X2800858Y-2407412D01*
X2790443Y-2391663D01*
X2774950Y-2386584D01*
X2764536Y-2386584D01*
X2845561Y-2412492D02*
G01*
X2845561Y-2407412D01*
X2850641Y-2396997D01*
X2855975Y-2391663D01*
X2866390Y-2386584D01*
X2886963Y-2386584D01*
X2897377Y-2391663D01*
X2902711Y-2396997D01*
X2907791Y-2407412D01*
X2907791Y-2417826D01*
X2902711Y-2428239D01*
X2892297Y-2443734D01*
X2840227Y-2495550D01*
X2913125Y-2495550D01*
D11*
X3270425Y-4350705D02*
G01*
X3265853Y-4341561D01*
X3256709Y-4332671D01*
X3247565Y-4328099D01*
X3229531Y-4328099D01*
X3220387Y-4332671D01*
X3211243Y-4341561D01*
X3206671Y-4350705D01*
X3202099Y-4364421D01*
X3202099Y-4387027D01*
X3206671Y-4400743D01*
X3211243Y-4409887D01*
X3220387Y-4419031D01*
X3229531Y-4423349D01*
X3247565Y-4423349D01*
X3256709Y-4419031D01*
X3265853Y-4409887D01*
X3270425Y-4400743D01*
X3270425Y-4387027D01*
X3247565Y-4387027D02*
G01*
X3270425Y-4387027D01*
X3300397Y-4328099D02*
G01*
X3300397Y-4423349D01*
X3300397Y-4328099D02*
G01*
X3363897Y-4423349D01*
X3363897Y-4328099D02*
G01*
X3363897Y-4423349D01*
X3394123Y-4328099D02*
G01*
X3394123Y-4423349D01*
X3394123Y-4328099D02*
G01*
X3425873Y-4328099D01*
X3439589Y-4332671D01*
X3448479Y-4341561D01*
X3453051Y-4350705D01*
X3457623Y-4364421D01*
X3457623Y-4387027D01*
X3453051Y-4400743D01*
X3448479Y-4409887D01*
X3439589Y-4419031D01*
X3425873Y-4423349D01*
X3394123Y-4423349D01*
D12*
X1962195Y-3748097D02*
G01*
X1962195Y-3941899D01*
X2091481Y-3748097D02*
G01*
X1962195Y-3877383D01*
X2008423Y-3831155D02*
G01*
X2091481Y-3941899D01*
X2152441Y-3748097D02*
G01*
X2226355Y-3840299D01*
X2226355Y-3941899D01*
X2300269Y-3748097D02*
G01*
X2226355Y-3840299D01*
X2416601Y-3748097D02*
G01*
X2388915Y-3757241D01*
X2370373Y-3784927D01*
X2361229Y-3831155D01*
X2361229Y-3858841D01*
X2370373Y-3905069D01*
X2388915Y-3932755D01*
X2416601Y-3941899D01*
X2435143Y-3941899D01*
X2462829Y-3932755D01*
X2481371Y-3905069D01*
X2490515Y-3858841D01*
X2490515Y-3831155D01*
X2481371Y-3784927D01*
X2462829Y-3757241D01*
X2435143Y-3748097D01*
X2416601Y-3748097D01*
X2560619Y-3794071D02*
G01*
X2560619Y-3784927D01*
X2570017Y-3766385D01*
X2579161Y-3757241D01*
X2597703Y-3748097D01*
X2634533Y-3748097D01*
X2653075Y-3757241D01*
X2662219Y-3766385D01*
X2671617Y-3784927D01*
X2671617Y-3803469D01*
X2662219Y-3822011D01*
X2643931Y-3849697D01*
X2551475Y-3941899D01*
X2680761Y-3941899D01*
X2760263Y-3748097D02*
G01*
X2861863Y-3748097D01*
X2806491Y-3822011D01*
X2834177Y-3822011D01*
X2852465Y-3831155D01*
X2861863Y-3840299D01*
X2871007Y-3867985D01*
X2871007Y-3886527D01*
X2861863Y-3914213D01*
X2843321Y-3932755D01*
X2815635Y-3941899D01*
X2787949Y-3941899D01*
X2760263Y-3932755D01*
X2750865Y-3923611D01*
X2741721Y-3905069D01*
D11*
X3256788Y-4063492D02*
G01*
X3211322Y-4063492D01*
X3206750Y-4104386D01*
X3211322Y-4099813D01*
X3225038Y-4095495D01*
X3238500Y-4095495D01*
X3252215Y-4099813D01*
X3261359Y-4108957D01*
X3265931Y-4122673D01*
X3265931Y-4131818D01*
X3261359Y-4145279D01*
X3252215Y-4154423D01*
X3238500Y-4158995D01*
X3225038Y-4158995D01*
X3211322Y-4154423D01*
X3206750Y-4149852D01*
X3202177Y-4140707D01*
X3295904Y-4063492D02*
G01*
X3332225Y-4158995D01*
X3368547Y-4063492D02*
G01*
X3332225Y-4158995D01*
X3202177Y-3823462D02*
G01*
X3238500Y-3918965D01*
X3274822Y-3823462D02*
G01*
X3238500Y-3918965D01*
X3305047Y-3823462D02*
G01*
X3305047Y-3918965D01*
X3305047Y-3823462D02*
G01*
X3345941Y-3823462D01*
X3359404Y-3828034D01*
X3363975Y-3832605D01*
X3368547Y-3841750D01*
X3368547Y-3850894D01*
X3363975Y-3860037D01*
X3359404Y-3864355D01*
X3345941Y-3868928D01*
X3305047Y-3868928D01*
X3336797Y-3868928D02*
G01*
X3368547Y-3918965D01*
X3398520Y-3823462D02*
G01*
X3462274Y-3918965D01*
X3462274Y-3823462D02*
G01*
X3398520Y-3918965D01*
X3202177Y-3573526D02*
G01*
X3238500Y-3669029D01*
X3274822Y-3573526D02*
G01*
X3238500Y-3669029D01*
X3305047Y-3573526D02*
G01*
X3305047Y-3669029D01*
X3305047Y-3573526D02*
G01*
X3345941Y-3573526D01*
X3359404Y-3578097D01*
X3363975Y-3582670D01*
X3368547Y-3591813D01*
X3368547Y-3600704D01*
X3363975Y-3609847D01*
X3359404Y-3614420D01*
X3345941Y-3618992D01*
X3305047Y-3618992D01*
X3336797Y-3618992D02*
G01*
X3368547Y-3669029D01*
X3398520Y-3573526D02*
G01*
X3434841Y-3618992D01*
X3434841Y-3669029D01*
X3471418Y-3573526D02*
G01*
X3434841Y-3618992D01*
X3265931Y-3337305D02*
G01*
X3256788Y-3328162D01*
X3243072Y-3323589D01*
X3225038Y-3323589D01*
X3211322Y-3328162D01*
X3202177Y-3337305D01*
X3202177Y-3346195D01*
X3206750Y-3355339D01*
X3211322Y-3359912D01*
X3220465Y-3364484D01*
X3247643Y-3373628D01*
X3256788Y-3378200D01*
X3261359Y-3382771D01*
X3265931Y-3391662D01*
X3265931Y-3405378D01*
X3256788Y-3414521D01*
X3243072Y-3419094D01*
X3225038Y-3419094D01*
X3211322Y-3414521D01*
X3202177Y-3405378D01*
X3295904Y-3323589D02*
G01*
X3318509Y-3419094D01*
X3341370Y-3323589D02*
G01*
X3318509Y-3419094D01*
X3341370Y-3323589D02*
G01*
X3363975Y-3419094D01*
X3386836Y-3323589D02*
G01*
X3363975Y-3419094D01*
D10*
X6006287Y-3137115D02*
G01*
X6006287Y-3028149D01*
X6006287Y-3137115D02*
G01*
X5933643Y-3028149D01*
X5933643Y-3137115D02*
G01*
X5933643Y-3028149D01*
X5899353Y-3137115D02*
G01*
X5899353Y-3028149D01*
X5899353Y-3137115D02*
G01*
X5852617Y-3137115D01*
X5836869Y-3132035D01*
X5831789Y-3126701D01*
X5826455Y-3116287D01*
X5826455Y-3105873D01*
X5831789Y-3095459D01*
X5836869Y-3090379D01*
X5852617Y-3085299D01*
X5899353Y-3085299D01*
X5862777Y-3085299D02*
G01*
X5826455Y-3028149D01*
X5792165Y-3137115D02*
G01*
X5792165Y-3028149D01*
X5792165Y-3137115D02*
G01*
X5724601Y-3137115D01*
X5792165Y-3085299D02*
G01*
X5750763Y-3085299D01*
X5685231Y-3111207D02*
G01*
X5685231Y-3116287D01*
X5679897Y-3126701D01*
X5674817Y-3132035D01*
X5664403Y-3137115D01*
X5643575Y-3137115D01*
X5633161Y-3132035D01*
X5628081Y-3126701D01*
X5622747Y-3116287D01*
X5622747Y-3105873D01*
X5628081Y-3095459D01*
X5638495Y-3079965D01*
X5690311Y-3028149D01*
X5617667Y-3028149D01*
X5531307Y-3137115D02*
G01*
X5583377Y-3064471D01*
X5505399Y-3064471D01*
X5531307Y-3137115D02*
G01*
X5531307Y-3028149D01*
X5471109Y-3137115D02*
G01*
X5471109Y-3028149D01*
X5471109Y-3028149D02*
G01*
X5408879Y-3028149D01*
X5343347Y-3137115D02*
G01*
X5358841Y-3132035D01*
X5369255Y-3116287D01*
X5374589Y-3090379D01*
X5374589Y-3074885D01*
X5369255Y-3048723D01*
X5358841Y-3033229D01*
X5343347Y-3028149D01*
X5332933Y-3028149D01*
X5317439Y-3033229D01*
X5307025Y-3048723D01*
X5301691Y-3074885D01*
X5301691Y-3090379D01*
X5307025Y-3116287D01*
X5317439Y-3132035D01*
X5332933Y-3137115D01*
X5343347Y-3137115D01*
X5267401Y-3116287D02*
G01*
X5256987Y-3121621D01*
X5241493Y-3137115D01*
X5241493Y-3028149D01*
X4901184Y-5918200D02*
G01*
X4979161Y-5918200D01*
X4994656Y-5913120D01*
X5005070Y-5902705D01*
X5010150Y-5886957D01*
X5010150Y-5876544D01*
X5005070Y-5861050D01*
X4994656Y-5850636D01*
X4979161Y-5845555D01*
X4901184Y-5845555D01*
X4922011Y-5811265D02*
G01*
X4916677Y-5800852D01*
X4901184Y-5785104D01*
X5010150Y-5785104D01*
D13*
X6555305Y-7666037D02*
G01*
X6555305Y-7570533D01*
X6555305Y-7666037D02*
G01*
X6523555Y-7666037D01*
X6509839Y-7661465D01*
X6500695Y-7652575D01*
X6496123Y-7643431D01*
X6491551Y-7629715D01*
X6491551Y-7607109D01*
X6496123Y-7593393D01*
X6500695Y-7584249D01*
X6509839Y-7575105D01*
X6523555Y-7570533D01*
X6555305Y-7570533D01*
X6461579Y-7648003D02*
G01*
X6452689Y-7652575D01*
X6438973Y-7666037D01*
X6438973Y-7570533D01*
X6399857Y-7666037D02*
G01*
X6349819Y-7666037D01*
X6376997Y-7629715D01*
X6363535Y-7629715D01*
X6354391Y-7625143D01*
X6349819Y-7620571D01*
X6345247Y-7607109D01*
X6345247Y-7597965D01*
X6349819Y-7584249D01*
X6358963Y-7575105D01*
X6372679Y-7570533D01*
X6386141Y-7570533D01*
X6399857Y-7575105D01*
X6404429Y-7579677D01*
X6409001Y-7588821D01*
X6546166Y-7412042D02*
G01*
X6496128Y-7412042D01*
X6523560Y-7375720D01*
X6509844Y-7375720D01*
X6500700Y-7371148D01*
X6496128Y-7366576D01*
X6491556Y-7353114D01*
X6491556Y-7343970D01*
X6496128Y-7330254D01*
X6505272Y-7321110D01*
X6518988Y-7316538D01*
X6532704Y-7316538D01*
X6546166Y-7321110D01*
X6550738Y-7325682D01*
X6555310Y-7334826D01*
X6461584Y-7412042D02*
G01*
X6425262Y-7316538D01*
X6388940Y-7412042D02*
G01*
X6425262Y-7316538D01*
X6349824Y-7412042D02*
G01*
X6299786Y-7412042D01*
X6327218Y-7375720D01*
X6313502Y-7375720D01*
X6304358Y-7371148D01*
X6299786Y-7366576D01*
X6295214Y-7353114D01*
X6295214Y-7343970D01*
X6299786Y-7330254D01*
X6308930Y-7321110D01*
X6322646Y-7316538D01*
X6336108Y-7316538D01*
X6349824Y-7321110D01*
X6354396Y-7325682D01*
X6358968Y-7334826D01*
X6555310Y-7158042D02*
G01*
X6555310Y-7062538D01*
X6555310Y-7158042D02*
G01*
X6514416Y-7158042D01*
X6500700Y-7153470D01*
X6496128Y-7148898D01*
X6491556Y-7140008D01*
X6491556Y-7130864D01*
X6496128Y-7121720D01*
X6500700Y-7117148D01*
X6514416Y-7112576D01*
X6555310Y-7112576D01*
X6523560Y-7112576D02*
G01*
X6491556Y-7062538D01*
X6461584Y-7158042D02*
G01*
X6461584Y-7062538D01*
X6461584Y-7158042D02*
G01*
X6402656Y-7158042D01*
X6461584Y-7112576D02*
G01*
X6425262Y-7112576D01*
X6461584Y-7062538D02*
G01*
X6402656Y-7062538D01*
X6372684Y-7158042D02*
G01*
X6372684Y-7062538D01*
X6372684Y-7158042D02*
G01*
X6313502Y-7158042D01*
X6372684Y-7112576D02*
G01*
X6336108Y-7112576D01*
X6518986Y-6904040D02*
G01*
X6555308Y-6808536D01*
X6518986Y-6904040D02*
G01*
X6482664Y-6808536D01*
X6541592Y-6840540D02*
G01*
X6496126Y-6840540D01*
X6425260Y-6904040D02*
G01*
X6438976Y-6899468D01*
X6448120Y-6886006D01*
X6452692Y-6863146D01*
X6452692Y-6849684D01*
X6448120Y-6826824D01*
X6438976Y-6813108D01*
X6425260Y-6808536D01*
X6416116Y-6808536D01*
X6402654Y-6813108D01*
X6393510Y-6826824D01*
X6388938Y-6849684D01*
X6388938Y-6863146D01*
X6393510Y-6886006D01*
X6402654Y-6899468D01*
X6416116Y-6904040D01*
X6425260Y-6904040D01*
X6518988Y-6650042D02*
G01*
X6555310Y-6554538D01*
X6518988Y-6650042D02*
G01*
X6482666Y-6554538D01*
X6541594Y-6586542D02*
G01*
X6496128Y-6586542D01*
X6452694Y-6632008D02*
G01*
X6443550Y-6636580D01*
X6429834Y-6650042D01*
X6429834Y-6554538D01*
X6518986Y-6396040D02*
G01*
X6555308Y-6300536D01*
X6518986Y-6396040D02*
G01*
X6482664Y-6300536D01*
X6541592Y-6332540D02*
G01*
X6496126Y-6332540D01*
X6448120Y-6373434D02*
G01*
X6448120Y-6378006D01*
X6443548Y-6386896D01*
X6438976Y-6391468D01*
X6429832Y-6396040D01*
X6411798Y-6396040D01*
X6402654Y-6391468D01*
X6398082Y-6386896D01*
X6393510Y-6378006D01*
X6393510Y-6368862D01*
X6398082Y-6359718D01*
X6407226Y-6346002D01*
X6452692Y-6300536D01*
X6388938Y-6300536D01*
X6518986Y-6142040D02*
G01*
X6555308Y-6046536D01*
X6518986Y-6142040D02*
G01*
X6482664Y-6046536D01*
X6541592Y-6078540D02*
G01*
X6496126Y-6078540D01*
X6443548Y-6142040D02*
G01*
X6393510Y-6142040D01*
X6420688Y-6105718D01*
X6407226Y-6105718D01*
X6398082Y-6101146D01*
X6393510Y-6096574D01*
X6388938Y-6083112D01*
X6388938Y-6073968D01*
X6393510Y-6060252D01*
X6402654Y-6051108D01*
X6416116Y-6046536D01*
X6429832Y-6046536D01*
X6443548Y-6051108D01*
X6448120Y-6055680D01*
X6452692Y-6064824D01*
X6518983Y-5888037D02*
G01*
X6555305Y-5792533D01*
X6518983Y-5888037D02*
G01*
X6482661Y-5792533D01*
X6541589Y-5824537D02*
G01*
X6496123Y-5824537D01*
X6407223Y-5888037D02*
G01*
X6452689Y-5824537D01*
X6384363Y-5824537D01*
X6407223Y-5888037D02*
G01*
X6407223Y-5792533D01*
X6518986Y-5634040D02*
G01*
X6555308Y-5538536D01*
X6518986Y-5634040D02*
G01*
X6482664Y-5538536D01*
X6541592Y-5570540D02*
G01*
X6496126Y-5570540D01*
X6398082Y-5634040D02*
G01*
X6443548Y-5634040D01*
X6448120Y-5593146D01*
X6443548Y-5597718D01*
X6429832Y-5602290D01*
X6416116Y-5602290D01*
X6402654Y-5597718D01*
X6393510Y-5588574D01*
X6388938Y-5575112D01*
X6388938Y-5565968D01*
X6393510Y-5552252D01*
X6402654Y-5543108D01*
X6416116Y-5538536D01*
X6429832Y-5538536D01*
X6443548Y-5543108D01*
X6448120Y-5547680D01*
X6452692Y-5556824D01*
X6518983Y-5380037D02*
G01*
X6555305Y-5284533D01*
X6518983Y-5380037D02*
G01*
X6482661Y-5284533D01*
X6541589Y-5316537D02*
G01*
X6496123Y-5316537D01*
X6398079Y-5366575D02*
G01*
X6402651Y-5375465D01*
X6416113Y-5380037D01*
X6425257Y-5380037D01*
X6438973Y-5375465D01*
X6448117Y-5362003D01*
X6452689Y-5339143D01*
X6452689Y-5316537D01*
X6448117Y-5298249D01*
X6438973Y-5289105D01*
X6425257Y-5284533D01*
X6420685Y-5284533D01*
X6407223Y-5289105D01*
X6398079Y-5298249D01*
X6393507Y-5311965D01*
X6393507Y-5316537D01*
X6398079Y-5329999D01*
X6407223Y-5339143D01*
X6420685Y-5343715D01*
X6425257Y-5343715D01*
X6438973Y-5339143D01*
X6448117Y-5329999D01*
X6452689Y-5316537D01*
X6518986Y-5126040D02*
G01*
X6555308Y-5030536D01*
X6518986Y-5126040D02*
G01*
X6482664Y-5030536D01*
X6541592Y-5062540D02*
G01*
X6496126Y-5062540D01*
X6388938Y-5126040D02*
G01*
X6434404Y-5030536D01*
X6452692Y-5126040D02*
G01*
X6388938Y-5126040D01*
X6500698Y-4872040D02*
G01*
X6546164Y-4872040D01*
X6550736Y-4831146D01*
X6546164Y-4835718D01*
X6532702Y-4840290D01*
X6518986Y-4840290D01*
X6505270Y-4835718D01*
X6496126Y-4826574D01*
X6491554Y-4813112D01*
X6491554Y-4803968D01*
X6496126Y-4790252D01*
X6505270Y-4781108D01*
X6518986Y-4776536D01*
X6532702Y-4776536D01*
X6546164Y-4781108D01*
X6550736Y-4785680D01*
X6555308Y-4794824D01*
X6461582Y-4872040D02*
G01*
X6425260Y-4776536D01*
X6388938Y-4872040D02*
G01*
X6425260Y-4776536D01*
X6555310Y-4618042D02*
G01*
X6555310Y-4522538D01*
X6555310Y-4618042D02*
G01*
X6514416Y-4618042D01*
X6500700Y-4613470D01*
X6496128Y-4608898D01*
X6491556Y-4600008D01*
X6491556Y-4590864D01*
X6496128Y-4581720D01*
X6500700Y-4577148D01*
X6514416Y-4572576D01*
X6555310Y-4572576D01*
X6523560Y-4572576D02*
G01*
X6491556Y-4522538D01*
X6398084Y-4604580D02*
G01*
X6407228Y-4613470D01*
X6420690Y-4618042D01*
X6438978Y-4618042D01*
X6452694Y-4613470D01*
X6461584Y-4604580D01*
X6461584Y-4595436D01*
X6457012Y-4586292D01*
X6452694Y-4581720D01*
X6443550Y-4577148D01*
X6416118Y-4568004D01*
X6407228Y-4563686D01*
X6402656Y-4559114D01*
X6398084Y-4549970D01*
X6398084Y-4536254D01*
X6407228Y-4527110D01*
X6420690Y-4522538D01*
X6438978Y-4522538D01*
X6452694Y-4527110D01*
X6461584Y-4536254D01*
X6336108Y-4618042D02*
G01*
X6336108Y-4522538D01*
X6368112Y-4618042D02*
G01*
X6304358Y-4618042D01*
X6487236Y-4341434D02*
G01*
X6491554Y-4350578D01*
X6500698Y-4359468D01*
X6509842Y-4364040D01*
X6528130Y-4364040D01*
X6537020Y-4359468D01*
X6546164Y-4350578D01*
X6550736Y-4341434D01*
X6555308Y-4327718D01*
X6555308Y-4305112D01*
X6550736Y-4291396D01*
X6546164Y-4282252D01*
X6537020Y-4273108D01*
X6528130Y-4268536D01*
X6509842Y-4268536D01*
X6500698Y-4273108D01*
X6491554Y-4282252D01*
X6487236Y-4291396D01*
X6487236Y-4305112D01*
X6509842Y-4305112D02*
G01*
X6487236Y-4305112D01*
X6457010Y-4364040D02*
G01*
X6457010Y-4268536D01*
X6457010Y-4364040D02*
G01*
X6393510Y-4268536D01*
X6393510Y-4364040D02*
G01*
X6393510Y-4268536D01*
X6363538Y-4364040D02*
G01*
X6363538Y-4268536D01*
X6363538Y-4364040D02*
G01*
X6331788Y-4364040D01*
X6318072Y-4359468D01*
X6308928Y-4350578D01*
X6304356Y-4341434D01*
X6299784Y-4327718D01*
X6299784Y-4305112D01*
X6304356Y-4291396D01*
X6308928Y-4282252D01*
X6318072Y-4273108D01*
X6331788Y-4268536D01*
X6363538Y-4268536D01*
X6555305Y-4110037D02*
G01*
X6518983Y-4014533D01*
X6482661Y-4110037D02*
G01*
X6518983Y-4014533D01*
X6452689Y-4110037D02*
G01*
X6452689Y-4014533D01*
X6422463Y-4110037D02*
G01*
X6422463Y-4014533D01*
X6422463Y-4110037D02*
G01*
X6358963Y-4014533D01*
X6358963Y-4110037D02*
G01*
X6358963Y-4014533D01*
X5566407Y-7668041D02*
G01*
X5566407Y-7572537D01*
X5566407Y-7668041D02*
G01*
X5534657Y-7668041D01*
X5520941Y-7663469D01*
X5511797Y-7654579D01*
X5507225Y-7645435D01*
X5502653Y-7631719D01*
X5502653Y-7609113D01*
X5507225Y-7595397D01*
X5511797Y-7586253D01*
X5520941Y-7577109D01*
X5534657Y-7572537D01*
X5566407Y-7572537D01*
X5472681Y-7650007D02*
G01*
X5463791Y-7654579D01*
X5450075Y-7668041D01*
X5450075Y-7572537D01*
X5415531Y-7645435D02*
G01*
X5415531Y-7650007D01*
X5410959Y-7658897D01*
X5406387Y-7663469D01*
X5397243Y-7668041D01*
X5379209Y-7668041D01*
X5370065Y-7663469D01*
X5365493Y-7658897D01*
X5360921Y-7650007D01*
X5360921Y-7640863D01*
X5365493Y-7631719D01*
X5374637Y-7618003D01*
X5420103Y-7572537D01*
X5356349Y-7572537D01*
X5525513Y-7414044D02*
G01*
X5525513Y-7318540D01*
X5525513Y-7414044D02*
G01*
X5493763Y-7414044D01*
X5480047Y-7409472D01*
X5470903Y-7400582D01*
X5466331Y-7391438D01*
X5461759Y-7377722D01*
X5461759Y-7355116D01*
X5466331Y-7341400D01*
X5470903Y-7332256D01*
X5480047Y-7323112D01*
X5493763Y-7318540D01*
X5525513Y-7318540D01*
X5431787Y-7396010D02*
G01*
X5422897Y-7400582D01*
X5409181Y-7414044D01*
X5409181Y-7318540D01*
X5379209Y-7396010D02*
G01*
X5370065Y-7400582D01*
X5356349Y-7414044D01*
X5356349Y-7318540D01*
X5566407Y-7160041D02*
G01*
X5566407Y-7064537D01*
X5566407Y-7160041D02*
G01*
X5534657Y-7160041D01*
X5520941Y-7155469D01*
X5511797Y-7146579D01*
X5507225Y-7137435D01*
X5502653Y-7123719D01*
X5502653Y-7101113D01*
X5507225Y-7087397D01*
X5511797Y-7078253D01*
X5520941Y-7069109D01*
X5534657Y-7064537D01*
X5566407Y-7064537D01*
X5472681Y-7142007D02*
G01*
X5463791Y-7146579D01*
X5450075Y-7160041D01*
X5450075Y-7064537D01*
X5392671Y-7160041D02*
G01*
X5406387Y-7155469D01*
X5415531Y-7142007D01*
X5420103Y-7119147D01*
X5420103Y-7105685D01*
X5415531Y-7082825D01*
X5406387Y-7069109D01*
X5392671Y-7064537D01*
X5383781Y-7064537D01*
X5370065Y-7069109D01*
X5360921Y-7082825D01*
X5356349Y-7105685D01*
X5356349Y-7119147D01*
X5360921Y-7142007D01*
X5370065Y-7155469D01*
X5383781Y-7160041D01*
X5392671Y-7160041D01*
X5509003Y-6906041D02*
G01*
X5509003Y-6810537D01*
X5509003Y-6906041D02*
G01*
X5477253Y-6906041D01*
X5463537Y-6901469D01*
X5454393Y-6892579D01*
X5449821Y-6883435D01*
X5445249Y-6869719D01*
X5445249Y-6847113D01*
X5449821Y-6833397D01*
X5454393Y-6824253D01*
X5463537Y-6815109D01*
X5477253Y-6810537D01*
X5509003Y-6810537D01*
X5356349Y-6874291D02*
G01*
X5360921Y-6860575D01*
X5369811Y-6851685D01*
X5383527Y-6847113D01*
X5388099Y-6847113D01*
X5401815Y-6851685D01*
X5410705Y-6860575D01*
X5415277Y-6874291D01*
X5415277Y-6878863D01*
X5410705Y-6892579D01*
X5401815Y-6901469D01*
X5388099Y-6906041D01*
X5383527Y-6906041D01*
X5369811Y-6901469D01*
X5360921Y-6892579D01*
X5356349Y-6874291D01*
X5356349Y-6851685D01*
X5360921Y-6828825D01*
X5369811Y-6815109D01*
X5383527Y-6810537D01*
X5392671Y-6810537D01*
X5406387Y-6815109D01*
X5410705Y-6824253D01*
X5513575Y-6652044D02*
G01*
X5513575Y-6556540D01*
X5513575Y-6652044D02*
G01*
X5481825Y-6652044D01*
X5468109Y-6647472D01*
X5458965Y-6638582D01*
X5454393Y-6629438D01*
X5449821Y-6615722D01*
X5449821Y-6593116D01*
X5454393Y-6579400D01*
X5458965Y-6570256D01*
X5468109Y-6561112D01*
X5481825Y-6556540D01*
X5513575Y-6556540D01*
X5397243Y-6652044D02*
G01*
X5410959Y-6647472D01*
X5415277Y-6638582D01*
X5415277Y-6629438D01*
X5410959Y-6620294D01*
X5401815Y-6615722D01*
X5383527Y-6611150D01*
X5370065Y-6606578D01*
X5360921Y-6597688D01*
X5356349Y-6588544D01*
X5356349Y-6574828D01*
X5360921Y-6565684D01*
X5365493Y-6561112D01*
X5378955Y-6556540D01*
X5397243Y-6556540D01*
X5410959Y-6561112D01*
X5415277Y-6565684D01*
X5419849Y-6574828D01*
X5419849Y-6588544D01*
X5415277Y-6597688D01*
X5406387Y-6606578D01*
X5392671Y-6611150D01*
X5374383Y-6615722D01*
X5365493Y-6620294D01*
X5360921Y-6629438D01*
X5360921Y-6638582D01*
X5365493Y-6647472D01*
X5378955Y-6652044D01*
X5397243Y-6652044D01*
X5513575Y-6398041D02*
G01*
X5513575Y-6302537D01*
X5513575Y-6398041D02*
G01*
X5481825Y-6398041D01*
X5468109Y-6393469D01*
X5458965Y-6384579D01*
X5454393Y-6375435D01*
X5449821Y-6361719D01*
X5449821Y-6339113D01*
X5454393Y-6325397D01*
X5458965Y-6316253D01*
X5468109Y-6307109D01*
X5481825Y-6302537D01*
X5513575Y-6302537D01*
X5356349Y-6398041D02*
G01*
X5401815Y-6302537D01*
X5419849Y-6398041D02*
G01*
X5356349Y-6398041D01*
X5509003Y-6144041D02*
G01*
X5509003Y-6048537D01*
X5509003Y-6144041D02*
G01*
X5477253Y-6144041D01*
X5463537Y-6139469D01*
X5454393Y-6130579D01*
X5449821Y-6121435D01*
X5445249Y-6107719D01*
X5445249Y-6085113D01*
X5449821Y-6071397D01*
X5454393Y-6062253D01*
X5463537Y-6053109D01*
X5477253Y-6048537D01*
X5509003Y-6048537D01*
X5360921Y-6130579D02*
G01*
X5365493Y-6139469D01*
X5378955Y-6144041D01*
X5388099Y-6144041D01*
X5401815Y-6139469D01*
X5410705Y-6126007D01*
X5415277Y-6103147D01*
X5415277Y-6080541D01*
X5410705Y-6062253D01*
X5401815Y-6053109D01*
X5388099Y-6048537D01*
X5383527Y-6048537D01*
X5369811Y-6053109D01*
X5360921Y-6062253D01*
X5356349Y-6075969D01*
X5356349Y-6080541D01*
X5360921Y-6094003D01*
X5369811Y-6103147D01*
X5383527Y-6107719D01*
X5388099Y-6107719D01*
X5401815Y-6103147D01*
X5410705Y-6094003D01*
X5415277Y-6080541D01*
X5513575Y-5890044D02*
G01*
X5513575Y-5794540D01*
X5513575Y-5890044D02*
G01*
X5481825Y-5890044D01*
X5468109Y-5885472D01*
X5458965Y-5876582D01*
X5454393Y-5867438D01*
X5449821Y-5853722D01*
X5449821Y-5831116D01*
X5454393Y-5817400D01*
X5458965Y-5808256D01*
X5468109Y-5799112D01*
X5481825Y-5794540D01*
X5513575Y-5794540D01*
X5365493Y-5890044D02*
G01*
X5410959Y-5890044D01*
X5415277Y-5849150D01*
X5410959Y-5853722D01*
X5397243Y-5858294D01*
X5383527Y-5858294D01*
X5370065Y-5853722D01*
X5360921Y-5844578D01*
X5356349Y-5831116D01*
X5356349Y-5821972D01*
X5360921Y-5808256D01*
X5370065Y-5799112D01*
X5383527Y-5794540D01*
X5397243Y-5794540D01*
X5410959Y-5799112D01*
X5415277Y-5803684D01*
X5419849Y-5812828D01*
X5518147Y-5636041D02*
G01*
X5518147Y-5540537D01*
X5518147Y-5636041D02*
G01*
X5486397Y-5636041D01*
X5472681Y-5631469D01*
X5463537Y-5622579D01*
X5458965Y-5613435D01*
X5454393Y-5599719D01*
X5454393Y-5577113D01*
X5458965Y-5563397D01*
X5463537Y-5554253D01*
X5472681Y-5545109D01*
X5486397Y-5540537D01*
X5518147Y-5540537D01*
X5378955Y-5636041D02*
G01*
X5424421Y-5572541D01*
X5356349Y-5572541D01*
X5378955Y-5636041D02*
G01*
X5378955Y-5540537D01*
X5513575Y-5382041D02*
G01*
X5513575Y-5286537D01*
X5513575Y-5382041D02*
G01*
X5481825Y-5382041D01*
X5468109Y-5377469D01*
X5458965Y-5368579D01*
X5454393Y-5359435D01*
X5449821Y-5345719D01*
X5449821Y-5323113D01*
X5454393Y-5309397D01*
X5458965Y-5300253D01*
X5468109Y-5291109D01*
X5481825Y-5286537D01*
X5513575Y-5286537D01*
X5410959Y-5382041D02*
G01*
X5360921Y-5382041D01*
X5388099Y-5345719D01*
X5374383Y-5345719D01*
X5365493Y-5341147D01*
X5360921Y-5336575D01*
X5356349Y-5323113D01*
X5356349Y-5313969D01*
X5360921Y-5300253D01*
X5370065Y-5291109D01*
X5383527Y-5286537D01*
X5397243Y-5286537D01*
X5410959Y-5291109D01*
X5415277Y-5295681D01*
X5419849Y-5304825D01*
X5513575Y-5128044D02*
G01*
X5513575Y-5032540D01*
X5513575Y-5128044D02*
G01*
X5481825Y-5128044D01*
X5468109Y-5123472D01*
X5458965Y-5114582D01*
X5454393Y-5105438D01*
X5449821Y-5091722D01*
X5449821Y-5069116D01*
X5454393Y-5055400D01*
X5458965Y-5046256D01*
X5468109Y-5037112D01*
X5481825Y-5032540D01*
X5513575Y-5032540D01*
X5415277Y-5105438D02*
G01*
X5415277Y-5110010D01*
X5410959Y-5118900D01*
X5406387Y-5123472D01*
X5397243Y-5128044D01*
X5378955Y-5128044D01*
X5370065Y-5123472D01*
X5365493Y-5118900D01*
X5360921Y-5110010D01*
X5360921Y-5100866D01*
X5365493Y-5091722D01*
X5374383Y-5078006D01*
X5419849Y-5032540D01*
X5356349Y-5032540D01*
X5543801Y-4851435D02*
G01*
X5548119Y-4860579D01*
X5557263Y-4869469D01*
X5566407Y-4874041D01*
X5584695Y-4874041D01*
X5593585Y-4869469D01*
X5602729Y-4860579D01*
X5607301Y-4851435D01*
X5611873Y-4837719D01*
X5611873Y-4815113D01*
X5607301Y-4801397D01*
X5602729Y-4792253D01*
X5593585Y-4783109D01*
X5584695Y-4778537D01*
X5566407Y-4778537D01*
X5557263Y-4783109D01*
X5548119Y-4792253D01*
X5543801Y-4801397D01*
X5543801Y-4815113D01*
X5566407Y-4815113D02*
G01*
X5543801Y-4815113D01*
X5513575Y-4874041D02*
G01*
X5513575Y-4778537D01*
X5513575Y-4874041D02*
G01*
X5450075Y-4778537D01*
X5450075Y-4874041D02*
G01*
X5450075Y-4778537D01*
X5420103Y-4874041D02*
G01*
X5420103Y-4778537D01*
X5420103Y-4874041D02*
G01*
X5388353Y-4874041D01*
X5374637Y-4869469D01*
X5365493Y-4860579D01*
X5360921Y-4851435D01*
X5356349Y-4837719D01*
X5356349Y-4815113D01*
X5360921Y-4801397D01*
X5365493Y-4792253D01*
X5374637Y-4783109D01*
X5388353Y-4778537D01*
X5420103Y-4778537D01*
X5607301Y-4620041D02*
G01*
X5607301Y-4524537D01*
X5607301Y-4620041D02*
G01*
X5566407Y-4620041D01*
X5552691Y-4615469D01*
X5548119Y-4610897D01*
X5543547Y-4602007D01*
X5543547Y-4592863D01*
X5548119Y-4583719D01*
X5552691Y-4579147D01*
X5566407Y-4574575D01*
X5607301Y-4574575D01*
X5575551Y-4574575D02*
G01*
X5543547Y-4524537D01*
X5450075Y-4606579D02*
G01*
X5459219Y-4615469D01*
X5472681Y-4620041D01*
X5490969Y-4620041D01*
X5504685Y-4615469D01*
X5513575Y-4606579D01*
X5513575Y-4597435D01*
X5509003Y-4588291D01*
X5504685Y-4583719D01*
X5495541Y-4579147D01*
X5468109Y-4570003D01*
X5459219Y-4565685D01*
X5454647Y-4561113D01*
X5450075Y-4551969D01*
X5450075Y-4538253D01*
X5459219Y-4529109D01*
X5472681Y-4524537D01*
X5490969Y-4524537D01*
X5504685Y-4529109D01*
X5513575Y-4538253D01*
X5388099Y-4620041D02*
G01*
X5388099Y-4524537D01*
X5420103Y-4620041D02*
G01*
X5356349Y-4620041D01*
X5607301Y-4366044D02*
G01*
X5607301Y-4270540D01*
X5607301Y-4366044D02*
G01*
X5566407Y-4366044D01*
X5552691Y-4361472D01*
X5548119Y-4356900D01*
X5543547Y-4348010D01*
X5543547Y-4338866D01*
X5548119Y-4329722D01*
X5552691Y-4325150D01*
X5566407Y-4320578D01*
X5607301Y-4320578D01*
X5575551Y-4320578D02*
G01*
X5543547Y-4270540D01*
X5513575Y-4366044D02*
G01*
X5450075Y-4270540D01*
X5450075Y-4366044D02*
G01*
X5513575Y-4270540D01*
X5420103Y-4366044D02*
G01*
X5420103Y-4270540D01*
X5420103Y-4366044D02*
G01*
X5388099Y-4366044D01*
X5374637Y-4361472D01*
X5365493Y-4352582D01*
X5360921Y-4343438D01*
X5356349Y-4329722D01*
X5356349Y-4307116D01*
X5360921Y-4293400D01*
X5365493Y-4284256D01*
X5374637Y-4275112D01*
X5388099Y-4270540D01*
X5420103Y-4270540D01*
X5575551Y-4112041D02*
G01*
X5575551Y-4016537D01*
X5607301Y-4112041D02*
G01*
X5543547Y-4112041D01*
X5513575Y-4112041D02*
G01*
X5450075Y-4016537D01*
X5450075Y-4112041D02*
G01*
X5513575Y-4016537D01*
X5420103Y-4112041D02*
G01*
X5420103Y-4016537D01*
X5420103Y-4112041D02*
G01*
X5388099Y-4112041D01*
X5374637Y-4107469D01*
X5365493Y-4098579D01*
X5360921Y-4089435D01*
X5356349Y-4075719D01*
X5356349Y-4053113D01*
X5360921Y-4039397D01*
X5365493Y-4030253D01*
X5374637Y-4021109D01*
X5388099Y-4016537D01*
X5420103Y-4016537D01*
G36*
X5616600Y-179730D02*
G01*
X5616600Y-279704D01*
X5716625Y-279704D01*
X5716625Y-179730D01*
G37*
G36*
X5816600Y-579729D02*
G01*
X5816600Y-679704D01*
X5916625Y-679704D01*
X5916625Y-579729D01*
G37*
G36*
X6016599Y-179730D02*
G01*
X6016599Y-279704D01*
X6116624Y-279704D01*
X6116624Y-179730D01*
G37*
G36*
X6216599Y-579729D02*
G01*
X6216599Y-679704D01*
X6316624Y-679704D01*
X6316624Y-579729D01*
G37*
G36*
X5516626Y-179730D02*
G01*
X5516626Y-779729D01*
X5616600Y-779729D01*
X5616600Y-179730D01*
G37*
G36*
X5716625Y-179730D02*
G01*
X5716625Y-679704D01*
X5816600Y-679704D01*
X5816600Y-179730D01*
G37*
G36*
X5916625Y-179730D02*
G01*
X5916625Y-679704D01*
X6016599Y-679704D01*
X6016599Y-179730D01*
G37*
G36*
X6116624Y-179730D02*
G01*
X6116624Y-679704D01*
X6216599Y-679704D01*
X6216599Y-179730D01*
G37*
G36*
X6416598Y-179730D02*
G01*
X6416598Y-279704D01*
X6716623Y-279704D01*
X6716623Y-179730D01*
G37*
G36*
X6316624Y-179730D02*
G01*
X6316624Y-679704D01*
X6416598Y-679704D01*
X6416598Y-179730D01*
G37*
D14*
X11340845Y-2560828D02*
G01*
X11340845Y-5160771D01*
X8040877Y-5160771D01*
X8040877Y-4514850D01*
X8040877Y-2560828D01*
X11340894Y-2560797D02*
G01*
X8040900Y-2560797D01*
X11740901Y-4380801D02*
G01*
X10970900Y-4380801D01*
X11745897Y-4130804D02*
G01*
X10975896Y-4130804D01*
X11745899Y-3870802D02*
G01*
X10975898Y-3870802D01*
X11765899Y-3620803D02*
G01*
X10995898Y-3620803D01*
X11735899Y-3370803D02*
G01*
X10965898Y-3370803D01*
X3962145Y-2548128D02*
G01*
X3962145Y-5148071D01*
X662178Y-5148071D01*
X662178Y-4502150D01*
X662178Y-2548128D01*
X3962194Y-2548097D02*
G01*
X662200Y-2548097D01*
X4362201Y-4368101D02*
G01*
X3592200Y-4368101D01*
X4367197Y-4118104D02*
G01*
X3597196Y-4118104D01*
X4367199Y-3858102D02*
G01*
X3597198Y-3858102D01*
X4387199Y-3608103D02*
G01*
X3617198Y-3608103D01*
X4357199Y-3358103D02*
G01*
X3587198Y-3358103D01*
X5217609Y-126718D02*
G01*
X5217609Y-2986709D01*
X6747598Y-126718D02*
G01*
X5217609Y-126718D01*
X6747598Y-2986709D02*
G01*
X6747598Y-126718D01*
X5217609Y-2986709D02*
G01*
X6747598Y-2986709D01*
X5296606Y-2411729D02*
G01*
X6336604Y-2411729D01*
X6336604Y-2931718D01*
X5296606Y-2931718D01*
X5296606Y-2411729D01*
D15*
X6845239Y-5524540D02*
G01*
X6781739Y-5461040D01*
X6845239Y-5397540D01*
X6591251Y-7683525D02*
G01*
X6654751Y-7747025D01*
X6781751Y-7747025D01*
X6845251Y-7683525D01*
X6591251Y-7429525D02*
G01*
X6654751Y-7493025D01*
X6591251Y-7556525D01*
X6591251Y-7175525D02*
G01*
X6654751Y-7239025D01*
X6591251Y-7302525D01*
X6591251Y-6921571D02*
G01*
X6654751Y-6985048D01*
X6591251Y-7048548D01*
X6591251Y-6667576D02*
G01*
X6654751Y-6731076D01*
X6591251Y-6794576D01*
X6591251Y-6413576D02*
G01*
X6654751Y-6477076D01*
X6591251Y-6540576D01*
X6591251Y-6159576D02*
G01*
X6654751Y-6223076D01*
X6591251Y-6286576D01*
X6591251Y-5905576D02*
G01*
X6654751Y-5969076D01*
X6591251Y-6032576D01*
X6591251Y-5651576D02*
G01*
X6654751Y-5715076D01*
X6591251Y-5778576D01*
X6591251Y-5397576D02*
G01*
X6654751Y-5461076D01*
X6591251Y-5524576D01*
X6591251Y-5143576D02*
G01*
X6654751Y-5207076D01*
X6591251Y-5270576D01*
X6591251Y-4889576D02*
G01*
X6654751Y-4953076D01*
X6591251Y-5016576D01*
X6591251Y-4635548D02*
G01*
X6654751Y-4699071D01*
X6591251Y-4762576D01*
X6591251Y-4381540D02*
G01*
X6654751Y-4445040D01*
X6591251Y-4508540D01*
X6591251Y-4127540D02*
G01*
X6654751Y-4191040D01*
X6591251Y-4254540D01*
X6845251Y-4000540D02*
G01*
X6781751Y-3937040D01*
X6654751Y-3937040D01*
X6591251Y-4000540D01*
X6845251Y-4254540D02*
G01*
X6781751Y-4191040D01*
X6845251Y-4127540D01*
X6845251Y-4508540D02*
G01*
X6781751Y-4445040D01*
X6845251Y-4381540D01*
X6845251Y-4762576D02*
G01*
X6781751Y-4699071D01*
X6845251Y-4635548D01*
X6845251Y-7048548D02*
G01*
X6781751Y-6985048D01*
X6845251Y-6921571D01*
X6845251Y-7556525D02*
G01*
X6781751Y-7493025D01*
X6845251Y-7429525D01*
X6845251Y-7302525D02*
G01*
X6781751Y-7239025D01*
X6845251Y-7175525D01*
X6845251Y-6794576D02*
G01*
X6781751Y-6731076D01*
X6845251Y-6667576D01*
X6845251Y-6540576D02*
G01*
X6781751Y-6477076D01*
X6845251Y-6413576D01*
X6845251Y-6286576D02*
G01*
X6781751Y-6223076D01*
X6845251Y-6159576D01*
X6845251Y-6032576D02*
G01*
X6781751Y-5969076D01*
X6845251Y-5905576D01*
X6845251Y-5778576D02*
G01*
X6781751Y-5715076D01*
X6845251Y-5651576D01*
X6845251Y-5270576D02*
G01*
X6781751Y-5207076D01*
X6845251Y-5143576D01*
X6845251Y-5016576D02*
G01*
X6781751Y-4953076D01*
X6845251Y-4889576D01*
X6845251Y-4762576D02*
G01*
X6781751Y-4699071D01*
X6845251Y-4635548D01*
X6845251Y-4508540D01*
X6781751Y-4445040D01*
X6845251Y-4381540D01*
X6845251Y-4254540D01*
X6781751Y-4191040D01*
X6845251Y-4127540D01*
X6845251Y-4000540D01*
X6781751Y-3937040D01*
X6654751Y-3937040D01*
X6591251Y-4000540D01*
X6591251Y-4127540D01*
X6654751Y-4191040D01*
X6591251Y-4254540D01*
X6591251Y-4381540D01*
X6654751Y-4445040D01*
X6591251Y-4508540D01*
X6591251Y-4635548D01*
X6654751Y-4699071D01*
X6591251Y-4762576D01*
X6591251Y-4889576D01*
X6654751Y-4953076D01*
X6591251Y-5016576D01*
X6591251Y-5143576D01*
X6654751Y-5207076D01*
X6591251Y-5270576D01*
X6591251Y-5397576D01*
X6654751Y-5461076D01*
X6591251Y-5524576D01*
X6591251Y-5651576D01*
X6654751Y-5715076D01*
X6591251Y-5778576D01*
X6591251Y-5905576D01*
X6654751Y-5969076D01*
X6591251Y-6032576D01*
X6591251Y-6159576D01*
X6654751Y-6223076D01*
X6591251Y-6286576D01*
X6591251Y-6413576D01*
X6654751Y-6477076D01*
X6591251Y-6540576D01*
X6591251Y-6667576D01*
X6654751Y-6731076D01*
X6591251Y-6794576D01*
X6591251Y-6921571D01*
X6654751Y-6985048D01*
X6591251Y-7048548D01*
X6591251Y-7175525D01*
X6654751Y-7239025D01*
X6591251Y-7302525D01*
X6591251Y-7429525D01*
X6654751Y-7493025D01*
X6591251Y-7556525D01*
X6591251Y-7683525D01*
X6654751Y-7747025D01*
X6781751Y-7747025D01*
X6845251Y-7683525D01*
X5067343Y-6159474D02*
G01*
X5130843Y-6222974D01*
X5067343Y-6286474D01*
X5067333Y-6921433D02*
G01*
X5130833Y-6984936D01*
X5067333Y-7048461D01*
X5067333Y-7175474D01*
X5130833Y-7238974D01*
X5067333Y-7302474D01*
X5067333Y-7429474D01*
X5130833Y-7492974D01*
X5067333Y-7556474D01*
X5067333Y-7683474D01*
X5130833Y-7746974D01*
X5257833Y-7746974D01*
X5321333Y-7683474D01*
X5321333Y-7556474D01*
X5257833Y-7492974D01*
X5321333Y-7429474D01*
X5321333Y-7302474D01*
X5257833Y-7238974D01*
X5321333Y-7175474D01*
X5321333Y-7048461D01*
X5257833Y-6984936D01*
X5321333Y-6921433D01*
X5321333Y-6794433D01*
X5257833Y-6730933D01*
X5321333Y-6667433D01*
X5321333Y-6540433D01*
X5257833Y-6476933D01*
X5321333Y-6413433D01*
X5321333Y-6286433D01*
X5257833Y-6222933D01*
X5321333Y-6159433D01*
X5321333Y-6032433D01*
X5257833Y-5968933D01*
X5321333Y-5905433D01*
X5321333Y-5778433D01*
X5257833Y-5714933D01*
X5321333Y-5651433D01*
X5321333Y-5524433D01*
X5257833Y-5460933D01*
X5321333Y-5397433D01*
X5321333Y-5270433D01*
X5257833Y-5206933D01*
X5321333Y-5143433D01*
X5321333Y-5016433D01*
X5257833Y-4952933D01*
X5321333Y-4889433D01*
X5321333Y-4762439D01*
X5257833Y-4698961D01*
X5321333Y-4635461D01*
X5321333Y-4508484D01*
X5257833Y-4444984D01*
X5321333Y-4381484D01*
X5321333Y-4254484D01*
X5257833Y-4190984D01*
X5321333Y-4127484D01*
X5321333Y-4000484D01*
X5257833Y-3936984D01*
X5130833Y-3936984D01*
X5067333Y-4000484D01*
X5067333Y-4635461D02*
G01*
X5130833Y-4698961D01*
X5067333Y-4762439D01*
X5067333Y-4127484D02*
G01*
X5130833Y-4190984D01*
X5067333Y-4254484D01*
X5067333Y-4381484D02*
G01*
X5130833Y-4444984D01*
X5067333Y-4508484D01*
X5067333Y-4889433D02*
G01*
X5130833Y-4952933D01*
X5067333Y-5016433D01*
X5067333Y-5143433D02*
G01*
X5130833Y-5206933D01*
X5067333Y-5270433D01*
X5067333Y-5397433D02*
G01*
X5130833Y-5460933D01*
X5067333Y-5524433D01*
X5067333Y-5651433D02*
G01*
X5130833Y-5714933D01*
X5067333Y-5778433D01*
X5067333Y-5905433D02*
G01*
X5130833Y-5968933D01*
X5067333Y-6032433D01*
X5067333Y-6413433D02*
G01*
X5130833Y-6476933D01*
X5067333Y-6540433D01*
X5067333Y-6667433D02*
G01*
X5130833Y-6730933D01*
X5067333Y-6794433D01*
X5676900Y-7612379D02*
G01*
X5702289Y-7612379D01*
X5676900Y-8001000D02*
G01*
X5676900Y-8153400D01*
X6235700Y-8153400D01*
X6235700Y-7612379D01*
X6214795Y-7612379D01*
X5676900Y-8001000D02*
G01*
X5676900Y-7612379D01*
X5702289Y-7612379D02*
G01*
X6210300Y-7612379D01*
D10*
X5059682Y-8008620D02*
G01*
X5059682Y-3675387D01*
X6852920Y-3675387D01*
X6852920Y-8008620D01*
X5059682Y-8008620D01*
D14*
G75*
G01
X8467903Y-2917800D02*
G03X8467903Y-2917800I-167005J0D01*
G75*
G01
X8467903Y-4803800D02*
G03X8467903Y-4803800I-167005J0D01*
G75*
G01
X10990910Y-4803800D02*
G03X10990910Y-4803800I-167005J0D01*
G75*
G01
X10990910Y-2917800D02*
G03X10990910Y-2917800I-167005J0D01*
G75*
G01
X1089203Y-2905100D02*
G03X1089203Y-2905100I-167005J0D01*
G75*
G01
X1089203Y-4791100D02*
G03X1089203Y-4791100I-167005J0D01*
G75*
G01
X3612210Y-4791100D02*
G03X3612210Y-4791100I-167005J0D01*
G75*
G01
X3612210Y-2905100D02*
G03X3612210Y-2905100I-167005J0D01*
M02*
