G04 PROTEUS RS274X GERBER FILE*
%FSLAX45Y45*%
%MOMM*%
G01*
%ADD22C,1.016000*%
%AMPPAD015*
4,1,36,
-1.016000,1.143000,
1.016000,1.143000,
1.041590,1.140420,
1.065430,1.133020,
1.087000,1.121310,
1.105800,1.105800,
1.121310,1.087000,
1.133020,1.065430,
1.140420,1.041590,
1.143000,1.016000,
1.143000,-1.016000,
1.140420,-1.041590,
1.133020,-1.065430,
1.121310,-1.087000,
1.105800,-1.105800,
1.087000,-1.121310,
1.065430,-1.133020,
1.041590,-1.140420,
1.016000,-1.143000,
-1.016000,-1.143000,
-1.041590,-1.140420,
-1.065430,-1.133020,
-1.087000,-1.121310,
-1.105800,-1.105800,
-1.121310,-1.087000,
-1.133020,-1.065430,
-1.140420,-1.041590,
-1.143000,-1.016000,
-1.143000,1.016000,
-1.140420,1.041590,
-1.133020,1.065430,
-1.121310,1.087000,
-1.105800,1.105800,
-1.087000,1.121310,
-1.065430,1.133020,
-1.041590,1.140420,
-1.016000,1.143000,
0*%
%ADD23PPAD015*%
%ADD24C,1.778000*%
%ADD25C,2.286000*%
%ADD26C,3.302000*%
%ADD17C,0.101600*%
D22*
X-2924306Y+741441D03*
X-2929839Y+1217345D03*
X-2682595Y+1193037D03*
X-2684452Y+535756D03*
X-3779465Y+5262258D03*
X-4682660Y+5266069D03*
X-3811737Y+4552201D03*
X-4700692Y+4534508D03*
X-3857360Y+4886890D03*
X-3279821Y+4900786D03*
X-3998785Y+1381008D03*
X-4003139Y+787710D03*
X-1338848Y+2148897D03*
X-1605173Y+2413916D03*
D23*
X-3443414Y+5262939D03*
X-3443414Y+5516939D03*
X-3189414Y+5262939D03*
X-3189414Y+5516939D03*
X-2935414Y+5262939D03*
X-2935414Y+5516939D03*
X-2681414Y+5262939D03*
X-2681414Y+5516939D03*
X-3782220Y+4292600D03*
D24*
X-3782220Y+4038600D03*
X-3782220Y+3784600D03*
X-3782220Y+3530600D03*
X-3782220Y+3276600D03*
X-3782220Y+3022600D03*
X-3782220Y+2768600D03*
X-3782220Y+2514600D03*
X-3782220Y+2260600D03*
X-3782220Y+2006600D03*
X-3782220Y+1752600D03*
X-3782220Y+1498600D03*
X-3782220Y+1244600D03*
X-3782220Y+990600D03*
X-3782220Y+736600D03*
X-2260600Y+736600D03*
X-2260600Y+990600D03*
X-2260600Y+1244600D03*
X-2260600Y+1498600D03*
X-2260600Y+1752600D03*
X-2260600Y+2006600D03*
X-2260600Y+2260600D03*
X-2260600Y+2514600D03*
X-2260600Y+2768600D03*
X-2260600Y+3022600D03*
X-2260600Y+3276600D03*
X-2260600Y+3530600D03*
X-2260600Y+3784600D03*
X-2260600Y+4038600D03*
X-2260600Y+4292600D03*
D25*
X-1397000Y+3683000D03*
X-1397000Y+3429000D03*
X-1397000Y+3175000D03*
X-1397000Y+2921000D03*
X-1397000Y+2667000D03*
X-4699000Y+3683000D03*
X-4699000Y+3429000D03*
X-4699000Y+3175000D03*
X-4699000Y+2921000D03*
X-4699000Y+2667000D03*
X-1651000Y+889000D03*
X-1397000Y+889000D03*
D26*
X-762000Y+1143000D03*
X-254000Y+1143000D03*
D17*
X-5207000Y+0D02*
X+0Y+0D01*
X+0Y+7874000D01*
X-5207000Y+7874000D01*
X-5207000Y+0D01*
M02*
