G04 PROTEUS RS274X GERBER FILE*
%FSLAX45Y45*%
%MOMM*%
G01*
%ADD17C,0.101600*%
%ADD27C,0.812800*%
%ADD28C,0.691620*%
%ADD70C,0.152400*%
%ADD29C,0.840350*%
%ADD72C,0.337820*%
%ADD73C,0.183890*%
%ADD30C,1.219200*%
%ADD31C,0.279730*%
D17*
X-3805494Y+4876859D02*
X-2295334Y+4876859D01*
X-2295334Y+7887019D01*
X-3805494Y+7887019D01*
X-3805494Y+4876859D01*
D27*
X-3443414Y+5262939D02*
X-3443414Y+5262939D01*
D28*
X-3257901Y+5972836D02*
X-2912088Y+5972836D01*
X-2842926Y+6050643D01*
X-2842926Y+6361875D01*
X-2912088Y+6439683D01*
X-3257901Y+6439683D01*
X-3119576Y+6750914D02*
X-3257901Y+6906530D01*
X-2842926Y+6906530D01*
D70*
X-2108200Y+4470400D02*
X-2413000Y+4470400D01*
X-2413000Y+558800D02*
X-2108200Y+558800D01*
X-2108200Y+4470400D02*
X-2413000Y+4470400D01*
X-2413000Y+558800D01*
X-2108200Y+558800D01*
X-2108200Y+4470400D01*
X-3629820Y+4470400D02*
X-3934620Y+4470400D01*
X-3934620Y+558800D02*
X-3629820Y+558800D01*
X-3629820Y+4470400D02*
X-3934620Y+4470400D01*
X-3934620Y+558800D01*
X-3629820Y+558800D01*
X-3629820Y+4470400D01*
D27*
X-3782220Y+4292600D02*
X-3782220Y+4292600D01*
D29*
X-3273515Y+1645255D02*
X-2853340Y+1645255D01*
X-2769305Y+1739794D01*
X-2769305Y+2117951D01*
X-2853340Y+2212491D01*
X-3273515Y+2212491D01*
X-3189480Y+2496109D02*
X-3273515Y+2590648D01*
X-3273515Y+2874266D01*
X-3189480Y+2968806D01*
X-3105445Y+2968806D01*
X-3021410Y+2874266D01*
X-3021410Y+2590648D01*
X-2937375Y+2496109D01*
X-2769305Y+2496109D01*
X-2769305Y+2968806D01*
D17*
X-1656080Y+2407920D02*
X-1010920Y+2407920D01*
X-1010920Y+3942080D01*
X-1656080Y+3942080D01*
X-1656080Y+2407920D01*
D27*
X-1397000Y+3683000D02*
X-1397000Y+3683000D01*
D72*
X-1299718Y+2721102D02*
X-1265936Y+2721102D01*
X-1232154Y+2759106D01*
X-1232154Y+2911125D01*
X-1265936Y+2949130D01*
X-1434846Y+2949130D01*
X-1367282Y+3101149D02*
X-1434846Y+3177159D01*
X-1232154Y+3177159D01*
D17*
X-4958080Y+2407920D02*
X-4312920Y+2407920D01*
X-4312920Y+3942080D01*
X-4958080Y+3942080D01*
X-4958080Y+2407920D01*
D27*
X-4699000Y+3683000D02*
X-4699000Y+3683000D01*
D72*
X-4601718Y+2721102D02*
X-4567936Y+2721102D01*
X-4534154Y+2759106D01*
X-4534154Y+2911125D01*
X-4567936Y+2949130D01*
X-4736846Y+2949130D01*
X-4703064Y+3063144D02*
X-4736846Y+3101149D01*
X-4736846Y+3215163D01*
X-4703064Y+3253168D01*
X-4669282Y+3253168D01*
X-4635500Y+3215163D01*
X-4635500Y+3101149D01*
X-4601718Y+3063144D01*
X-4534154Y+3063144D01*
X-4534154Y+3253168D01*
D17*
X-1910080Y+629920D02*
X-1137920Y+629920D01*
X-1137920Y+1275080D01*
X-1910080Y+1275080D01*
X-1910080Y+629920D01*
D27*
X-1651000Y+889000D02*
X-1651000Y+889000D01*
D73*
X-1355750Y+786994D02*
X-1337360Y+786994D01*
X-1318971Y+807682D01*
X-1318971Y+890435D01*
X-1337360Y+911123D01*
X-1429308Y+911123D01*
X-1355750Y+1076629D02*
X-1355750Y+952500D01*
X-1429308Y+1035253D01*
X-1318971Y+1035253D01*
D17*
X-1021080Y+629920D02*
X+5080Y+629920D01*
X+5080Y+1656080D01*
X-1021080Y+1656080D01*
X-1021080Y+629920D01*
D30*
X-762000Y+1143000D02*
X-762000Y+1143000D01*
D31*
X-320006Y+891236D02*
X-292032Y+891236D01*
X-264058Y+922706D01*
X-264058Y+1048588D01*
X-292032Y+1080059D01*
X-431901Y+1080059D01*
X-403927Y+1174470D02*
X-431901Y+1205941D01*
X-431901Y+1300352D01*
X-403927Y+1331823D01*
X-375953Y+1331823D01*
X-347980Y+1300352D01*
X-320006Y+1331823D01*
X-292032Y+1331823D01*
X-264058Y+1300352D01*
X-264058Y+1205941D01*
X-292032Y+1174470D01*
X-347980Y+1237411D02*
X-347980Y+1300352D01*
D17*
X-5207000Y+0D02*
X+0Y+0D01*
X+0Y+7874000D01*
X-5207000Y+7874000D01*
X-5207000Y+0D01*
M02*
