G04 PROTEUS RS274X GERBER FILE*
%FSLAX45Y45*%
%MOMM*%
G01*
%ADD17C,0.101600*%
%ADD19C,0.063500*%
%ADD70C,0.152400*%
%ADD71C,0.254000*%
%ADD20C,0.635000*%
%ADD21C,0.406400*%
D17*
X-3570414Y+5135939D02*
X-2554414Y+5135939D01*
X-2554414Y+5643939D01*
X-3570414Y+5643939D01*
X-3570414Y+5135939D01*
X-3800414Y+4881939D02*
X-2300414Y+4881939D01*
X-2300414Y+7881939D01*
X-3800414Y+7881939D01*
X-3800414Y+4881939D01*
X-3931094Y+5537259D02*
X-3867594Y+5537259D01*
X-3854894Y+5550594D01*
X-3854894Y+5603934D01*
X-3867594Y+5617269D01*
X-3931094Y+5617269D01*
X-3905694Y+5670609D02*
X-3931094Y+5697279D01*
X-3854894Y+5697279D01*
D19*
X-3792445Y+6448616D02*
X-3792445Y+8643176D01*
X-3787365Y+6448616D02*
X-3787365Y+8643176D01*
X-3782285Y+6448616D02*
X-3782285Y+8643176D01*
X-3777205Y+6448616D02*
X-3777205Y+7672896D01*
X-3777205Y+7774496D02*
X-3777205Y+8643176D01*
X-3772125Y+6448616D02*
X-3772125Y+7672896D01*
X-3772125Y+7779576D02*
X-3772125Y+8643176D01*
X-3767045Y+6448616D02*
X-3767045Y+7667816D01*
X-3767045Y+7784656D02*
X-3767045Y+8643176D01*
X-3761965Y+6448616D02*
X-3761965Y+7662736D01*
X-3761965Y+7789736D02*
X-3761965Y+8643176D01*
X-3756885Y+6448616D02*
X-3756885Y+7657656D01*
X-3756885Y+7789736D02*
X-3756885Y+8643176D01*
X-3751805Y+6448616D02*
X-3751805Y+6463856D01*
X-3751805Y+6585776D02*
X-3751805Y+6611176D01*
X-3751805Y+6733096D02*
X-3751805Y+6824536D01*
X-3751805Y+6936296D02*
X-3751805Y+7027736D01*
X-3751805Y+7144576D02*
X-3751805Y+7657656D01*
X-3751805Y+7789736D02*
X-3751805Y+8643176D01*
X-3746725Y+6448616D02*
X-3746725Y+6463856D01*
X-3746725Y+6585776D02*
X-3746725Y+6611176D01*
X-3746725Y+6733096D02*
X-3746725Y+6824536D01*
X-3746725Y+6936296D02*
X-3746725Y+7022656D01*
X-3746725Y+7149656D02*
X-3746725Y+7657656D01*
X-3746725Y+7688136D02*
X-3746725Y+7774496D01*
X-3746725Y+7789736D02*
X-3746725Y+8643176D01*
X-3741645Y+6448616D02*
X-3741645Y+6453696D01*
X-3741645Y+6585776D02*
X-3741645Y+6606096D01*
X-3741645Y+6733096D02*
X-3741645Y+6814376D01*
X-3741645Y+6941376D02*
X-3741645Y+7022656D01*
X-3741645Y+7154736D02*
X-3741645Y+7657656D01*
X-3741645Y+7688136D02*
X-3741645Y+7774496D01*
X-3741645Y+7789736D02*
X-3741645Y+8643176D01*
X-3736565Y+6448616D02*
X-3736565Y+6453696D01*
X-3736565Y+6585776D02*
X-3736565Y+6601016D01*
X-3736565Y+6733096D02*
X-3736565Y+6814376D01*
X-3736565Y+6946456D02*
X-3736565Y+7022656D01*
X-3736565Y+7154736D02*
X-3736565Y+7657656D01*
X-3736565Y+7688136D02*
X-3736565Y+7774496D01*
X-3736565Y+7789736D02*
X-3736565Y+8643176D01*
X-3731485Y+6448616D02*
X-3731485Y+6453696D01*
X-3731485Y+6595936D02*
X-3731485Y+6601016D01*
X-3731485Y+6743256D02*
X-3731485Y+6814376D01*
X-3731485Y+6946456D02*
X-3731485Y+7017576D01*
X-3731485Y+7154736D02*
X-3731485Y+7657656D01*
X-3731485Y+7688136D02*
X-3731485Y+7774496D01*
X-3731485Y+7789736D02*
X-3731485Y+8643176D01*
X-3726405Y+6448616D02*
X-3726405Y+6453696D01*
X-3726405Y+6479096D02*
X-3726405Y+6570536D01*
X-3726405Y+6595936D02*
X-3726405Y+6601016D01*
X-3726405Y+6626416D02*
X-3726405Y+6717856D01*
X-3726405Y+6743256D02*
X-3726405Y+6814376D01*
X-3726405Y+6839776D02*
X-3726405Y+6921056D01*
X-3726405Y+6946456D02*
X-3726405Y+7012496D01*
X-3726405Y+7042976D02*
X-3726405Y+7129336D01*
X-3726405Y+7154736D02*
X-3726405Y+7657656D01*
X-3726405Y+7688136D02*
X-3726405Y+7774496D01*
X-3726405Y+7789736D02*
X-3726405Y+8643176D01*
X-3721325Y+6448616D02*
X-3721325Y+6453696D01*
X-3721325Y+6479096D02*
X-3721325Y+6570536D01*
X-3721325Y+6595936D02*
X-3721325Y+6601016D01*
X-3721325Y+6626416D02*
X-3721325Y+6717856D01*
X-3721325Y+6743256D02*
X-3721325Y+6814376D01*
X-3721325Y+6839776D02*
X-3721325Y+6921056D01*
X-3721325Y+6946456D02*
X-3721325Y+7012496D01*
X-3721325Y+7042976D02*
X-3721325Y+7129336D01*
X-3721325Y+7154736D02*
X-3721325Y+7657656D01*
X-3721325Y+7688136D02*
X-3721325Y+7774496D01*
X-3721325Y+7789736D02*
X-3721325Y+8643176D01*
X-3716245Y+6448616D02*
X-3716245Y+6453696D01*
X-3716245Y+6479096D02*
X-3716245Y+6570536D01*
X-3716245Y+6595936D02*
X-3716245Y+6601016D01*
X-3716245Y+6626416D02*
X-3716245Y+6717856D01*
X-3716245Y+6743256D02*
X-3716245Y+6814376D01*
X-3716245Y+6829616D02*
X-3716245Y+6931216D01*
X-3716245Y+6946456D02*
X-3716245Y+7012496D01*
X-3716245Y+7042976D02*
X-3716245Y+7129336D01*
X-3716245Y+7154736D02*
X-3716245Y+7657656D01*
X-3716245Y+7688136D02*
X-3716245Y+7774496D01*
X-3716245Y+7789736D02*
X-3716245Y+8643176D01*
X-3711165Y+6448616D02*
X-3711165Y+6453696D01*
X-3711165Y+6479096D02*
X-3711165Y+6570536D01*
X-3711165Y+6595936D02*
X-3711165Y+6601016D01*
X-3711165Y+6626416D02*
X-3711165Y+6717856D01*
X-3711165Y+6743256D02*
X-3711165Y+6814376D01*
X-3711165Y+6829616D02*
X-3711165Y+6931216D01*
X-3711165Y+6946456D02*
X-3711165Y+7012496D01*
X-3711165Y+7042976D02*
X-3711165Y+7129336D01*
X-3711165Y+7154736D02*
X-3711165Y+7657656D01*
X-3711165Y+7688136D02*
X-3711165Y+7698296D01*
X-3711165Y+7764336D02*
X-3711165Y+7774496D01*
X-3711165Y+7789736D02*
X-3711165Y+8643176D01*
X-3706085Y+6448616D02*
X-3706085Y+6453696D01*
X-3706085Y+6479096D02*
X-3706085Y+6570536D01*
X-3706085Y+6595936D02*
X-3706085Y+6601016D01*
X-3706085Y+6626416D02*
X-3706085Y+6717856D01*
X-3706085Y+6743256D02*
X-3706085Y+6814376D01*
X-3706085Y+6829616D02*
X-3706085Y+6931216D01*
X-3706085Y+6946456D02*
X-3706085Y+7012496D01*
X-3706085Y+7042976D02*
X-3706085Y+7129336D01*
X-3706085Y+7154736D02*
X-3706085Y+7657656D01*
X-3706085Y+7688136D02*
X-3706085Y+7693216D01*
X-3706085Y+7769416D02*
X-3706085Y+7774496D01*
X-3706085Y+7789736D02*
X-3706085Y+8643176D01*
X-3701005Y+6448616D02*
X-3701005Y+6453696D01*
X-3701005Y+6479096D02*
X-3701005Y+6570536D01*
X-3701005Y+6595936D02*
X-3701005Y+6601016D01*
X-3701005Y+6626416D02*
X-3701005Y+6717856D01*
X-3701005Y+6743256D02*
X-3701005Y+6814376D01*
X-3701005Y+6829616D02*
X-3701005Y+6931216D01*
X-3701005Y+6946456D02*
X-3701005Y+7012496D01*
X-3701005Y+7042976D02*
X-3701005Y+7129336D01*
X-3701005Y+7154736D02*
X-3701005Y+7657656D01*
X-3701005Y+7688136D02*
X-3701005Y+7693216D01*
X-3701005Y+7769416D02*
X-3701005Y+7774496D01*
X-3701005Y+7789736D02*
X-3701005Y+8643176D01*
X-3695925Y+6448616D02*
X-3695925Y+6453696D01*
X-3695925Y+6479096D02*
X-3695925Y+6570536D01*
X-3695925Y+6595936D02*
X-3695925Y+6601016D01*
X-3695925Y+6626416D02*
X-3695925Y+6717856D01*
X-3695925Y+6743256D02*
X-3695925Y+6814376D01*
X-3695925Y+6829616D02*
X-3695925Y+6931216D01*
X-3695925Y+6946456D02*
X-3695925Y+7012496D01*
X-3695925Y+7042976D02*
X-3695925Y+7129336D01*
X-3695925Y+7154736D02*
X-3695925Y+7657656D01*
X-3695925Y+7688136D02*
X-3695925Y+7693216D01*
X-3695925Y+7769416D02*
X-3695925Y+7774496D01*
X-3695925Y+7789736D02*
X-3695925Y+8643176D01*
X-3690845Y+6448616D02*
X-3690845Y+6453696D01*
X-3690845Y+6479096D02*
X-3690845Y+6570536D01*
X-3690845Y+6595936D02*
X-3690845Y+6601016D01*
X-3690845Y+6626416D02*
X-3690845Y+6717856D01*
X-3690845Y+6743256D02*
X-3690845Y+6814376D01*
X-3690845Y+6829616D02*
X-3690845Y+6931216D01*
X-3690845Y+6946456D02*
X-3690845Y+7012496D01*
X-3690845Y+7042976D02*
X-3690845Y+7129336D01*
X-3690845Y+7154736D02*
X-3690845Y+7657656D01*
X-3690845Y+7688136D02*
X-3690845Y+7693216D01*
X-3690845Y+7769416D02*
X-3690845Y+7774496D01*
X-3690845Y+7789736D02*
X-3690845Y+8643176D01*
X-3685765Y+6448616D02*
X-3685765Y+6453696D01*
X-3685765Y+6479096D02*
X-3685765Y+6570536D01*
X-3685765Y+6595936D02*
X-3685765Y+6601016D01*
X-3685765Y+6626416D02*
X-3685765Y+6717856D01*
X-3685765Y+6743256D02*
X-3685765Y+6814376D01*
X-3685765Y+6829616D02*
X-3685765Y+6931216D01*
X-3685765Y+6946456D02*
X-3685765Y+7012496D01*
X-3685765Y+7042976D02*
X-3685765Y+7129336D01*
X-3685765Y+7154736D02*
X-3685765Y+7657656D01*
X-3685765Y+7688136D02*
X-3685765Y+7693216D01*
X-3685765Y+7769416D02*
X-3685765Y+7774496D01*
X-3685765Y+7789736D02*
X-3685765Y+8643176D01*
X-3680685Y+6448616D02*
X-3680685Y+6453696D01*
X-3680685Y+6479096D02*
X-3680685Y+6570536D01*
X-3680685Y+6595936D02*
X-3680685Y+6601016D01*
X-3680685Y+6626416D02*
X-3680685Y+6717856D01*
X-3680685Y+6743256D02*
X-3680685Y+6814376D01*
X-3680685Y+6829616D02*
X-3680685Y+6931216D01*
X-3680685Y+6946456D02*
X-3680685Y+7012496D01*
X-3680685Y+7042976D02*
X-3680685Y+7129336D01*
X-3680685Y+7154736D02*
X-3680685Y+7657656D01*
X-3680685Y+7688136D02*
X-3680685Y+7693216D01*
X-3680685Y+7769416D02*
X-3680685Y+7774496D01*
X-3680685Y+7789736D02*
X-3680685Y+8643176D01*
X-3675605Y+6448616D02*
X-3675605Y+6453696D01*
X-3675605Y+6479096D02*
X-3675605Y+6489256D01*
X-3675605Y+6550216D02*
X-3675605Y+6570536D01*
X-3675605Y+6595936D02*
X-3675605Y+6601016D01*
X-3675605Y+6626416D02*
X-3675605Y+6636576D01*
X-3675605Y+6702616D02*
X-3675605Y+6717856D01*
X-3675605Y+6743256D02*
X-3675605Y+6814376D01*
X-3675605Y+6829616D02*
X-3675605Y+6844856D01*
X-3675605Y+6910896D02*
X-3675605Y+6931216D01*
X-3675605Y+6946456D02*
X-3675605Y+7012496D01*
X-3675605Y+7042976D02*
X-3675605Y+7048056D01*
X-3675605Y+7124256D02*
X-3675605Y+7129336D01*
X-3675605Y+7154736D02*
X-3675605Y+7657656D01*
X-3675605Y+7688136D02*
X-3675605Y+7693216D01*
X-3675605Y+7764336D02*
X-3675605Y+7774496D01*
X-3675605Y+7789736D02*
X-3675605Y+8643176D01*
X-3670525Y+6448616D02*
X-3670525Y+6453696D01*
X-3670525Y+6479096D02*
X-3670525Y+6484176D01*
X-3670525Y+6555296D02*
X-3670525Y+6570536D01*
X-3670525Y+6595936D02*
X-3670525Y+6601016D01*
X-3670525Y+6626416D02*
X-3670525Y+6631496D01*
X-3670525Y+6702616D02*
X-3670525Y+6717856D01*
X-3670525Y+6743256D02*
X-3670525Y+6814376D01*
X-3670525Y+6829616D02*
X-3670525Y+6844856D01*
X-3670525Y+6915976D02*
X-3670525Y+6931216D01*
X-3670525Y+6946456D02*
X-3670525Y+7012496D01*
X-3670525Y+7042976D02*
X-3670525Y+7048056D01*
X-3670525Y+7124256D02*
X-3670525Y+7129336D01*
X-3670525Y+7154736D02*
X-3670525Y+7657656D01*
X-3670525Y+7688136D02*
X-3670525Y+7713536D01*
X-3670525Y+7749096D02*
X-3670525Y+7774496D01*
X-3670525Y+7789736D02*
X-3670525Y+8643176D01*
X-3665445Y+6448616D02*
X-3665445Y+6453696D01*
X-3665445Y+6479096D02*
X-3665445Y+6484176D01*
X-3665445Y+6560376D02*
X-3665445Y+6570536D01*
X-3665445Y+6595936D02*
X-3665445Y+6601016D01*
X-3665445Y+6626416D02*
X-3665445Y+6631496D01*
X-3665445Y+6702616D02*
X-3665445Y+6717856D01*
X-3665445Y+6743256D02*
X-3665445Y+6814376D01*
X-3665445Y+6829616D02*
X-3665445Y+6844856D01*
X-3665445Y+6915976D02*
X-3665445Y+6931216D01*
X-3665445Y+6946456D02*
X-3665445Y+7012496D01*
X-3665445Y+7042976D02*
X-3665445Y+7048056D01*
X-3665445Y+7124256D02*
X-3665445Y+7129336D01*
X-3665445Y+7154736D02*
X-3665445Y+7657656D01*
X-3665445Y+7688136D02*
X-3665445Y+7713536D01*
X-3665445Y+7749096D02*
X-3665445Y+7774496D01*
X-3665445Y+7789736D02*
X-3665445Y+8643176D01*
X-3660365Y+6448616D02*
X-3660365Y+6453696D01*
X-3660365Y+6479096D02*
X-3660365Y+6484176D01*
X-3660365Y+6565456D02*
X-3660365Y+6570536D01*
X-3660365Y+6595936D02*
X-3660365Y+6601016D01*
X-3660365Y+6626416D02*
X-3660365Y+6631496D01*
X-3660365Y+6702616D02*
X-3660365Y+6717856D01*
X-3660365Y+6743256D02*
X-3660365Y+6814376D01*
X-3660365Y+6829616D02*
X-3660365Y+6844856D01*
X-3660365Y+6915976D02*
X-3660365Y+6931216D01*
X-3660365Y+6946456D02*
X-3660365Y+7012496D01*
X-3660365Y+7042976D02*
X-3660365Y+7058216D01*
X-3660365Y+7124256D02*
X-3660365Y+7129336D01*
X-3660365Y+7154736D02*
X-3660365Y+7657656D01*
X-3660365Y+7688136D02*
X-3660365Y+7774496D01*
X-3660365Y+7789736D02*
X-3660365Y+8643176D01*
X-3655285Y+6448616D02*
X-3655285Y+6453696D01*
X-3655285Y+6479096D02*
X-3655285Y+6489256D01*
X-3655285Y+6565456D02*
X-3655285Y+6570536D01*
X-3655285Y+6595936D02*
X-3655285Y+6601016D01*
X-3655285Y+6626416D02*
X-3655285Y+6636576D01*
X-3655285Y+6702616D02*
X-3655285Y+6717856D01*
X-3655285Y+6743256D02*
X-3655285Y+6814376D01*
X-3655285Y+6829616D02*
X-3655285Y+6844856D01*
X-3655285Y+6915976D02*
X-3655285Y+6931216D01*
X-3655285Y+6946456D02*
X-3655285Y+7012496D01*
X-3655285Y+7042976D02*
X-3655285Y+7058216D01*
X-3655285Y+7124256D02*
X-3655285Y+7129336D01*
X-3655285Y+7154736D02*
X-3655285Y+7657656D01*
X-3655285Y+7688136D02*
X-3655285Y+7774496D01*
X-3655285Y+7789736D02*
X-3655285Y+8643176D01*
X-3650205Y+6448616D02*
X-3650205Y+6453696D01*
X-3650205Y+6479096D02*
X-3650205Y+6494336D01*
X-3650205Y+6555296D02*
X-3650205Y+6570536D01*
X-3650205Y+6595936D02*
X-3650205Y+6601016D01*
X-3650205Y+6626416D02*
X-3650205Y+6641656D01*
X-3650205Y+6702616D02*
X-3650205Y+6717856D01*
X-3650205Y+6743256D02*
X-3650205Y+6814376D01*
X-3650205Y+6829616D02*
X-3650205Y+6844856D01*
X-3650205Y+6915976D02*
X-3650205Y+6931216D01*
X-3650205Y+6946456D02*
X-3650205Y+7012496D01*
X-3650205Y+7042976D02*
X-3650205Y+7129336D01*
X-3650205Y+7154736D02*
X-3650205Y+7657656D01*
X-3650205Y+7688136D02*
X-3650205Y+7774496D01*
X-3650205Y+7789736D02*
X-3650205Y+8643176D01*
X-3645125Y+6448616D02*
X-3645125Y+6453696D01*
X-3645125Y+6479096D02*
X-3645125Y+6494336D01*
X-3645125Y+6555296D02*
X-3645125Y+6570536D01*
X-3645125Y+6595936D02*
X-3645125Y+6601016D01*
X-3645125Y+6626416D02*
X-3645125Y+6641656D01*
X-3645125Y+6702616D02*
X-3645125Y+6717856D01*
X-3645125Y+6743256D02*
X-3645125Y+6814376D01*
X-3645125Y+6829616D02*
X-3645125Y+6844856D01*
X-3645125Y+6915976D02*
X-3645125Y+6931216D01*
X-3645125Y+6946456D02*
X-3645125Y+7012496D01*
X-3645125Y+7042976D02*
X-3645125Y+7129336D01*
X-3645125Y+7154736D02*
X-3645125Y+7657656D01*
X-3645125Y+7688136D02*
X-3645125Y+7774496D01*
X-3645125Y+7789736D02*
X-3645125Y+8643176D01*
X-3640045Y+6448616D02*
X-3640045Y+6453696D01*
X-3640045Y+6479096D02*
X-3640045Y+6494336D01*
X-3640045Y+6555296D02*
X-3640045Y+6570536D01*
X-3640045Y+6595936D02*
X-3640045Y+6601016D01*
X-3640045Y+6626416D02*
X-3640045Y+6641656D01*
X-3640045Y+6702616D02*
X-3640045Y+6717856D01*
X-3640045Y+6743256D02*
X-3640045Y+6814376D01*
X-3640045Y+6829616D02*
X-3640045Y+6844856D01*
X-3640045Y+6915976D02*
X-3640045Y+6931216D01*
X-3640045Y+6946456D02*
X-3640045Y+7012496D01*
X-3640045Y+7042976D02*
X-3640045Y+7129336D01*
X-3640045Y+7154736D02*
X-3640045Y+7657656D01*
X-3640045Y+7688136D02*
X-3640045Y+7774496D01*
X-3640045Y+7789736D02*
X-3640045Y+8643176D01*
X-3634965Y+6448616D02*
X-3634965Y+6453696D01*
X-3634965Y+6479096D02*
X-3634965Y+6494336D01*
X-3634965Y+6555296D02*
X-3634965Y+6570536D01*
X-3634965Y+6595936D02*
X-3634965Y+6601016D01*
X-3634965Y+6626416D02*
X-3634965Y+6641656D01*
X-3634965Y+6702616D02*
X-3634965Y+6717856D01*
X-3634965Y+6743256D02*
X-3634965Y+6814376D01*
X-3634965Y+6829616D02*
X-3634965Y+6844856D01*
X-3634965Y+6915976D02*
X-3634965Y+6931216D01*
X-3634965Y+6946456D02*
X-3634965Y+7012496D01*
X-3634965Y+7042976D02*
X-3634965Y+7129336D01*
X-3634965Y+7154736D02*
X-3634965Y+7657656D01*
X-3634965Y+7688136D02*
X-3634965Y+7774496D01*
X-3634965Y+7789736D02*
X-3634965Y+8643176D01*
X-3629885Y+6448616D02*
X-3629885Y+6453696D01*
X-3629885Y+6479096D02*
X-3629885Y+6494336D01*
X-3629885Y+6555296D02*
X-3629885Y+6570536D01*
X-3629885Y+6595936D02*
X-3629885Y+6601016D01*
X-3629885Y+6626416D02*
X-3629885Y+6641656D01*
X-3629885Y+6702616D02*
X-3629885Y+6717856D01*
X-3629885Y+6743256D02*
X-3629885Y+6814376D01*
X-3629885Y+6829616D02*
X-3629885Y+6844856D01*
X-3629885Y+6915976D02*
X-3629885Y+6931216D01*
X-3629885Y+6946456D02*
X-3629885Y+7012496D01*
X-3629885Y+7042976D02*
X-3629885Y+7129336D01*
X-3629885Y+7154736D02*
X-3629885Y+7657656D01*
X-3629885Y+7688136D02*
X-3629885Y+7774496D01*
X-3629885Y+7789736D02*
X-3629885Y+8643176D01*
X-3624805Y+6448616D02*
X-3624805Y+6453696D01*
X-3624805Y+6479096D02*
X-3624805Y+6494336D01*
X-3624805Y+6555296D02*
X-3624805Y+6570536D01*
X-3624805Y+6595936D02*
X-3624805Y+6601016D01*
X-3624805Y+6626416D02*
X-3624805Y+6641656D01*
X-3624805Y+6702616D02*
X-3624805Y+6717856D01*
X-3624805Y+6743256D02*
X-3624805Y+6814376D01*
X-3624805Y+6829616D02*
X-3624805Y+6844856D01*
X-3624805Y+6915976D02*
X-3624805Y+6931216D01*
X-3624805Y+6946456D02*
X-3624805Y+7012496D01*
X-3624805Y+7042976D02*
X-3624805Y+7129336D01*
X-3624805Y+7154736D02*
X-3624805Y+7657656D01*
X-3624805Y+7688136D02*
X-3624805Y+7774496D01*
X-3624805Y+7789736D02*
X-3624805Y+8643176D01*
X-3619725Y+6448616D02*
X-3619725Y+6453696D01*
X-3619725Y+6479096D02*
X-3619725Y+6494336D01*
X-3619725Y+6555296D02*
X-3619725Y+6570536D01*
X-3619725Y+6595936D02*
X-3619725Y+6601016D01*
X-3619725Y+6626416D02*
X-3619725Y+6641656D01*
X-3619725Y+6702616D02*
X-3619725Y+6717856D01*
X-3619725Y+6743256D02*
X-3619725Y+6814376D01*
X-3619725Y+6829616D02*
X-3619725Y+6844856D01*
X-3619725Y+6915976D02*
X-3619725Y+6931216D01*
X-3619725Y+6946456D02*
X-3619725Y+7012496D01*
X-3619725Y+7042976D02*
X-3619725Y+7129336D01*
X-3619725Y+7154736D02*
X-3619725Y+7657656D01*
X-3619725Y+7688136D02*
X-3619725Y+7774496D01*
X-3619725Y+7789736D02*
X-3619725Y+8643176D01*
X-3614645Y+6448616D02*
X-3614645Y+6453696D01*
X-3614645Y+6479096D02*
X-3614645Y+6494336D01*
X-3614645Y+6555296D02*
X-3614645Y+6570536D01*
X-3614645Y+6595936D02*
X-3614645Y+6601016D01*
X-3614645Y+6626416D02*
X-3614645Y+6641656D01*
X-3614645Y+6702616D02*
X-3614645Y+6717856D01*
X-3614645Y+6743256D02*
X-3614645Y+6814376D01*
X-3614645Y+6829616D02*
X-3614645Y+6844856D01*
X-3614645Y+6915976D02*
X-3614645Y+6931216D01*
X-3614645Y+6946456D02*
X-3614645Y+7012496D01*
X-3614645Y+7042976D02*
X-3614645Y+7129336D01*
X-3614645Y+7154736D02*
X-3614645Y+7657656D01*
X-3614645Y+7688136D02*
X-3614645Y+7774496D01*
X-3614645Y+7789736D02*
X-3614645Y+8643176D01*
X-3609565Y+6448616D02*
X-3609565Y+6453696D01*
X-3609565Y+6479096D02*
X-3609565Y+6494336D01*
X-3609565Y+6555296D02*
X-3609565Y+6570536D01*
X-3609565Y+6595936D02*
X-3609565Y+6601016D01*
X-3609565Y+6626416D02*
X-3609565Y+6641656D01*
X-3609565Y+6702616D02*
X-3609565Y+6717856D01*
X-3609565Y+6743256D02*
X-3609565Y+6814376D01*
X-3609565Y+6829616D02*
X-3609565Y+6844856D01*
X-3609565Y+6915976D02*
X-3609565Y+6931216D01*
X-3609565Y+6946456D02*
X-3609565Y+7012496D01*
X-3609565Y+7042976D02*
X-3609565Y+7129336D01*
X-3609565Y+7154736D02*
X-3609565Y+7657656D01*
X-3609565Y+7688136D02*
X-3609565Y+7774496D01*
X-3609565Y+7789736D02*
X-3609565Y+8643176D01*
X-3604485Y+6448616D02*
X-3604485Y+6453696D01*
X-3604485Y+6479096D02*
X-3604485Y+6494336D01*
X-3604485Y+6555296D02*
X-3604485Y+6570536D01*
X-3604485Y+6595936D02*
X-3604485Y+6601016D01*
X-3604485Y+6626416D02*
X-3604485Y+6641656D01*
X-3604485Y+6702616D02*
X-3604485Y+6717856D01*
X-3604485Y+6743256D02*
X-3604485Y+6814376D01*
X-3604485Y+6829616D02*
X-3604485Y+6844856D01*
X-3604485Y+6915976D02*
X-3604485Y+6931216D01*
X-3604485Y+6946456D02*
X-3604485Y+7012496D01*
X-3604485Y+7042976D02*
X-3604485Y+7129336D01*
X-3604485Y+7154736D02*
X-3604485Y+7657656D01*
X-3604485Y+7688136D02*
X-3604485Y+7774496D01*
X-3604485Y+7789736D02*
X-3604485Y+8643176D01*
X-3599405Y+6448616D02*
X-3599405Y+6453696D01*
X-3599405Y+6479096D02*
X-3599405Y+6494336D01*
X-3599405Y+6555296D02*
X-3599405Y+6570536D01*
X-3599405Y+6595936D02*
X-3599405Y+6601016D01*
X-3599405Y+6626416D02*
X-3599405Y+6641656D01*
X-3599405Y+6702616D02*
X-3599405Y+6717856D01*
X-3599405Y+6743256D02*
X-3599405Y+6814376D01*
X-3599405Y+6829616D02*
X-3599405Y+6844856D01*
X-3599405Y+6915976D02*
X-3599405Y+6931216D01*
X-3599405Y+6946456D02*
X-3599405Y+7012496D01*
X-3599405Y+7042976D02*
X-3599405Y+7129336D01*
X-3599405Y+7154736D02*
X-3599405Y+7657656D01*
X-3599405Y+7688136D02*
X-3599405Y+7693216D01*
X-3599405Y+7759256D02*
X-3599405Y+7774496D01*
X-3599405Y+7789736D02*
X-3599405Y+8643176D01*
X-3594325Y+6448616D02*
X-3594325Y+6453696D01*
X-3594325Y+6479096D02*
X-3594325Y+6494336D01*
X-3594325Y+6555296D02*
X-3594325Y+6570536D01*
X-3594325Y+6595936D02*
X-3594325Y+6601016D01*
X-3594325Y+6626416D02*
X-3594325Y+6641656D01*
X-3594325Y+6702616D02*
X-3594325Y+6717856D01*
X-3594325Y+6743256D02*
X-3594325Y+6814376D01*
X-3594325Y+6829616D02*
X-3594325Y+6844856D01*
X-3594325Y+6915976D02*
X-3594325Y+6931216D01*
X-3594325Y+6946456D02*
X-3594325Y+7012496D01*
X-3594325Y+7042976D02*
X-3594325Y+7129336D01*
X-3594325Y+7154736D02*
X-3594325Y+7657656D01*
X-3594325Y+7688136D02*
X-3594325Y+7693216D01*
X-3594325Y+7759256D02*
X-3594325Y+7774496D01*
X-3594325Y+7789736D02*
X-3594325Y+8643176D01*
X-3589245Y+6448616D02*
X-3589245Y+6453696D01*
X-3589245Y+6479096D02*
X-3589245Y+6494336D01*
X-3589245Y+6555296D02*
X-3589245Y+6570536D01*
X-3589245Y+6595936D02*
X-3589245Y+6601016D01*
X-3589245Y+6626416D02*
X-3589245Y+6641656D01*
X-3589245Y+6702616D02*
X-3589245Y+6717856D01*
X-3589245Y+6743256D02*
X-3589245Y+6814376D01*
X-3589245Y+6829616D02*
X-3589245Y+6844856D01*
X-3589245Y+6915976D02*
X-3589245Y+6931216D01*
X-3589245Y+6946456D02*
X-3589245Y+7012496D01*
X-3589245Y+7042976D02*
X-3589245Y+7129336D01*
X-3589245Y+7154736D02*
X-3589245Y+7657656D01*
X-3589245Y+7688136D02*
X-3589245Y+7693216D01*
X-3589245Y+7764336D02*
X-3589245Y+7774496D01*
X-3589245Y+7789736D02*
X-3589245Y+8643176D01*
X-3584165Y+6448616D02*
X-3584165Y+6453696D01*
X-3584165Y+6479096D02*
X-3584165Y+6494336D01*
X-3584165Y+6555296D02*
X-3584165Y+6570536D01*
X-3584165Y+6595936D02*
X-3584165Y+6601016D01*
X-3584165Y+6626416D02*
X-3584165Y+6641656D01*
X-3584165Y+6702616D02*
X-3584165Y+6717856D01*
X-3584165Y+6743256D02*
X-3584165Y+6814376D01*
X-3584165Y+6829616D02*
X-3584165Y+6844856D01*
X-3584165Y+6915976D02*
X-3584165Y+6931216D01*
X-3584165Y+6946456D02*
X-3584165Y+7012496D01*
X-3584165Y+7042976D02*
X-3584165Y+7129336D01*
X-3584165Y+7154736D02*
X-3584165Y+7657656D01*
X-3584165Y+7688136D02*
X-3584165Y+7693216D01*
X-3584165Y+7769416D02*
X-3584165Y+7774496D01*
X-3584165Y+7789736D02*
X-3584165Y+8643176D01*
X-3579085Y+6448616D02*
X-3579085Y+6453696D01*
X-3579085Y+6479096D02*
X-3579085Y+6494336D01*
X-3579085Y+6555296D02*
X-3579085Y+6570536D01*
X-3579085Y+6595936D02*
X-3579085Y+6601016D01*
X-3579085Y+6626416D02*
X-3579085Y+6641656D01*
X-3579085Y+6702616D02*
X-3579085Y+6717856D01*
X-3579085Y+6743256D02*
X-3579085Y+6814376D01*
X-3579085Y+6829616D02*
X-3579085Y+6844856D01*
X-3579085Y+6915976D02*
X-3579085Y+6931216D01*
X-3579085Y+6946456D02*
X-3579085Y+7012496D01*
X-3579085Y+7042976D02*
X-3579085Y+7129336D01*
X-3579085Y+7154736D02*
X-3579085Y+7657656D01*
X-3579085Y+7688136D02*
X-3579085Y+7693216D01*
X-3579085Y+7769416D02*
X-3579085Y+7774496D01*
X-3579085Y+7789736D02*
X-3579085Y+8643176D01*
X-3574005Y+6448616D02*
X-3574005Y+6453696D01*
X-3574005Y+6479096D02*
X-3574005Y+6494336D01*
X-3574005Y+6555296D02*
X-3574005Y+6570536D01*
X-3574005Y+6595936D02*
X-3574005Y+6601016D01*
X-3574005Y+6626416D02*
X-3574005Y+6641656D01*
X-3574005Y+6702616D02*
X-3574005Y+6717856D01*
X-3574005Y+6743256D02*
X-3574005Y+6814376D01*
X-3574005Y+6829616D02*
X-3574005Y+6844856D01*
X-3574005Y+6915976D02*
X-3574005Y+6931216D01*
X-3574005Y+6946456D02*
X-3574005Y+7012496D01*
X-3574005Y+7042976D02*
X-3574005Y+7129336D01*
X-3574005Y+7154736D02*
X-3574005Y+7657656D01*
X-3574005Y+7688136D02*
X-3574005Y+7693216D01*
X-3574005Y+7769416D02*
X-3574005Y+7774496D01*
X-3574005Y+7789736D02*
X-3574005Y+8643176D01*
X-3568925Y+6448616D02*
X-3568925Y+6453696D01*
X-3568925Y+6479096D02*
X-3568925Y+6494336D01*
X-3568925Y+6555296D02*
X-3568925Y+6570536D01*
X-3568925Y+6595936D02*
X-3568925Y+6601016D01*
X-3568925Y+6626416D02*
X-3568925Y+6641656D01*
X-3568925Y+6702616D02*
X-3568925Y+6717856D01*
X-3568925Y+6743256D02*
X-3568925Y+6814376D01*
X-3568925Y+6829616D02*
X-3568925Y+6844856D01*
X-3568925Y+6915976D02*
X-3568925Y+6931216D01*
X-3568925Y+6946456D02*
X-3568925Y+7012496D01*
X-3568925Y+7042976D02*
X-3568925Y+7129336D01*
X-3568925Y+7154736D02*
X-3568925Y+7657656D01*
X-3568925Y+7688136D02*
X-3568925Y+7693216D01*
X-3568925Y+7769416D02*
X-3568925Y+7774496D01*
X-3568925Y+7789736D02*
X-3568925Y+8643176D01*
X-3563845Y+6448616D02*
X-3563845Y+6453696D01*
X-3563845Y+6479096D02*
X-3563845Y+6494336D01*
X-3563845Y+6555296D02*
X-3563845Y+6570536D01*
X-3563845Y+6595936D02*
X-3563845Y+6601016D01*
X-3563845Y+6626416D02*
X-3563845Y+6636576D01*
X-3563845Y+6702616D02*
X-3563845Y+6717856D01*
X-3563845Y+6743256D02*
X-3563845Y+6814376D01*
X-3563845Y+6829616D02*
X-3563845Y+6844856D01*
X-3563845Y+6915976D02*
X-3563845Y+6931216D01*
X-3563845Y+6946456D02*
X-3563845Y+7012496D01*
X-3563845Y+7042976D02*
X-3563845Y+7129336D01*
X-3563845Y+7154736D02*
X-3563845Y+7657656D01*
X-3563845Y+7688136D02*
X-3563845Y+7693216D01*
X-3563845Y+7764336D02*
X-3563845Y+7774496D01*
X-3563845Y+7789736D02*
X-3563845Y+8643176D01*
X-3558765Y+6448616D02*
X-3558765Y+6453696D01*
X-3558765Y+6479096D02*
X-3558765Y+6494336D01*
X-3558765Y+6555296D02*
X-3558765Y+6570536D01*
X-3558765Y+6595936D02*
X-3558765Y+6601016D01*
X-3558765Y+6626416D02*
X-3558765Y+6631496D01*
X-3558765Y+6702616D02*
X-3558765Y+6717856D01*
X-3558765Y+6743256D02*
X-3558765Y+6814376D01*
X-3558765Y+6829616D02*
X-3558765Y+6844856D01*
X-3558765Y+6915976D02*
X-3558765Y+6931216D01*
X-3558765Y+6946456D02*
X-3558765Y+7012496D01*
X-3558765Y+7042976D02*
X-3558765Y+7129336D01*
X-3558765Y+7154736D02*
X-3558765Y+7657656D01*
X-3558765Y+7688136D02*
X-3558765Y+7693216D01*
X-3558765Y+7759256D02*
X-3558765Y+7774496D01*
X-3558765Y+7789736D02*
X-3558765Y+8643176D01*
X-3553685Y+6448616D02*
X-3553685Y+6453696D01*
X-3553685Y+6479096D02*
X-3553685Y+6489256D01*
X-3553685Y+6565456D02*
X-3553685Y+6570536D01*
X-3553685Y+6595936D02*
X-3553685Y+6601016D01*
X-3553685Y+6626416D02*
X-3553685Y+6631496D01*
X-3553685Y+6712776D02*
X-3553685Y+6717856D01*
X-3553685Y+6743256D02*
X-3553685Y+6814376D01*
X-3553685Y+6829616D02*
X-3553685Y+6844856D01*
X-3553685Y+6915976D02*
X-3553685Y+6931216D01*
X-3553685Y+6946456D02*
X-3553685Y+7012496D01*
X-3553685Y+7042976D02*
X-3553685Y+7058216D01*
X-3553685Y+7124256D02*
X-3553685Y+7129336D01*
X-3553685Y+7154736D02*
X-3553685Y+7657656D01*
X-3553685Y+7688136D02*
X-3553685Y+7693216D01*
X-3553685Y+7754176D02*
X-3553685Y+7774496D01*
X-3553685Y+7789736D02*
X-3553685Y+8643176D01*
X-3548605Y+6448616D02*
X-3548605Y+6453696D01*
X-3548605Y+6479096D02*
X-3548605Y+6484176D01*
X-3548605Y+6565456D02*
X-3548605Y+6570536D01*
X-3548605Y+6595936D02*
X-3548605Y+6601016D01*
X-3548605Y+6626416D02*
X-3548605Y+6631496D01*
X-3548605Y+6712776D02*
X-3548605Y+6717856D01*
X-3548605Y+6743256D02*
X-3548605Y+6814376D01*
X-3548605Y+6829616D02*
X-3548605Y+6844856D01*
X-3548605Y+6915976D02*
X-3548605Y+6931216D01*
X-3548605Y+6946456D02*
X-3548605Y+7012496D01*
X-3548605Y+7042976D02*
X-3548605Y+7058216D01*
X-3548605Y+7124256D02*
X-3548605Y+7129336D01*
X-3548605Y+7154736D02*
X-3548605Y+7657656D01*
X-3548605Y+7688136D02*
X-3548605Y+7774496D01*
X-3548605Y+7789736D02*
X-3548605Y+8643176D01*
X-3543525Y+6448616D02*
X-3543525Y+6453696D01*
X-3543525Y+6479096D02*
X-3543525Y+6484176D01*
X-3543525Y+6560376D02*
X-3543525Y+6570536D01*
X-3543525Y+6595936D02*
X-3543525Y+6601016D01*
X-3543525Y+6626416D02*
X-3543525Y+6631496D01*
X-3543525Y+6707696D02*
X-3543525Y+6717856D01*
X-3543525Y+6743256D02*
X-3543525Y+6814376D01*
X-3543525Y+6829616D02*
X-3543525Y+6844856D01*
X-3543525Y+6915976D02*
X-3543525Y+6931216D01*
X-3543525Y+6946456D02*
X-3543525Y+7012496D01*
X-3543525Y+7042976D02*
X-3543525Y+7048056D01*
X-3543525Y+7124256D02*
X-3543525Y+7129336D01*
X-3543525Y+7154736D02*
X-3543525Y+7657656D01*
X-3543525Y+7688136D02*
X-3543525Y+7774496D01*
X-3543525Y+7789736D02*
X-3543525Y+8643176D01*
X-3538445Y+6448616D02*
X-3538445Y+6453696D01*
X-3538445Y+6479096D02*
X-3538445Y+6484176D01*
X-3538445Y+6555296D02*
X-3538445Y+6570536D01*
X-3538445Y+6595936D02*
X-3538445Y+6601016D01*
X-3538445Y+6626416D02*
X-3538445Y+6631496D01*
X-3538445Y+6702616D02*
X-3538445Y+6717856D01*
X-3538445Y+6743256D02*
X-3538445Y+6814376D01*
X-3538445Y+6829616D02*
X-3538445Y+6844856D01*
X-3538445Y+6915976D02*
X-3538445Y+6931216D01*
X-3538445Y+6946456D02*
X-3538445Y+7012496D01*
X-3538445Y+7042976D02*
X-3538445Y+7048056D01*
X-3538445Y+7124256D02*
X-3538445Y+7129336D01*
X-3538445Y+7154736D02*
X-3538445Y+7657656D01*
X-3538445Y+7688136D02*
X-3538445Y+7774496D01*
X-3538445Y+7789736D02*
X-3538445Y+8643176D01*
X-3533365Y+6448616D02*
X-3533365Y+6453696D01*
X-3533365Y+6479096D02*
X-3533365Y+6489256D01*
X-3533365Y+6550216D02*
X-3533365Y+6570536D01*
X-3533365Y+6595936D02*
X-3533365Y+6601016D01*
X-3533365Y+6626416D02*
X-3533365Y+6636576D01*
X-3533365Y+6702616D02*
X-3533365Y+6717856D01*
X-3533365Y+6743256D02*
X-3533365Y+6814376D01*
X-3533365Y+6829616D02*
X-3533365Y+6844856D01*
X-3533365Y+6910896D02*
X-3533365Y+6931216D01*
X-3533365Y+6946456D02*
X-3533365Y+7012496D01*
X-3533365Y+7042976D02*
X-3533365Y+7048056D01*
X-3533365Y+7124256D02*
X-3533365Y+7129336D01*
X-3533365Y+7154736D02*
X-3533365Y+7657656D01*
X-3533365Y+7688136D02*
X-3533365Y+7774496D01*
X-3533365Y+7789736D02*
X-3533365Y+8643176D01*
X-3528285Y+6448616D02*
X-3528285Y+6453696D01*
X-3528285Y+6479096D02*
X-3528285Y+6570536D01*
X-3528285Y+6595936D02*
X-3528285Y+6601016D01*
X-3528285Y+6626416D02*
X-3528285Y+6717856D01*
X-3528285Y+6743256D02*
X-3528285Y+6814376D01*
X-3528285Y+6829616D02*
X-3528285Y+6931216D01*
X-3528285Y+6946456D02*
X-3528285Y+7012496D01*
X-3528285Y+7042976D02*
X-3528285Y+7129336D01*
X-3528285Y+7154736D02*
X-3528285Y+7657656D01*
X-3528285Y+7688136D02*
X-3528285Y+7774496D01*
X-3528285Y+7789736D02*
X-3528285Y+8643176D01*
X-3523205Y+6448616D02*
X-3523205Y+6453696D01*
X-3523205Y+6479096D02*
X-3523205Y+6570536D01*
X-3523205Y+6595936D02*
X-3523205Y+6601016D01*
X-3523205Y+6626416D02*
X-3523205Y+6717856D01*
X-3523205Y+6743256D02*
X-3523205Y+6814376D01*
X-3523205Y+6829616D02*
X-3523205Y+6931216D01*
X-3523205Y+6946456D02*
X-3523205Y+7012496D01*
X-3523205Y+7042976D02*
X-3523205Y+7129336D01*
X-3523205Y+7154736D02*
X-3523205Y+7657656D01*
X-3523205Y+7688136D02*
X-3523205Y+7774496D01*
X-3523205Y+7789736D02*
X-3523205Y+8643176D01*
X-3518125Y+6448616D02*
X-3518125Y+6453696D01*
X-3518125Y+6479096D02*
X-3518125Y+6570536D01*
X-3518125Y+6595936D02*
X-3518125Y+6601016D01*
X-3518125Y+6626416D02*
X-3518125Y+6717856D01*
X-3518125Y+6743256D02*
X-3518125Y+6814376D01*
X-3518125Y+6829616D02*
X-3518125Y+6931216D01*
X-3518125Y+6946456D02*
X-3518125Y+7012496D01*
X-3518125Y+7042976D02*
X-3518125Y+7129336D01*
X-3518125Y+7154736D02*
X-3518125Y+7657656D01*
X-3518125Y+7688136D02*
X-3518125Y+7774496D01*
X-3518125Y+7789736D02*
X-3518125Y+8643176D01*
X-3513045Y+6448616D02*
X-3513045Y+6453696D01*
X-3513045Y+6479096D02*
X-3513045Y+6570536D01*
X-3513045Y+6595936D02*
X-3513045Y+6601016D01*
X-3513045Y+6626416D02*
X-3513045Y+6717856D01*
X-3513045Y+6743256D02*
X-3513045Y+6814376D01*
X-3513045Y+6829616D02*
X-3513045Y+6931216D01*
X-3513045Y+6946456D02*
X-3513045Y+7012496D01*
X-3513045Y+7042976D02*
X-3513045Y+7129336D01*
X-3513045Y+7154736D02*
X-3513045Y+7657656D01*
X-3513045Y+7789736D02*
X-3513045Y+8643176D01*
X-3507965Y+6448616D02*
X-3507965Y+6453696D01*
X-3507965Y+6479096D02*
X-3507965Y+6570536D01*
X-3507965Y+6595936D02*
X-3507965Y+6601016D01*
X-3507965Y+6626416D02*
X-3507965Y+6717856D01*
X-3507965Y+6743256D02*
X-3507965Y+6814376D01*
X-3507965Y+6829616D02*
X-3507965Y+6931216D01*
X-3507965Y+6946456D02*
X-3507965Y+7012496D01*
X-3507965Y+7042976D02*
X-3507965Y+7129336D01*
X-3507965Y+7154736D02*
X-3507965Y+7657656D01*
X-3507965Y+7789736D02*
X-3507965Y+8643176D01*
X-3502885Y+6448616D02*
X-3502885Y+6453696D01*
X-3502885Y+6479096D02*
X-3502885Y+6570536D01*
X-3502885Y+6595936D02*
X-3502885Y+6601016D01*
X-3502885Y+6626416D02*
X-3502885Y+6717856D01*
X-3502885Y+6743256D02*
X-3502885Y+6814376D01*
X-3502885Y+6829616D02*
X-3502885Y+6926136D01*
X-3502885Y+6946456D02*
X-3502885Y+7012496D01*
X-3502885Y+7042976D02*
X-3502885Y+7129336D01*
X-3502885Y+7154736D02*
X-3502885Y+7657656D01*
X-3502885Y+7789736D02*
X-3502885Y+8643176D01*
X-3497805Y+6448616D02*
X-3497805Y+6453696D01*
X-3497805Y+6479096D02*
X-3497805Y+6570536D01*
X-3497805Y+6595936D02*
X-3497805Y+6601016D01*
X-3497805Y+6626416D02*
X-3497805Y+6717856D01*
X-3497805Y+6743256D02*
X-3497805Y+6814376D01*
X-3497805Y+6829616D02*
X-3497805Y+6921056D01*
X-3497805Y+6946456D02*
X-3497805Y+7012496D01*
X-3497805Y+7042976D02*
X-3497805Y+7129336D01*
X-3497805Y+7154736D02*
X-3497805Y+7662736D01*
X-3497805Y+7789736D02*
X-3497805Y+8643176D01*
X-3492725Y+6448616D02*
X-3492725Y+6453696D01*
X-3492725Y+6479096D02*
X-3492725Y+6570536D01*
X-3492725Y+6595936D02*
X-3492725Y+6601016D01*
X-3492725Y+6631496D02*
X-3492725Y+6717856D01*
X-3492725Y+6743256D02*
X-3492725Y+6814376D01*
X-3492725Y+6829616D02*
X-3492725Y+6915976D01*
X-3492725Y+6946456D02*
X-3492725Y+7012496D01*
X-3492725Y+7042976D02*
X-3492725Y+7129336D01*
X-3492725Y+7154736D02*
X-3492725Y+7667816D01*
X-3492725Y+7789736D02*
X-3492725Y+8643176D01*
X-3487645Y+6448616D02*
X-3487645Y+6453696D01*
X-3487645Y+6590856D02*
X-3487645Y+6601016D01*
X-3487645Y+6743256D02*
X-3487645Y+6814376D01*
X-3487645Y+6946456D02*
X-3487645Y+7017576D01*
X-3487645Y+7154736D02*
X-3487645Y+7388416D01*
X-3487645Y+7495096D02*
X-3487645Y+7535736D01*
X-3487645Y+7789736D02*
X-3487645Y+8643176D01*
X-3482565Y+6448616D02*
X-3482565Y+6453696D01*
X-3482565Y+6585776D02*
X-3482565Y+6601016D01*
X-3482565Y+6733096D02*
X-3482565Y+6814376D01*
X-3482565Y+6946456D02*
X-3482565Y+7022656D01*
X-3482565Y+7154736D02*
X-3482565Y+7383336D01*
X-3482565Y+7495096D02*
X-3482565Y+7530656D01*
X-3482565Y+7789736D02*
X-3482565Y+8643176D01*
X-3477485Y+6448616D02*
X-3477485Y+6458776D01*
X-3477485Y+6585776D02*
X-3477485Y+6606096D01*
X-3477485Y+6733096D02*
X-3477485Y+6814376D01*
X-3477485Y+6941376D02*
X-3477485Y+7022656D01*
X-3477485Y+7154736D02*
X-3477485Y+7378256D01*
X-3477485Y+7505256D02*
X-3477485Y+7525576D01*
X-3477485Y+7789736D02*
X-3477485Y+8643176D01*
X-3472405Y+6448616D02*
X-3472405Y+6463856D01*
X-3472405Y+6585776D02*
X-3472405Y+6611176D01*
X-3472405Y+6733096D02*
X-3472405Y+6814376D01*
X-3472405Y+6936296D02*
X-3472405Y+7022656D01*
X-3472405Y+7144576D02*
X-3472405Y+7373176D01*
X-3472405Y+7505256D02*
X-3472405Y+7520496D01*
X-3472405Y+7789736D02*
X-3472405Y+8643176D01*
X-3467325Y+6448616D02*
X-3467325Y+6468936D01*
X-3467325Y+6585776D02*
X-3467325Y+6616256D01*
X-3467325Y+6733096D02*
X-3467325Y+6814376D01*
X-3467325Y+6931216D02*
X-3467325Y+7027736D01*
X-3467325Y+7144576D02*
X-3467325Y+7373176D01*
X-3467325Y+7505256D02*
X-3467325Y+7520496D01*
X-3467325Y+7799896D02*
X-3467325Y+8643176D01*
X-3462245Y+6448616D02*
X-3462245Y+7373176D01*
X-3462245Y+7388416D02*
X-3462245Y+7479856D01*
X-3462245Y+7505256D02*
X-3462245Y+7520496D01*
X-3462245Y+7550976D02*
X-3462245Y+7774496D01*
X-3462245Y+7799896D02*
X-3462245Y+8643176D01*
X-3457165Y+6448616D02*
X-3457165Y+7373176D01*
X-3457165Y+7388416D02*
X-3457165Y+7479856D01*
X-3457165Y+7505256D02*
X-3457165Y+7520496D01*
X-3457165Y+7545896D02*
X-3457165Y+7774496D01*
X-3457165Y+7799896D02*
X-3457165Y+8643176D01*
X-3452085Y+6448616D02*
X-3452085Y+7373176D01*
X-3452085Y+7388416D02*
X-3452085Y+7490016D01*
X-3452085Y+7505256D02*
X-3452085Y+7520496D01*
X-3452085Y+7545896D02*
X-3452085Y+7774496D01*
X-3452085Y+7799896D02*
X-3452085Y+8643176D01*
X-3447005Y+6448616D02*
X-3447005Y+7373176D01*
X-3447005Y+7388416D02*
X-3447005Y+7490016D01*
X-3447005Y+7505256D02*
X-3447005Y+7520496D01*
X-3447005Y+7545896D02*
X-3447005Y+7591616D01*
X-3447005Y+8546656D02*
X-3447005Y+8643176D01*
X-3441925Y+6448616D02*
X-3441925Y+7373176D01*
X-3441925Y+7388416D02*
X-3441925Y+7490016D01*
X-3441925Y+7505256D02*
X-3441925Y+7520496D01*
X-3441925Y+7545896D02*
X-3441925Y+7586536D01*
X-3441925Y+8551736D02*
X-3441925Y+8643176D01*
X-3436845Y+6448616D02*
X-3436845Y+7373176D01*
X-3436845Y+7388416D02*
X-3436845Y+7490016D01*
X-3436845Y+7505256D02*
X-3436845Y+7520496D01*
X-3436845Y+7545896D02*
X-3436845Y+7586536D01*
X-3436845Y+8551736D02*
X-3436845Y+8643176D01*
X-3431765Y+6448616D02*
X-3431765Y+7373176D01*
X-3431765Y+7388416D02*
X-3431765Y+7490016D01*
X-3431765Y+7505256D02*
X-3431765Y+7520496D01*
X-3431765Y+7545896D02*
X-3431765Y+7586536D01*
X-3431765Y+8551736D02*
X-3431765Y+8643176D01*
X-3426685Y+6448616D02*
X-3426685Y+7373176D01*
X-3426685Y+7388416D02*
X-3426685Y+7490016D01*
X-3426685Y+7505256D02*
X-3426685Y+7520496D01*
X-3426685Y+7545896D02*
X-3426685Y+7586536D01*
X-3426685Y+8551736D02*
X-3426685Y+8643176D01*
X-3421605Y+6448616D02*
X-3421605Y+6870256D01*
X-3421605Y+6880416D02*
X-3421605Y+6921056D01*
X-3421605Y+6931216D02*
X-3421605Y+6971856D01*
X-3421605Y+6987096D02*
X-3421605Y+7373176D01*
X-3421605Y+7388416D02*
X-3421605Y+7490016D01*
X-3421605Y+7505256D02*
X-3421605Y+7520496D01*
X-3421605Y+7545896D02*
X-3421605Y+7586536D01*
X-3421605Y+8561896D02*
X-3421605Y+8643176D01*
X-3416525Y+6448616D02*
X-3416525Y+6865176D01*
X-3416525Y+6880416D02*
X-3416525Y+6921056D01*
X-3416525Y+6936296D02*
X-3416525Y+6971856D01*
X-3416525Y+6987096D02*
X-3416525Y+7373176D01*
X-3416525Y+7388416D02*
X-3416525Y+7490016D01*
X-3416525Y+7505256D02*
X-3416525Y+7520496D01*
X-3416525Y+7545896D02*
X-3416525Y+7586536D01*
X-3416525Y+8561896D02*
X-3416525Y+8643176D01*
X-3411445Y+6448616D02*
X-3411445Y+6860096D01*
X-3411445Y+6890576D02*
X-3411445Y+6910896D01*
X-3411445Y+6941376D02*
X-3411445Y+6961696D01*
X-3411445Y+6987096D02*
X-3411445Y+7017576D01*
X-3411445Y+7037896D02*
X-3411445Y+7068376D01*
X-3411445Y+7088696D02*
X-3411445Y+7373176D01*
X-3411445Y+7388416D02*
X-3411445Y+7408736D01*
X-3411445Y+7469696D02*
X-3411445Y+7490016D01*
X-3411445Y+7505256D02*
X-3411445Y+7520496D01*
X-3411445Y+7545896D02*
X-3411445Y+7586536D01*
X-3411445Y+8561896D02*
X-3411445Y+8643176D01*
X-3406365Y+6448616D02*
X-3406365Y+6855016D01*
X-3406365Y+6890576D02*
X-3406365Y+6910896D01*
X-3406365Y+6946456D02*
X-3406365Y+6961696D01*
X-3406365Y+6987096D02*
X-3406365Y+7012496D01*
X-3406365Y+7042976D02*
X-3406365Y+7068376D01*
X-3406365Y+7093776D02*
X-3406365Y+7373176D01*
X-3406365Y+7388416D02*
X-3406365Y+7403656D01*
X-3406365Y+7474776D02*
X-3406365Y+7490016D01*
X-3406365Y+7505256D02*
X-3406365Y+7520496D01*
X-3406365Y+7545896D02*
X-3406365Y+7586536D01*
X-3406365Y+8561896D02*
X-3406365Y+8643176D01*
X-3401285Y+6448616D02*
X-3401285Y+6855016D01*
X-3401285Y+6890576D02*
X-3401285Y+6910896D01*
X-3401285Y+6941376D02*
X-3401285Y+6961696D01*
X-3401285Y+6987096D02*
X-3401285Y+7017576D01*
X-3401285Y+7037896D02*
X-3401285Y+7068376D01*
X-3401285Y+7093776D02*
X-3401285Y+7373176D01*
X-3401285Y+7388416D02*
X-3401285Y+7403656D01*
X-3401285Y+7474776D02*
X-3401285Y+7490016D01*
X-3401285Y+7505256D02*
X-3401285Y+7520496D01*
X-3401285Y+7545896D02*
X-3401285Y+7586536D01*
X-3401285Y+8561896D02*
X-3401285Y+8643176D01*
X-3396205Y+6448616D02*
X-3396205Y+7373176D01*
X-3396205Y+7388416D02*
X-3396205Y+7403656D01*
X-3396205Y+7474776D02*
X-3396205Y+7490016D01*
X-3396205Y+7505256D02*
X-3396205Y+7520496D01*
X-3396205Y+7545896D02*
X-3396205Y+7586536D01*
X-3396205Y+8561896D02*
X-3396205Y+8643176D01*
X-3391125Y+6448616D02*
X-3391125Y+7373176D01*
X-3391125Y+7388416D02*
X-3391125Y+7403656D01*
X-3391125Y+7474776D02*
X-3391125Y+7490016D01*
X-3391125Y+7505256D02*
X-3391125Y+7520496D01*
X-3391125Y+7545896D02*
X-3391125Y+7586536D01*
X-3391125Y+8561896D02*
X-3391125Y+8643176D01*
X-3386045Y+6448616D02*
X-3386045Y+7373176D01*
X-3386045Y+7388416D02*
X-3386045Y+7403656D01*
X-3386045Y+7474776D02*
X-3386045Y+7490016D01*
X-3386045Y+7505256D02*
X-3386045Y+7520496D01*
X-3386045Y+7545896D02*
X-3386045Y+7586536D01*
X-3386045Y+7728776D02*
X-3386045Y+7774496D01*
X-3386045Y+7804976D02*
X-3386045Y+7952296D01*
X-3386045Y+8013256D02*
X-3386045Y+8500936D01*
X-3386045Y+8561896D02*
X-3386045Y+8643176D01*
X-3380965Y+6448616D02*
X-3380965Y+7373176D01*
X-3380965Y+7388416D02*
X-3380965Y+7403656D01*
X-3380965Y+7474776D02*
X-3380965Y+7490016D01*
X-3380965Y+7505256D02*
X-3380965Y+7520496D01*
X-3380965Y+7545896D02*
X-3380965Y+7586536D01*
X-3380965Y+7728776D02*
X-3380965Y+7774496D01*
X-3380965Y+7799896D02*
X-3380965Y+7957376D01*
X-3380965Y+8013256D02*
X-3380965Y+8506016D01*
X-3380965Y+8561896D02*
X-3380965Y+8643176D01*
X-3375885Y+6448616D02*
X-3375885Y+7373176D01*
X-3375885Y+7388416D02*
X-3375885Y+7403656D01*
X-3375885Y+7474776D02*
X-3375885Y+7490016D01*
X-3375885Y+7505256D02*
X-3375885Y+7520496D01*
X-3375885Y+7545896D02*
X-3375885Y+7591616D01*
X-3375885Y+7723696D02*
X-3375885Y+7774496D01*
X-3375885Y+7799896D02*
X-3375885Y+7957376D01*
X-3375885Y+8013256D02*
X-3375885Y+8506016D01*
X-3375885Y+8561896D02*
X-3375885Y+8643176D01*
X-3370805Y+6448616D02*
X-3370805Y+7373176D01*
X-3370805Y+7388416D02*
X-3370805Y+7403656D01*
X-3370805Y+7474776D02*
X-3370805Y+7490016D01*
X-3370805Y+7505256D02*
X-3370805Y+7520496D01*
X-3370805Y+7550976D02*
X-3370805Y+7774496D01*
X-3370805Y+7799896D02*
X-3370805Y+7957376D01*
X-3370805Y+8013256D02*
X-3370805Y+8506016D01*
X-3370805Y+8561896D02*
X-3370805Y+8643176D01*
X-3365725Y+6448616D02*
X-3365725Y+7373176D01*
X-3365725Y+7388416D02*
X-3365725Y+7403656D01*
X-3365725Y+7474776D02*
X-3365725Y+7490016D01*
X-3365725Y+7505256D02*
X-3365725Y+7520496D01*
X-3365725Y+7799896D02*
X-3365725Y+7957376D01*
X-3365725Y+8013256D02*
X-3365725Y+8506016D01*
X-3365725Y+8561896D02*
X-3365725Y+8643176D01*
X-3360645Y+6448616D02*
X-3360645Y+7373176D01*
X-3360645Y+7388416D02*
X-3360645Y+7403656D01*
X-3360645Y+7474776D02*
X-3360645Y+7490016D01*
X-3360645Y+7505256D02*
X-3360645Y+7520496D01*
X-3360645Y+7799896D02*
X-3360645Y+7957376D01*
X-3360645Y+8013256D02*
X-3360645Y+8506016D01*
X-3360645Y+8561896D02*
X-3360645Y+8643176D01*
X-3355565Y+6448616D02*
X-3355565Y+7373176D01*
X-3355565Y+7388416D02*
X-3355565Y+7403656D01*
X-3355565Y+7474776D02*
X-3355565Y+7490016D01*
X-3355565Y+7505256D02*
X-3355565Y+7525576D01*
X-3355565Y+7799896D02*
X-3355565Y+7957376D01*
X-3355565Y+8013256D02*
X-3355565Y+8506016D01*
X-3355565Y+8561896D02*
X-3355565Y+8643176D01*
X-3350485Y+6448616D02*
X-3350485Y+7373176D01*
X-3350485Y+7388416D02*
X-3350485Y+7403656D01*
X-3350485Y+7474776D02*
X-3350485Y+7490016D01*
X-3350485Y+7505256D02*
X-3350485Y+7530656D01*
X-3350485Y+7789736D02*
X-3350485Y+7957376D01*
X-3350485Y+8013256D02*
X-3350485Y+8506016D01*
X-3350485Y+8561896D02*
X-3350485Y+8643176D01*
X-3345405Y+6448616D02*
X-3345405Y+7230936D01*
X-3345405Y+7342696D02*
X-3345405Y+7373176D01*
X-3345405Y+7388416D02*
X-3345405Y+7403656D01*
X-3345405Y+7474776D02*
X-3345405Y+7490016D01*
X-3345405Y+7505256D02*
X-3345405Y+7535736D01*
X-3345405Y+7789736D02*
X-3345405Y+7957376D01*
X-3345405Y+8013256D02*
X-3345405Y+8495856D01*
X-3345405Y+8561896D02*
X-3345405Y+8643176D01*
X-3340325Y+6448616D02*
X-3340325Y+7225856D01*
X-3340325Y+7347776D02*
X-3340325Y+7373176D01*
X-3340325Y+7388416D02*
X-3340325Y+7403656D01*
X-3340325Y+7474776D02*
X-3340325Y+7490016D01*
X-3340325Y+7505256D02*
X-3340325Y+7540816D01*
X-3340325Y+7779576D02*
X-3340325Y+7957376D01*
X-3340325Y+8013256D02*
X-3340325Y+8495856D01*
X-3340325Y+8561896D02*
X-3340325Y+8643176D01*
X-3335245Y+6448616D02*
X-3335245Y+7220776D01*
X-3335245Y+7352856D02*
X-3335245Y+7373176D01*
X-3335245Y+7388416D02*
X-3335245Y+7403656D01*
X-3335245Y+7474776D02*
X-3335245Y+7490016D01*
X-3335245Y+7505256D02*
X-3335245Y+7525576D01*
X-3335245Y+7789736D02*
X-3335245Y+7957376D01*
X-3335245Y+8013256D02*
X-3335245Y+8170736D01*
X-3335245Y+8561896D02*
X-3335245Y+8643176D01*
X-3330165Y+6448616D02*
X-3330165Y+7215696D01*
X-3330165Y+7251256D02*
X-3330165Y+7317296D01*
X-3330165Y+7357936D02*
X-3330165Y+7373176D01*
X-3330165Y+7388416D02*
X-3330165Y+7403656D01*
X-3330165Y+7474776D02*
X-3330165Y+7490016D01*
X-3330165Y+7505256D02*
X-3330165Y+7520496D01*
X-3330165Y+7789736D02*
X-3330165Y+7957376D01*
X-3330165Y+8013256D02*
X-3330165Y+8165656D01*
X-3330165Y+8561896D02*
X-3330165Y+8643176D01*
X-3325085Y+6448616D02*
X-3325085Y+6778816D01*
X-3325085Y+6794056D02*
X-3325085Y+7215696D01*
X-3325085Y+7251256D02*
X-3325085Y+7322376D01*
X-3325085Y+7357936D02*
X-3325085Y+7373176D01*
X-3325085Y+7388416D02*
X-3325085Y+7403656D01*
X-3325085Y+7474776D02*
X-3325085Y+7490016D01*
X-3325085Y+7505256D02*
X-3325085Y+7520496D01*
X-3325085Y+7794816D02*
X-3325085Y+7957376D01*
X-3325085Y+8013256D02*
X-3325085Y+8160576D01*
X-3325085Y+8561896D02*
X-3325085Y+8643176D01*
X-3320005Y+6448616D02*
X-3320005Y+6773736D01*
X-3320005Y+6799136D02*
X-3320005Y+7164896D01*
X-3320005Y+7175056D02*
X-3320005Y+7215696D01*
X-3320005Y+7246176D02*
X-3320005Y+7327456D01*
X-3320005Y+7357936D02*
X-3320005Y+7373176D01*
X-3320005Y+7388416D02*
X-3320005Y+7403656D01*
X-3320005Y+7474776D02*
X-3320005Y+7490016D01*
X-3320005Y+7505256D02*
X-3320005Y+7520496D01*
X-3320005Y+7550976D02*
X-3320005Y+7774496D01*
X-3320005Y+7799896D02*
X-3320005Y+7957376D01*
X-3320005Y+8013256D02*
X-3320005Y+8155496D01*
X-3320005Y+8561896D02*
X-3320005Y+8643176D01*
X-3314925Y+6448616D02*
X-3314925Y+6773736D01*
X-3314925Y+6799136D02*
X-3314925Y+7159816D01*
X-3314925Y+7180136D02*
X-3314925Y+7215696D01*
X-3314925Y+7241096D02*
X-3314925Y+7332536D01*
X-3314925Y+7357936D02*
X-3314925Y+7373176D01*
X-3314925Y+7388416D02*
X-3314925Y+7403656D01*
X-3314925Y+7474776D02*
X-3314925Y+7490016D01*
X-3314925Y+7505256D02*
X-3314925Y+7520496D01*
X-3314925Y+7545896D02*
X-3314925Y+7774496D01*
X-3314925Y+7799896D02*
X-3314925Y+7957376D01*
X-3314925Y+8013256D02*
X-3314925Y+8155496D01*
X-3314925Y+8561896D02*
X-3314925Y+8643176D01*
X-3309845Y+6448616D02*
X-3309845Y+6778816D01*
X-3309845Y+6799136D02*
X-3309845Y+7159816D01*
X-3309845Y+7180136D02*
X-3309845Y+7215696D01*
X-3309845Y+7241096D02*
X-3309845Y+7332536D01*
X-3309845Y+7357936D02*
X-3309845Y+7373176D01*
X-3309845Y+7388416D02*
X-3309845Y+7403656D01*
X-3309845Y+7474776D02*
X-3309845Y+7490016D01*
X-3309845Y+7505256D02*
X-3309845Y+7520496D01*
X-3309845Y+7545896D02*
X-3309845Y+7774496D01*
X-3309845Y+7799896D02*
X-3309845Y+7957376D01*
X-3309845Y+8013256D02*
X-3309845Y+8155496D01*
X-3309845Y+8561896D02*
X-3309845Y+8643176D01*
X-3304765Y+6448616D02*
X-3304765Y+6783896D01*
X-3304765Y+6799136D02*
X-3304765Y+7164896D01*
X-3304765Y+7180136D02*
X-3304765Y+7215696D01*
X-3304765Y+7241096D02*
X-3304765Y+7332536D01*
X-3304765Y+7357936D02*
X-3304765Y+7373176D01*
X-3304765Y+7388416D02*
X-3304765Y+7403656D01*
X-3304765Y+7474776D02*
X-3304765Y+7490016D01*
X-3304765Y+7505256D02*
X-3304765Y+7520496D01*
X-3304765Y+7545896D02*
X-3304765Y+7774496D01*
X-3304765Y+7799896D02*
X-3304765Y+7957376D01*
X-3304765Y+8013256D02*
X-3304765Y+8155496D01*
X-3304765Y+8561896D02*
X-3304765Y+8643176D01*
X-3299685Y+6448616D02*
X-3299685Y+6783896D01*
X-3299685Y+6794056D02*
X-3299685Y+7164896D01*
X-3299685Y+7175056D02*
X-3299685Y+7215696D01*
X-3299685Y+7241096D02*
X-3299685Y+7332536D01*
X-3299685Y+7357936D02*
X-3299685Y+7373176D01*
X-3299685Y+7388416D02*
X-3299685Y+7403656D01*
X-3299685Y+7474776D02*
X-3299685Y+7490016D01*
X-3299685Y+7505256D02*
X-3299685Y+7520496D01*
X-3299685Y+7545896D02*
X-3299685Y+7576376D01*
X-3299685Y+7622096D02*
X-3299685Y+7693216D01*
X-3299685Y+7738936D02*
X-3299685Y+7774496D01*
X-3299685Y+7799896D02*
X-3299685Y+7957376D01*
X-3299685Y+8013256D02*
X-3299685Y+8155496D01*
X-3299685Y+8561896D02*
X-3299685Y+8643176D01*
X-3294605Y+6448616D02*
X-3294605Y+7215696D01*
X-3294605Y+7241096D02*
X-3294605Y+7332536D01*
X-3294605Y+7357936D02*
X-3294605Y+7373176D01*
X-3294605Y+7388416D02*
X-3294605Y+7403656D01*
X-3294605Y+7474776D02*
X-3294605Y+7490016D01*
X-3294605Y+7505256D02*
X-3294605Y+7520496D01*
X-3294605Y+7545896D02*
X-3294605Y+7576376D01*
X-3294605Y+7622096D02*
X-3294605Y+7693216D01*
X-3294605Y+7738936D02*
X-3294605Y+7774496D01*
X-3294605Y+7799896D02*
X-3294605Y+7957376D01*
X-3294605Y+8013256D02*
X-3294605Y+8155496D01*
X-3294605Y+8551736D02*
X-3294605Y+8643176D01*
X-3289525Y+6448616D02*
X-3289525Y+7215696D01*
X-3289525Y+7241096D02*
X-3289525Y+7332536D01*
X-3289525Y+7357936D02*
X-3289525Y+7373176D01*
X-3289525Y+7388416D02*
X-3289525Y+7403656D01*
X-3289525Y+7474776D02*
X-3289525Y+7490016D01*
X-3289525Y+7505256D02*
X-3289525Y+7520496D01*
X-3289525Y+7545896D02*
X-3289525Y+7576376D01*
X-3289525Y+7622096D02*
X-3289525Y+7693216D01*
X-3289525Y+7738936D02*
X-3289525Y+7774496D01*
X-3289525Y+7799896D02*
X-3289525Y+7957376D01*
X-3289525Y+8013256D02*
X-3289525Y+8155496D01*
X-3289525Y+8551736D02*
X-3289525Y+8643176D01*
X-3284445Y+6448616D02*
X-3284445Y+7215696D01*
X-3284445Y+7241096D02*
X-3284445Y+7332536D01*
X-3284445Y+7357936D02*
X-3284445Y+7373176D01*
X-3284445Y+7388416D02*
X-3284445Y+7403656D01*
X-3284445Y+7474776D02*
X-3284445Y+7490016D01*
X-3284445Y+7505256D02*
X-3284445Y+7520496D01*
X-3284445Y+7545896D02*
X-3284445Y+7576376D01*
X-3284445Y+7622096D02*
X-3284445Y+7693216D01*
X-3284445Y+7738936D02*
X-3284445Y+7774496D01*
X-3284445Y+7799896D02*
X-3284445Y+7957376D01*
X-3284445Y+8013256D02*
X-3284445Y+8155496D01*
X-3284445Y+8541576D02*
X-3284445Y+8643176D01*
X-3279365Y+6448616D02*
X-3279365Y+6783896D01*
X-3279365Y+6794056D02*
X-3279365Y+7164896D01*
X-3279365Y+7175056D02*
X-3279365Y+7215696D01*
X-3279365Y+7241096D02*
X-3279365Y+7261416D01*
X-3279365Y+7312216D02*
X-3279365Y+7332536D01*
X-3279365Y+7357936D02*
X-3279365Y+7373176D01*
X-3279365Y+7388416D02*
X-3279365Y+7403656D01*
X-3279365Y+7474776D02*
X-3279365Y+7490016D01*
X-3279365Y+7505256D02*
X-3279365Y+7520496D01*
X-3279365Y+7545896D02*
X-3279365Y+7576376D01*
X-3279365Y+7622096D02*
X-3279365Y+7693216D01*
X-3279365Y+7738936D02*
X-3279365Y+7774496D01*
X-3279365Y+7799896D02*
X-3279365Y+7957376D01*
X-3279365Y+8013256D02*
X-3279365Y+8155496D01*
X-3279365Y+8541576D02*
X-3279365Y+8643176D01*
X-3274285Y+6448616D02*
X-3274285Y+6783896D01*
X-3274285Y+6799136D02*
X-3274285Y+7164896D01*
X-3274285Y+7180136D02*
X-3274285Y+7215696D01*
X-3274285Y+7241096D02*
X-3274285Y+7256336D01*
X-3274285Y+7317296D02*
X-3274285Y+7332536D01*
X-3274285Y+7357936D02*
X-3274285Y+7373176D01*
X-3274285Y+7388416D02*
X-3274285Y+7403656D01*
X-3274285Y+7474776D02*
X-3274285Y+7490016D01*
X-3274285Y+7505256D02*
X-3274285Y+7520496D01*
X-3274285Y+7545896D02*
X-3274285Y+7576376D01*
X-3274285Y+7622096D02*
X-3274285Y+7693216D01*
X-3274285Y+7738936D02*
X-3274285Y+7774496D01*
X-3274285Y+7799896D02*
X-3274285Y+7957376D01*
X-3274285Y+8013256D02*
X-3274285Y+8155496D01*
X-3274285Y+8216456D02*
X-3274285Y+8643176D01*
X-3269205Y+6448616D02*
X-3269205Y+6773736D01*
X-3269205Y+6799136D02*
X-3269205Y+7159816D01*
X-3269205Y+7180136D02*
X-3269205Y+7215696D01*
X-3269205Y+7241096D02*
X-3269205Y+7256336D01*
X-3269205Y+7322376D02*
X-3269205Y+7332536D01*
X-3269205Y+7357936D02*
X-3269205Y+7373176D01*
X-3269205Y+7388416D02*
X-3269205Y+7408736D01*
X-3269205Y+7474776D02*
X-3269205Y+7490016D01*
X-3269205Y+7505256D02*
X-3269205Y+7520496D01*
X-3269205Y+7545896D02*
X-3269205Y+7576376D01*
X-3269205Y+7622096D02*
X-3269205Y+7693216D01*
X-3269205Y+7738936D02*
X-3269205Y+7774496D01*
X-3269205Y+7799896D02*
X-3269205Y+7957376D01*
X-3269205Y+8013256D02*
X-3269205Y+8155496D01*
X-3269205Y+8211376D02*
X-3269205Y+8643176D01*
X-3264125Y+6448616D02*
X-3264125Y+6773736D01*
X-3264125Y+6799136D02*
X-3264125Y+7159816D01*
X-3264125Y+7180136D02*
X-3264125Y+7215696D01*
X-3264125Y+7241096D02*
X-3264125Y+7256336D01*
X-3264125Y+7327456D02*
X-3264125Y+7332536D01*
X-3264125Y+7357936D02*
X-3264125Y+7373176D01*
X-3264125Y+7388416D02*
X-3264125Y+7490016D01*
X-3264125Y+7505256D02*
X-3264125Y+7520496D01*
X-3264125Y+7545896D02*
X-3264125Y+7576376D01*
X-3264125Y+7622096D02*
X-3264125Y+7693216D01*
X-3264125Y+7738936D02*
X-3264125Y+7774496D01*
X-3264125Y+7799896D02*
X-3264125Y+7957376D01*
X-3264125Y+8013256D02*
X-3264125Y+8155496D01*
X-3264125Y+8206296D02*
X-3264125Y+8643176D01*
X-3259045Y+6448616D02*
X-3259045Y+6773736D01*
X-3259045Y+6799136D02*
X-3259045Y+7159816D01*
X-3259045Y+7180136D02*
X-3259045Y+7215696D01*
X-3259045Y+7241096D02*
X-3259045Y+7251256D01*
X-3259045Y+7327456D02*
X-3259045Y+7332536D01*
X-3259045Y+7357936D02*
X-3259045Y+7373176D01*
X-3259045Y+7388416D02*
X-3259045Y+7490016D01*
X-3259045Y+7505256D02*
X-3259045Y+7520496D01*
X-3259045Y+7545896D02*
X-3259045Y+7576376D01*
X-3259045Y+7622096D02*
X-3259045Y+7693216D01*
X-3259045Y+7738936D02*
X-3259045Y+7774496D01*
X-3259045Y+7799896D02*
X-3259045Y+7957376D01*
X-3259045Y+8013256D02*
X-3259045Y+8155496D01*
X-3259045Y+8206296D02*
X-3259045Y+8643176D01*
X-3253965Y+6448616D02*
X-3253965Y+6778816D01*
X-3253965Y+6799136D02*
X-3253965Y+7159816D01*
X-3253965Y+7180136D02*
X-3253965Y+7215696D01*
X-3253965Y+7241096D02*
X-3253965Y+7246176D01*
X-3253965Y+7327456D02*
X-3253965Y+7332536D01*
X-3253965Y+7357936D02*
X-3253965Y+7373176D01*
X-3253965Y+7388416D02*
X-3253965Y+7490016D01*
X-3253965Y+7505256D02*
X-3253965Y+7520496D01*
X-3253965Y+7545896D02*
X-3253965Y+7576376D01*
X-3253965Y+7622096D02*
X-3253965Y+7693216D01*
X-3253965Y+7738936D02*
X-3253965Y+7774496D01*
X-3253965Y+7799896D02*
X-3253965Y+7957376D01*
X-3253965Y+8013256D02*
X-3253965Y+8155496D01*
X-3253965Y+8211376D02*
X-3253965Y+8643176D01*
X-3248885Y+6448616D02*
X-3248885Y+6783896D01*
X-3248885Y+6799136D02*
X-3248885Y+7164896D01*
X-3248885Y+7175056D02*
X-3248885Y+7215696D01*
X-3248885Y+7241096D02*
X-3248885Y+7246176D01*
X-3248885Y+7327456D02*
X-3248885Y+7332536D01*
X-3248885Y+7357936D02*
X-3248885Y+7373176D01*
X-3248885Y+7388416D02*
X-3248885Y+7490016D01*
X-3248885Y+7505256D02*
X-3248885Y+7520496D01*
X-3248885Y+7545896D02*
X-3248885Y+7576376D01*
X-3248885Y+7622096D02*
X-3248885Y+7693216D01*
X-3248885Y+7738936D02*
X-3248885Y+7774496D01*
X-3248885Y+7799896D02*
X-3248885Y+7957376D01*
X-3248885Y+8013256D02*
X-3248885Y+8155496D01*
X-3248885Y+8216456D02*
X-3248885Y+8643176D01*
X-3243805Y+6448616D02*
X-3243805Y+6788976D01*
X-3243805Y+6794056D02*
X-3243805Y+7169976D01*
X-3243805Y+7175056D02*
X-3243805Y+7215696D01*
X-3243805Y+7241096D02*
X-3243805Y+7246176D01*
X-3243805Y+7327456D02*
X-3243805Y+7332536D01*
X-3243805Y+7357936D02*
X-3243805Y+7373176D01*
X-3243805Y+7388416D02*
X-3243805Y+7490016D01*
X-3243805Y+7505256D02*
X-3243805Y+7520496D01*
X-3243805Y+7545896D02*
X-3243805Y+7581456D01*
X-3243805Y+7622096D02*
X-3243805Y+7693216D01*
X-3243805Y+7738936D02*
X-3243805Y+7774496D01*
X-3243805Y+7799896D02*
X-3243805Y+7957376D01*
X-3243805Y+8013256D02*
X-3243805Y+8155496D01*
X-3243805Y+8216456D02*
X-3243805Y+8643176D01*
X-3238725Y+6448616D02*
X-3238725Y+7215696D01*
X-3238725Y+7241096D02*
X-3238725Y+7246176D01*
X-3238725Y+7327456D02*
X-3238725Y+7332536D01*
X-3238725Y+7357936D02*
X-3238725Y+7373176D01*
X-3238725Y+7388416D02*
X-3238725Y+7490016D01*
X-3238725Y+7505256D02*
X-3238725Y+7520496D01*
X-3238725Y+7545896D02*
X-3238725Y+7586536D01*
X-3238725Y+7622096D02*
X-3238725Y+7693216D01*
X-3238725Y+7738936D02*
X-3238725Y+7774496D01*
X-3238725Y+7799896D02*
X-3238725Y+7957376D01*
X-3238725Y+8013256D02*
X-3238725Y+8155496D01*
X-3238725Y+8216456D02*
X-3238725Y+8643176D01*
X-3233645Y+6448616D02*
X-3233645Y+7215696D01*
X-3233645Y+7241096D02*
X-3233645Y+7246176D01*
X-3233645Y+7327456D02*
X-3233645Y+7332536D01*
X-3233645Y+7357936D02*
X-3233645Y+7373176D01*
X-3233645Y+7388416D02*
X-3233645Y+7490016D01*
X-3233645Y+7505256D02*
X-3233645Y+7520496D01*
X-3233645Y+7545896D02*
X-3233645Y+7591616D01*
X-3233645Y+7617016D02*
X-3233645Y+7693216D01*
X-3233645Y+7733856D02*
X-3233645Y+7774496D01*
X-3233645Y+7799896D02*
X-3233645Y+7957376D01*
X-3233645Y+8013256D02*
X-3233645Y+8155496D01*
X-3233645Y+8216456D02*
X-3233645Y+8643176D01*
X-3228565Y+6448616D02*
X-3228565Y+7215696D01*
X-3228565Y+7241096D02*
X-3228565Y+7246176D01*
X-3228565Y+7327456D02*
X-3228565Y+7332536D01*
X-3228565Y+7357936D02*
X-3228565Y+7373176D01*
X-3228565Y+7388416D02*
X-3228565Y+7490016D01*
X-3228565Y+7505256D02*
X-3228565Y+7520496D01*
X-3228565Y+7545896D02*
X-3228565Y+7774496D01*
X-3228565Y+7799896D02*
X-3228565Y+7957376D01*
X-3228565Y+8013256D02*
X-3228565Y+8155496D01*
X-3228565Y+8216456D02*
X-3228565Y+8643176D01*
X-3223485Y+6448616D02*
X-3223485Y+6773736D01*
X-3223485Y+6794056D02*
X-3223485Y+7164896D01*
X-3223485Y+7175056D02*
X-3223485Y+7215696D01*
X-3223485Y+7241096D02*
X-3223485Y+7246176D01*
X-3223485Y+7327456D02*
X-3223485Y+7332536D01*
X-3223485Y+7357936D02*
X-3223485Y+7373176D01*
X-3223485Y+7398576D02*
X-3223485Y+7479856D01*
X-3223485Y+7505256D02*
X-3223485Y+7520496D01*
X-3223485Y+7545896D02*
X-3223485Y+7774496D01*
X-3223485Y+7799896D02*
X-3223485Y+7957376D01*
X-3223485Y+8013256D02*
X-3223485Y+8155496D01*
X-3223485Y+8221536D02*
X-3223485Y+8231696D01*
X-3223485Y+8541576D02*
X-3223485Y+8643176D01*
X-3218405Y+6448616D02*
X-3218405Y+6768656D01*
X-3218405Y+6799136D02*
X-3218405Y+7164896D01*
X-3218405Y+7180136D02*
X-3218405Y+7215696D01*
X-3218405Y+7241096D02*
X-3218405Y+7246176D01*
X-3218405Y+7327456D02*
X-3218405Y+7332536D01*
X-3218405Y+7357936D02*
X-3218405Y+7373176D01*
X-3218405Y+7398576D02*
X-3218405Y+7479856D01*
X-3218405Y+7505256D02*
X-3218405Y+7520496D01*
X-3218405Y+7545896D02*
X-3218405Y+7774496D01*
X-3218405Y+7799896D02*
X-3218405Y+7957376D01*
X-3218405Y+8013256D02*
X-3218405Y+8155496D01*
X-3218405Y+8226616D02*
X-3218405Y+8231696D01*
X-3218405Y+8541576D02*
X-3218405Y+8643176D01*
X-3213325Y+6448616D02*
X-3213325Y+6768656D01*
X-3213325Y+6799136D02*
X-3213325Y+7159816D01*
X-3213325Y+7180136D02*
X-3213325Y+7215696D01*
X-3213325Y+7241096D02*
X-3213325Y+7246176D01*
X-3213325Y+7327456D02*
X-3213325Y+7332536D01*
X-3213325Y+7357936D02*
X-3213325Y+7373176D01*
X-3213325Y+7505256D02*
X-3213325Y+7525576D01*
X-3213325Y+7799896D02*
X-3213325Y+7957376D01*
X-3213325Y+8013256D02*
X-3213325Y+8155496D01*
X-3213325Y+8551736D02*
X-3213325Y+8643176D01*
X-3208245Y+6448616D02*
X-3208245Y+6768656D01*
X-3208245Y+6799136D02*
X-3208245Y+7159816D01*
X-3208245Y+7180136D02*
X-3208245Y+7215696D01*
X-3208245Y+7241096D02*
X-3208245Y+7246176D01*
X-3208245Y+7327456D02*
X-3208245Y+7332536D01*
X-3208245Y+7357936D02*
X-3208245Y+7373176D01*
X-3208245Y+7495096D02*
X-3208245Y+7530656D01*
X-3208245Y+7794816D02*
X-3208245Y+7957376D01*
X-3208245Y+8013256D02*
X-3208245Y+8155496D01*
X-3208245Y+8551736D02*
X-3208245Y+8643176D01*
X-3203165Y+6448616D02*
X-3203165Y+6773736D01*
X-3203165Y+6799136D02*
X-3203165Y+7159816D01*
X-3203165Y+7180136D02*
X-3203165Y+7215696D01*
X-3203165Y+7241096D02*
X-3203165Y+7246176D01*
X-3203165Y+7327456D02*
X-3203165Y+7332536D01*
X-3203165Y+7357936D02*
X-3203165Y+7373176D01*
X-3203165Y+7495096D02*
X-3203165Y+7535736D01*
X-3203165Y+7789736D02*
X-3203165Y+7957376D01*
X-3203165Y+8013256D02*
X-3203165Y+8155496D01*
X-3203165Y+8556816D02*
X-3203165Y+8643176D01*
X-3198085Y+6448616D02*
X-3198085Y+6778816D01*
X-3198085Y+6799136D02*
X-3198085Y+7159816D01*
X-3198085Y+7180136D02*
X-3198085Y+7215696D01*
X-3198085Y+7241096D02*
X-3198085Y+7246176D01*
X-3198085Y+7327456D02*
X-3198085Y+7332536D01*
X-3198085Y+7357936D02*
X-3198085Y+7383336D01*
X-3198085Y+7495096D02*
X-3198085Y+7957376D01*
X-3198085Y+8013256D02*
X-3198085Y+8155496D01*
X-3198085Y+8561896D02*
X-3198085Y+8643176D01*
X-3193005Y+6448616D02*
X-3193005Y+6783896D01*
X-3193005Y+6794056D02*
X-3193005Y+7164896D01*
X-3193005Y+7175056D02*
X-3193005Y+7215696D01*
X-3193005Y+7241096D02*
X-3193005Y+7246176D01*
X-3193005Y+7327456D02*
X-3193005Y+7332536D01*
X-3193005Y+7357936D02*
X-3193005Y+7383336D01*
X-3193005Y+7500176D02*
X-3193005Y+7540816D01*
X-3193005Y+7784656D02*
X-3193005Y+7957376D01*
X-3193005Y+8013256D02*
X-3193005Y+8155496D01*
X-3193005Y+8561896D02*
X-3193005Y+8643176D01*
X-3187925Y+6448616D02*
X-3187925Y+7215696D01*
X-3187925Y+7241096D02*
X-3187925Y+7246176D01*
X-3187925Y+7327456D02*
X-3187925Y+7332536D01*
X-3187925Y+7357936D02*
X-3187925Y+7373176D01*
X-3187925Y+7505256D02*
X-3187925Y+7535736D01*
X-3187925Y+7789736D02*
X-3187925Y+7957376D01*
X-3187925Y+8013256D02*
X-3187925Y+8155496D01*
X-3187925Y+8561896D02*
X-3187925Y+8643176D01*
X-3182845Y+6448616D02*
X-3182845Y+7215696D01*
X-3182845Y+7241096D02*
X-3182845Y+7246176D01*
X-3182845Y+7327456D02*
X-3182845Y+7332536D01*
X-3182845Y+7357936D02*
X-3182845Y+7373176D01*
X-3182845Y+7505256D02*
X-3182845Y+7530656D01*
X-3182845Y+7794816D02*
X-3182845Y+7957376D01*
X-3182845Y+8013256D02*
X-3182845Y+8155496D01*
X-3182845Y+8561896D02*
X-3182845Y+8643176D01*
X-3177765Y+6448616D02*
X-3177765Y+7215696D01*
X-3177765Y+7241096D02*
X-3177765Y+7246176D01*
X-3177765Y+7327456D02*
X-3177765Y+7332536D01*
X-3177765Y+7357936D02*
X-3177765Y+7373176D01*
X-3177765Y+7505256D02*
X-3177765Y+7525576D01*
X-3177765Y+7799896D02*
X-3177765Y+7957376D01*
X-3177765Y+8013256D02*
X-3177765Y+8160576D01*
X-3177765Y+8561896D02*
X-3177765Y+8643176D01*
X-3172685Y+6448616D02*
X-3172685Y+7215696D01*
X-3172685Y+7241096D02*
X-3172685Y+7246176D01*
X-3172685Y+7327456D02*
X-3172685Y+7332536D01*
X-3172685Y+7357936D02*
X-3172685Y+7373176D01*
X-3172685Y+7398576D02*
X-3172685Y+7479856D01*
X-3172685Y+7505256D02*
X-3172685Y+7520496D01*
X-3172685Y+7561136D02*
X-3172685Y+7566216D01*
X-3172685Y+7581456D02*
X-3172685Y+7733856D01*
X-3172685Y+7759256D02*
X-3172685Y+7764336D01*
X-3172685Y+7799896D02*
X-3172685Y+7957376D01*
X-3172685Y+8013256D02*
X-3172685Y+8165656D01*
X-3172685Y+8561896D02*
X-3172685Y+8643176D01*
X-3167605Y+6448616D02*
X-3167605Y+6773736D01*
X-3167605Y+6794056D02*
X-3167605Y+7164896D01*
X-3167605Y+7175056D02*
X-3167605Y+7215696D01*
X-3167605Y+7241096D02*
X-3167605Y+7246176D01*
X-3167605Y+7327456D02*
X-3167605Y+7332536D01*
X-3167605Y+7357936D02*
X-3167605Y+7373176D01*
X-3167605Y+7398576D02*
X-3167605Y+7484936D01*
X-3167605Y+7505256D02*
X-3167605Y+7520496D01*
X-3167605Y+7556056D02*
X-3167605Y+7566216D01*
X-3167605Y+7576376D02*
X-3167605Y+7738936D01*
X-3167605Y+7754176D02*
X-3167605Y+7769416D01*
X-3167605Y+7799896D02*
X-3167605Y+7957376D01*
X-3167605Y+8013256D02*
X-3167605Y+8170736D01*
X-3167605Y+8561896D02*
X-3167605Y+8643176D01*
X-3162525Y+6448616D02*
X-3162525Y+6768656D01*
X-3162525Y+6799136D02*
X-3162525Y+7159816D01*
X-3162525Y+7180136D02*
X-3162525Y+7215696D01*
X-3162525Y+7241096D02*
X-3162525Y+7246176D01*
X-3162525Y+7327456D02*
X-3162525Y+7332536D01*
X-3162525Y+7357936D02*
X-3162525Y+7373176D01*
X-3162525Y+7388416D02*
X-3162525Y+7490016D01*
X-3162525Y+7505256D02*
X-3162525Y+7520496D01*
X-3162525Y+7545896D02*
X-3162525Y+7774496D01*
X-3162525Y+7799896D02*
X-3162525Y+7957376D01*
X-3162525Y+8013256D02*
X-3162525Y+8506016D01*
X-3162525Y+8561896D02*
X-3162525Y+8643176D01*
X-3157445Y+6448616D02*
X-3157445Y+6768656D01*
X-3157445Y+6799136D02*
X-3157445Y+7159816D01*
X-3157445Y+7180136D02*
X-3157445Y+7215696D01*
X-3157445Y+7241096D02*
X-3157445Y+7246176D01*
X-3157445Y+7327456D02*
X-3157445Y+7332536D01*
X-3157445Y+7357936D02*
X-3157445Y+7373176D01*
X-3157445Y+7388416D02*
X-3157445Y+7490016D01*
X-3157445Y+7505256D02*
X-3157445Y+7520496D01*
X-3157445Y+7545896D02*
X-3157445Y+7586536D01*
X-3157445Y+7723696D02*
X-3157445Y+7774496D01*
X-3157445Y+7799896D02*
X-3157445Y+7957376D01*
X-3157445Y+8013256D02*
X-3157445Y+8506016D01*
X-3157445Y+8561896D02*
X-3157445Y+8643176D01*
X-3152365Y+6448616D02*
X-3152365Y+6768656D01*
X-3152365Y+6799136D02*
X-3152365Y+7159816D01*
X-3152365Y+7180136D02*
X-3152365Y+7215696D01*
X-3152365Y+7241096D02*
X-3152365Y+7246176D01*
X-3152365Y+7327456D02*
X-3152365Y+7332536D01*
X-3152365Y+7357936D02*
X-3152365Y+7373176D01*
X-3152365Y+7388416D02*
X-3152365Y+7490016D01*
X-3152365Y+7505256D02*
X-3152365Y+7520496D01*
X-3152365Y+7545896D02*
X-3152365Y+7586536D01*
X-3152365Y+7728776D02*
X-3152365Y+7774496D01*
X-3152365Y+7799896D02*
X-3152365Y+7957376D01*
X-3152365Y+8013256D02*
X-3152365Y+8506016D01*
X-3152365Y+8561896D02*
X-3152365Y+8643176D01*
X-3147285Y+6448616D02*
X-3147285Y+6773736D01*
X-3147285Y+6794056D02*
X-3147285Y+7164896D01*
X-3147285Y+7175056D02*
X-3147285Y+7215696D01*
X-3147285Y+7241096D02*
X-3147285Y+7251256D01*
X-3147285Y+7327456D02*
X-3147285Y+7332536D01*
X-3147285Y+7357936D02*
X-3147285Y+7373176D01*
X-3147285Y+7388416D02*
X-3147285Y+7490016D01*
X-3147285Y+7505256D02*
X-3147285Y+7520496D01*
X-3147285Y+7545896D02*
X-3147285Y+7586536D01*
X-3147285Y+7728776D02*
X-3147285Y+7774496D01*
X-3147285Y+7799896D02*
X-3147285Y+7957376D01*
X-3147285Y+8013256D02*
X-3147285Y+8506016D01*
X-3147285Y+8561896D02*
X-3147285Y+8643176D01*
X-3142205Y+6448616D02*
X-3142205Y+7215696D01*
X-3142205Y+7241096D02*
X-3142205Y+7256336D01*
X-3142205Y+7327456D02*
X-3142205Y+7332536D01*
X-3142205Y+7357936D02*
X-3142205Y+7373176D01*
X-3142205Y+7388416D02*
X-3142205Y+7490016D01*
X-3142205Y+7505256D02*
X-3142205Y+7520496D01*
X-3142205Y+7545896D02*
X-3142205Y+7586536D01*
X-3142205Y+7728776D02*
X-3142205Y+7774496D01*
X-3142205Y+7799896D02*
X-3142205Y+7957376D01*
X-3142205Y+8013256D02*
X-3142205Y+8506016D01*
X-3142205Y+8561896D02*
X-3142205Y+8643176D01*
X-3137125Y+6448616D02*
X-3137125Y+7215696D01*
X-3137125Y+7241096D02*
X-3137125Y+7256336D01*
X-3137125Y+7327456D02*
X-3137125Y+7332536D01*
X-3137125Y+7357936D02*
X-3137125Y+7373176D01*
X-3137125Y+7388416D02*
X-3137125Y+7490016D01*
X-3137125Y+7505256D02*
X-3137125Y+7520496D01*
X-3137125Y+7545896D02*
X-3137125Y+7586536D01*
X-3137125Y+7728776D02*
X-3137125Y+7774496D01*
X-3137125Y+7799896D02*
X-3137125Y+7957376D01*
X-3137125Y+8013256D02*
X-3137125Y+8506016D01*
X-3137125Y+8561896D02*
X-3137125Y+8643176D01*
X-3132045Y+6448616D02*
X-3132045Y+7215696D01*
X-3132045Y+7241096D02*
X-3132045Y+7256336D01*
X-3132045Y+7327456D02*
X-3132045Y+7332536D01*
X-3132045Y+7357936D02*
X-3132045Y+7373176D01*
X-3132045Y+7388416D02*
X-3132045Y+7490016D01*
X-3132045Y+7505256D02*
X-3132045Y+7520496D01*
X-3132045Y+7545896D02*
X-3132045Y+7586536D01*
X-3132045Y+7728776D02*
X-3132045Y+7774496D01*
X-3132045Y+7799896D02*
X-3132045Y+7957376D01*
X-3132045Y+8013256D02*
X-3132045Y+8506016D01*
X-3132045Y+8561896D02*
X-3132045Y+8643176D01*
X-3126965Y+6448616D02*
X-3126965Y+7215696D01*
X-3126965Y+7241096D02*
X-3126965Y+7256336D01*
X-3126965Y+7327456D02*
X-3126965Y+7332536D01*
X-3126965Y+7357936D02*
X-3126965Y+7373176D01*
X-3126965Y+7388416D02*
X-3126965Y+7413816D01*
X-3126965Y+7464616D02*
X-3126965Y+7490016D01*
X-3126965Y+7505256D02*
X-3126965Y+7520496D01*
X-3126965Y+7545896D02*
X-3126965Y+7586536D01*
X-3126965Y+7728776D02*
X-3126965Y+7774496D01*
X-3126965Y+7799896D02*
X-3126965Y+7957376D01*
X-3126965Y+8013256D02*
X-3126965Y+8506016D01*
X-3126965Y+8561896D02*
X-3126965Y+8643176D01*
X-3121885Y+6448616D02*
X-3121885Y+7215696D01*
X-3121885Y+7241096D02*
X-3121885Y+7261416D01*
X-3121885Y+7322376D02*
X-3121885Y+7332536D01*
X-3121885Y+7357936D02*
X-3121885Y+7373176D01*
X-3121885Y+7388416D02*
X-3121885Y+7408736D01*
X-3121885Y+7474776D02*
X-3121885Y+7490016D01*
X-3121885Y+7505256D02*
X-3121885Y+7520496D01*
X-3121885Y+7545896D02*
X-3121885Y+7586536D01*
X-3121885Y+7728776D02*
X-3121885Y+7774496D01*
X-3121885Y+7799896D02*
X-3121885Y+7957376D01*
X-3121885Y+8013256D02*
X-3121885Y+8506016D01*
X-3121885Y+8561896D02*
X-3121885Y+8643176D01*
X-3116805Y+6448616D02*
X-3116805Y+7215696D01*
X-3116805Y+7241096D02*
X-3116805Y+7332536D01*
X-3116805Y+7357936D02*
X-3116805Y+7373176D01*
X-3116805Y+7388416D02*
X-3116805Y+7403656D01*
X-3116805Y+7474776D02*
X-3116805Y+7490016D01*
X-3116805Y+7505256D02*
X-3116805Y+7520496D01*
X-3116805Y+7545896D02*
X-3116805Y+7586536D01*
X-3116805Y+7728776D02*
X-3116805Y+7774496D01*
X-3116805Y+7799896D02*
X-3116805Y+7957376D01*
X-3116805Y+8013256D02*
X-3116805Y+8506016D01*
X-3116805Y+8561896D02*
X-3116805Y+8643176D01*
X-3111725Y+6448616D02*
X-3111725Y+6773736D01*
X-3111725Y+6794056D02*
X-3111725Y+7164896D01*
X-3111725Y+7175056D02*
X-3111725Y+7215696D01*
X-3111725Y+7241096D02*
X-3111725Y+7332536D01*
X-3111725Y+7357936D02*
X-3111725Y+7373176D01*
X-3111725Y+7388416D02*
X-3111725Y+7403656D01*
X-3111725Y+7474776D02*
X-3111725Y+7490016D01*
X-3111725Y+7505256D02*
X-3111725Y+7520496D01*
X-3111725Y+7545896D02*
X-3111725Y+7586536D01*
X-3111725Y+7728776D02*
X-3111725Y+7774496D01*
X-3111725Y+7799896D02*
X-3111725Y+7957376D01*
X-3111725Y+8013256D02*
X-3111725Y+8170736D01*
X-3111725Y+8561896D02*
X-3111725Y+8643176D01*
X-3106645Y+6448616D02*
X-3106645Y+6768656D01*
X-3106645Y+6799136D02*
X-3106645Y+7159816D01*
X-3106645Y+7180136D02*
X-3106645Y+7215696D01*
X-3106645Y+7241096D02*
X-3106645Y+7332536D01*
X-3106645Y+7357936D02*
X-3106645Y+7373176D01*
X-3106645Y+7388416D02*
X-3106645Y+7403656D01*
X-3106645Y+7474776D02*
X-3106645Y+7490016D01*
X-3106645Y+7505256D02*
X-3106645Y+7520496D01*
X-3106645Y+7545896D02*
X-3106645Y+7586536D01*
X-3106645Y+7728776D02*
X-3106645Y+7774496D01*
X-3106645Y+7799896D02*
X-3106645Y+7957376D01*
X-3106645Y+8013256D02*
X-3106645Y+8165656D01*
X-3106645Y+8561896D02*
X-3106645Y+8643176D01*
X-3101565Y+6448616D02*
X-3101565Y+6768656D01*
X-3101565Y+6799136D02*
X-3101565Y+7159816D01*
X-3101565Y+7180136D02*
X-3101565Y+7215696D01*
X-3101565Y+7241096D02*
X-3101565Y+7332536D01*
X-3101565Y+7357936D02*
X-3101565Y+7373176D01*
X-3101565Y+7388416D02*
X-3101565Y+7403656D01*
X-3101565Y+7474776D02*
X-3101565Y+7490016D01*
X-3101565Y+7505256D02*
X-3101565Y+7520496D01*
X-3101565Y+7545896D02*
X-3101565Y+7586536D01*
X-3101565Y+7728776D02*
X-3101565Y+7774496D01*
X-3101565Y+7799896D02*
X-3101565Y+7957376D01*
X-3101565Y+8013256D02*
X-3101565Y+8160576D01*
X-3101565Y+8561896D02*
X-3101565Y+8643176D01*
X-3096485Y+6448616D02*
X-3096485Y+6768656D01*
X-3096485Y+6799136D02*
X-3096485Y+7164896D01*
X-3096485Y+7180136D02*
X-3096485Y+7215696D01*
X-3096485Y+7241096D02*
X-3096485Y+7332536D01*
X-3096485Y+7357936D02*
X-3096485Y+7373176D01*
X-3096485Y+7388416D02*
X-3096485Y+7403656D01*
X-3096485Y+7474776D02*
X-3096485Y+7490016D01*
X-3096485Y+7505256D02*
X-3096485Y+7520496D01*
X-3096485Y+7545896D02*
X-3096485Y+7586536D01*
X-3096485Y+7728776D02*
X-3096485Y+7774496D01*
X-3096485Y+7799896D02*
X-3096485Y+7957376D01*
X-3096485Y+8013256D02*
X-3096485Y+8155496D01*
X-3096485Y+8561896D02*
X-3096485Y+8643176D01*
X-3091405Y+6448616D02*
X-3091405Y+6773736D01*
X-3091405Y+6794056D02*
X-3091405Y+7164896D01*
X-3091405Y+7175056D02*
X-3091405Y+7215696D01*
X-3091405Y+7241096D02*
X-3091405Y+7332536D01*
X-3091405Y+7357936D02*
X-3091405Y+7373176D01*
X-3091405Y+7388416D02*
X-3091405Y+7403656D01*
X-3091405Y+7479856D02*
X-3091405Y+7490016D01*
X-3091405Y+7505256D02*
X-3091405Y+7520496D01*
X-3091405Y+7545896D02*
X-3091405Y+7586536D01*
X-3091405Y+7723696D02*
X-3091405Y+7774496D01*
X-3091405Y+7799896D02*
X-3091405Y+7957376D01*
X-3091405Y+8013256D02*
X-3091405Y+8155496D01*
X-3091405Y+8561896D02*
X-3091405Y+8643176D01*
X-3086325Y+6448616D02*
X-3086325Y+7215696D01*
X-3086325Y+7241096D02*
X-3086325Y+7332536D01*
X-3086325Y+7357936D02*
X-3086325Y+7373176D01*
X-3086325Y+7388416D02*
X-3086325Y+7403656D01*
X-3086325Y+7484936D02*
X-3086325Y+7490016D01*
X-3086325Y+7505256D02*
X-3086325Y+7520496D01*
X-3086325Y+7545896D02*
X-3086325Y+7774496D01*
X-3086325Y+7799896D02*
X-3086325Y+7957376D01*
X-3086325Y+8013256D02*
X-3086325Y+8155496D01*
X-3086325Y+8561896D02*
X-3086325Y+8643176D01*
X-3081245Y+6448616D02*
X-3081245Y+7215696D01*
X-3081245Y+7357936D02*
X-3081245Y+7373176D01*
X-3081245Y+7388416D02*
X-3081245Y+7403656D01*
X-3081245Y+7484936D02*
X-3081245Y+7490016D01*
X-3081245Y+7505256D02*
X-3081245Y+7520496D01*
X-3081245Y+7545896D02*
X-3081245Y+7774496D01*
X-3081245Y+7799896D02*
X-3081245Y+7957376D01*
X-3081245Y+8013256D02*
X-3081245Y+8155496D01*
X-3081245Y+8561896D02*
X-3081245Y+8643176D01*
X-3076165Y+6448616D02*
X-3076165Y+7225856D01*
X-3076165Y+7357936D02*
X-3076165Y+7373176D01*
X-3076165Y+7388416D02*
X-3076165Y+7403656D01*
X-3076165Y+7484936D02*
X-3076165Y+7490016D01*
X-3076165Y+7505256D02*
X-3076165Y+7520496D01*
X-3076165Y+7545896D02*
X-3076165Y+7774496D01*
X-3076165Y+7799896D02*
X-3076165Y+7957376D01*
X-3076165Y+8013256D02*
X-3076165Y+8155496D01*
X-3076165Y+8556816D02*
X-3076165Y+8643176D01*
X-3071085Y+6448616D02*
X-3071085Y+7225856D01*
X-3071085Y+7357936D02*
X-3071085Y+7373176D01*
X-3071085Y+7388416D02*
X-3071085Y+7403656D01*
X-3071085Y+7484936D02*
X-3071085Y+7490016D01*
X-3071085Y+7505256D02*
X-3071085Y+7520496D01*
X-3071085Y+7799896D02*
X-3071085Y+7957376D01*
X-3071085Y+8013256D02*
X-3071085Y+8155496D01*
X-3071085Y+8551736D02*
X-3071085Y+8643176D01*
X-3066005Y+6448616D02*
X-3066005Y+7236016D01*
X-3066005Y+7347776D02*
X-3066005Y+7373176D01*
X-3066005Y+7388416D02*
X-3066005Y+7403656D01*
X-3066005Y+7484936D02*
X-3066005Y+7490016D01*
X-3066005Y+7505256D02*
X-3066005Y+7520496D01*
X-3066005Y+7794816D02*
X-3066005Y+7957376D01*
X-3066005Y+8013256D02*
X-3066005Y+8155496D01*
X-3066005Y+8551736D02*
X-3066005Y+8643176D01*
X-3060925Y+6448616D02*
X-3060925Y+7236016D01*
X-3060925Y+7347776D02*
X-3060925Y+7373176D01*
X-3060925Y+7388416D02*
X-3060925Y+7403656D01*
X-3060925Y+7484936D02*
X-3060925Y+7490016D01*
X-3060925Y+7505256D02*
X-3060925Y+7520496D01*
X-3060925Y+7789736D02*
X-3060925Y+7957376D01*
X-3060925Y+8013256D02*
X-3060925Y+8155496D01*
X-3060925Y+8551736D02*
X-3060925Y+8643176D01*
X-3055845Y+6448616D02*
X-3055845Y+7241096D01*
X-3055845Y+7342696D02*
X-3055845Y+7373176D01*
X-3055845Y+7388416D02*
X-3055845Y+7403656D01*
X-3055845Y+7484936D02*
X-3055845Y+7490016D01*
X-3055845Y+7505256D02*
X-3055845Y+7525576D01*
X-3055845Y+7784656D02*
X-3055845Y+7957376D01*
X-3055845Y+8013256D02*
X-3055845Y+8155496D01*
X-3055845Y+8546656D02*
X-3055845Y+8643176D01*
X-3050765Y+6448616D02*
X-3050765Y+7373176D01*
X-3050765Y+7388416D02*
X-3050765Y+7403656D01*
X-3050765Y+7484936D02*
X-3050765Y+7490016D01*
X-3050765Y+7505256D02*
X-3050765Y+7540816D01*
X-3050765Y+7784656D02*
X-3050765Y+7957376D01*
X-3050765Y+8013256D02*
X-3050765Y+8155496D01*
X-3050765Y+8216456D02*
X-3050765Y+8643176D01*
X-3045685Y+6448616D02*
X-3045685Y+7373176D01*
X-3045685Y+7388416D02*
X-3045685Y+7403656D01*
X-3045685Y+7484936D02*
X-3045685Y+7490016D01*
X-3045685Y+7505256D02*
X-3045685Y+7535736D01*
X-3045685Y+7789736D02*
X-3045685Y+7957376D01*
X-3045685Y+8013256D02*
X-3045685Y+8155496D01*
X-3045685Y+8211376D02*
X-3045685Y+8643176D01*
X-3040605Y+6448616D02*
X-3040605Y+7373176D01*
X-3040605Y+7388416D02*
X-3040605Y+7403656D01*
X-3040605Y+7484936D02*
X-3040605Y+7490016D01*
X-3040605Y+7505256D02*
X-3040605Y+7530656D01*
X-3040605Y+7789736D02*
X-3040605Y+7957376D01*
X-3040605Y+8013256D02*
X-3040605Y+8155496D01*
X-3040605Y+8206296D02*
X-3040605Y+8643176D01*
X-3035525Y+6448616D02*
X-3035525Y+7373176D01*
X-3035525Y+7388416D02*
X-3035525Y+7403656D01*
X-3035525Y+7484936D02*
X-3035525Y+7490016D01*
X-3035525Y+7505256D02*
X-3035525Y+7525576D01*
X-3035525Y+7799896D02*
X-3035525Y+7957376D01*
X-3035525Y+8013256D02*
X-3035525Y+8155496D01*
X-3035525Y+8206296D02*
X-3035525Y+8643176D01*
X-3030445Y+6448616D02*
X-3030445Y+7373176D01*
X-3030445Y+7388416D02*
X-3030445Y+7403656D01*
X-3030445Y+7484936D02*
X-3030445Y+7490016D01*
X-3030445Y+7505256D02*
X-3030445Y+7520496D01*
X-3030445Y+7799896D02*
X-3030445Y+7957376D01*
X-3030445Y+8013256D02*
X-3030445Y+8155496D01*
X-3030445Y+8206296D02*
X-3030445Y+8643176D01*
X-3025365Y+6448616D02*
X-3025365Y+7373176D01*
X-3025365Y+7388416D02*
X-3025365Y+7403656D01*
X-3025365Y+7484936D02*
X-3025365Y+7490016D01*
X-3025365Y+7505256D02*
X-3025365Y+7520496D01*
X-3025365Y+7799896D02*
X-3025365Y+7957376D01*
X-3025365Y+8013256D02*
X-3025365Y+8155496D01*
X-3025365Y+8206296D02*
X-3025365Y+8643176D01*
X-3020285Y+6448616D02*
X-3020285Y+7373176D01*
X-3020285Y+7388416D02*
X-3020285Y+7403656D01*
X-3020285Y+7484936D02*
X-3020285Y+7490016D01*
X-3020285Y+7505256D02*
X-3020285Y+7520496D01*
X-3020285Y+7550976D02*
X-3020285Y+7774496D01*
X-3020285Y+7799896D02*
X-3020285Y+7957376D01*
X-3020285Y+8013256D02*
X-3020285Y+8155496D01*
X-3020285Y+8206296D02*
X-3020285Y+8643176D01*
X-3015205Y+6448616D02*
X-3015205Y+6860096D01*
X-3015205Y+6890576D02*
X-3015205Y+6910896D01*
X-3015205Y+6931216D02*
X-3015205Y+6966776D01*
X-3015205Y+6982016D02*
X-3015205Y+7017576D01*
X-3015205Y+7037896D02*
X-3015205Y+7073456D01*
X-3015205Y+7088696D02*
X-3015205Y+7373176D01*
X-3015205Y+7388416D02*
X-3015205Y+7403656D01*
X-3015205Y+7484936D02*
X-3015205Y+7490016D01*
X-3015205Y+7505256D02*
X-3015205Y+7520496D01*
X-3015205Y+7545896D02*
X-3015205Y+7601776D01*
X-3015205Y+7606856D02*
X-3015205Y+7708456D01*
X-3015205Y+7713536D02*
X-3015205Y+7774496D01*
X-3015205Y+7799896D02*
X-3015205Y+7957376D01*
X-3015205Y+8013256D02*
X-3015205Y+8155496D01*
X-3015205Y+8206296D02*
X-3015205Y+8643176D01*
X-3010125Y+6448616D02*
X-3010125Y+6855016D01*
X-3010125Y+6890576D02*
X-3010125Y+6910896D01*
X-3010125Y+6936296D02*
X-3010125Y+6961696D01*
X-3010125Y+6987096D02*
X-3010125Y+7012496D01*
X-3010125Y+7037896D02*
X-3010125Y+7068376D01*
X-3010125Y+7093776D02*
X-3010125Y+7373176D01*
X-3010125Y+7388416D02*
X-3010125Y+7403656D01*
X-3010125Y+7484936D02*
X-3010125Y+7490016D01*
X-3010125Y+7505256D02*
X-3010125Y+7520496D01*
X-3010125Y+7545896D02*
X-3010125Y+7596696D01*
X-3010125Y+7611936D02*
X-3010125Y+7703376D01*
X-3010125Y+7718616D02*
X-3010125Y+7774496D01*
X-3010125Y+7799896D02*
X-3010125Y+7957376D01*
X-3010125Y+8013256D02*
X-3010125Y+8155496D01*
X-3010125Y+8206296D02*
X-3010125Y+8643176D01*
X-3005045Y+6448616D02*
X-3005045Y+6855016D01*
X-3005045Y+6890576D02*
X-3005045Y+6910896D01*
X-3005045Y+6936296D02*
X-3005045Y+6961696D01*
X-3005045Y+6987096D02*
X-3005045Y+7017576D01*
X-3005045Y+7037896D02*
X-3005045Y+7068376D01*
X-3005045Y+7093776D02*
X-3005045Y+7373176D01*
X-3005045Y+7388416D02*
X-3005045Y+7403656D01*
X-3005045Y+7484936D02*
X-3005045Y+7490016D01*
X-3005045Y+7505256D02*
X-3005045Y+7520496D01*
X-3005045Y+7545896D02*
X-3005045Y+7591616D01*
X-3005045Y+7723696D02*
X-3005045Y+7774496D01*
X-3005045Y+7799896D02*
X-3005045Y+7957376D01*
X-3005045Y+8013256D02*
X-3005045Y+8155496D01*
X-3005045Y+8206296D02*
X-3005045Y+8643176D01*
X-2999965Y+6448616D02*
X-2999965Y+6865176D01*
X-2999965Y+6885496D02*
X-2999965Y+6915976D01*
X-2999965Y+6926136D02*
X-2999965Y+6966776D01*
X-2999965Y+6982016D02*
X-2999965Y+7022656D01*
X-2999965Y+7032816D02*
X-2999965Y+7073456D01*
X-2999965Y+7083616D02*
X-2999965Y+7373176D01*
X-2999965Y+7388416D02*
X-2999965Y+7403656D01*
X-2999965Y+7474776D02*
X-2999965Y+7490016D01*
X-2999965Y+7505256D02*
X-2999965Y+7520496D01*
X-2999965Y+7545896D02*
X-2999965Y+7586536D01*
X-2999965Y+7728776D02*
X-2999965Y+7774496D01*
X-2999965Y+7799896D02*
X-2999965Y+7957376D01*
X-2999965Y+8013256D02*
X-2999965Y+8155496D01*
X-2999965Y+8211376D02*
X-2999965Y+8643176D01*
X-2994885Y+6448616D02*
X-2994885Y+7373176D01*
X-2994885Y+7388416D02*
X-2994885Y+7403656D01*
X-2994885Y+7474776D02*
X-2994885Y+7490016D01*
X-2994885Y+7505256D02*
X-2994885Y+7520496D01*
X-2994885Y+7545896D02*
X-2994885Y+7586536D01*
X-2994885Y+7728776D02*
X-2994885Y+7774496D01*
X-2994885Y+7799896D02*
X-2994885Y+7957376D01*
X-2994885Y+8013256D02*
X-2994885Y+8155496D01*
X-2994885Y+8216456D02*
X-2994885Y+8643176D01*
X-2989805Y+6448616D02*
X-2989805Y+7373176D01*
X-2989805Y+7388416D02*
X-2989805Y+7403656D01*
X-2989805Y+7474776D02*
X-2989805Y+7490016D01*
X-2989805Y+7505256D02*
X-2989805Y+7520496D01*
X-2989805Y+7545896D02*
X-2989805Y+7586536D01*
X-2989805Y+7728776D02*
X-2989805Y+7774496D01*
X-2989805Y+7799896D02*
X-2989805Y+7957376D01*
X-2989805Y+8013256D02*
X-2989805Y+8155496D01*
X-2989805Y+8551736D02*
X-2989805Y+8643176D01*
X-2984725Y+6448616D02*
X-2984725Y+7373176D01*
X-2984725Y+7388416D02*
X-2984725Y+7403656D01*
X-2984725Y+7474776D02*
X-2984725Y+7490016D01*
X-2984725Y+7505256D02*
X-2984725Y+7520496D01*
X-2984725Y+7545896D02*
X-2984725Y+7586536D01*
X-2984725Y+7728776D02*
X-2984725Y+7774496D01*
X-2984725Y+7799896D02*
X-2984725Y+7957376D01*
X-2984725Y+8013256D02*
X-2984725Y+8155496D01*
X-2984725Y+8551736D02*
X-2984725Y+8643176D01*
X-2979645Y+6448616D02*
X-2979645Y+7373176D01*
X-2979645Y+7388416D02*
X-2979645Y+7403656D01*
X-2979645Y+7474776D02*
X-2979645Y+7490016D01*
X-2979645Y+7505256D02*
X-2979645Y+7520496D01*
X-2979645Y+7545896D02*
X-2979645Y+7586536D01*
X-2979645Y+7728776D02*
X-2979645Y+7774496D01*
X-2979645Y+7799896D02*
X-2979645Y+7957376D01*
X-2979645Y+8013256D02*
X-2979645Y+8155496D01*
X-2979645Y+8551736D02*
X-2979645Y+8643176D01*
X-2974565Y+6448616D02*
X-2974565Y+7373176D01*
X-2974565Y+7388416D02*
X-2974565Y+7403656D01*
X-2974565Y+7474776D02*
X-2974565Y+7490016D01*
X-2974565Y+7505256D02*
X-2974565Y+7520496D01*
X-2974565Y+7545896D02*
X-2974565Y+7586536D01*
X-2974565Y+7728776D02*
X-2974565Y+7774496D01*
X-2974565Y+7799896D02*
X-2974565Y+7957376D01*
X-2974565Y+8013256D02*
X-2974565Y+8155496D01*
X-2974565Y+8551736D02*
X-2974565Y+8643176D01*
X-2969485Y+6448616D02*
X-2969485Y+7373176D01*
X-2969485Y+7388416D02*
X-2969485Y+7408736D01*
X-2969485Y+7469696D02*
X-2969485Y+7490016D01*
X-2969485Y+7505256D02*
X-2969485Y+7520496D01*
X-2969485Y+7545896D02*
X-2969485Y+7586536D01*
X-2969485Y+7728776D02*
X-2969485Y+7774496D01*
X-2969485Y+7799896D02*
X-2969485Y+7957376D01*
X-2969485Y+8013256D02*
X-2969485Y+8155496D01*
X-2969485Y+8561896D02*
X-2969485Y+8643176D01*
X-2964405Y+6448616D02*
X-2964405Y+7373176D01*
X-2964405Y+7388416D02*
X-2964405Y+7490016D01*
X-2964405Y+7505256D02*
X-2964405Y+7520496D01*
X-2964405Y+7545896D02*
X-2964405Y+7586536D01*
X-2964405Y+7728776D02*
X-2964405Y+7774496D01*
X-2964405Y+7799896D02*
X-2964405Y+7957376D01*
X-2964405Y+8013256D02*
X-2964405Y+8155496D01*
X-2964405Y+8561896D02*
X-2964405Y+8643176D01*
X-2959325Y+6448616D02*
X-2959325Y+7373176D01*
X-2959325Y+7388416D02*
X-2959325Y+7490016D01*
X-2959325Y+7505256D02*
X-2959325Y+7520496D01*
X-2959325Y+7545896D02*
X-2959325Y+7586536D01*
X-2959325Y+7728776D02*
X-2959325Y+7774496D01*
X-2959325Y+7799896D02*
X-2959325Y+7957376D01*
X-2959325Y+8013256D02*
X-2959325Y+8155496D01*
X-2959325Y+8561896D02*
X-2959325Y+8643176D01*
X-2954245Y+6448616D02*
X-2954245Y+7373176D01*
X-2954245Y+7388416D02*
X-2954245Y+7490016D01*
X-2954245Y+7505256D02*
X-2954245Y+7520496D01*
X-2954245Y+7545896D02*
X-2954245Y+7586536D01*
X-2954245Y+7728776D02*
X-2954245Y+7774496D01*
X-2954245Y+7799896D02*
X-2954245Y+7957376D01*
X-2954245Y+8013256D02*
X-2954245Y+8155496D01*
X-2954245Y+8561896D02*
X-2954245Y+8643176D01*
X-2949165Y+6448616D02*
X-2949165Y+6936296D01*
X-2949165Y+7195376D02*
X-2949165Y+7373176D01*
X-2949165Y+7388416D02*
X-2949165Y+7490016D01*
X-2949165Y+7505256D02*
X-2949165Y+7520496D01*
X-2949165Y+7545896D02*
X-2949165Y+7586536D01*
X-2949165Y+7728776D02*
X-2949165Y+7774496D01*
X-2949165Y+7799896D02*
X-2949165Y+7957376D01*
X-2949165Y+8013256D02*
X-2949165Y+8155496D01*
X-2949165Y+8561896D02*
X-2949165Y+8643176D01*
X-2944085Y+6448616D02*
X-2944085Y+6931216D01*
X-2944085Y+7200456D02*
X-2944085Y+7373176D01*
X-2944085Y+7388416D02*
X-2944085Y+7490016D01*
X-2944085Y+7505256D02*
X-2944085Y+7520496D01*
X-2944085Y+7545896D02*
X-2944085Y+7591616D01*
X-2944085Y+7611936D02*
X-2944085Y+7688136D01*
X-2944085Y+7728776D02*
X-2944085Y+7774496D01*
X-2944085Y+7799896D02*
X-2944085Y+7957376D01*
X-2944085Y+8013256D02*
X-2944085Y+8480616D01*
X-2944085Y+8561896D02*
X-2944085Y+8643176D01*
X-2939005Y+6448616D02*
X-2939005Y+6931216D01*
X-2939005Y+7200456D02*
X-2939005Y+7373176D01*
X-2939005Y+7393496D02*
X-2939005Y+7484936D01*
X-2939005Y+7505256D02*
X-2939005Y+7520496D01*
X-2939005Y+7545896D02*
X-2939005Y+7596696D01*
X-2939005Y+7611936D02*
X-2939005Y+7693216D01*
X-2939005Y+7728776D02*
X-2939005Y+7774496D01*
X-2939005Y+7799896D02*
X-2939005Y+7957376D01*
X-2939005Y+8013256D02*
X-2939005Y+8485696D01*
X-2939005Y+8561896D02*
X-2939005Y+8643176D01*
X-2933925Y+6448616D02*
X-2933925Y+6931216D01*
X-2933925Y+7200456D02*
X-2933925Y+7373176D01*
X-2933925Y+7398576D02*
X-2933925Y+7479856D01*
X-2933925Y+7505256D02*
X-2933925Y+7520496D01*
X-2933925Y+7545896D02*
X-2933925Y+7601776D01*
X-2933925Y+7606856D02*
X-2933925Y+7698296D01*
X-2933925Y+7718616D02*
X-2933925Y+7774496D01*
X-2933925Y+7799896D02*
X-2933925Y+7957376D01*
X-2933925Y+8013256D02*
X-2933925Y+8490776D01*
X-2933925Y+8561896D02*
X-2933925Y+8643176D01*
X-2928845Y+6448616D02*
X-2928845Y+6931216D01*
X-2928845Y+6997256D02*
X-2928845Y+7012496D01*
X-2928845Y+7114096D02*
X-2928845Y+7129336D01*
X-2928845Y+7200456D02*
X-2928845Y+7373176D01*
X-2928845Y+7403656D02*
X-2928845Y+7479856D01*
X-2928845Y+7505256D02*
X-2928845Y+7520496D01*
X-2928845Y+7550976D02*
X-2928845Y+7774496D01*
X-2928845Y+7799896D02*
X-2928845Y+7957376D01*
X-2928845Y+8013256D02*
X-2928845Y+8506016D01*
X-2928845Y+8561896D02*
X-2928845Y+8643176D01*
X-2923765Y+6448616D02*
X-2923765Y+6931216D01*
X-2923765Y+6992176D02*
X-2923765Y+7017576D01*
X-2923765Y+7109016D02*
X-2923765Y+7134416D01*
X-2923765Y+7210616D02*
X-2923765Y+7373176D01*
X-2923765Y+7505256D02*
X-2923765Y+7520496D01*
X-2923765Y+7799896D02*
X-2923765Y+7957376D01*
X-2923765Y+8013256D02*
X-2923765Y+8506016D01*
X-2923765Y+8561896D02*
X-2923765Y+8643176D01*
X-2918685Y+6448616D02*
X-2918685Y+6931216D01*
X-2918685Y+6946456D02*
X-2918685Y+7185216D01*
X-2918685Y+7210616D02*
X-2918685Y+7373176D01*
X-2918685Y+7505256D02*
X-2918685Y+7520496D01*
X-2918685Y+7799896D02*
X-2918685Y+7957376D01*
X-2918685Y+8013256D02*
X-2918685Y+8506016D01*
X-2918685Y+8561896D02*
X-2918685Y+8643176D01*
X-2913605Y+6448616D02*
X-2913605Y+6931216D01*
X-2913605Y+6946456D02*
X-2913605Y+6997256D01*
X-2913605Y+7017576D02*
X-2913605Y+7109016D01*
X-2913605Y+7134416D02*
X-2913605Y+7185216D01*
X-2913605Y+7210616D02*
X-2913605Y+7378256D01*
X-2913605Y+7500176D02*
X-2913605Y+7525576D01*
X-2913605Y+7799896D02*
X-2913605Y+7957376D01*
X-2913605Y+8013256D02*
X-2913605Y+8506016D01*
X-2913605Y+8561896D02*
X-2913605Y+8643176D01*
X-2908525Y+6448616D02*
X-2908525Y+6931216D01*
X-2908525Y+6946456D02*
X-2908525Y+6992176D01*
X-2908525Y+7017576D02*
X-2908525Y+7109016D01*
X-2908525Y+7134416D02*
X-2908525Y+7185216D01*
X-2908525Y+7210616D02*
X-2908525Y+7393496D01*
X-2908525Y+7484936D02*
X-2908525Y+7530656D01*
X-2908525Y+7789736D02*
X-2908525Y+7957376D01*
X-2908525Y+8013256D02*
X-2908525Y+8506016D01*
X-2908525Y+8561896D02*
X-2908525Y+8643176D01*
X-2903445Y+6448616D02*
X-2903445Y+6931216D01*
X-2903445Y+6946456D02*
X-2903445Y+6987096D01*
X-2903445Y+7017576D02*
X-2903445Y+7109016D01*
X-2903445Y+7134416D02*
X-2903445Y+7185216D01*
X-2903445Y+7210616D02*
X-2903445Y+7398576D01*
X-2903445Y+7484936D02*
X-2903445Y+7535736D01*
X-2903445Y+7789736D02*
X-2903445Y+7957376D01*
X-2903445Y+8013256D02*
X-2903445Y+8506016D01*
X-2903445Y+8561896D02*
X-2903445Y+8643176D01*
X-2898365Y+6448616D02*
X-2898365Y+6931216D01*
X-2898365Y+6946456D02*
X-2898365Y+6982016D01*
X-2898365Y+7017576D02*
X-2898365Y+7109016D01*
X-2898365Y+7134416D02*
X-2898365Y+7185216D01*
X-2898365Y+7210616D02*
X-2898365Y+7540816D01*
X-2898365Y+7779576D02*
X-2898365Y+7957376D01*
X-2898365Y+8013256D02*
X-2898365Y+8506016D01*
X-2898365Y+8561896D02*
X-2898365Y+8643176D01*
X-2893285Y+6448616D02*
X-2893285Y+6931216D01*
X-2893285Y+6946456D02*
X-2893285Y+6982016D01*
X-2893285Y+7017576D02*
X-2893285Y+7109016D01*
X-2893285Y+7134416D02*
X-2893285Y+7185216D01*
X-2893285Y+7210616D02*
X-2893285Y+7525576D01*
X-2893285Y+7789736D02*
X-2893285Y+7957376D01*
X-2893285Y+8013256D02*
X-2893285Y+8506016D01*
X-2893285Y+8561896D02*
X-2893285Y+8643176D01*
X-2888205Y+6448616D02*
X-2888205Y+6931216D01*
X-2888205Y+6946456D02*
X-2888205Y+6982016D01*
X-2888205Y+7017576D02*
X-2888205Y+7109016D01*
X-2888205Y+7134416D02*
X-2888205Y+7185216D01*
X-2888205Y+7210616D02*
X-2888205Y+7520496D01*
X-2888205Y+7789736D02*
X-2888205Y+7957376D01*
X-2888205Y+8013256D02*
X-2888205Y+8506016D01*
X-2888205Y+8561896D02*
X-2888205Y+8643176D01*
X-2883125Y+6448616D02*
X-2883125Y+6931216D01*
X-2883125Y+6946456D02*
X-2883125Y+6982016D01*
X-2883125Y+7017576D02*
X-2883125Y+7109016D01*
X-2883125Y+7134416D02*
X-2883125Y+7185216D01*
X-2883125Y+7210616D02*
X-2883125Y+7520496D01*
X-2883125Y+7794816D02*
X-2883125Y+7957376D01*
X-2883125Y+8013256D02*
X-2883125Y+8170736D01*
X-2883125Y+8561896D02*
X-2883125Y+8643176D01*
X-2878045Y+6448616D02*
X-2878045Y+6931216D01*
X-2878045Y+6946456D02*
X-2878045Y+6982016D01*
X-2878045Y+7017576D02*
X-2878045Y+7109016D01*
X-2878045Y+7134416D02*
X-2878045Y+7185216D01*
X-2878045Y+7210616D02*
X-2878045Y+7520496D01*
X-2878045Y+7550976D02*
X-2878045Y+7774496D01*
X-2878045Y+7799896D02*
X-2878045Y+7957376D01*
X-2878045Y+8013256D02*
X-2878045Y+8165656D01*
X-2878045Y+8561896D02*
X-2878045Y+8643176D01*
X-2872965Y+6448616D02*
X-2872965Y+6931216D01*
X-2872965Y+6946456D02*
X-2872965Y+6982016D01*
X-2872965Y+7017576D02*
X-2872965Y+7109016D01*
X-2872965Y+7134416D02*
X-2872965Y+7185216D01*
X-2872965Y+7210616D02*
X-2872965Y+7520496D01*
X-2872965Y+7545896D02*
X-2872965Y+7774496D01*
X-2872965Y+7799896D02*
X-2872965Y+7957376D01*
X-2872965Y+8013256D02*
X-2872965Y+8165656D01*
X-2872965Y+8561896D02*
X-2872965Y+8643176D01*
X-2867885Y+6448616D02*
X-2867885Y+6931216D01*
X-2867885Y+6946456D02*
X-2867885Y+6982016D01*
X-2867885Y+7017576D02*
X-2867885Y+7109016D01*
X-2867885Y+7134416D02*
X-2867885Y+7185216D01*
X-2867885Y+7210616D02*
X-2867885Y+7520496D01*
X-2867885Y+7545896D02*
X-2867885Y+7774496D01*
X-2867885Y+7799896D02*
X-2867885Y+7957376D01*
X-2867885Y+8013256D02*
X-2867885Y+8155496D01*
X-2867885Y+8561896D02*
X-2867885Y+8643176D01*
X-2862805Y+6448616D02*
X-2862805Y+6931216D01*
X-2862805Y+6946456D02*
X-2862805Y+6982016D01*
X-2862805Y+7017576D02*
X-2862805Y+7109016D01*
X-2862805Y+7134416D02*
X-2862805Y+7185216D01*
X-2862805Y+7210616D02*
X-2862805Y+7520496D01*
X-2862805Y+7545896D02*
X-2862805Y+7774496D01*
X-2862805Y+7799896D02*
X-2862805Y+7957376D01*
X-2862805Y+8013256D02*
X-2862805Y+8155496D01*
X-2862805Y+8561896D02*
X-2862805Y+8643176D01*
X-2857725Y+6448616D02*
X-2857725Y+6931216D01*
X-2857725Y+6946456D02*
X-2857725Y+6982016D01*
X-2857725Y+7017576D02*
X-2857725Y+7109016D01*
X-2857725Y+7134416D02*
X-2857725Y+7185216D01*
X-2857725Y+7210616D02*
X-2857725Y+7520496D01*
X-2857725Y+7545896D02*
X-2857725Y+7586536D01*
X-2857725Y+7728776D02*
X-2857725Y+7774496D01*
X-2857725Y+7799896D02*
X-2857725Y+7957376D01*
X-2857725Y+8013256D02*
X-2857725Y+8155496D01*
X-2857725Y+8561896D02*
X-2857725Y+8643176D01*
X-2852645Y+6448616D02*
X-2852645Y+6931216D01*
X-2852645Y+6946456D02*
X-2852645Y+6982016D01*
X-2852645Y+7017576D02*
X-2852645Y+7109016D01*
X-2852645Y+7134416D02*
X-2852645Y+7185216D01*
X-2852645Y+7210616D02*
X-2852645Y+7520496D01*
X-2852645Y+7545896D02*
X-2852645Y+7586536D01*
X-2852645Y+7728776D02*
X-2852645Y+7774496D01*
X-2852645Y+7799896D02*
X-2852645Y+7957376D01*
X-2852645Y+8013256D02*
X-2852645Y+8155496D01*
X-2852645Y+8561896D02*
X-2852645Y+8643176D01*
X-2847565Y+6448616D02*
X-2847565Y+6931216D01*
X-2847565Y+6946456D02*
X-2847565Y+6987096D01*
X-2847565Y+7017576D02*
X-2847565Y+7114096D01*
X-2847565Y+7134416D02*
X-2847565Y+7185216D01*
X-2847565Y+7210616D02*
X-2847565Y+7520496D01*
X-2847565Y+7545896D02*
X-2847565Y+7586536D01*
X-2847565Y+7728776D02*
X-2847565Y+7774496D01*
X-2847565Y+7799896D02*
X-2847565Y+7957376D01*
X-2847565Y+8013256D02*
X-2847565Y+8155496D01*
X-2847565Y+8561896D02*
X-2847565Y+8643176D01*
X-2842485Y+6448616D02*
X-2842485Y+6931216D01*
X-2842485Y+6946456D02*
X-2842485Y+7185216D01*
X-2842485Y+7210616D02*
X-2842485Y+7520496D01*
X-2842485Y+7545896D02*
X-2842485Y+7586536D01*
X-2842485Y+7728776D02*
X-2842485Y+7774496D01*
X-2842485Y+7799896D02*
X-2842485Y+7957376D01*
X-2842485Y+8013256D02*
X-2842485Y+8155496D01*
X-2842485Y+8551736D02*
X-2842485Y+8643176D01*
X-2837405Y+6448616D02*
X-2837405Y+6931216D01*
X-2837405Y+6951536D02*
X-2837405Y+7175056D01*
X-2837405Y+7210616D02*
X-2837405Y+7520496D01*
X-2837405Y+7545896D02*
X-2837405Y+7586536D01*
X-2837405Y+7728776D02*
X-2837405Y+7774496D01*
X-2837405Y+7799896D02*
X-2837405Y+7957376D01*
X-2837405Y+8013256D02*
X-2837405Y+8155496D01*
X-2837405Y+8551736D02*
X-2837405Y+8643176D01*
X-2832325Y+6448616D02*
X-2832325Y+6931216D01*
X-2832325Y+6956616D02*
X-2832325Y+7175056D01*
X-2832325Y+7210616D02*
X-2832325Y+7520496D01*
X-2832325Y+7545896D02*
X-2832325Y+7586536D01*
X-2832325Y+7728776D02*
X-2832325Y+7774496D01*
X-2832325Y+7799896D02*
X-2832325Y+7957376D01*
X-2832325Y+8013256D02*
X-2832325Y+8155496D01*
X-2832325Y+8541576D02*
X-2832325Y+8643176D01*
X-2827245Y+6448616D02*
X-2827245Y+6931216D01*
X-2827245Y+7210616D02*
X-2827245Y+7520496D01*
X-2827245Y+7545896D02*
X-2827245Y+7586536D01*
X-2827245Y+7728776D02*
X-2827245Y+7774496D01*
X-2827245Y+7799896D02*
X-2827245Y+7957376D01*
X-2827245Y+8013256D02*
X-2827245Y+8155496D01*
X-2827245Y+8541576D02*
X-2827245Y+8643176D01*
X-2822165Y+6448616D02*
X-2822165Y+6931216D01*
X-2822165Y+7200456D02*
X-2822165Y+7520496D01*
X-2822165Y+7545896D02*
X-2822165Y+7586536D01*
X-2822165Y+7728776D02*
X-2822165Y+7774496D01*
X-2822165Y+7799896D02*
X-2822165Y+7957376D01*
X-2822165Y+8013256D02*
X-2822165Y+8155496D01*
X-2822165Y+8216456D02*
X-2822165Y+8643176D01*
X-2817085Y+6448616D02*
X-2817085Y+6931216D01*
X-2817085Y+7200456D02*
X-2817085Y+7520496D01*
X-2817085Y+7545896D02*
X-2817085Y+7586536D01*
X-2817085Y+7728776D02*
X-2817085Y+7774496D01*
X-2817085Y+7799896D02*
X-2817085Y+7957376D01*
X-2817085Y+8013256D02*
X-2817085Y+8155496D01*
X-2817085Y+8211376D02*
X-2817085Y+8643176D01*
X-2812005Y+6448616D02*
X-2812005Y+7520496D01*
X-2812005Y+7545896D02*
X-2812005Y+7586536D01*
X-2812005Y+7728776D02*
X-2812005Y+7774496D01*
X-2812005Y+7799896D02*
X-2812005Y+7957376D01*
X-2812005Y+8013256D02*
X-2812005Y+8155496D01*
X-2812005Y+8206296D02*
X-2812005Y+8643176D01*
X-2806925Y+6448616D02*
X-2806925Y+7520496D01*
X-2806925Y+7545896D02*
X-2806925Y+7586536D01*
X-2806925Y+7728776D02*
X-2806925Y+7774496D01*
X-2806925Y+7799896D02*
X-2806925Y+7957376D01*
X-2806925Y+8013256D02*
X-2806925Y+8155496D01*
X-2806925Y+8206296D02*
X-2806925Y+8643176D01*
X-2801845Y+6448616D02*
X-2801845Y+7520496D01*
X-2801845Y+7545896D02*
X-2801845Y+7586536D01*
X-2801845Y+7728776D02*
X-2801845Y+7774496D01*
X-2801845Y+7799896D02*
X-2801845Y+7957376D01*
X-2801845Y+8013256D02*
X-2801845Y+8155496D01*
X-2801845Y+8206296D02*
X-2801845Y+8643176D01*
X-2796765Y+6448616D02*
X-2796765Y+7520496D01*
X-2796765Y+7545896D02*
X-2796765Y+7586536D01*
X-2796765Y+7728776D02*
X-2796765Y+7774496D01*
X-2796765Y+7799896D02*
X-2796765Y+7957376D01*
X-2796765Y+8013256D02*
X-2796765Y+8155496D01*
X-2796765Y+8206296D02*
X-2796765Y+8643176D01*
X-2791685Y+6448616D02*
X-2791685Y+7520496D01*
X-2791685Y+7545896D02*
X-2791685Y+7591616D01*
X-2791685Y+7723696D02*
X-2791685Y+7774496D01*
X-2791685Y+7799896D02*
X-2791685Y+7957376D01*
X-2791685Y+8013256D02*
X-2791685Y+8155496D01*
X-2791685Y+8206296D02*
X-2791685Y+8643176D01*
X-2786605Y+6448616D02*
X-2786605Y+7520496D01*
X-2786605Y+7550976D02*
X-2786605Y+7774496D01*
X-2786605Y+7799896D02*
X-2786605Y+7957376D01*
X-2786605Y+8013256D02*
X-2786605Y+8155496D01*
X-2786605Y+8206296D02*
X-2786605Y+8643176D01*
X-2781525Y+6448616D02*
X-2781525Y+7520496D01*
X-2781525Y+7799896D02*
X-2781525Y+7957376D01*
X-2781525Y+8013256D02*
X-2781525Y+8155496D01*
X-2781525Y+8206296D02*
X-2781525Y+8643176D01*
X-2776445Y+6448616D02*
X-2776445Y+7520496D01*
X-2776445Y+7799896D02*
X-2776445Y+7957376D01*
X-2776445Y+7982776D02*
X-2776445Y+7987856D01*
X-2776445Y+8013256D02*
X-2776445Y+8155496D01*
X-2776445Y+8206296D02*
X-2776445Y+8643176D01*
X-2771365Y+6448616D02*
X-2771365Y+7525576D01*
X-2771365Y+7799896D02*
X-2771365Y+7957376D01*
X-2771365Y+7977696D02*
X-2771365Y+7987856D01*
X-2771365Y+8013256D02*
X-2771365Y+8155496D01*
X-2771365Y+8211376D02*
X-2771365Y+8643176D01*
X-2766285Y+6448616D02*
X-2766285Y+7530656D01*
X-2766285Y+7794816D02*
X-2766285Y+7957376D01*
X-2766285Y+7972616D02*
X-2766285Y+7998016D01*
X-2766285Y+8013256D02*
X-2766285Y+8155496D01*
X-2766285Y+8216456D02*
X-2766285Y+8643176D01*
X-2761205Y+6448616D02*
X-2761205Y+6575616D01*
X-2761205Y+6601016D02*
X-2761205Y+7327456D01*
X-2761205Y+7342696D02*
X-2761205Y+7535736D01*
X-2761205Y+7789736D02*
X-2761205Y+7947216D01*
X-2761205Y+7972616D02*
X-2761205Y+7998016D01*
X-2761205Y+8018336D02*
X-2761205Y+8155496D01*
X-2761205Y+8546656D02*
X-2761205Y+8643176D01*
X-2756125Y+6448616D02*
X-2756125Y+6570536D01*
X-2756125Y+6606096D02*
X-2756125Y+7322376D01*
X-2756125Y+7347776D02*
X-2756125Y+7947216D01*
X-2756125Y+7972616D02*
X-2756125Y+7998016D01*
X-2756125Y+8023416D02*
X-2756125Y+8155496D01*
X-2756125Y+8551736D02*
X-2756125Y+8643176D01*
X-2751045Y+6448616D02*
X-2751045Y+6555296D01*
X-2751045Y+6606096D02*
X-2751045Y+7322376D01*
X-2751045Y+7347776D02*
X-2751045Y+7357936D01*
X-2751045Y+7363016D02*
X-2751045Y+7947216D01*
X-2751045Y+7972616D02*
X-2751045Y+7998016D01*
X-2751045Y+8023416D02*
X-2751045Y+8155496D01*
X-2751045Y+8556816D02*
X-2751045Y+8643176D01*
X-2745965Y+6448616D02*
X-2745965Y+6550216D01*
X-2745965Y+6601016D02*
X-2745965Y+7327456D01*
X-2745965Y+7337616D02*
X-2745965Y+7352856D01*
X-2745965Y+7368096D02*
X-2745965Y+7952296D01*
X-2745965Y+7972616D02*
X-2745965Y+7998016D01*
X-2745965Y+8018336D02*
X-2745965Y+8155496D01*
X-2745965Y+8561896D02*
X-2745965Y+8643176D01*
X-2740885Y+6448616D02*
X-2740885Y+6545136D01*
X-2740885Y+6575616D02*
X-2740885Y+7352856D01*
X-2740885Y+7368096D02*
X-2740885Y+7957376D01*
X-2740885Y+7972616D02*
X-2740885Y+7998016D01*
X-2740885Y+8013256D02*
X-2740885Y+8155496D01*
X-2740885Y+8561896D02*
X-2740885Y+8643176D01*
X-2735805Y+6448616D02*
X-2735805Y+6529896D01*
X-2735805Y+6570536D02*
X-2735805Y+6626416D01*
X-2735805Y+7302056D02*
X-2735805Y+7357936D01*
X-2735805Y+7363016D02*
X-2735805Y+7373176D01*
X-2735805Y+7388416D02*
X-2735805Y+7957376D01*
X-2735805Y+8013256D02*
X-2735805Y+8155496D01*
X-2735805Y+8561896D02*
X-2735805Y+8643176D01*
X-2730725Y+6448616D02*
X-2730725Y+6524816D01*
X-2730725Y+6555296D02*
X-2730725Y+6621336D01*
X-2730725Y+7307136D02*
X-2730725Y+7373176D01*
X-2730725Y+7388416D02*
X-2730725Y+7957376D01*
X-2730725Y+8013256D02*
X-2730725Y+8155496D01*
X-2730725Y+8561896D02*
X-2730725Y+8643176D01*
X-2725645Y+6448616D02*
X-2725645Y+6519736D01*
X-2725645Y+6550216D02*
X-2725645Y+6580696D01*
X-2725645Y+7332536D02*
X-2725645Y+7378256D01*
X-2725645Y+7408736D02*
X-2725645Y+7957376D01*
X-2725645Y+8008176D02*
X-2725645Y+8160576D01*
X-2725645Y+8561896D02*
X-2725645Y+8643176D01*
X-2720565Y+6448616D02*
X-2720565Y+6514656D01*
X-2720565Y+6545136D02*
X-2720565Y+6580696D01*
X-2720565Y+7337616D02*
X-2720565Y+7383336D01*
X-2720565Y+7413816D02*
X-2720565Y+7977696D01*
X-2720565Y+7992936D02*
X-2720565Y+8165656D01*
X-2720565Y+8561896D02*
X-2720565Y+8643176D01*
X-2715485Y+6448616D02*
X-2715485Y+6509576D01*
X-2715485Y+6540056D02*
X-2715485Y+6570536D01*
X-2715485Y+7357936D02*
X-2715485Y+7388416D01*
X-2715485Y+7418896D02*
X-2715485Y+7977696D01*
X-2715485Y+7987856D02*
X-2715485Y+8170736D01*
X-2715485Y+8561896D02*
X-2715485Y+8643176D01*
X-2710405Y+6448616D02*
X-2710405Y+6504496D01*
X-2710405Y+6524816D02*
X-2710405Y+6570536D01*
X-2710405Y+7357936D02*
X-2710405Y+7393496D01*
X-2710405Y+7418896D02*
X-2710405Y+8506016D01*
X-2710405Y+8561896D02*
X-2710405Y+8643176D01*
X-2705325Y+6448616D02*
X-2705325Y+6499416D01*
X-2705325Y+6519736D02*
X-2705325Y+6550216D01*
X-2705325Y+7363016D02*
X-2705325Y+7398576D01*
X-2705325Y+7429056D02*
X-2705325Y+8506016D01*
X-2705325Y+8561896D02*
X-2705325Y+8643176D01*
X-2700245Y+6448616D02*
X-2700245Y+6494336D01*
X-2700245Y+6514656D02*
X-2700245Y+6550216D01*
X-2700245Y+7368096D02*
X-2700245Y+7403656D01*
X-2700245Y+7434136D02*
X-2700245Y+8506016D01*
X-2700245Y+8561896D02*
X-2700245Y+8643176D01*
X-2695165Y+6448616D02*
X-2695165Y+6489256D01*
X-2695165Y+6509576D02*
X-2695165Y+6545136D01*
X-2695165Y+7383336D02*
X-2695165Y+7408736D01*
X-2695165Y+7434136D02*
X-2695165Y+8506016D01*
X-2695165Y+8561896D02*
X-2695165Y+8643176D01*
X-2690085Y+6448616D02*
X-2690085Y+6484176D01*
X-2690085Y+6509576D02*
X-2690085Y+6540056D01*
X-2690085Y+7388416D02*
X-2690085Y+7413816D01*
X-2690085Y+7434136D02*
X-2690085Y+8506016D01*
X-2690085Y+8561896D02*
X-2690085Y+8643176D01*
X-2685005Y+6448616D02*
X-2685005Y+6484176D01*
X-2685005Y+6509576D02*
X-2685005Y+6534976D01*
X-2685005Y+7393496D02*
X-2685005Y+7418896D01*
X-2685005Y+7434136D02*
X-2685005Y+8506016D01*
X-2685005Y+8561896D02*
X-2685005Y+8643176D01*
X-2679925Y+6448616D02*
X-2679925Y+6484176D01*
X-2679925Y+6504496D02*
X-2679925Y+6529896D01*
X-2679925Y+7398576D02*
X-2679925Y+7423976D01*
X-2679925Y+7439216D02*
X-2679925Y+8506016D01*
X-2679925Y+8561896D02*
X-2679925Y+8643176D01*
X-2674845Y+6448616D02*
X-2674845Y+6484176D01*
X-2674845Y+6499416D02*
X-2674845Y+6524816D01*
X-2674845Y+7403656D02*
X-2674845Y+7429056D01*
X-2674845Y+7444296D02*
X-2674845Y+8506016D01*
X-2674845Y+8561896D02*
X-2674845Y+8643176D01*
X-2669765Y+6448616D02*
X-2669765Y+6474016D01*
X-2669765Y+6494336D02*
X-2669765Y+6519736D01*
X-2669765Y+7408736D02*
X-2669765Y+7429056D01*
X-2669765Y+7449376D02*
X-2669765Y+8506016D01*
X-2669765Y+8561896D02*
X-2669765Y+8643176D01*
X-2664685Y+6448616D02*
X-2664685Y+6474016D01*
X-2664685Y+6489256D02*
X-2664685Y+6514656D01*
X-2664685Y+7408736D02*
X-2664685Y+7429056D01*
X-2664685Y+7454456D02*
X-2664685Y+8506016D01*
X-2664685Y+8561896D02*
X-2664685Y+8643176D01*
X-2659605Y+6448616D02*
X-2659605Y+6468936D01*
X-2659605Y+6489256D02*
X-2659605Y+6509576D01*
X-2659605Y+7408736D02*
X-2659605Y+7429056D01*
X-2659605Y+7454456D02*
X-2659605Y+8506016D01*
X-2659605Y+8561896D02*
X-2659605Y+8643176D01*
X-2654525Y+6448616D02*
X-2654525Y+6463856D01*
X-2654525Y+6489256D02*
X-2654525Y+6504496D01*
X-2654525Y+7408736D02*
X-2654525Y+7439216D01*
X-2654525Y+7454456D02*
X-2654525Y+8506016D01*
X-2654525Y+8561896D02*
X-2654525Y+8643176D01*
X-2649445Y+6448616D02*
X-2649445Y+6463856D01*
X-2649445Y+6489256D02*
X-2649445Y+6504496D01*
X-2649445Y+7418896D02*
X-2649445Y+7439216D01*
X-2649445Y+7459536D02*
X-2649445Y+8506016D01*
X-2649445Y+8561896D02*
X-2649445Y+8643176D01*
X-2644365Y+6448616D02*
X-2644365Y+6463856D01*
X-2644365Y+6479096D02*
X-2644365Y+6504496D01*
X-2644365Y+7418896D02*
X-2644365Y+7449376D01*
X-2644365Y+7464616D02*
X-2644365Y+8506016D01*
X-2644365Y+8561896D02*
X-2644365Y+8643176D01*
X-2639285Y+6448616D02*
X-2639285Y+6458776D01*
X-2639285Y+6479096D02*
X-2639285Y+6499416D01*
X-2639285Y+7423976D02*
X-2639285Y+7449376D01*
X-2639285Y+7464616D02*
X-2639285Y+7525576D01*
X-2639285Y+7789736D02*
X-2639285Y+8506016D01*
X-2639285Y+8561896D02*
X-2639285Y+8643176D01*
X-2634205Y+6448616D02*
X-2634205Y+6453696D01*
X-2634205Y+6468936D02*
X-2634205Y+6494336D01*
X-2634205Y+7423976D02*
X-2634205Y+7449376D01*
X-2634205Y+7464616D02*
X-2634205Y+7520496D01*
X-2634205Y+7789736D02*
X-2634205Y+8506016D01*
X-2634205Y+8561896D02*
X-2634205Y+8643176D01*
X-2629125Y+6448616D02*
X-2629125Y+6453696D01*
X-2629125Y+6468936D02*
X-2629125Y+6494336D01*
X-2629125Y+7423976D02*
X-2629125Y+7449376D01*
X-2629125Y+7469696D02*
X-2629125Y+7520496D01*
X-2629125Y+7794816D02*
X-2629125Y+8506016D01*
X-2629125Y+8561896D02*
X-2629125Y+8643176D01*
X-2624045Y+6448616D02*
X-2624045Y+6453696D01*
X-2624045Y+6468936D02*
X-2624045Y+6494336D01*
X-2624045Y+7429056D02*
X-2624045Y+7454456D01*
X-2624045Y+7474776D02*
X-2624045Y+7520496D01*
X-2624045Y+7550976D02*
X-2624045Y+7764336D01*
X-2624045Y+7799896D02*
X-2624045Y+8506016D01*
X-2624045Y+8561896D02*
X-2624045Y+8643176D01*
X-2618965Y+6448616D02*
X-2618965Y+6453696D01*
X-2618965Y+6468936D02*
X-2618965Y+6494336D01*
X-2618965Y+7434136D02*
X-2618965Y+7459536D01*
X-2618965Y+7474776D02*
X-2618965Y+7520496D01*
X-2618965Y+7545896D02*
X-2618965Y+7764336D01*
X-2618965Y+7799896D02*
X-2618965Y+8506016D01*
X-2618965Y+8561896D02*
X-2618965Y+8643176D01*
X-2613885Y+6448616D02*
X-2613885Y+6453696D01*
X-2613885Y+6468936D02*
X-2613885Y+6494336D01*
X-2613885Y+7434136D02*
X-2613885Y+7459536D01*
X-2613885Y+7474776D02*
X-2613885Y+7520496D01*
X-2613885Y+7540816D02*
X-2613885Y+7769416D01*
X-2613885Y+7799896D02*
X-2613885Y+8506016D01*
X-2613885Y+8561896D02*
X-2613885Y+8643176D01*
X-2608805Y+6448616D02*
X-2608805Y+6453696D01*
X-2608805Y+6468936D02*
X-2608805Y+6494336D01*
X-2608805Y+7434136D02*
X-2608805Y+7459536D01*
X-2608805Y+7474776D02*
X-2608805Y+7520496D01*
X-2608805Y+7535736D02*
X-2608805Y+7774496D01*
X-2608805Y+7799896D02*
X-2608805Y+8506016D01*
X-2608805Y+8561896D02*
X-2608805Y+8643176D01*
X-2603725Y+6448616D02*
X-2603725Y+6453696D01*
X-2603725Y+6468936D02*
X-2603725Y+6489256D01*
X-2603725Y+7439216D02*
X-2603725Y+7459536D01*
X-2603725Y+7474776D02*
X-2603725Y+7520496D01*
X-2603725Y+7535736D02*
X-2603725Y+7586536D01*
X-2603725Y+7728776D02*
X-2603725Y+7774496D01*
X-2603725Y+7799896D02*
X-2603725Y+8506016D01*
X-2603725Y+8561896D02*
X-2603725Y+8643176D01*
X-2598645Y+6448616D02*
X-2598645Y+6453696D01*
X-2598645Y+6468936D02*
X-2598645Y+6484176D01*
X-2598645Y+7444296D02*
X-2598645Y+7459536D01*
X-2598645Y+7474776D02*
X-2598645Y+7520496D01*
X-2598645Y+7535736D02*
X-2598645Y+7586536D01*
X-2598645Y+7728776D02*
X-2598645Y+7774496D01*
X-2598645Y+7799896D02*
X-2598645Y+8506016D01*
X-2598645Y+8561896D02*
X-2598645Y+8643176D01*
X-2593565Y+6448616D02*
X-2593565Y+6458776D01*
X-2593565Y+6468936D02*
X-2593565Y+6484176D01*
X-2593565Y+7444296D02*
X-2593565Y+7459536D01*
X-2593565Y+7474776D02*
X-2593565Y+7520496D01*
X-2593565Y+7535736D02*
X-2593565Y+7586536D01*
X-2593565Y+7728776D02*
X-2593565Y+7774496D01*
X-2593565Y+7799896D02*
X-2593565Y+8506016D01*
X-2593565Y+8561896D02*
X-2593565Y+8643176D01*
X-2588485Y+6448616D02*
X-2588485Y+6484176D01*
X-2588485Y+7444296D02*
X-2588485Y+7459536D01*
X-2588485Y+7474776D02*
X-2588485Y+7520496D01*
X-2588485Y+7535736D02*
X-2588485Y+7586536D01*
X-2588485Y+7728776D02*
X-2588485Y+7774496D01*
X-2588485Y+7799896D02*
X-2588485Y+8506016D01*
X-2588485Y+8561896D02*
X-2588485Y+8643176D01*
X-2583405Y+6453696D02*
X-2583405Y+6484176D01*
X-2583405Y+7444296D02*
X-2583405Y+7459536D01*
X-2583405Y+7474776D02*
X-2583405Y+7520496D01*
X-2583405Y+7535736D02*
X-2583405Y+7586536D01*
X-2583405Y+7728776D02*
X-2583405Y+7774496D01*
X-2583405Y+7799896D02*
X-2583405Y+8506016D01*
X-2583405Y+8561896D02*
X-2583405Y+8643176D01*
X-2578325Y+6458776D02*
X-2578325Y+6484176D01*
X-2578325Y+7444296D02*
X-2578325Y+7459536D01*
X-2578325Y+7474776D02*
X-2578325Y+7520496D01*
X-2578325Y+7535736D02*
X-2578325Y+7586536D01*
X-2578325Y+7728776D02*
X-2578325Y+7774496D01*
X-2578325Y+7799896D02*
X-2578325Y+8506016D01*
X-2578325Y+8561896D02*
X-2578325Y+8643176D01*
X-2573245Y+6458776D02*
X-2573245Y+6484176D01*
X-2573245Y+7444296D02*
X-2573245Y+7459536D01*
X-2573245Y+7474776D02*
X-2573245Y+7520496D01*
X-2573245Y+7535736D02*
X-2573245Y+7586536D01*
X-2573245Y+7728776D02*
X-2573245Y+7774496D01*
X-2573245Y+7799896D02*
X-2573245Y+8506016D01*
X-2573245Y+8561896D02*
X-2573245Y+8643176D01*
X-2568165Y+6458776D02*
X-2568165Y+6484176D01*
X-2568165Y+7444296D02*
X-2568165Y+7459536D01*
X-2568165Y+7474776D02*
X-2568165Y+7520496D01*
X-2568165Y+7535736D02*
X-2568165Y+7586536D01*
X-2568165Y+7728776D02*
X-2568165Y+7774496D01*
X-2568165Y+7799896D02*
X-2568165Y+8506016D01*
X-2568165Y+8561896D02*
X-2568165Y+8643176D01*
X-2563085Y+6458776D02*
X-2563085Y+6484176D01*
X-2563085Y+7444296D02*
X-2563085Y+7459536D01*
X-2563085Y+7474776D02*
X-2563085Y+7520496D01*
X-2563085Y+7535736D02*
X-2563085Y+7586536D01*
X-2563085Y+7728776D02*
X-2563085Y+7774496D01*
X-2563085Y+7799896D02*
X-2563085Y+8506016D01*
X-2563085Y+8561896D02*
X-2563085Y+8643176D01*
X-2558005Y+6458776D02*
X-2558005Y+6484176D01*
X-2558005Y+7444296D02*
X-2558005Y+7459536D01*
X-2558005Y+7474776D02*
X-2558005Y+7520496D01*
X-2558005Y+7535736D02*
X-2558005Y+7586536D01*
X-2558005Y+7728776D02*
X-2558005Y+7774496D01*
X-2558005Y+7799896D02*
X-2558005Y+8506016D01*
X-2558005Y+8561896D02*
X-2558005Y+8643176D01*
X-2552925Y+6458776D02*
X-2552925Y+6484176D01*
X-2552925Y+7444296D02*
X-2552925Y+7459536D01*
X-2552925Y+7474776D02*
X-2552925Y+7520496D01*
X-2552925Y+7535736D02*
X-2552925Y+7586536D01*
X-2552925Y+7728776D02*
X-2552925Y+7774496D01*
X-2552925Y+7799896D02*
X-2552925Y+8506016D01*
X-2552925Y+8561896D02*
X-2552925Y+8643176D01*
X-2547845Y+6458776D02*
X-2547845Y+6484176D01*
X-2547845Y+7444296D02*
X-2547845Y+7459536D01*
X-2547845Y+7474776D02*
X-2547845Y+7520496D01*
X-2547845Y+7535736D02*
X-2547845Y+7586536D01*
X-2547845Y+7728776D02*
X-2547845Y+7774496D01*
X-2547845Y+7799896D02*
X-2547845Y+8506016D01*
X-2547845Y+8561896D02*
X-2547845Y+8643176D01*
X-2542765Y+6458776D02*
X-2542765Y+6484176D01*
X-2542765Y+7444296D02*
X-2542765Y+7459536D01*
X-2542765Y+7474776D02*
X-2542765Y+7520496D01*
X-2542765Y+7535736D02*
X-2542765Y+7586536D01*
X-2542765Y+7728776D02*
X-2542765Y+7774496D01*
X-2542765Y+7799896D02*
X-2542765Y+8506016D01*
X-2542765Y+8561896D02*
X-2542765Y+8643176D01*
X-2537685Y+6458776D02*
X-2537685Y+6484176D01*
X-2537685Y+7444296D02*
X-2537685Y+7459536D01*
X-2537685Y+7474776D02*
X-2537685Y+7520496D01*
X-2537685Y+7535736D02*
X-2537685Y+7591616D01*
X-2537685Y+7723696D02*
X-2537685Y+7774496D01*
X-2537685Y+7799896D02*
X-2537685Y+8506016D01*
X-2537685Y+8561896D02*
X-2537685Y+8643176D01*
X-2532605Y+6458776D02*
X-2532605Y+6484176D01*
X-2532605Y+7444296D02*
X-2532605Y+7459536D01*
X-2532605Y+7474776D02*
X-2532605Y+7520496D01*
X-2532605Y+7540816D02*
X-2532605Y+7774496D01*
X-2532605Y+7799896D02*
X-2532605Y+8506016D01*
X-2532605Y+8561896D02*
X-2532605Y+8643176D01*
X-2527525Y+6458776D02*
X-2527525Y+6484176D01*
X-2527525Y+7444296D02*
X-2527525Y+7459536D01*
X-2527525Y+7474776D02*
X-2527525Y+7520496D01*
X-2527525Y+7545896D02*
X-2527525Y+7769416D01*
X-2527525Y+7799896D02*
X-2527525Y+8506016D01*
X-2527525Y+8561896D02*
X-2527525Y+8643176D01*
X-2522445Y+6448616D02*
X-2522445Y+6484176D01*
X-2522445Y+7444296D02*
X-2522445Y+7459536D01*
X-2522445Y+7474776D02*
X-2522445Y+7520496D01*
X-2522445Y+7545896D02*
X-2522445Y+7764336D01*
X-2522445Y+7799896D02*
X-2522445Y+8506016D01*
X-2522445Y+8561896D02*
X-2522445Y+8643176D01*
X-2517365Y+6448616D02*
X-2517365Y+6458776D01*
X-2517365Y+6463856D02*
X-2517365Y+6484176D01*
X-2517365Y+7439216D02*
X-2517365Y+7459536D01*
X-2517365Y+7474776D02*
X-2517365Y+7520496D01*
X-2517365Y+7799896D02*
X-2517365Y+8506016D01*
X-2517365Y+8561896D02*
X-2517365Y+8643176D01*
X-2512285Y+6448616D02*
X-2512285Y+6453696D01*
X-2512285Y+6468936D02*
X-2512285Y+6484176D01*
X-2512285Y+7434136D02*
X-2512285Y+7459536D01*
X-2512285Y+7474776D02*
X-2512285Y+7520496D01*
X-2512285Y+7794816D02*
X-2512285Y+8506016D01*
X-2512285Y+8561896D02*
X-2512285Y+8643176D01*
X-2507205Y+6448616D02*
X-2507205Y+6453696D01*
X-2507205Y+6468936D02*
X-2507205Y+6489256D01*
X-2507205Y+7434136D02*
X-2507205Y+7459536D01*
X-2507205Y+7474776D02*
X-2507205Y+7525576D01*
X-2507205Y+7789736D02*
X-2507205Y+8506016D01*
X-2507205Y+8561896D02*
X-2507205Y+8643176D01*
X-2502125Y+6448616D02*
X-2502125Y+6453696D01*
X-2502125Y+6468936D02*
X-2502125Y+6494336D01*
X-2502125Y+7434136D02*
X-2502125Y+7459536D01*
X-2502125Y+7474776D02*
X-2502125Y+8506016D01*
X-2502125Y+8561896D02*
X-2502125Y+8643176D01*
X-2497045Y+6448616D02*
X-2497045Y+6453696D01*
X-2497045Y+6468936D02*
X-2497045Y+6494336D01*
X-2497045Y+7434136D02*
X-2497045Y+7454456D01*
X-2497045Y+7474776D02*
X-2497045Y+8506016D01*
X-2497045Y+8561896D02*
X-2497045Y+8643176D01*
X-2491965Y+6448616D02*
X-2491965Y+6453696D01*
X-2491965Y+6468936D02*
X-2491965Y+6494336D01*
X-2491965Y+7434136D02*
X-2491965Y+7449376D01*
X-2491965Y+7464616D02*
X-2491965Y+8506016D01*
X-2491965Y+8561896D02*
X-2491965Y+8643176D01*
X-2486885Y+6448616D02*
X-2486885Y+6453696D01*
X-2486885Y+6468936D02*
X-2486885Y+6494336D01*
X-2486885Y+7429056D02*
X-2486885Y+7449376D01*
X-2486885Y+7464616D02*
X-2486885Y+8506016D01*
X-2486885Y+8561896D02*
X-2486885Y+8643176D01*
X-2481805Y+6448616D02*
X-2481805Y+6458776D01*
X-2481805Y+6479096D02*
X-2481805Y+6499416D01*
X-2481805Y+7429056D02*
X-2481805Y+7449376D01*
X-2481805Y+7464616D02*
X-2481805Y+8506016D01*
X-2481805Y+8561896D02*
X-2481805Y+8643176D01*
X-2476725Y+6448616D02*
X-2476725Y+6463856D01*
X-2476725Y+6479096D02*
X-2476725Y+6504496D01*
X-2476725Y+7423976D02*
X-2476725Y+7449376D01*
X-2476725Y+7464616D02*
X-2476725Y+8506016D01*
X-2476725Y+8561896D02*
X-2476725Y+8643176D01*
X-2471645Y+6448616D02*
X-2471645Y+6463856D01*
X-2471645Y+6479096D02*
X-2471645Y+6504496D01*
X-2471645Y+7423976D02*
X-2471645Y+7439216D01*
X-2471645Y+7459536D02*
X-2471645Y+8506016D01*
X-2471645Y+8561896D02*
X-2471645Y+8643176D01*
X-2466565Y+6448616D02*
X-2466565Y+6463856D01*
X-2466565Y+6479096D02*
X-2466565Y+6504496D01*
X-2466565Y+7418896D02*
X-2466565Y+7439216D01*
X-2466565Y+7454456D02*
X-2466565Y+8506016D01*
X-2466565Y+8561896D02*
X-2466565Y+8643176D01*
X-2461485Y+6448616D02*
X-2461485Y+6468936D01*
X-2461485Y+6489256D02*
X-2461485Y+6509576D01*
X-2461485Y+7418896D02*
X-2461485Y+7439216D01*
X-2461485Y+7454456D02*
X-2461485Y+8506016D01*
X-2461485Y+8561896D02*
X-2461485Y+8643176D01*
X-2456405Y+6448616D02*
X-2456405Y+6474016D01*
X-2456405Y+6489256D02*
X-2456405Y+6514656D01*
X-2456405Y+7408736D02*
X-2456405Y+7439216D01*
X-2456405Y+7454456D02*
X-2456405Y+8506016D01*
X-2456405Y+8561896D02*
X-2456405Y+8643176D01*
X-2451325Y+6448616D02*
X-2451325Y+6474016D01*
X-2451325Y+6489256D02*
X-2451325Y+6519736D01*
X-2451325Y+7408736D02*
X-2451325Y+7429056D01*
X-2451325Y+7449376D02*
X-2451325Y+8506016D01*
X-2451325Y+8561896D02*
X-2451325Y+8643176D01*
X-2446245Y+6448616D02*
X-2446245Y+6474016D01*
X-2446245Y+6489256D02*
X-2446245Y+6524816D01*
X-2446245Y+7403656D02*
X-2446245Y+7429056D01*
X-2446245Y+7444296D02*
X-2446245Y+8506016D01*
X-2446245Y+8561896D02*
X-2446245Y+8643176D01*
X-2441165Y+6448616D02*
X-2441165Y+6474016D01*
X-2441165Y+6494336D02*
X-2441165Y+6529896D01*
X-2441165Y+7398576D02*
X-2441165Y+7418896D01*
X-2441165Y+7444296D02*
X-2441165Y+8506016D01*
X-2441165Y+8561896D02*
X-2441165Y+8643176D01*
X-2436085Y+6448616D02*
X-2436085Y+6484176D01*
X-2436085Y+6499416D02*
X-2436085Y+6534976D01*
X-2436085Y+7393496D02*
X-2436085Y+7418896D01*
X-2436085Y+7444296D02*
X-2436085Y+8506016D01*
X-2436085Y+8561896D02*
X-2436085Y+8643176D01*
X-2431005Y+6448616D02*
X-2431005Y+6484176D01*
X-2431005Y+6504496D02*
X-2431005Y+6540056D01*
X-2431005Y+7388416D02*
X-2431005Y+7413816D01*
X-2431005Y+7439216D02*
X-2431005Y+8506016D01*
X-2431005Y+8561896D02*
X-2431005Y+8643176D01*
X-2425925Y+6448616D02*
X-2425925Y+6494336D01*
X-2425925Y+6509576D02*
X-2425925Y+6545136D01*
X-2425925Y+7383336D02*
X-2425925Y+7413816D01*
X-2425925Y+7434136D02*
X-2425925Y+8506016D01*
X-2425925Y+8561896D02*
X-2425925Y+8643176D01*
X-2420845Y+6448616D02*
X-2420845Y+6494336D01*
X-2420845Y+6514656D02*
X-2420845Y+6550216D01*
X-2420845Y+7378256D02*
X-2420845Y+7413816D01*
X-2420845Y+7429056D02*
X-2420845Y+8506016D01*
X-2420845Y+8561896D02*
X-2420845Y+8643176D01*
X-2415765Y+6448616D02*
X-2415765Y+6499416D01*
X-2415765Y+6519736D02*
X-2415765Y+6555296D01*
X-2415765Y+7373176D02*
X-2415765Y+7408736D01*
X-2415765Y+7429056D02*
X-2415765Y+8506016D01*
X-2415765Y+8561896D02*
X-2415765Y+8643176D01*
X-2410685Y+6448616D02*
X-2410685Y+6504496D01*
X-2410685Y+6524816D02*
X-2410685Y+6560376D01*
X-2410685Y+7368096D02*
X-2410685Y+7403656D01*
X-2410685Y+7418896D02*
X-2410685Y+8506016D01*
X-2410685Y+8561896D02*
X-2410685Y+8643176D01*
X-2405605Y+6448616D02*
X-2405605Y+6509576D01*
X-2405605Y+6529896D02*
X-2405605Y+6560376D01*
X-2405605Y+7363016D02*
X-2405605Y+7388416D01*
X-2405605Y+7418896D02*
X-2405605Y+8506016D01*
X-2405605Y+8561896D02*
X-2405605Y+8643176D01*
X-2400525Y+6448616D02*
X-2400525Y+6519736D01*
X-2400525Y+6534976D02*
X-2400525Y+6580696D01*
X-2400525Y+7347776D02*
X-2400525Y+7383336D01*
X-2400525Y+7408736D02*
X-2400525Y+8506016D01*
X-2400525Y+8561896D02*
X-2400525Y+8643176D01*
X-2395445Y+6448616D02*
X-2395445Y+6519736D01*
X-2395445Y+6550216D02*
X-2395445Y+6580696D01*
X-2395445Y+7342696D02*
X-2395445Y+7378256D01*
X-2395445Y+7408736D02*
X-2395445Y+8506016D01*
X-2395445Y+8561896D02*
X-2395445Y+8643176D01*
X-2390365Y+6448616D02*
X-2390365Y+6529896D01*
X-2390365Y+6555296D02*
X-2390365Y+6601016D01*
X-2390365Y+7327456D02*
X-2390365Y+7373176D01*
X-2390365Y+7398576D02*
X-2390365Y+8506016D01*
X-2390365Y+8561896D02*
X-2390365Y+8643176D01*
X-2385285Y+6448616D02*
X-2385285Y+6529896D01*
X-2385285Y+6560376D02*
X-2385285Y+6606096D01*
X-2385285Y+7322376D02*
X-2385285Y+7368096D01*
X-2385285Y+7398576D02*
X-2385285Y+8506016D01*
X-2385285Y+8561896D02*
X-2385285Y+8643176D01*
X-2380205Y+6448616D02*
X-2380205Y+6534976D01*
X-2380205Y+6565456D02*
X-2380205Y+7363016D01*
X-2380205Y+7378256D02*
X-2380205Y+8506016D01*
X-2380205Y+8561896D02*
X-2380205Y+8643176D01*
X-2375125Y+6448616D02*
X-2375125Y+6540056D01*
X-2375125Y+6580696D02*
X-2375125Y+7347776D01*
X-2375125Y+7352856D02*
X-2375125Y+7363016D01*
X-2375125Y+7378256D02*
X-2375125Y+8506016D01*
X-2375125Y+8561896D02*
X-2375125Y+8643176D01*
X-2370045Y+6448616D02*
X-2370045Y+6555296D01*
X-2370045Y+6585776D02*
X-2370045Y+7342696D01*
X-2370045Y+7357936D02*
X-2370045Y+8506016D01*
X-2370045Y+8561896D02*
X-2370045Y+8643176D01*
X-2364965Y+6448616D02*
X-2364965Y+6560376D01*
X-2364965Y+6585776D02*
X-2364965Y+7342696D01*
X-2364965Y+7357936D02*
X-2364965Y+8506016D01*
X-2364965Y+8561896D02*
X-2364965Y+8643176D01*
X-2359885Y+6448616D02*
X-2359885Y+6565456D01*
X-2359885Y+6580696D02*
X-2359885Y+6590856D01*
X-2359885Y+6626416D02*
X-2359885Y+7302056D01*
X-2359885Y+7337616D02*
X-2359885Y+7347776D01*
X-2359885Y+7352856D02*
X-2359885Y+8506016D01*
X-2359885Y+8561896D02*
X-2359885Y+8643176D01*
X-2354805Y+6448616D02*
X-2354805Y+6590856D01*
X-2354805Y+6626416D02*
X-2354805Y+7302056D01*
X-2354805Y+7337616D02*
X-2354805Y+8506016D01*
X-2354805Y+8561896D02*
X-2354805Y+8643176D01*
X-2349725Y+6448616D02*
X-2349725Y+6595936D01*
X-2349725Y+6626416D02*
X-2349725Y+7302056D01*
X-2349725Y+7332536D02*
X-2349725Y+8506016D01*
X-2349725Y+8561896D02*
X-2349725Y+8643176D01*
X-2344645Y+6448616D02*
X-2344645Y+8506016D01*
X-2344645Y+8551736D02*
X-2344645Y+8643176D01*
D70*
X-2387600Y+4445000D02*
X-2387600Y+584200D01*
X-2133600Y+584200D01*
X-2133600Y+4445000D01*
X-2387600Y+4445000D01*
X-3909220Y+4445000D02*
X-3909220Y+584200D01*
X-3655220Y+584200D01*
X-3655220Y+4445000D01*
X-3909220Y+4445000D01*
D17*
X-3300820Y+1117600D02*
X-3300820Y+990600D01*
X-3275420Y+965200D01*
X-3173820Y+965200D01*
X-3148420Y+990600D01*
X-3148420Y+1117600D01*
X-3097620Y+990600D02*
X-3072220Y+965200D01*
X-2970620Y+965200D01*
X-2945220Y+990600D01*
X-2945220Y+1016000D01*
X-2970620Y+1041400D01*
X-3072220Y+1041400D01*
X-3097620Y+1066800D01*
X-3097620Y+1092200D01*
X-3072220Y+1117600D01*
X-2970620Y+1117600D01*
X-2945220Y+1092200D01*
X-2894420Y+965200D02*
X-2894420Y+1117600D01*
X-2767420Y+1117600D01*
X-2742020Y+1092200D01*
X-2742020Y+1066800D01*
X-2767420Y+1041400D01*
X-2742020Y+1016000D01*
X-2742020Y+990600D01*
X-2767420Y+965200D01*
X-2894420Y+965200D01*
X-2894420Y+1041400D02*
X-2767420Y+1041400D01*
D70*
X-3655220Y+4445000D02*
X-2387620Y+4445000D01*
X-3655220Y+584200D02*
X-2387620Y+584200D01*
D17*
X-3021420Y+889000D02*
X-3021420Y+660400D01*
X-3120480Y+787400D02*
X-3021420Y+660400D01*
D71*
X-3580220Y+2197100D02*
X-3574155Y+2134778D01*
X-3556705Y+2077145D01*
X-3528986Y+2025315D01*
X-3492114Y+1980406D01*
X-3447205Y+1943534D01*
X-3395376Y+1915815D01*
X-3337742Y+1898365D01*
X-3275420Y+1892300D01*
X-3580220Y+2197100D02*
X-3574155Y+2259422D01*
X-3556705Y+2317055D01*
X-3528986Y+2368885D01*
X-3492114Y+2413794D01*
X-3447205Y+2450666D01*
X-3395376Y+2478385D01*
X-3337742Y+2495835D01*
X-3275420Y+2501900D01*
X-2462620Y+2197100D02*
X-2468685Y+2134778D01*
X-2486135Y+2077145D01*
X-2513854Y+2025315D01*
X-2550726Y+1980406D01*
X-2595635Y+1943534D01*
X-2647464Y+1915815D01*
X-2705098Y+1898365D01*
X-2767420Y+1892300D01*
X-2462620Y+2197100D02*
X-2468685Y+2259422D01*
X-2486135Y+2317055D01*
X-2513854Y+2368885D01*
X-2550726Y+2413794D01*
X-2595635Y+2450666D01*
X-2647464Y+2478385D01*
X-2705098Y+2495835D01*
X-2767420Y+2501900D01*
X-3275420Y+1892300D02*
X-2767420Y+1892300D01*
X-3275420Y+2501900D02*
X-2767420Y+2501900D01*
D19*
X-2812465Y+2091341D02*
X-2771825Y+2091341D01*
X-3325545Y+2096421D02*
X-3295065Y+2096421D01*
X-3234105Y+2096421D02*
X-3193465Y+2096421D01*
X-3178225Y+2096421D02*
X-3147745Y+2096421D01*
X-3061385Y+2096421D02*
X-3025825Y+2096421D01*
X-3010585Y+2096421D02*
X-2980105Y+2096421D01*
X-2919145Y+2096421D02*
X-2878505Y+2096421D01*
X-2827705Y+2096421D02*
X-2756585Y+2096421D01*
X-3325545Y+2101501D02*
X-3295065Y+2101501D01*
X-3239185Y+2101501D02*
X-3193465Y+2101501D01*
X-3178225Y+2101501D02*
X-3142665Y+2101501D01*
X-3061385Y+2101501D02*
X-3025825Y+2101501D01*
X-3010585Y+2101501D02*
X-2980105Y+2101501D01*
X-2924225Y+2101501D02*
X-2878505Y+2101501D01*
X-2832785Y+2101501D02*
X-2751505Y+2101501D01*
X-3325545Y+2106581D02*
X-3295065Y+2106581D01*
X-3239185Y+2106581D02*
X-3193465Y+2106581D01*
X-3178225Y+2106581D02*
X-3142665Y+2106581D01*
X-3066465Y+2106581D02*
X-3025825Y+2106581D01*
X-3010585Y+2106581D02*
X-2980105Y+2106581D01*
X-2924225Y+2106581D02*
X-2878505Y+2106581D01*
X-2837865Y+2106581D02*
X-2741345Y+2106581D01*
X-3325545Y+2111661D02*
X-3295065Y+2111661D01*
X-3244265Y+2111661D02*
X-3193465Y+2111661D01*
X-3173145Y+2111661D02*
X-3142665Y+2111661D01*
X-3066465Y+2111661D02*
X-3030905Y+2111661D01*
X-3010585Y+2111661D02*
X-2980105Y+2111661D01*
X-2929305Y+2111661D02*
X-2878505Y+2111661D01*
X-2842945Y+2111661D02*
X-2736265Y+2111661D01*
X-3325545Y+2116741D02*
X-3295065Y+2116741D01*
X-3244265Y+2116741D02*
X-3193465Y+2116741D01*
X-3173145Y+2116741D02*
X-3142665Y+2116741D01*
X-3066465Y+2116741D02*
X-3030905Y+2116741D01*
X-3010585Y+2116741D02*
X-2980105Y+2116741D01*
X-2929305Y+2116741D02*
X-2878505Y+2116741D01*
X-2848025Y+2116741D02*
X-2736265Y+2116741D01*
X-3325545Y+2121821D02*
X-3295065Y+2121821D01*
X-3249345Y+2121821D02*
X-3193465Y+2121821D01*
X-3173145Y+2121821D02*
X-3137585Y+2121821D01*
X-3066465Y+2121821D02*
X-3030905Y+2121821D01*
X-3010585Y+2121821D02*
X-2980105Y+2121821D01*
X-2934385Y+2121821D02*
X-2878505Y+2121821D01*
X-2848025Y+2121821D02*
X-2802305Y+2121821D01*
X-2776905Y+2121821D02*
X-2731185Y+2121821D01*
X-3325545Y+2126901D02*
X-3295065Y+2126901D01*
X-3249345Y+2126901D02*
X-3193465Y+2126901D01*
X-3173145Y+2126901D02*
X-3137585Y+2126901D01*
X-3071545Y+2126901D02*
X-3030905Y+2126901D01*
X-3010585Y+2126901D02*
X-2980105Y+2126901D01*
X-2934385Y+2126901D02*
X-2878505Y+2126901D01*
X-2853105Y+2126901D02*
X-2812465Y+2126901D01*
X-2766745Y+2126901D02*
X-2726105Y+2126901D01*
X-3325545Y+2131981D02*
X-3295065Y+2131981D01*
X-3254425Y+2131981D02*
X-3193465Y+2131981D01*
X-3168065Y+2131981D02*
X-3035985Y+2131981D01*
X-3010585Y+2131981D02*
X-2980105Y+2131981D01*
X-2939465Y+2131981D02*
X-2878505Y+2131981D01*
X-2853105Y+2131981D02*
X-2817545Y+2131981D01*
X-2761665Y+2131981D02*
X-2726105Y+2131981D01*
X-3325545Y+2137061D02*
X-3295065Y+2137061D01*
X-3254425Y+2137061D02*
X-3193465Y+2137061D01*
X-3168065Y+2137061D02*
X-3035985Y+2137061D01*
X-3010585Y+2137061D02*
X-2980105Y+2137061D01*
X-2939465Y+2137061D02*
X-2878505Y+2137061D01*
X-2858185Y+2137061D02*
X-2817545Y+2137061D01*
X-2761665Y+2137061D02*
X-2721025Y+2137061D01*
X-3325545Y+2142141D02*
X-3295065Y+2142141D01*
X-3254425Y+2142141D02*
X-3193465Y+2142141D01*
X-3168065Y+2142141D02*
X-3035985Y+2142141D01*
X-3010585Y+2142141D02*
X-2980105Y+2142141D01*
X-2939465Y+2142141D02*
X-2878505Y+2142141D01*
X-2858185Y+2142141D02*
X-2822625Y+2142141D01*
X-2756585Y+2142141D02*
X-2721025Y+2142141D01*
X-3325545Y+2147221D02*
X-3295065Y+2147221D01*
X-3259505Y+2147221D02*
X-3193465Y+2147221D01*
X-3162985Y+2147221D02*
X-3041065Y+2147221D01*
X-3010585Y+2147221D02*
X-2980105Y+2147221D01*
X-2944545Y+2147221D02*
X-2878505Y+2147221D01*
X-2858185Y+2147221D02*
X-2822625Y+2147221D01*
X-2756585Y+2147221D02*
X-2721025Y+2147221D01*
X-3325545Y+2152301D02*
X-3295065Y+2152301D01*
X-3259505Y+2152301D02*
X-3229025Y+2152301D01*
X-3223945Y+2152301D02*
X-3193465Y+2152301D01*
X-3162985Y+2152301D02*
X-3041065Y+2152301D01*
X-3010585Y+2152301D02*
X-2980105Y+2152301D01*
X-2944545Y+2152301D02*
X-2914065Y+2152301D01*
X-2908985Y+2152301D02*
X-2878505Y+2152301D01*
X-2858185Y+2152301D02*
X-2822625Y+2152301D01*
X-2756585Y+2152301D02*
X-2721025Y+2152301D01*
X-3325545Y+2157381D02*
X-3295065Y+2157381D01*
X-3264585Y+2157381D02*
X-3229025Y+2157381D01*
X-3223945Y+2157381D02*
X-3193465Y+2157381D01*
X-3162985Y+2157381D02*
X-3041065Y+2157381D01*
X-3010585Y+2157381D02*
X-2980105Y+2157381D01*
X-2949625Y+2157381D02*
X-2914065Y+2157381D01*
X-2908985Y+2157381D02*
X-2878505Y+2157381D01*
X-2863265Y+2157381D02*
X-2827705Y+2157381D01*
X-2751505Y+2157381D02*
X-2715945Y+2157381D01*
X-3325545Y+2162461D02*
X-3295065Y+2162461D01*
X-3264585Y+2162461D02*
X-3229025Y+2162461D01*
X-3223945Y+2162461D02*
X-3193465Y+2162461D01*
X-3162985Y+2162461D02*
X-3127425Y+2162461D01*
X-3081705Y+2162461D02*
X-3046145Y+2162461D01*
X-3010585Y+2162461D02*
X-2980105Y+2162461D01*
X-2949625Y+2162461D02*
X-2914065Y+2162461D01*
X-2908985Y+2162461D02*
X-2878505Y+2162461D01*
X-2863265Y+2162461D02*
X-2827705Y+2162461D01*
X-2751505Y+2162461D02*
X-2715945Y+2162461D01*
X-3325545Y+2167541D02*
X-3295065Y+2167541D01*
X-3269665Y+2167541D02*
X-3234105Y+2167541D01*
X-3223945Y+2167541D02*
X-3193465Y+2167541D01*
X-3157905Y+2167541D02*
X-3127425Y+2167541D01*
X-3081705Y+2167541D02*
X-3046145Y+2167541D01*
X-3010585Y+2167541D02*
X-2980105Y+2167541D01*
X-2954705Y+2167541D02*
X-2919145Y+2167541D01*
X-2908985Y+2167541D02*
X-2878505Y+2167541D01*
X-2863265Y+2167541D02*
X-2827705Y+2167541D01*
X-2751505Y+2167541D02*
X-2715945Y+2167541D01*
X-3325545Y+2172621D02*
X-3295065Y+2172621D01*
X-3269665Y+2172621D02*
X-3234105Y+2172621D01*
X-3223945Y+2172621D02*
X-3193465Y+2172621D01*
X-3157905Y+2172621D02*
X-3127425Y+2172621D01*
X-3081705Y+2172621D02*
X-3046145Y+2172621D01*
X-3010585Y+2172621D02*
X-2980105Y+2172621D01*
X-2954705Y+2172621D02*
X-2919145Y+2172621D01*
X-2908985Y+2172621D02*
X-2878505Y+2172621D01*
X-2863265Y+2172621D02*
X-2827705Y+2172621D01*
X-2751505Y+2172621D02*
X-2715945Y+2172621D01*
X-3325545Y+2177701D02*
X-3295065Y+2177701D01*
X-3274745Y+2177701D02*
X-3239185Y+2177701D01*
X-3223945Y+2177701D02*
X-3193465Y+2177701D01*
X-3157905Y+2177701D02*
X-3122345Y+2177701D01*
X-3086785Y+2177701D02*
X-3051225Y+2177701D01*
X-3010585Y+2177701D02*
X-2980105Y+2177701D01*
X-2959785Y+2177701D02*
X-2924225Y+2177701D01*
X-2908985Y+2177701D02*
X-2878505Y+2177701D01*
X-2863265Y+2177701D02*
X-2827705Y+2177701D01*
X-2751505Y+2177701D02*
X-2715945Y+2177701D01*
X-3325545Y+2182781D02*
X-3295065Y+2182781D01*
X-3274745Y+2182781D02*
X-3239185Y+2182781D01*
X-3223945Y+2182781D02*
X-3193465Y+2182781D01*
X-3152825Y+2182781D02*
X-3122345Y+2182781D01*
X-3086785Y+2182781D02*
X-3051225Y+2182781D01*
X-3010585Y+2182781D02*
X-2980105Y+2182781D01*
X-2959785Y+2182781D02*
X-2924225Y+2182781D01*
X-2908985Y+2182781D02*
X-2878505Y+2182781D01*
X-2863265Y+2182781D02*
X-2827705Y+2182781D01*
X-2751505Y+2182781D02*
X-2715945Y+2182781D01*
X-3325545Y+2187861D02*
X-3295065Y+2187861D01*
X-3279825Y+2187861D02*
X-3244265Y+2187861D01*
X-3223945Y+2187861D02*
X-3193465Y+2187861D01*
X-3152825Y+2187861D02*
X-3122345Y+2187861D01*
X-3086785Y+2187861D02*
X-3051225Y+2187861D01*
X-3010585Y+2187861D02*
X-2980105Y+2187861D01*
X-2964865Y+2187861D02*
X-2929305Y+2187861D01*
X-2908985Y+2187861D02*
X-2878505Y+2187861D01*
X-2863265Y+2187861D02*
X-2827705Y+2187861D01*
X-2751505Y+2187861D02*
X-2715945Y+2187861D01*
X-3325545Y+2192941D02*
X-3295065Y+2192941D01*
X-3279825Y+2192941D02*
X-3244265Y+2192941D01*
X-3223945Y+2192941D02*
X-3193465Y+2192941D01*
X-3152825Y+2192941D02*
X-3117265Y+2192941D01*
X-3086785Y+2192941D02*
X-3051225Y+2192941D01*
X-3010585Y+2192941D02*
X-2980105Y+2192941D01*
X-2964865Y+2192941D02*
X-2929305Y+2192941D01*
X-2908985Y+2192941D02*
X-2878505Y+2192941D01*
X-2863265Y+2192941D02*
X-2827705Y+2192941D01*
X-2751505Y+2192941D02*
X-2715945Y+2192941D01*
X-3325545Y+2198021D02*
X-3295065Y+2198021D01*
X-3284905Y+2198021D02*
X-3249345Y+2198021D01*
X-3223945Y+2198021D02*
X-3193465Y+2198021D01*
X-3147745Y+2198021D02*
X-3117265Y+2198021D01*
X-3091865Y+2198021D02*
X-3056305Y+2198021D01*
X-3010585Y+2198021D02*
X-2980105Y+2198021D01*
X-2969945Y+2198021D02*
X-2934385Y+2198021D01*
X-2908985Y+2198021D02*
X-2878505Y+2198021D01*
X-2863265Y+2198021D02*
X-2827705Y+2198021D01*
X-2751505Y+2198021D02*
X-2715945Y+2198021D01*
X-3325545Y+2203101D02*
X-3295065Y+2203101D01*
X-3284905Y+2203101D02*
X-3249345Y+2203101D01*
X-3223945Y+2203101D02*
X-3193465Y+2203101D01*
X-3147745Y+2203101D02*
X-3117265Y+2203101D01*
X-3091865Y+2203101D02*
X-3056305Y+2203101D01*
X-3010585Y+2203101D02*
X-2980105Y+2203101D01*
X-2969945Y+2203101D02*
X-2934385Y+2203101D01*
X-2908985Y+2203101D02*
X-2878505Y+2203101D01*
X-2863265Y+2203101D02*
X-2827705Y+2203101D01*
X-2751505Y+2203101D02*
X-2715945Y+2203101D01*
X-3325545Y+2208181D02*
X-3295065Y+2208181D01*
X-3284905Y+2208181D02*
X-3254425Y+2208181D01*
X-3223945Y+2208181D02*
X-3193465Y+2208181D01*
X-3147745Y+2208181D02*
X-3117265Y+2208181D01*
X-3091865Y+2208181D02*
X-3056305Y+2208181D01*
X-3010585Y+2208181D02*
X-2980105Y+2208181D01*
X-2969945Y+2208181D02*
X-2939465Y+2208181D01*
X-2908985Y+2208181D02*
X-2878505Y+2208181D01*
X-2863265Y+2208181D02*
X-2827705Y+2208181D01*
X-2751505Y+2208181D02*
X-2715945Y+2208181D01*
X-3325545Y+2213261D02*
X-3295065Y+2213261D01*
X-3289985Y+2213261D02*
X-3254425Y+2213261D01*
X-3223945Y+2213261D02*
X-3193465Y+2213261D01*
X-3147745Y+2213261D02*
X-3112185Y+2213261D01*
X-3096945Y+2213261D02*
X-3061385Y+2213261D01*
X-3010585Y+2213261D02*
X-2980105Y+2213261D01*
X-2975025Y+2213261D02*
X-2939465Y+2213261D01*
X-2908985Y+2213261D02*
X-2878505Y+2213261D01*
X-2863265Y+2213261D02*
X-2827705Y+2213261D01*
X-2751505Y+2213261D02*
X-2715945Y+2213261D01*
X-3325545Y+2218341D02*
X-3295065Y+2218341D01*
X-3289985Y+2218341D02*
X-3259505Y+2218341D01*
X-3223945Y+2218341D02*
X-3193465Y+2218341D01*
X-3142665Y+2218341D02*
X-3112185Y+2218341D01*
X-3096945Y+2218341D02*
X-3061385Y+2218341D01*
X-3010585Y+2218341D02*
X-2980105Y+2218341D01*
X-2975025Y+2218341D02*
X-2944545Y+2218341D01*
X-2908985Y+2218341D02*
X-2878505Y+2218341D01*
X-2858185Y+2218341D02*
X-2822625Y+2218341D01*
X-2756585Y+2218341D02*
X-2721025Y+2218341D01*
X-3325545Y+2223421D02*
X-3259505Y+2223421D01*
X-3223945Y+2223421D02*
X-3193465Y+2223421D01*
X-3142665Y+2223421D02*
X-3112185Y+2223421D01*
X-3096945Y+2223421D02*
X-3061385Y+2223421D01*
X-3010585Y+2223421D02*
X-2944545Y+2223421D01*
X-2908985Y+2223421D02*
X-2878505Y+2223421D01*
X-2858185Y+2223421D02*
X-2822625Y+2223421D01*
X-2756585Y+2223421D02*
X-2721025Y+2223421D01*
X-3325545Y+2228501D02*
X-3259505Y+2228501D01*
X-3223945Y+2228501D02*
X-3193465Y+2228501D01*
X-3142665Y+2228501D02*
X-3107105Y+2228501D01*
X-3096945Y+2228501D02*
X-3066465Y+2228501D01*
X-3010585Y+2228501D02*
X-2944545Y+2228501D01*
X-2908985Y+2228501D02*
X-2878505Y+2228501D01*
X-2858185Y+2228501D02*
X-2822625Y+2228501D01*
X-2756585Y+2228501D02*
X-2721025Y+2228501D01*
X-3325545Y+2233581D02*
X-3264585Y+2233581D01*
X-3223945Y+2233581D02*
X-3193465Y+2233581D01*
X-3137585Y+2233581D02*
X-3107105Y+2233581D01*
X-3102025Y+2233581D02*
X-3066465Y+2233581D01*
X-3010585Y+2233581D02*
X-2949625Y+2233581D01*
X-2908985Y+2233581D02*
X-2878505Y+2233581D01*
X-2858185Y+2233581D02*
X-2817545Y+2233581D01*
X-2761665Y+2233581D02*
X-2721025Y+2233581D01*
X-3325545Y+2238661D02*
X-3264585Y+2238661D01*
X-3223945Y+2238661D02*
X-3193465Y+2238661D01*
X-3137585Y+2238661D02*
X-3107105Y+2238661D01*
X-3102025Y+2238661D02*
X-3066465Y+2238661D01*
X-3010585Y+2238661D02*
X-2949625Y+2238661D01*
X-2908985Y+2238661D02*
X-2878505Y+2238661D01*
X-2853105Y+2238661D02*
X-2817545Y+2238661D01*
X-2761665Y+2238661D02*
X-2726105Y+2238661D01*
X-3325545Y+2243741D02*
X-3269665Y+2243741D01*
X-3223945Y+2243741D02*
X-3193465Y+2243741D01*
X-3137585Y+2243741D02*
X-3107105Y+2243741D01*
X-3102025Y+2243741D02*
X-3071545Y+2243741D01*
X-3010585Y+2243741D02*
X-2954705Y+2243741D01*
X-2908985Y+2243741D02*
X-2878505Y+2243741D01*
X-2853105Y+2243741D02*
X-2812465Y+2243741D01*
X-2766745Y+2243741D02*
X-2726105Y+2243741D01*
X-3325545Y+2248821D02*
X-3269665Y+2248821D01*
X-3223945Y+2248821D02*
X-3193465Y+2248821D01*
X-3137585Y+2248821D02*
X-3071545Y+2248821D01*
X-3010585Y+2248821D02*
X-2954705Y+2248821D01*
X-2908985Y+2248821D02*
X-2878505Y+2248821D01*
X-2848025Y+2248821D02*
X-2802305Y+2248821D01*
X-2776905Y+2248821D02*
X-2731185Y+2248821D01*
X-3325545Y+2253901D02*
X-3274745Y+2253901D01*
X-3223945Y+2253901D02*
X-3193465Y+2253901D01*
X-3132505Y+2253901D02*
X-3071545Y+2253901D01*
X-3010585Y+2253901D02*
X-2959785Y+2253901D01*
X-2908985Y+2253901D02*
X-2878505Y+2253901D01*
X-2842945Y+2253901D02*
X-2731185Y+2253901D01*
X-3325545Y+2258981D02*
X-3274745Y+2258981D01*
X-3223945Y+2258981D02*
X-3193465Y+2258981D01*
X-3132505Y+2258981D02*
X-3071545Y+2258981D01*
X-3010585Y+2258981D02*
X-2959785Y+2258981D01*
X-2908985Y+2258981D02*
X-2878505Y+2258981D01*
X-2842945Y+2258981D02*
X-2736265Y+2258981D01*
X-3325545Y+2264061D02*
X-3279825Y+2264061D01*
X-3223945Y+2264061D02*
X-3193465Y+2264061D01*
X-3132505Y+2264061D02*
X-3076625Y+2264061D01*
X-3010585Y+2264061D02*
X-2964865Y+2264061D01*
X-2908985Y+2264061D02*
X-2878505Y+2264061D01*
X-2837865Y+2264061D02*
X-2741345Y+2264061D01*
X-3325545Y+2269141D02*
X-3279825Y+2269141D01*
X-3223945Y+2269141D02*
X-3193465Y+2269141D01*
X-3127425Y+2269141D02*
X-3076625Y+2269141D01*
X-3010585Y+2269141D02*
X-2964865Y+2269141D01*
X-2908985Y+2269141D02*
X-2878505Y+2269141D01*
X-2827705Y+2269141D02*
X-2746425Y+2269141D01*
X-3325545Y+2274221D02*
X-3284905Y+2274221D01*
X-3223945Y+2274221D02*
X-3193465Y+2274221D01*
X-3127425Y+2274221D02*
X-3076625Y+2274221D01*
X-3010585Y+2274221D02*
X-2969945Y+2274221D01*
X-2908985Y+2274221D02*
X-2878505Y+2274221D01*
X-2822625Y+2274221D02*
X-2751505Y+2274221D01*
X-2807385Y+2279301D02*
X-2766745Y+2279301D01*
D17*
X-3043515Y+3166729D02*
X-3044391Y+3188458D01*
X-3051503Y+3231918D01*
X-3066340Y+3275378D01*
X-3090438Y+3318838D01*
X-3127244Y+3362187D01*
X-3170704Y+3395872D01*
X-3214164Y+3417789D01*
X-3257624Y+3430885D01*
X-3301084Y+3436447D01*
X-3313520Y+3436734D01*
X-3583525Y+3166729D02*
X-3582649Y+3188458D01*
X-3575537Y+3231918D01*
X-3560700Y+3275378D01*
X-3536602Y+3318838D01*
X-3499796Y+3362187D01*
X-3456336Y+3395872D01*
X-3412876Y+3417789D01*
X-3369416Y+3430885D01*
X-3325956Y+3436447D01*
X-3313520Y+3436734D01*
X-3583525Y+3166729D02*
X-3582649Y+3145000D01*
X-3575537Y+3101540D01*
X-3560700Y+3058080D01*
X-3536602Y+3014620D01*
X-3499796Y+2971271D01*
X-3456336Y+2937586D01*
X-3412876Y+2915669D01*
X-3369416Y+2902573D01*
X-3325956Y+2897011D01*
X-3313520Y+2896724D01*
X-3043515Y+3166729D02*
X-3044391Y+3145000D01*
X-3051503Y+3101540D01*
X-3066340Y+3058080D01*
X-3090438Y+3014620D01*
X-3127244Y+2971271D01*
X-3170704Y+2937586D01*
X-3214164Y+2915669D01*
X-3257624Y+2902573D01*
X-3301084Y+2897011D01*
X-3313520Y+2896724D01*
D20*
X-3542120Y+3217529D02*
X-3551216Y+3177915D01*
X-3550519Y+3136805D01*
X-3540916Y+3095607D01*
X-3523293Y+3055728D01*
X-3498536Y+3018574D01*
X-3467530Y+2985552D01*
X-3431161Y+2958070D01*
X-3390316Y+2937534D01*
X-3345880Y+2925350D01*
X-3298740Y+2922927D01*
X-3249781Y+2931670D01*
X-3199890Y+2952987D01*
X-3149952Y+2988284D01*
X-3100854Y+3038969D01*
X-3053481Y+3106449D01*
X-3008720Y+3192129D01*
D17*
X-2459315Y+3166729D02*
X-2460191Y+3188458D01*
X-2467303Y+3231918D01*
X-2482140Y+3275378D01*
X-2506238Y+3318838D01*
X-2543044Y+3362187D01*
X-2586504Y+3395872D01*
X-2629964Y+3417789D01*
X-2673424Y+3430885D01*
X-2716884Y+3436447D01*
X-2729320Y+3436734D01*
X-2999325Y+3166729D02*
X-2998449Y+3188458D01*
X-2991337Y+3231918D01*
X-2976500Y+3275378D01*
X-2952402Y+3318838D01*
X-2915596Y+3362187D01*
X-2872136Y+3395872D01*
X-2828676Y+3417789D01*
X-2785216Y+3430885D01*
X-2741756Y+3436447D01*
X-2729320Y+3436734D01*
X-2999325Y+3166729D02*
X-2998449Y+3145000D01*
X-2991337Y+3101540D01*
X-2976500Y+3058080D01*
X-2952402Y+3014620D01*
X-2915596Y+2971271D01*
X-2872136Y+2937586D01*
X-2828676Y+2915669D01*
X-2785216Y+2902573D01*
X-2741756Y+2897011D01*
X-2729320Y+2896724D01*
X-2459315Y+3166729D02*
X-2460191Y+3145000D01*
X-2467303Y+3101540D01*
X-2482140Y+3058080D01*
X-2506238Y+3014620D01*
X-2543044Y+2971271D01*
X-2586504Y+2937586D01*
X-2629964Y+2915669D01*
X-2673424Y+2902573D01*
X-2716884Y+2897011D01*
X-2729320Y+2896724D01*
D20*
X-2500720Y+3217529D02*
X-2491624Y+3177915D01*
X-2492321Y+3136805D01*
X-2501924Y+3095607D01*
X-2519547Y+3055728D01*
X-2544304Y+3018574D01*
X-2575310Y+2985552D01*
X-2611679Y+2958070D01*
X-2652524Y+2937534D01*
X-2696960Y+2925350D01*
X-2744100Y+2922927D01*
X-2793059Y+2931670D01*
X-2842950Y+2952987D01*
X-2892888Y+2988284D01*
X-2941986Y+3038969D01*
X-2989359Y+3106449D01*
X-3034120Y+3192129D01*
X-2500720Y+3115929D02*
X-2491624Y+3155543D01*
X-2492321Y+3196653D01*
X-2501924Y+3237851D01*
X-2519547Y+3277730D01*
X-2544304Y+3314884D01*
X-2575310Y+3347906D01*
X-2611679Y+3375388D01*
X-2652524Y+3395924D01*
X-2696960Y+3408108D01*
X-2744100Y+3410531D01*
X-2793059Y+3401788D01*
X-2842950Y+3380471D01*
X-2892888Y+3345174D01*
X-2941986Y+3294489D01*
X-2989359Y+3227009D01*
X-3034120Y+3141329D01*
D19*
X-2824055Y+3154347D02*
X-2824055Y+3205147D01*
X-2818975Y+3154347D02*
X-2818975Y+3205147D01*
X-2813895Y+3154347D02*
X-2813895Y+3205147D01*
X-2808815Y+3154347D02*
X-2808815Y+3205147D01*
X-2803735Y+3154347D02*
X-2803735Y+3205147D01*
X-2798655Y+3154347D02*
X-2798655Y+3205147D01*
X-2793575Y+3154347D02*
X-2793575Y+3205147D01*
X-2788495Y+3154347D02*
X-2788495Y+3205147D01*
X-2783415Y+3154347D02*
X-2783415Y+3205147D01*
X-2778335Y+3154347D02*
X-2778335Y+3205147D01*
X-2773255Y+3154347D02*
X-2773255Y+3205147D01*
X-2768175Y+3154347D02*
X-2768175Y+3205147D01*
X-2763095Y+3093387D02*
X-2763095Y+3266107D01*
X-2758015Y+3093387D02*
X-2758015Y+3266107D01*
X-2752935Y+3093387D02*
X-2752935Y+3266107D01*
X-2747855Y+3093387D02*
X-2747855Y+3266107D01*
X-2742775Y+3093387D02*
X-2742775Y+3266107D01*
X-2737695Y+3093387D02*
X-2737695Y+3266107D01*
X-2732615Y+3093387D02*
X-2732615Y+3266107D01*
X-2727535Y+3093387D02*
X-2727535Y+3266107D01*
X-2722455Y+3093387D02*
X-2722455Y+3266107D01*
X-2717375Y+3093387D02*
X-2717375Y+3266107D01*
X-2712295Y+3154347D02*
X-2712295Y+3205147D01*
X-2707215Y+3154347D02*
X-2707215Y+3205147D01*
X-2702135Y+3154347D02*
X-2702135Y+3205147D01*
X-2697055Y+3154347D02*
X-2697055Y+3205147D01*
X-2691975Y+3154347D02*
X-2691975Y+3205147D01*
X-2686895Y+3154347D02*
X-2686895Y+3205147D01*
X-2681815Y+3154347D02*
X-2681815Y+3205147D01*
X-2676735Y+3154347D02*
X-2676735Y+3205147D01*
X-2671655Y+3154347D02*
X-2671655Y+3205147D01*
X-2666575Y+3154347D02*
X-2666575Y+3205147D01*
X-2661495Y+3154347D02*
X-2661495Y+3205147D01*
X-2656415Y+3154347D02*
X-2656415Y+3205147D01*
X-3406508Y+3171809D02*
X-3406508Y+3212449D01*
X-3401428Y+3171809D02*
X-3401428Y+3212449D01*
X-3396348Y+3171809D02*
X-3396348Y+3212449D01*
X-3391268Y+3171809D02*
X-3391268Y+3212449D01*
X-3386188Y+3171809D02*
X-3386188Y+3212449D01*
X-3381108Y+3171809D02*
X-3381108Y+3212449D01*
X-3376028Y+3171809D02*
X-3376028Y+3212449D01*
X-3370948Y+3171809D02*
X-3370948Y+3212449D01*
X-3365868Y+3171809D02*
X-3365868Y+3212449D01*
X-3360788Y+3171809D02*
X-3360788Y+3212449D01*
X-3355708Y+3171809D02*
X-3355708Y+3212449D01*
X-3350628Y+3171809D02*
X-3350628Y+3212449D01*
X-3345548Y+3171809D02*
X-3345548Y+3212449D01*
X-3340468Y+3171809D02*
X-3340468Y+3212449D01*
X-3335388Y+3171809D02*
X-3335388Y+3212449D01*
X-3330308Y+3171809D02*
X-3330308Y+3212449D01*
X-3325228Y+3171809D02*
X-3325228Y+3212449D01*
X-3320148Y+3171809D02*
X-3320148Y+3212449D01*
X-3315068Y+3171809D02*
X-3315068Y+3212449D01*
X-3309988Y+3171809D02*
X-3309988Y+3212449D01*
X-3304908Y+3171809D02*
X-3304908Y+3212449D01*
X-3299828Y+3171809D02*
X-3299828Y+3212449D01*
X-3294748Y+3171809D02*
X-3294748Y+3212449D01*
X-3289668Y+3171809D02*
X-3289668Y+3212449D01*
X-3284588Y+3171809D02*
X-3284588Y+3212449D01*
X-3279508Y+3171809D02*
X-3279508Y+3212449D01*
X-3274428Y+3171809D02*
X-3274428Y+3212449D01*
X-3269348Y+3171809D02*
X-3269348Y+3212449D01*
X-3264268Y+3171809D02*
X-3264268Y+3212449D01*
X-3259188Y+3171809D02*
X-3259188Y+3212449D01*
X-3254108Y+3171809D02*
X-3254108Y+3212449D01*
X-3249028Y+3171809D02*
X-3249028Y+3212449D01*
X-3243948Y+3171809D02*
X-3243948Y+3212449D01*
X-3238868Y+3171809D02*
X-3238868Y+3212449D01*
X-3233788Y+3171809D02*
X-3233788Y+3212449D01*
X-3228708Y+3171809D02*
X-3228708Y+3212449D01*
X-3040381Y+2654951D02*
X-2994661Y+2654951D01*
X-2557781Y+2654951D02*
X-2517141Y+2654951D01*
X-3583941Y+2660031D02*
X-3548381Y+2660031D01*
X-3462021Y+2660031D02*
X-3426461Y+2660031D01*
X-3401061Y+2660031D02*
X-3365501Y+2660031D01*
X-3304541Y+2660031D02*
X-3263901Y+2660031D01*
X-3248661Y+2660031D02*
X-3177541Y+2660031D01*
X-3055621Y+2660031D02*
X-2984501Y+2660031D01*
X-2918461Y+2660031D02*
X-2801621Y+2660031D01*
X-2760981Y+2660031D02*
X-2730501Y+2660031D01*
X-2669541Y+2660031D02*
X-2628901Y+2660031D01*
X-2567941Y+2660031D02*
X-2501901Y+2660031D01*
X-3583941Y+2665111D02*
X-3548381Y+2665111D01*
X-3467101Y+2665111D02*
X-3426461Y+2665111D01*
X-3401061Y+2665111D02*
X-3365501Y+2665111D01*
X-3309621Y+2665111D02*
X-3268981Y+2665111D01*
X-3248661Y+2665111D02*
X-3157221Y+2665111D01*
X-3065781Y+2665111D02*
X-2974341Y+2665111D01*
X-2918461Y+2665111D02*
X-2801621Y+2665111D01*
X-2760981Y+2665111D02*
X-2730501Y+2665111D01*
X-2674621Y+2665111D02*
X-2628901Y+2665111D01*
X-2578101Y+2665111D02*
X-2496821Y+2665111D01*
X-3583941Y+2670191D02*
X-3548381Y+2670191D01*
X-3467101Y+2670191D02*
X-3426461Y+2670191D01*
X-3401061Y+2670191D02*
X-3365501Y+2670191D01*
X-3309621Y+2670191D02*
X-3268981Y+2670191D01*
X-3248661Y+2670191D02*
X-3147061Y+2670191D01*
X-3070861Y+2670191D02*
X-2969261Y+2670191D01*
X-2918461Y+2670191D02*
X-2801621Y+2670191D01*
X-2760981Y+2670191D02*
X-2730501Y+2670191D01*
X-2674621Y+2670191D02*
X-2628901Y+2670191D01*
X-2583181Y+2670191D02*
X-2486661Y+2670191D01*
X-3578861Y+2675271D02*
X-3548381Y+2675271D01*
X-3467101Y+2675271D02*
X-3431541Y+2675271D01*
X-3401061Y+2675271D02*
X-3365501Y+2675271D01*
X-3314701Y+2675271D02*
X-3274061Y+2675271D01*
X-3248661Y+2675271D02*
X-3141981Y+2675271D01*
X-3075941Y+2675271D02*
X-2964181Y+2675271D01*
X-2918461Y+2675271D02*
X-2801621Y+2675271D01*
X-2760981Y+2675271D02*
X-2730501Y+2675271D01*
X-2679701Y+2675271D02*
X-2628901Y+2675271D01*
X-2588261Y+2675271D02*
X-2481581Y+2675271D01*
X-3578861Y+2680351D02*
X-3543301Y+2680351D01*
X-3467101Y+2680351D02*
X-3431541Y+2680351D01*
X-3401061Y+2680351D02*
X-3365501Y+2680351D01*
X-3314701Y+2680351D02*
X-3274061Y+2680351D01*
X-3248661Y+2680351D02*
X-3136901Y+2680351D01*
X-3075941Y+2680351D02*
X-2959101Y+2680351D01*
X-2918461Y+2680351D02*
X-2801621Y+2680351D01*
X-2760981Y+2680351D02*
X-2730501Y+2680351D01*
X-2679701Y+2680351D02*
X-2628901Y+2680351D01*
X-2593341Y+2680351D02*
X-2481581Y+2680351D01*
X-3578861Y+2685431D02*
X-3543301Y+2685431D01*
X-3472181Y+2685431D02*
X-3431541Y+2685431D01*
X-3401061Y+2685431D02*
X-3365501Y+2685431D01*
X-3314701Y+2685431D02*
X-3279141Y+2685431D01*
X-3248661Y+2685431D02*
X-3131821Y+2685431D01*
X-3081021Y+2685431D02*
X-3035301Y+2685431D01*
X-2999741Y+2685431D02*
X-2959101Y+2685431D01*
X-2918461Y+2685431D02*
X-2801621Y+2685431D01*
X-2760981Y+2685431D02*
X-2730501Y+2685431D01*
X-2684781Y+2685431D02*
X-2628901Y+2685431D01*
X-2593341Y+2685431D02*
X-2547621Y+2685431D01*
X-2522221Y+2685431D02*
X-2476501Y+2685431D01*
X-3573781Y+2690511D02*
X-3543301Y+2690511D01*
X-3472181Y+2690511D02*
X-3431541Y+2690511D01*
X-3401061Y+2690511D02*
X-3365501Y+2690511D01*
X-3319781Y+2690511D02*
X-3279141Y+2690511D01*
X-3248661Y+2690511D02*
X-3213101Y+2690511D01*
X-3177541Y+2690511D02*
X-3126741Y+2690511D01*
X-3081021Y+2690511D02*
X-3040381Y+2690511D01*
X-2994661Y+2690511D02*
X-2954021Y+2690511D01*
X-2877821Y+2690511D02*
X-2842261Y+2690511D01*
X-2760981Y+2690511D02*
X-2730501Y+2690511D01*
X-2684781Y+2690511D02*
X-2628901Y+2690511D01*
X-2598421Y+2690511D02*
X-2557781Y+2690511D01*
X-2512061Y+2690511D02*
X-2471421Y+2690511D01*
X-3573781Y+2695591D02*
X-3436621Y+2695591D01*
X-3401061Y+2695591D02*
X-3365501Y+2695591D01*
X-3319781Y+2695591D02*
X-3279141Y+2695591D01*
X-3248661Y+2695591D02*
X-3213101Y+2695591D01*
X-3167381Y+2695591D02*
X-3126741Y+2695591D01*
X-3081021Y+2695591D02*
X-3045461Y+2695591D01*
X-2989581Y+2695591D02*
X-2954021Y+2695591D01*
X-2877821Y+2695591D02*
X-2842261Y+2695591D01*
X-2760981Y+2695591D02*
X-2730501Y+2695591D01*
X-2684781Y+2695591D02*
X-2628901Y+2695591D01*
X-2598421Y+2695591D02*
X-2562861Y+2695591D01*
X-2506981Y+2695591D02*
X-2471421Y+2695591D01*
X-3573781Y+2700671D02*
X-3436621Y+2700671D01*
X-3401061Y+2700671D02*
X-3365501Y+2700671D01*
X-3324861Y+2700671D02*
X-3284221Y+2700671D01*
X-3248661Y+2700671D02*
X-3213101Y+2700671D01*
X-3162301Y+2700671D02*
X-3121661Y+2700671D01*
X-3086101Y+2700671D02*
X-3045461Y+2700671D01*
X-2989581Y+2700671D02*
X-2954021Y+2700671D01*
X-2877821Y+2700671D02*
X-2842261Y+2700671D01*
X-2760981Y+2700671D02*
X-2730501Y+2700671D01*
X-2689861Y+2700671D02*
X-2628901Y+2700671D01*
X-2603501Y+2700671D02*
X-2562861Y+2700671D01*
X-2506981Y+2700671D02*
X-2471421Y+2700671D01*
X-3573781Y+2705751D02*
X-3436621Y+2705751D01*
X-3401061Y+2705751D02*
X-3365501Y+2705751D01*
X-3324861Y+2705751D02*
X-3284221Y+2705751D01*
X-3248661Y+2705751D02*
X-3213101Y+2705751D01*
X-3157221Y+2705751D02*
X-3121661Y+2705751D01*
X-3086101Y+2705751D02*
X-3050541Y+2705751D01*
X-2984501Y+2705751D02*
X-2948941Y+2705751D01*
X-2877821Y+2705751D02*
X-2842261Y+2705751D01*
X-2760981Y+2705751D02*
X-2730501Y+2705751D01*
X-2689861Y+2705751D02*
X-2628901Y+2705751D01*
X-2603501Y+2705751D02*
X-2567941Y+2705751D01*
X-2501901Y+2705751D02*
X-2466341Y+2705751D01*
X-3568701Y+2710831D02*
X-3441701Y+2710831D01*
X-3401061Y+2710831D02*
X-3365501Y+2710831D01*
X-3329941Y+2710831D02*
X-3289301Y+2710831D01*
X-3248661Y+2710831D02*
X-3213101Y+2710831D01*
X-3157221Y+2710831D02*
X-3116581Y+2710831D01*
X-3086101Y+2710831D02*
X-3050541Y+2710831D01*
X-2984501Y+2710831D02*
X-2948941Y+2710831D01*
X-2877821Y+2710831D02*
X-2842261Y+2710831D01*
X-2760981Y+2710831D02*
X-2730501Y+2710831D01*
X-2694941Y+2710831D02*
X-2628901Y+2710831D01*
X-2603501Y+2710831D02*
X-2567941Y+2710831D01*
X-2501901Y+2710831D02*
X-2466341Y+2710831D01*
X-3568701Y+2715911D02*
X-3441701Y+2715911D01*
X-3401061Y+2715911D02*
X-3365501Y+2715911D01*
X-3329941Y+2715911D02*
X-3289301Y+2715911D01*
X-3248661Y+2715911D02*
X-3213101Y+2715911D01*
X-3152141Y+2715911D02*
X-3116581Y+2715911D01*
X-3086101Y+2715911D02*
X-3050541Y+2715911D01*
X-2984501Y+2715911D02*
X-2948941Y+2715911D01*
X-2877821Y+2715911D02*
X-2842261Y+2715911D01*
X-2760981Y+2715911D02*
X-2730501Y+2715911D01*
X-2694941Y+2715911D02*
X-2628901Y+2715911D01*
X-2603501Y+2715911D02*
X-2567941Y+2715911D01*
X-2501901Y+2715911D02*
X-2466341Y+2715911D01*
X-3568701Y+2720991D02*
X-3441701Y+2720991D01*
X-3401061Y+2720991D02*
X-3365501Y+2720991D01*
X-3335021Y+2720991D02*
X-3294381Y+2720991D01*
X-3248661Y+2720991D02*
X-3213101Y+2720991D01*
X-3152141Y+2720991D02*
X-3116581Y+2720991D01*
X-3086101Y+2720991D02*
X-3050541Y+2720991D01*
X-2984501Y+2720991D02*
X-2948941Y+2720991D01*
X-2877821Y+2720991D02*
X-2842261Y+2720991D01*
X-2760981Y+2720991D02*
X-2730501Y+2720991D01*
X-2700021Y+2720991D02*
X-2664461Y+2720991D01*
X-2659381Y+2720991D02*
X-2628901Y+2720991D01*
X-2608581Y+2720991D02*
X-2573021Y+2720991D01*
X-2496821Y+2720991D02*
X-2461261Y+2720991D01*
X-3563621Y+2726071D02*
X-3533141Y+2726071D01*
X-3482341Y+2726071D02*
X-3441701Y+2726071D01*
X-3401061Y+2726071D02*
X-3365501Y+2726071D01*
X-3340101Y+2726071D02*
X-3294381Y+2726071D01*
X-3248661Y+2726071D02*
X-3213101Y+2726071D01*
X-3147061Y+2726071D02*
X-3111501Y+2726071D01*
X-3086101Y+2726071D02*
X-3050541Y+2726071D01*
X-2984501Y+2726071D02*
X-2948941Y+2726071D01*
X-2877821Y+2726071D02*
X-2842261Y+2726071D01*
X-2760981Y+2726071D02*
X-2730501Y+2726071D01*
X-2700021Y+2726071D02*
X-2664461Y+2726071D01*
X-2659381Y+2726071D02*
X-2628901Y+2726071D01*
X-2608581Y+2726071D02*
X-2573021Y+2726071D01*
X-2496821Y+2726071D02*
X-2461261Y+2726071D01*
X-3563621Y+2731151D02*
X-3528061Y+2731151D01*
X-3482341Y+2731151D02*
X-3446781Y+2731151D01*
X-3401061Y+2731151D02*
X-3365501Y+2731151D01*
X-3345181Y+2731151D02*
X-3299461Y+2731151D01*
X-3248661Y+2731151D02*
X-3213101Y+2731151D01*
X-3147061Y+2731151D02*
X-3111501Y+2731151D01*
X-3086101Y+2731151D02*
X-3050541Y+2731151D01*
X-2984501Y+2731151D02*
X-2948941Y+2731151D01*
X-2877821Y+2731151D02*
X-2842261Y+2731151D01*
X-2760981Y+2731151D02*
X-2730501Y+2731151D01*
X-2705101Y+2731151D02*
X-2669541Y+2731151D01*
X-2659381Y+2731151D02*
X-2628901Y+2731151D01*
X-2608581Y+2731151D02*
X-2573021Y+2731151D01*
X-2496821Y+2731151D02*
X-2461261Y+2731151D01*
X-3563621Y+2736231D02*
X-3528061Y+2736231D01*
X-3482341Y+2736231D02*
X-3446781Y+2736231D01*
X-3401061Y+2736231D02*
X-3304541Y+2736231D01*
X-3248661Y+2736231D02*
X-3213101Y+2736231D01*
X-3147061Y+2736231D02*
X-3111501Y+2736231D01*
X-3086101Y+2736231D02*
X-3050541Y+2736231D01*
X-2984501Y+2736231D02*
X-2948941Y+2736231D01*
X-2877821Y+2736231D02*
X-2842261Y+2736231D01*
X-2760981Y+2736231D02*
X-2730501Y+2736231D01*
X-2705101Y+2736231D02*
X-2669541Y+2736231D01*
X-2659381Y+2736231D02*
X-2628901Y+2736231D01*
X-2608581Y+2736231D02*
X-2573021Y+2736231D01*
X-2496821Y+2736231D02*
X-2461261Y+2736231D01*
X-3558541Y+2741311D02*
X-3528061Y+2741311D01*
X-3487421Y+2741311D02*
X-3446781Y+2741311D01*
X-3401061Y+2741311D02*
X-3309621Y+2741311D01*
X-3248661Y+2741311D02*
X-3213101Y+2741311D01*
X-3147061Y+2741311D02*
X-3111501Y+2741311D01*
X-3086101Y+2741311D02*
X-3050541Y+2741311D01*
X-2984501Y+2741311D02*
X-2948941Y+2741311D01*
X-2877821Y+2741311D02*
X-2842261Y+2741311D01*
X-2760981Y+2741311D02*
X-2730501Y+2741311D01*
X-2705101Y+2741311D02*
X-2674621Y+2741311D01*
X-2659381Y+2741311D02*
X-2628901Y+2741311D01*
X-2608581Y+2741311D02*
X-2573021Y+2741311D01*
X-2496821Y+2741311D02*
X-2461261Y+2741311D01*
X-3558541Y+2746391D02*
X-3522981Y+2746391D01*
X-3487421Y+2746391D02*
X-3451861Y+2746391D01*
X-3401061Y+2746391D02*
X-3319781Y+2746391D01*
X-3248661Y+2746391D02*
X-3213101Y+2746391D01*
X-3147061Y+2746391D02*
X-3111501Y+2746391D01*
X-3086101Y+2746391D02*
X-3050541Y+2746391D01*
X-2984501Y+2746391D02*
X-2948941Y+2746391D01*
X-2877821Y+2746391D02*
X-2842261Y+2746391D01*
X-2760981Y+2746391D02*
X-2730501Y+2746391D01*
X-2710181Y+2746391D02*
X-2674621Y+2746391D01*
X-2659381Y+2746391D02*
X-2628901Y+2746391D01*
X-2608581Y+2746391D02*
X-2573021Y+2746391D01*
X-2496821Y+2746391D02*
X-2461261Y+2746391D01*
X-3558541Y+2751471D02*
X-3522981Y+2751471D01*
X-3487421Y+2751471D02*
X-3451861Y+2751471D01*
X-3401061Y+2751471D02*
X-3299461Y+2751471D01*
X-3248661Y+2751471D02*
X-3213101Y+2751471D01*
X-3147061Y+2751471D02*
X-3111501Y+2751471D01*
X-3086101Y+2751471D02*
X-3050541Y+2751471D01*
X-2984501Y+2751471D02*
X-2948941Y+2751471D01*
X-2877821Y+2751471D02*
X-2842261Y+2751471D01*
X-2760981Y+2751471D02*
X-2730501Y+2751471D01*
X-2710181Y+2751471D02*
X-2674621Y+2751471D01*
X-2659381Y+2751471D02*
X-2628901Y+2751471D01*
X-2608581Y+2751471D02*
X-2573021Y+2751471D01*
X-2496821Y+2751471D02*
X-2461261Y+2751471D01*
X-3553461Y+2756551D02*
X-3522981Y+2756551D01*
X-3487421Y+2756551D02*
X-3451861Y+2756551D01*
X-3401061Y+2756551D02*
X-3294381Y+2756551D01*
X-3248661Y+2756551D02*
X-3213101Y+2756551D01*
X-3147061Y+2756551D02*
X-3111501Y+2756551D01*
X-3086101Y+2756551D02*
X-3050541Y+2756551D01*
X-2984501Y+2756551D02*
X-2948941Y+2756551D01*
X-2877821Y+2756551D02*
X-2842261Y+2756551D01*
X-2760981Y+2756551D02*
X-2730501Y+2756551D01*
X-2715261Y+2756551D02*
X-2679701Y+2756551D01*
X-2659381Y+2756551D02*
X-2628901Y+2756551D01*
X-2608581Y+2756551D02*
X-2573021Y+2756551D01*
X-2496821Y+2756551D02*
X-2461261Y+2756551D01*
X-3553461Y+2761631D02*
X-3522981Y+2761631D01*
X-3492501Y+2761631D02*
X-3456941Y+2761631D01*
X-3401061Y+2761631D02*
X-3289301Y+2761631D01*
X-3248661Y+2761631D02*
X-3213101Y+2761631D01*
X-3147061Y+2761631D02*
X-3111501Y+2761631D01*
X-3086101Y+2761631D02*
X-3050541Y+2761631D01*
X-2984501Y+2761631D02*
X-2948941Y+2761631D01*
X-2877821Y+2761631D02*
X-2842261Y+2761631D01*
X-2760981Y+2761631D02*
X-2730501Y+2761631D01*
X-2715261Y+2761631D02*
X-2679701Y+2761631D01*
X-2659381Y+2761631D02*
X-2628901Y+2761631D01*
X-2608581Y+2761631D02*
X-2573021Y+2761631D01*
X-2496821Y+2761631D02*
X-2461261Y+2761631D01*
X-3553461Y+2766711D02*
X-3517901Y+2766711D01*
X-3492501Y+2766711D02*
X-3456941Y+2766711D01*
X-3401061Y+2766711D02*
X-3365501Y+2766711D01*
X-3335021Y+2766711D02*
X-3284221Y+2766711D01*
X-3248661Y+2766711D02*
X-3213101Y+2766711D01*
X-3147061Y+2766711D02*
X-3111501Y+2766711D01*
X-3086101Y+2766711D02*
X-3050541Y+2766711D01*
X-2984501Y+2766711D02*
X-2948941Y+2766711D01*
X-2877821Y+2766711D02*
X-2842261Y+2766711D01*
X-2760981Y+2766711D02*
X-2730501Y+2766711D01*
X-2720341Y+2766711D02*
X-2684781Y+2766711D01*
X-2659381Y+2766711D02*
X-2628901Y+2766711D01*
X-2608581Y+2766711D02*
X-2573021Y+2766711D01*
X-2496821Y+2766711D02*
X-2461261Y+2766711D01*
X-3553461Y+2771791D02*
X-3517901Y+2771791D01*
X-3492501Y+2771791D02*
X-3456941Y+2771791D01*
X-3401061Y+2771791D02*
X-3365501Y+2771791D01*
X-3324861Y+2771791D02*
X-3284221Y+2771791D01*
X-3248661Y+2771791D02*
X-3213101Y+2771791D01*
X-3147061Y+2771791D02*
X-3111501Y+2771791D01*
X-3086101Y+2771791D02*
X-3050541Y+2771791D01*
X-2984501Y+2771791D02*
X-2948941Y+2771791D01*
X-2877821Y+2771791D02*
X-2842261Y+2771791D01*
X-2760981Y+2771791D02*
X-2730501Y+2771791D01*
X-2720341Y+2771791D02*
X-2684781Y+2771791D01*
X-2659381Y+2771791D02*
X-2628901Y+2771791D01*
X-2608581Y+2771791D02*
X-2573021Y+2771791D01*
X-2496821Y+2771791D02*
X-2461261Y+2771791D01*
X-3548381Y+2776871D02*
X-3517901Y+2776871D01*
X-3497581Y+2776871D02*
X-3456941Y+2776871D01*
X-3401061Y+2776871D02*
X-3365501Y+2776871D01*
X-3319781Y+2776871D02*
X-3279141Y+2776871D01*
X-3248661Y+2776871D02*
X-3213101Y+2776871D01*
X-3147061Y+2776871D02*
X-3111501Y+2776871D01*
X-3086101Y+2776871D02*
X-3050541Y+2776871D01*
X-2984501Y+2776871D02*
X-2948941Y+2776871D01*
X-2877821Y+2776871D02*
X-2842261Y+2776871D01*
X-2760981Y+2776871D02*
X-2730501Y+2776871D01*
X-2725421Y+2776871D02*
X-2689861Y+2776871D01*
X-2659381Y+2776871D02*
X-2628901Y+2776871D01*
X-2608581Y+2776871D02*
X-2573021Y+2776871D01*
X-2496821Y+2776871D02*
X-2461261Y+2776871D01*
X-3548381Y+2781951D02*
X-3512821Y+2781951D01*
X-3497581Y+2781951D02*
X-3462021Y+2781951D01*
X-3401061Y+2781951D02*
X-3365501Y+2781951D01*
X-3314701Y+2781951D02*
X-3279141Y+2781951D01*
X-3248661Y+2781951D02*
X-3213101Y+2781951D01*
X-3152141Y+2781951D02*
X-3111501Y+2781951D01*
X-3086101Y+2781951D02*
X-3050541Y+2781951D01*
X-2984501Y+2781951D02*
X-2948941Y+2781951D01*
X-2877821Y+2781951D02*
X-2842261Y+2781951D01*
X-2760981Y+2781951D02*
X-2730501Y+2781951D01*
X-2725421Y+2781951D02*
X-2689861Y+2781951D01*
X-2659381Y+2781951D02*
X-2628901Y+2781951D01*
X-2608581Y+2781951D02*
X-2573021Y+2781951D01*
X-2496821Y+2781951D02*
X-2461261Y+2781951D01*
X-3548381Y+2787031D02*
X-3512821Y+2787031D01*
X-3497581Y+2787031D02*
X-3462021Y+2787031D01*
X-3401061Y+2787031D02*
X-3365501Y+2787031D01*
X-3314701Y+2787031D02*
X-3279141Y+2787031D01*
X-3248661Y+2787031D02*
X-3213101Y+2787031D01*
X-3152141Y+2787031D02*
X-3116581Y+2787031D01*
X-3086101Y+2787031D02*
X-3050541Y+2787031D01*
X-2984501Y+2787031D02*
X-2948941Y+2787031D01*
X-2877821Y+2787031D02*
X-2842261Y+2787031D01*
X-2760981Y+2787031D02*
X-2730501Y+2787031D01*
X-2725421Y+2787031D02*
X-2694941Y+2787031D01*
X-2659381Y+2787031D02*
X-2628901Y+2787031D01*
X-2603501Y+2787031D02*
X-2567941Y+2787031D01*
X-2501901Y+2787031D02*
X-2466341Y+2787031D01*
X-3543301Y+2792111D02*
X-3512821Y+2792111D01*
X-3497581Y+2792111D02*
X-3462021Y+2792111D01*
X-3401061Y+2792111D02*
X-3365501Y+2792111D01*
X-3314701Y+2792111D02*
X-3279141Y+2792111D01*
X-3248661Y+2792111D02*
X-3213101Y+2792111D01*
X-3152141Y+2792111D02*
X-3116581Y+2792111D01*
X-3086101Y+2792111D02*
X-3050541Y+2792111D01*
X-2984501Y+2792111D02*
X-2948941Y+2792111D01*
X-2877821Y+2792111D02*
X-2842261Y+2792111D01*
X-2760981Y+2792111D02*
X-2694941Y+2792111D01*
X-2659381Y+2792111D02*
X-2628901Y+2792111D01*
X-2603501Y+2792111D02*
X-2567941Y+2792111D01*
X-2501901Y+2792111D02*
X-2466341Y+2792111D01*
X-3543301Y+2797191D02*
X-3507741Y+2797191D01*
X-3502661Y+2797191D02*
X-3467101Y+2797191D01*
X-3401061Y+2797191D02*
X-3365501Y+2797191D01*
X-3314701Y+2797191D02*
X-3279141Y+2797191D01*
X-3248661Y+2797191D02*
X-3213101Y+2797191D01*
X-3157221Y+2797191D02*
X-3116581Y+2797191D01*
X-3086101Y+2797191D02*
X-3050541Y+2797191D01*
X-2984501Y+2797191D02*
X-2948941Y+2797191D01*
X-2877821Y+2797191D02*
X-2842261Y+2797191D01*
X-2760981Y+2797191D02*
X-2694941Y+2797191D01*
X-2659381Y+2797191D02*
X-2628901Y+2797191D01*
X-2603501Y+2797191D02*
X-2567941Y+2797191D01*
X-2501901Y+2797191D02*
X-2466341Y+2797191D01*
X-3543301Y+2802271D02*
X-3507741Y+2802271D01*
X-3502661Y+2802271D02*
X-3467101Y+2802271D01*
X-3401061Y+2802271D02*
X-3365501Y+2802271D01*
X-3319781Y+2802271D02*
X-3279141Y+2802271D01*
X-3248661Y+2802271D02*
X-3213101Y+2802271D01*
X-3162301Y+2802271D02*
X-3121661Y+2802271D01*
X-3086101Y+2802271D02*
X-3050541Y+2802271D01*
X-2984501Y+2802271D02*
X-2948941Y+2802271D01*
X-2877821Y+2802271D02*
X-2842261Y+2802271D01*
X-2760981Y+2802271D02*
X-2700021Y+2802271D01*
X-2659381Y+2802271D02*
X-2628901Y+2802271D01*
X-2598421Y+2802271D02*
X-2562861Y+2802271D01*
X-2506981Y+2802271D02*
X-2466341Y+2802271D01*
X-3538221Y+2807351D02*
X-3507741Y+2807351D01*
X-3502661Y+2807351D02*
X-3467101Y+2807351D01*
X-3401061Y+2807351D02*
X-3365501Y+2807351D01*
X-3319781Y+2807351D02*
X-3279141Y+2807351D01*
X-3248661Y+2807351D02*
X-3213101Y+2807351D01*
X-3167381Y+2807351D02*
X-3121661Y+2807351D01*
X-3086101Y+2807351D02*
X-3050541Y+2807351D01*
X-2984501Y+2807351D02*
X-2948941Y+2807351D01*
X-2877821Y+2807351D02*
X-2842261Y+2807351D01*
X-2760981Y+2807351D02*
X-2700021Y+2807351D01*
X-2659381Y+2807351D02*
X-2628901Y+2807351D01*
X-2598421Y+2807351D02*
X-2562861Y+2807351D01*
X-2506981Y+2807351D02*
X-2471421Y+2807351D01*
X-3538221Y+2812431D02*
X-3507741Y+2812431D01*
X-3502661Y+2812431D02*
X-3467101Y+2812431D01*
X-3401061Y+2812431D02*
X-3365501Y+2812431D01*
X-3329941Y+2812431D02*
X-3284221Y+2812431D01*
X-3248661Y+2812431D02*
X-3213101Y+2812431D01*
X-3177541Y+2812431D02*
X-3121661Y+2812431D01*
X-3086101Y+2812431D02*
X-3050541Y+2812431D01*
X-2984501Y+2812431D02*
X-2948941Y+2812431D01*
X-2877821Y+2812431D02*
X-2842261Y+2812431D01*
X-2760981Y+2812431D02*
X-2705101Y+2812431D01*
X-2659381Y+2812431D02*
X-2628901Y+2812431D01*
X-2598421Y+2812431D02*
X-2557781Y+2812431D01*
X-2512061Y+2812431D02*
X-2471421Y+2812431D01*
X-3538221Y+2817511D02*
X-3472181Y+2817511D01*
X-3401061Y+2817511D02*
X-3284221Y+2817511D01*
X-3248661Y+2817511D02*
X-3126741Y+2817511D01*
X-3086101Y+2817511D02*
X-3050541Y+2817511D01*
X-2984501Y+2817511D02*
X-2948941Y+2817511D01*
X-2918461Y+2817511D02*
X-2801621Y+2817511D01*
X-2760981Y+2817511D02*
X-2705101Y+2817511D01*
X-2659381Y+2817511D02*
X-2628901Y+2817511D01*
X-2593341Y+2817511D02*
X-2547621Y+2817511D01*
X-2522221Y+2817511D02*
X-2476501Y+2817511D01*
X-3533141Y+2822591D02*
X-3472181Y+2822591D01*
X-3401061Y+2822591D02*
X-3284221Y+2822591D01*
X-3248661Y+2822591D02*
X-3131821Y+2822591D01*
X-3086101Y+2822591D02*
X-3050541Y+2822591D01*
X-2984501Y+2822591D02*
X-2948941Y+2822591D01*
X-2918461Y+2822591D02*
X-2801621Y+2822591D01*
X-2760981Y+2822591D02*
X-2710181Y+2822591D01*
X-2659381Y+2822591D02*
X-2628901Y+2822591D01*
X-2588261Y+2822591D02*
X-2476501Y+2822591D01*
X-3533141Y+2827671D02*
X-3472181Y+2827671D01*
X-3401061Y+2827671D02*
X-3289301Y+2827671D01*
X-3248661Y+2827671D02*
X-3136901Y+2827671D01*
X-3086101Y+2827671D02*
X-3050541Y+2827671D01*
X-2984501Y+2827671D02*
X-2948941Y+2827671D01*
X-2918461Y+2827671D02*
X-2801621Y+2827671D01*
X-2760981Y+2827671D02*
X-2710181Y+2827671D01*
X-2659381Y+2827671D02*
X-2628901Y+2827671D01*
X-2588261Y+2827671D02*
X-2481581Y+2827671D01*
X-3533141Y+2832751D02*
X-3477261Y+2832751D01*
X-3401061Y+2832751D02*
X-3294381Y+2832751D01*
X-3248661Y+2832751D02*
X-3141981Y+2832751D01*
X-3086101Y+2832751D02*
X-3050541Y+2832751D01*
X-2984501Y+2832751D02*
X-2948941Y+2832751D01*
X-2918461Y+2832751D02*
X-2801621Y+2832751D01*
X-2760981Y+2832751D02*
X-2715261Y+2832751D01*
X-2659381Y+2832751D02*
X-2628901Y+2832751D01*
X-2583181Y+2832751D02*
X-2486661Y+2832751D01*
X-3533141Y+2837831D02*
X-3477261Y+2837831D01*
X-3401061Y+2837831D02*
X-3304541Y+2837831D01*
X-3248661Y+2837831D02*
X-3152141Y+2837831D01*
X-3086101Y+2837831D02*
X-3050541Y+2837831D01*
X-2984501Y+2837831D02*
X-2948941Y+2837831D01*
X-2918461Y+2837831D02*
X-2801621Y+2837831D01*
X-2760981Y+2837831D02*
X-2715261Y+2837831D01*
X-2659381Y+2837831D02*
X-2628901Y+2837831D01*
X-2573021Y+2837831D02*
X-2491741Y+2837831D01*
X-3528061Y+2842911D02*
X-3477261Y+2842911D01*
X-3401061Y+2842911D02*
X-3319781Y+2842911D01*
X-3248661Y+2842911D02*
X-3167381Y+2842911D01*
X-3086101Y+2842911D02*
X-3050541Y+2842911D01*
X-2984501Y+2842911D02*
X-2948941Y+2842911D01*
X-2918461Y+2842911D02*
X-2801621Y+2842911D01*
X-2760981Y+2842911D02*
X-2720341Y+2842911D01*
X-2659381Y+2842911D02*
X-2628901Y+2842911D01*
X-2567941Y+2842911D02*
X-2501901Y+2842911D01*
X-2552701Y+2847991D02*
X-2512061Y+2847991D01*
X-2526007Y+3402314D02*
X-2520927Y+3402314D01*
X-2505687Y+3402314D02*
X-2500607Y+3402314D01*
X-2495527Y+3402314D02*
X-2490447Y+3402314D01*
X-2485367Y+3402314D02*
X-2480287Y+3402314D01*
X-2526007Y+3407394D02*
X-2520927Y+3407394D01*
X-2505687Y+3407394D02*
X-2500607Y+3407394D01*
X-2495527Y+3407394D02*
X-2490447Y+3407394D01*
X-2485367Y+3407394D02*
X-2480287Y+3407394D01*
X-2526007Y+3412474D02*
X-2520927Y+3412474D01*
X-2505687Y+3412474D02*
X-2495527Y+3412474D01*
X-2490447Y+3412474D02*
X-2480287Y+3412474D01*
X-2526007Y+3417554D02*
X-2520927Y+3417554D01*
X-2505687Y+3417554D02*
X-2495527Y+3417554D01*
X-2490447Y+3417554D02*
X-2480287Y+3417554D01*
X-2526007Y+3422634D02*
X-2520927Y+3422634D01*
X-2505687Y+3422634D02*
X-2495527Y+3422634D01*
X-2490447Y+3422634D02*
X-2480287Y+3422634D01*
X-2536167Y+3427714D02*
X-2510767Y+3427714D01*
X-2505687Y+3427714D02*
X-2495527Y+3427714D01*
X-2490447Y+3427714D02*
X-2480287Y+3427714D01*
D21*
X-2526120Y+3192129D02*
X-2525209Y+3156009D01*
X-2531555Y+3120310D01*
X-2544492Y+3085974D01*
X-2563352Y+3053942D01*
X-2587467Y+3025156D01*
X-2616170Y+3000559D01*
X-2648794Y+2981092D01*
X-2684671Y+2967696D01*
X-2723134Y+2961314D01*
X-2763516Y+2962887D01*
X-2805149Y+2973357D01*
X-2847365Y+2993667D01*
X-2889498Y+3024757D01*
X-2930880Y+3067569D01*
X-2970843Y+3123046D01*
X-3008720Y+3192129D01*
X-3516720Y+3192129D02*
X-3517631Y+3156009D01*
X-3511285Y+3120310D01*
X-3498348Y+3085974D01*
X-3479488Y+3053942D01*
X-3455373Y+3025156D01*
X-3426670Y+3000559D01*
X-3394046Y+2981092D01*
X-3358169Y+2967696D01*
X-3319706Y+2961314D01*
X-3279324Y+2962887D01*
X-3237691Y+2973357D01*
X-3195475Y+2993667D01*
X-3153342Y+3024757D01*
X-3111960Y+3067569D01*
X-3071997Y+3123046D01*
X-3034120Y+3192129D01*
X-2526120Y+3141329D02*
X-2525209Y+3177449D01*
X-2531555Y+3213148D01*
X-2544492Y+3247484D01*
X-2563352Y+3279516D01*
X-2587467Y+3308302D01*
X-2616170Y+3332899D01*
X-2648794Y+3352366D01*
X-2684671Y+3365762D01*
X-2723134Y+3372144D01*
X-2763516Y+3370571D01*
X-2805149Y+3360101D01*
X-2847365Y+3339791D01*
X-2889498Y+3308701D01*
X-2930880Y+3265889D01*
X-2970843Y+3210412D01*
X-3008720Y+3141329D01*
X-3516720Y+3141329D02*
X-3517631Y+3177449D01*
X-3511285Y+3213148D01*
X-3498348Y+3247484D01*
X-3479488Y+3279516D01*
X-3455373Y+3308302D01*
X-3426670Y+3332899D01*
X-3394046Y+3352366D01*
X-3358169Y+3365762D01*
X-3319706Y+3372144D01*
X-3279324Y+3370571D01*
X-3237691Y+3360101D01*
X-3195475Y+3339791D01*
X-3153342Y+3308701D01*
X-3111960Y+3265889D01*
X-3071997Y+3210412D01*
X-3034120Y+3141329D01*
D20*
X-3542120Y+3115929D02*
X-3551216Y+3155543D01*
X-3550519Y+3196653D01*
X-3540916Y+3237851D01*
X-3523293Y+3277730D01*
X-3498536Y+3314884D01*
X-3467530Y+3347906D01*
X-3431161Y+3375388D01*
X-3390316Y+3395924D01*
X-3345880Y+3408108D01*
X-3298740Y+3410531D01*
X-3249781Y+3401788D01*
X-3199890Y+3380471D01*
X-3149952Y+3345174D01*
X-3100854Y+3294489D01*
X-3053481Y+3227009D01*
X-3008720Y+3141329D01*
D17*
X-2919820Y+787400D02*
X-3021420Y+660400D01*
D70*
X-3655220Y+4163060D02*
X-3909220Y+4163060D01*
D17*
X-3128090Y+4554220D02*
X-3128090Y+4490720D01*
X-3114755Y+4478020D01*
X-3061415Y+4478020D01*
X-3048080Y+4490720D01*
X-3048080Y+4554220D01*
X-3008075Y+4541520D02*
X-2994740Y+4554220D01*
X-2954735Y+4554220D01*
X-2941400Y+4541520D01*
X-2941400Y+4528820D01*
X-2954735Y+4516120D01*
X-2994740Y+4516120D01*
X-3008075Y+4503420D01*
X-3008075Y+4478020D01*
X-2941400Y+4478020D01*
X-1651000Y+2413000D02*
X-1016000Y+2413000D01*
X-1016000Y+3937000D01*
X-1651000Y+3937000D01*
X-1651000Y+2413000D01*
X-1143000Y+3937000D02*
X-1143000Y+2413000D01*
X-934720Y+3068320D02*
X-922020Y+3068320D01*
X-909320Y+3081655D01*
X-909320Y+3134995D01*
X-922020Y+3148330D01*
X-985520Y+3148330D01*
X-960120Y+3201670D02*
X-985520Y+3228340D01*
X-909320Y+3228340D01*
X-4953000Y+2413000D02*
X-4318000Y+2413000D01*
X-4318000Y+3937000D01*
X-4953000Y+3937000D01*
X-4953000Y+2413000D01*
X-4445000Y+3937000D02*
X-4445000Y+2413000D01*
X-4236720Y+3068320D02*
X-4224020Y+3068320D01*
X-4211320Y+3081655D01*
X-4211320Y+3134995D01*
X-4224020Y+3148330D01*
X-4287520Y+3148330D01*
X-4274820Y+3188335D02*
X-4287520Y+3201670D01*
X-4287520Y+3241675D01*
X-4274820Y+3255010D01*
X-4262120Y+3255010D01*
X-4249420Y+3241675D01*
X-4249420Y+3201670D01*
X-4236720Y+3188335D01*
X-4211320Y+3188335D01*
X-4211320Y+3255010D01*
X-1905000Y+635000D02*
X-1143000Y+635000D01*
X-1143000Y+1270000D01*
X-1905000Y+1270000D01*
X-1905000Y+635000D01*
X-1905000Y+1143000D02*
X-1143000Y+1143000D01*
X-1630680Y+1325880D02*
X-1630680Y+1313180D01*
X-1617345Y+1300480D01*
X-1564005Y+1300480D01*
X-1550670Y+1313180D01*
X-1550670Y+1376680D01*
X-1443990Y+1325880D02*
X-1524000Y+1325880D01*
X-1470660Y+1376680D01*
X-1470660Y+1300480D01*
X-1016000Y+1651000D02*
X-1016000Y+635000D01*
X+0Y+1651000D02*
X+0Y+635000D01*
X-1016000Y+635000D02*
X+0Y+635000D01*
X-1016000Y+1651000D02*
X+0Y+1651000D01*
X-614680Y+1706880D02*
X-614680Y+1694180D01*
X-601345Y+1681480D01*
X-548005Y+1681480D01*
X-534670Y+1694180D01*
X-534670Y+1757680D01*
X-494665Y+1744980D02*
X-481330Y+1757680D01*
X-441325Y+1757680D01*
X-427990Y+1744980D01*
X-427990Y+1732280D01*
X-441325Y+1719580D01*
X-427990Y+1706880D01*
X-427990Y+1694180D01*
X-441325Y+1681480D01*
X-481330Y+1681480D01*
X-494665Y+1694180D01*
X-467995Y+1719580D02*
X-441325Y+1719580D01*
X-5207000Y+0D02*
X+0Y+0D01*
X+0Y+7874000D01*
X-5207000Y+7874000D01*
X-5207000Y+0D01*
M02*
