G04 PROTEUS RS274X GERBER FILE*
%FSLAX45Y45*%
%MOMM*%
G01*
%ADD10C,1.524000*%
%ADD11C,0.762000*%
%ADD12R,2.032000X2.032000*%
%ADD13C,1.524000*%
%ADD14C,0.000000*%
%ADD15C,2.032000*%
%ADD16C,3.048000*%
%ADD17C,0.101600*%
D10*
X-2924306Y+741441D02*
X-2924306Y+1211812D01*
X-2929839Y+1217345D01*
X-2682595Y+1193037D02*
X-2684452Y+1191180D01*
X-2684452Y+535756D01*
X-3779465Y+5262258D02*
X-4678849Y+5262258D01*
X-4682660Y+5266069D01*
X-3811737Y+4552201D02*
X-3829430Y+4534508D01*
X-4700692Y+4534508D01*
X-3857360Y+4886890D02*
X-3843464Y+4900786D01*
X-3279821Y+4900786D01*
X-3998785Y+1381008D02*
X-3998785Y+792064D01*
X-4003139Y+787710D01*
X-1338848Y+2148897D02*
X-1603867Y+2413916D01*
X-1605173Y+2413916D01*
D11*
X-2924306Y+741441D03*
X-2929839Y+1217345D03*
X-2682595Y+1193037D03*
X-2684452Y+535756D03*
X-3779465Y+5262258D03*
X-4682660Y+5266069D03*
X-3811737Y+4552201D03*
X-4700692Y+4534508D03*
X-3857360Y+4886890D03*
X-3279821Y+4900786D03*
X-3998785Y+1381008D03*
X-4003139Y+787710D03*
X-1338848Y+2148897D03*
X-1605173Y+2413916D03*
D12*
X-3443414Y+5262939D03*
X-3443414Y+5516939D03*
X-3189414Y+5262939D03*
X-3189414Y+5516939D03*
X-2935414Y+5262939D03*
X-2935414Y+5516939D03*
X-2681414Y+5262939D03*
X-2681414Y+5516939D03*
X-3782220Y+4292600D03*
D13*
X-3782220Y+4038600D03*
D14*
X-3782220Y+4038600D03*
D13*
X-3782220Y+3784600D03*
D14*
X-3782220Y+3784600D03*
D13*
X-3782220Y+3530600D03*
D14*
X-3782220Y+3530600D03*
D13*
X-3782220Y+3276600D03*
D14*
X-3782220Y+3276600D03*
D13*
X-3782220Y+3022600D03*
D14*
X-3782220Y+3022600D03*
D13*
X-3782220Y+2768600D03*
D14*
X-3782220Y+2768600D03*
D13*
X-3782220Y+2514600D03*
D14*
X-3782220Y+2514600D03*
D13*
X-3782220Y+2260600D03*
D14*
X-3782220Y+2260600D03*
D13*
X-3782220Y+2006600D03*
D14*
X-3782220Y+2006600D03*
D13*
X-3782220Y+1752600D03*
D14*
X-3782220Y+1752600D03*
D13*
X-3782220Y+1498600D03*
D14*
X-3782220Y+1498600D03*
D13*
X-3782220Y+1244600D03*
D14*
X-3782220Y+1244600D03*
D13*
X-3782220Y+990600D03*
D14*
X-3782220Y+990600D03*
D13*
X-3782220Y+736600D03*
D14*
X-3782220Y+736600D03*
D13*
X-2260600Y+736600D03*
D14*
X-2260600Y+736600D03*
D13*
X-2260600Y+990600D03*
D14*
X-2260600Y+990600D03*
D13*
X-2260600Y+1244600D03*
D14*
X-2260600Y+1244600D03*
D13*
X-2260600Y+1498600D03*
D14*
X-2260600Y+1498600D03*
D13*
X-2260600Y+1752600D03*
D14*
X-2260600Y+1752600D03*
D13*
X-2260600Y+2006600D03*
D14*
X-2260600Y+2006600D03*
D13*
X-2260600Y+2260600D03*
D14*
X-2260600Y+2260600D03*
D13*
X-2260600Y+2514600D03*
D14*
X-2260600Y+2514600D03*
D13*
X-2260600Y+2768600D03*
D14*
X-2260600Y+2768600D03*
D13*
X-2260600Y+3022600D03*
D14*
X-2260600Y+3022600D03*
D13*
X-2260600Y+3276600D03*
D14*
X-2260600Y+3276600D03*
D13*
X-2260600Y+3530600D03*
D14*
X-2260600Y+3530600D03*
D13*
X-2260600Y+3784600D03*
D14*
X-2260600Y+3784600D03*
D13*
X-2260600Y+4038600D03*
D14*
X-2260600Y+4038600D03*
D13*
X-2260600Y+4292600D03*
D14*
X-2260600Y+4292600D03*
D15*
X-1397000Y+3683000D03*
X-1397000Y+3429000D03*
X-1397000Y+3175000D03*
X-1397000Y+2921000D03*
X-1397000Y+2667000D03*
X-4699000Y+3683000D03*
X-4699000Y+3429000D03*
X-4699000Y+3175000D03*
X-4699000Y+2921000D03*
X-4699000Y+2667000D03*
X-1651000Y+889000D03*
X-1397000Y+889000D03*
D16*
X-762000Y+1143000D03*
X-254000Y+1143000D03*
D17*
X-5207000Y+0D02*
X+0Y+0D01*
X+0Y+7874000D01*
X-5207000Y+7874000D01*
X-5207000Y+0D01*
M02*
