M48
METRIC,TZ
T01C0.3810
T02C1.0160
T03C0.9650
T04C1.5240
%
T01
X-29243Y+7414
X-29298Y+12173
X-26826Y+11930
X-26845Y+5358
X-37795Y+52623
X-46827Y+52661
X-38117Y+45522
X-47007Y+45345
X-38574Y+48869
X-32798Y+49008
X-39988Y+13810
X-40031Y+7877
X-13388Y+21489
X-16052Y+24139
T02
X-34434Y+52629
X-34434Y+55169
X-31894Y+52629
X-31894Y+55169
X-29354Y+52629
X-29354Y+55169
X-26814Y+52629
X-26814Y+55169
X-37822Y+42926
X-13970Y+36830
X-13970Y+34290
X-13970Y+31750
X-13970Y+29210
X-13970Y+26670
X-46990Y+36830
X-46990Y+34290
X-46990Y+31750
X-46990Y+29210
X-46990Y+26670
X-16510Y+8890
X-13970Y+8890
T03
X-37822Y+40386
X-37822Y+37846
X-37822Y+35306
X-37822Y+32766
X-37822Y+30226
X-37822Y+27686
X-37822Y+25146
X-37822Y+22606
X-37822Y+20066
X-37822Y+17526
X-37822Y+14986
X-37822Y+12446
X-37822Y+9906
X-37822Y+7366
X-22606Y+7366
X-22606Y+9906
X-22606Y+12446
X-22606Y+14986
X-22606Y+17526
X-22606Y+20066
X-22606Y+22606
X-22606Y+25146
X-22606Y+27686
X-22606Y+30226
X-22606Y+32766
X-22606Y+35306
X-22606Y+37846
X-22606Y+40386
X-22606Y+42926
T04
X-7620Y+11430
X-2540Y+11430
M30
